<svg xmlns="http://www.w3.org/2000/svg" id="Layer_1" viewBox="0 0 66.47 112.62"><defs><style>.cls-2{stroke-width:0;fill:#53dce0}</style></defs><path d="M32.69 32.34s-4.11-2.81-2.26-5.49c2.15-3.1 17.98-.49 19.29 2.28 1.3 2.77-3.34 4.62-3.53 5.17s-1.36 28.04-.04 29.69 21.38 42.46 18.19 46.86-61.51-.13-64.16-5.32S25.76 65.6 27.56 61.32s5.14-28.97 5.14-28.97Z" class="cls-2"/><path d="M46.94 29.76c-.05.62-3.2.88-7.04.59s-6.92-1.03-6.87-1.65 3.2-.88 7.04-.59 6.92 1.03 6.88 1.65Z" style="stroke-width:0;fill:#00979a"/><path d="M32.21 36.28c.52.04 1.05.11 1.57.17l1.55.21c1.03.16 2.06.29 3.13.53.17.04.27.2.24.37a.33.33 0 0 1-.23.24c-1.09.27-2.22.26-3.32.12-.55-.08-1.09-.2-1.62-.38s-1.04-.38-1.54-.7a.317.317 0 0 1-.09-.43c.06-.1.17-.15.28-.14h.02Zm-.54 4.96c.48 0 .95.05 1.41.09s.92.11 1.37.17c.45.08.9.13 1.35.22.45.08.9.14 1.37.24h.02c.17.04.27.21.24.38-.02.11-.11.19-.2.23-.96.33-1.98.32-2.95.19-.48-.08-.96-.17-1.43-.33-.46-.16-.92-.33-1.35-.61a.31.31 0 0 1-.1-.43c.06-.09.16-.14.26-.15h.02Zm-1.04 5.21c.5-.01 1 .03 1.49.07.49.03.97.1 1.45.16.96.14 1.9.26 2.88.44h.01c.17.03.28.19.25.36-.02.12-.1.2-.21.24-1.02.34-2.08.33-3.1.22-.51-.07-1.01-.16-1.5-.32-.49-.15-.97-.32-1.44-.58a.324.324 0 0 1-.12-.43c.06-.1.16-.15.26-.16h.01Zm-.64 5.66c.48.02.94.08 1.4.13.46.04.92.1 1.38.15.92.12 1.85.24 2.78.47h.01c.17.05.27.22.23.38-.03.11-.11.19-.22.22-.98.27-1.97.28-2.96.18-.49-.06-.98-.16-1.46-.32s-.95-.36-1.37-.66c-.14-.1-.17-.3-.07-.44.06-.09.17-.14.27-.13H30Zm4.97 6.28c-.54.16-1.08.23-1.62.28s-1.09.05-1.63.02c-1.08-.08-2.18-.26-3.2-.73a.307.307 0 0 1-.15-.41c.05-.11.15-.17.26-.18h.01c.54-.03 1.06 0 1.59 0 .52 0 1.04.04 1.57.06.52.04 1.04.06 1.57.13.52.06 1.05.12 1.58.23.17.04.27.21.24.37-.03.11-.11.2-.21.23Z" style="stroke-width:0;fill:#36747a"/><path d="M24.74 72.26c-1.44.89-19.23 27.19-17.92 29.03 2.95 4.13 48.13 7.86 50.8 3.99C59 103.27 46.56 72.8 44.82 72.6c-2.67-.31-3.77 2.65-5.31 2.02s-2.14-2.18-4.85-2.34-2.79 1.61-4.37 1.24-3.57-2.49-5.56-1.26Z" style="stroke-width:0;fill:#00ac68"/><path d="M53.54 58.33c.55-1.61.44-3.36.48-5.04.04-1.72.07-3.43.04-5.14-.05-3.39-.15-6.77-.45-10.15-.06-.7-1.16-.61-1.2.07-.22 3.36-.33 6.72-.51 10.08-.09 1.66-.15 3.31-.23 4.97-.08 1.68-.34 3.42.04 5.07.21.9 1.52 1.06 1.84.13Zm5.29-.08c.66-2.83.34-5.82.17-8.7-.17-2.92-.41-5.83-.72-8.74-.07-.68-1.23-.62-1.2.07.09 2.88.13 5.76.09 8.65-.03 2.85-.36 5.81.18 8.62.14.7 1.29.88 1.47.11Z" style="fill:#494344;stroke-width:0"/><path d="M53.39 9.82c.64-1.59.69-3.37.59-5.06-.09-1.55-.28-3.42-2.03-3.91-.48-.13-.96.52-.54.88.81.7.92 1.99.98 2.99.07 1.22.1 2.48-.19 3.68-.54 2.22-2.24 4.01-4.66 3.64-2.07-.32-4.29-1.81-4.97-3.85-.63-1.88-.15-4.05 1.26-5.46 1.58-1.59 4.25-2.07 6.34-1.35.26.09.42-.29.19-.43-2.18-1.36-4.91-1.24-7.01.23-2.17 1.52-3.05 4.33-2.44 6.87.65 2.74 3.17 4.75 5.84 5.39 1.32.31 2.73.25 3.94-.4 1.28-.69 2.18-1.89 2.71-3.21Zm-13.98 8.07c.2-1.41-.12-2.85-.79-4.1-.33-.62-.76-1.2-1.22-1.73-.48-.54-1.21-1.37-2.01-1.14-.11.03-.19.08-.27.13-1.89-.51-4.03.09-5.38 1.55-1.61 1.74-2.65 4.51-1.88 6.85.9 2.71 3.87 3.39 6.43 3.1 2.62-.29 4.72-1.98 5.11-4.67Zm-4.54 2.49c-1.48.39-3.9.4-4.85-1.03-.96-1.45-.34-3.57.51-4.91.94-1.48 2.54-2.55 4.26-2.48.07.41.4.75.68 1.05.34.37.69.73.97 1.15.51.75.9 1.62.96 2.53.13 1.76-.81 3.24-2.54 3.69Zm-7.92 16.05c-.45-1.28-1.26-2.56-2.52-3.17-1.19-.57-2.97-.56-3.56.82a.54.54 0 0 0 .04.48c-1.57.34-2.93 1.56-3.36 3.13-.55 2.01.5 4.15 2.23 5.21 1.83 1.13 4.13.8 5.74-.57 1.71-1.46 2.16-3.83 1.43-5.91Zm-2.26 4.49c-.98.99-2.48 1.43-3.77.81-1.2-.57-2.09-1.89-1.94-3.25.18-1.55 1.47-2.88 3.02-3.08.31-.04.4-.32.33-.57.46-.14.89-.24 1.4.01.79.39 1.32 1.26 1.62 2.06.51 1.36.41 2.95-.65 4.02ZM66.45 75.4c.1-.85-.11-1.78-.55-2.51-.59-.98-1.51-1.66-2.68-1.7-.53-.02-1.11.1-1.56.39-.07.04-.11.1-.17.15-.17 0-.35.01-.52.05-1.08.24-1.82 1.11-2.18 2.11-.33.9-.28 1.89.21 2.72.42.73 1.02 1.35 1.75 1.78 1.47.87 3.4.52 4.56-.71.62-.66 1.04-1.39 1.14-2.3Zm-4.82 2.26c-.5-.22-.87-.59-1.12-1.07a2.4 2.4 0 0 1-.23-.76v-.09c0-.09-.01-.18-.02-.27s-.02-.24-.01-.44c.03-.63.34-1.15.82-1.53.24.36.87.35 1.11-.03 0 0 .08-.1.09-.12.02-.02.05-.04.07-.06.04-.02.12-.06.11-.06.02-.01.05-.03.07-.04.13.04.27.09.39.18.3.2.63.02.77-.24.07.03.13.06.2.1.12.06.23.14.33.21.02.02.12.1.13.1.06.06.13.12.18.19.33.36.59.91.66 1.47.06.55-.06 1.17-.4 1.63-.68.92-2.1 1.29-3.14.84Z" class="cls-2"/></svg>