<svg xmlns="http://www.w3.org/2000/svg" viewBox="0 0 116.86 112.62"><defs><style>.cls-4,.cls-8{stroke-width:0}.cls-4{fill:#d9334a}.cls-8{fill:#ff7986}</style></defs><g style="isolation:isolate"><g id="Layer_1"><path d="M16.81 10.02c2.63-.87 3.59 5.81 1.95 6.02-1.36.17-5.25-4.93-1.95-6.02m-4.72 6.92c1.08-2.53 5.4-.04 5.09 1.31-.3 1.36-6.18 1.22-5.09-1.31" class="cls-8"/><path d="M27.52 65.26s18.21-12.97 13.21-39.27c2.44 4.15 4.61 13.33 5.94 14.96 1.32 1.63 12.18-.82 12.4-2.04.49-2.58-5.13-17.91-5.13-17.91 7.68 12.06 7.2 17.08 8.13 17.32 2.8.69 14.82-2.36 15.07-3.65.26-1.29-7.02-16.26-7.02-16.26 6.98 7.09 7.72 14.56 9.02 15.51.29.21 1.16.23 2.35.09s4.76 12.8 6.56 16.14c1.19 2.21 7.81 6.47 8.81 15.89.92 8.65-5.47 18.38-17.77 23.84-5.41 2.4-11.96 3.99-19.52 4.28-1.8.07-3.5 0-5.11-.17-16.42-1.71-23.38-14.58-23.38-14.58s-4.55 3.77-10.17 2.05c-7.89-2.43-9.44-14.76-3.23-18.39 4.26-2.49 8.24.64 9.82 2.18Z" style="stroke-width:0;fill:#ffdddc"/><path d="M104.46 61.45c8.14 12.61 12.42 12.66 12.41 14.78-.01 2.11-5.55 12.69-13.52 14.68-2.26.57-6.89-6.13-6.89-6.13s1.13 5.41 3.83 8.05c0 0-5.56 7.59-13.86 6.24-3.52-.57-7.31-9.21-7.31-9.21 12.29-5.46 18.69-15.19 17.77-23.84-.99-9.42-7.62-13.68-8.81-15.89C86.28 46.79 81.52 34 81.52 34c2.03-.24 4.99-.89 7.63-1.75 1.43 3.06 9.47 20.14 15.31 29.19Z" style="stroke-width:0;fill:#ff667d"/><path d="M20.3 100.32c-.26 3.45-2.17 10.1-4.35 10.89-2.41.86-14.29-4.49-15.78-6.27-1.48-1.77 7.27-13.37 7.86-25.29.6-11.92-3.94-32.32 1.09-45.7 5.05-13.37 15.52-13.02 15.52-13.02s-2.89-6.56 2.96-12.31C33.46 2.88 61.28-3.79 75.19 2.6s20.84 23.58 19.8 26.37c-.43 1.15-2.94 2.34-5.85 3.29-2.64.85-5.6 1.51-7.63 1.74-1.19.14-2.07.13-2.35-.09-1.3-.95-2.04-8.42-9.02-15.51 0 0 7.29 14.97 7.02 16.26-.25 1.29-12.27 4.34-15.07 3.65-.94-.24-.46-5.26-8.13-17.32 0 0 5.61 15.33 5.13 17.91-.22 1.21-11.08 3.67-12.4 2.04-1.33-1.63-3.5-10.81-5.94-14.96 4.99 26.3-13.21 39.27-13.21 39.27-1.58-1.54-5.57-4.67-9.82-2.18-6.21 3.63-4.66 15.96 3.23 18.39 5.62 1.73 10.17-2.05 10.17-2.05s6.96 12.86 23.38 14.58c.59 2.55 1.02 10.61-.18 12.86-1.18 2.25-11.45 3.52-11.55 2.72-.88-6.96-2.39-10.62-2.39-10.62.27 1.08.24 9.14-1.36 12s-17.74 1.4-18.35.36c-.49-.85-.41-8.31-.36-10.99Z" class="cls-8"/><path d="M40.96 71.74c-.53-4.66 2.82-8.87 7.48-9.39 4.66-.53 8.87 2.82 9.39 7.48.53 4.66-2.82 8.87-7.48 9.39-4.66.53-8.86-2.82-9.39-7.48m36.92-5.55c-.53-4.66 2.82-8.87 7.48-9.39 4.66-.53 8.87 2.82 9.39 7.48.53 4.66-2.82 8.87-7.48 9.39-4.66.53-8.87-2.82-9.39-7.48" style="stroke-width:0;opacity:.41;fill:#f17282;mix-blend-mode:multiply"/><path d="M49.44 45.64c2.18.14 2.42 1.83 1.74 2.61-.96 1.11-1.84 1.07-3.58 2.25-3.25 2.19-3.91 3.57-4.77 2.33-1.39-2.01 2.23-7.47 6.62-7.19Zm20.63-5.02c-1.83 1.19-1.2 2.78-.23 3.13 1.38.49 2.13.03 4.23.2 3.9.31 5.16 1.18 5.3-.32.22-2.44-5.61-5.4-9.3-3Z" style="stroke-width:0;fill:#5f2d35"/><path d="M25.58 70.28c-.57-.45-1.17-.89-1.76-1.23s-1.19-.58-1.8-.69c-.6-.11-1.23-.13-1.88.03-.33.03-.65.19-1 .26-.34.11-.68.27-1.06.38l-.08.02a.477.477 0 0 1-.59-.34c-.05-.16 0-.33.11-.45q.42-.48.93-.9c.38-.23.72-.52 1.17-.66.83-.39 1.84-.47 2.78-.32.95.18 1.81.62 2.48 1.22.68.6 1.2 1.3 1.51 2.16.09.25-.04.53-.29.62-.16.06-.34.03-.47-.07l-.05-.04Z" style="stroke-width:0;fill:#7e242d"/><path d="M63.21 60.64c.55 1.62 2.51 2.43 4.36 1.79 1.86-.63 2.91-2.46 2.36-4.08s-2.51-2.43-4.36-1.79c-1.86.63-2.91 2.46-2.36 4.08" style="fill:#f3868a;stroke-width:0;opacity:.41"/><path d="M67.72 56.2c.66.07 1.26.34 1.78.77s.89 1.07 1.02 1.74c.16.68 0 1.46-.36 2.01a3.8 3.8 0 0 1-1.37 1.34c-.12.07-.26.02-.33-.09a.24.24 0 0 1 .02-.27l.02-.02c.35-.42.68-.89.88-1.36.2-.48.27-.93.16-1.41-.08-.49-.32-.92-.65-1.31-.34-.37-.8-.7-1.28-.94h-.03c-.12-.07-.17-.22-.11-.33.05-.09.14-.14.24-.13Z" style="stroke-width:0;fill:#cf5d55"/><path d="M75.47 66.06c-.82 2.19-2.36 3.99-4.3 5.29-1.94 1.28-4.25 1.97-6.54 2.12-2.29.13-4.63-.2-6.74-1.11-2.12-.89-3.99-2.25-5.4-4.07a.486.486 0 0 1 .08-.67c.18-.14.44-.13.6.02l.04.04c.75.65 1.61 1.29 2.51 1.78.89.51 1.83.94 2.79 1.26 1.92.66 3.96.89 5.98.77 2.02-.13 3.99-.67 5.74-1.64.88-.48 1.68-1.1 2.42-1.8.75-.68 1.41-1.51 1.93-2.34l.03-.05c.14-.22.43-.29.65-.15.19.12.27.36.19.57Zm-20.8-11.94s-.14-.07-.4-.14c-.25-.08-.62-.16-1.08-.18-.23 0-.48-.01-.75.03-.27.02-.56.1-.85.19-.29.12-.6.22-.87.43-.26.15-.47.36-.69.57-.19-.02-.37-.03-.54-.08-.18-.06-.37-.1-.54-.22-.18-.1-.37-.23-.54-.39-.18-.15-.37-.34-.54-.5l-.04-.03a.33.33 0 0 0-.27-.09c-.17.03-.29.19-.26.36.1.64.43 1.18.94 1.64.26.21.58.39.93.48.04.01.07 0 .11.02-.03.06-.05.12-.08.18-.17.04-.32.09-.48.1-.19 0-.38.03-.58-.02-.21-.03-.42-.09-.65-.18-.22-.08-.46-.19-.68-.29l-.05-.02a.31.31 0 0 0-.28.01c-.15.09-.21.28-.12.43.32.57.81.96 1.45 1.21.32.11.68.17 1.04.13.03 0 .05-.01.08-.02-.01.32-.05 1.19.41 2.62.61 1.91 2.26 3.14 3.88 2.7s2.5-2.36 1.98-4.3c-.5-1.85-2.11-3.02-3.66-2.74a.7.7 0 0 1 .19-.15c.14-.13.33-.22.5-.32.19-.06.36-.18.55-.22q.285-.09.54-.15c.35-.08.66-.12.87-.15.22-.03.33-.04.34-.04.3 0 .48-.11.53-.36a.447.447 0 0 0-.36-.53Zm25.9-8.42a.33.33 0 0 0-.21-.19.314.314 0 0 0-.39.22v.05c-.07.23-.15.49-.23.71s-.17.43-.27.61c-.09.19-.23.33-.35.46-.13.14-.29.24-.45.36l-.04.03-.15-.03c.04-.07.09-.12.12-.2.15-.32.21-.68.22-1.02-.03-.68-.24-1.28-.67-1.77a.35.35 0 0 0-.27-.11c-.17.02-.3.17-.29.34v.05c.03.24.05.5.05.74s0 .46-.05.67c-.02.21-.1.39-.17.56s-.36.62-.37.63h-.2c-.27.02-.56.1-.85.19-.29.12-.6.22-.87.43-.29.17-.53.42-.78.66-.22.26-.41.55-.56.84-.12.29-.27.59-.32.88-.06.29-.12.57-.14.84 0 .26-.08 1.18.41 2.7.61 1.91 2.26 3.14 3.88 2.7s2.5-2.36 1.98-4.3c-.5-1.85-2.11-3.02-3.66-2.74a.7.7 0 0 1 .19-.15c.14-.13.33-.22.5-.32.19-.06.36-.18.55-.22q.285-.09.54-.15c.35-.08 1.28-.11 1.42-.16.32-.12.65-.28.9-.55.25-.25.44-.57.56-.88.21-.65.22-1.28-.01-1.89Z" style="stroke-width:0;fill:#320000"/><path d="M36.35 20.29c.39 6.41-.48 12.89-2.71 18.92-2.21 5.98-5.74 11.14-9.77 16.03-.49.6.38 1.52.98.98 9.6-8.72 13.86-23.39 12.31-36.03-.06-.52-.84-.41-.8.1ZM12.93 82.57c-.64 3.9-1.56 7.76-2.57 11.58-.52 1.95-1.09 3.91-1.83 5.79-.74 1.87-1.67 3.66-2.37 5.55-.1.27.28.53.45.27 1.09-1.64 1.86-3.49 2.62-5.3.81-1.91 1.63-3.81 2.32-5.77 1.37-3.86 2.17-7.87 2.58-11.95.08-.79-1.09-.96-1.22-.18Zm4.62 1.97c-.39 5.49-1.94 10.79-2.97 16.17-.1.52.74.77.91.25 1.75-5.27 2.97-10.69 3.17-16.27.03-.71-1.06-.89-1.11-.16Zm8.29 4.75c-.18 3.18-.48 6.35-.63 9.53-.08 1.57-.17 3.13-.28 4.7-.11 1.54-.33 3.09-.21 4.63.03.35.62.47.72.1.44-1.54.51-3.15.65-4.75q.21-2.34.36-4.68c.21-3.17.12-6.35.02-9.52-.01-.36-.62-.37-.64 0Zm5.62-1.88c-.09-.5-.79-.4-.78.1.21 6.46.39 12.92.55 19.37 0 .37.59.36.64 0 .44-3.22.6-6.41.6-9.66 0-3.32-.43-6.56-1.01-9.82Zm4.74 3.88c-.08-.35-.36-.63-.75-.58-.35.04-.64.39-.58.75.19 1.1.3 2.22.32 3.34.02 1.11 0 2.22.04 3.33.03.56.96.71 1.12.16.17-.59.31-1.15.36-1.76.05-.6.04-1.19 0-1.79-.07-1.16-.25-2.31-.51-3.44Zm-6.51-70.17c-1.35 5.93-3.25 11.83-5.85 17.34a57 57 0 0 1-4.49 7.89c-1.71 2.5-3.85 4.68-5.52 7.18-.47.71.35 1.62 1.08 1.08 2.44-1.81 4.32-4.58 5.97-7.09 1.71-2.59 3.2-5.33 4.49-8.16 2.62-5.78 4.21-11.87 4.93-18.17.05-.4-.52-.47-.61-.09Z" class="cls-4"/><path d="M29.54 45.39c.82-1.75-12.48-8.19-13.49-5.44-1.18 3.19 12.42 7.73 13.49 5.44m2.53-7.9c.82-1.75-12.48-8.19-13.49-5.44-1.18 3.19 12.42 7.73 13.49 5.44" style="stroke-width:0;fill:#875785"/><path d="M53.39 19.96c1.97 2.78 3.74 5.7 5.34 8.72 1.54 3.04 2.98 6.17 3.84 9.53l-.49-.37c2.58-.11 5.18-.4 7.74-.83 1.28-.21 2.54-.52 3.77-.89 1.22-.38 2.45-.84 3.43-1.63.1-.09.25-.07.34.03.08.1.07.24-.03.33-1.02.93-2.28 1.47-3.52 1.93-1.25.46-2.54.78-3.84 1.05-2.59.54-5.21.83-7.86.98a.49.49 0 0 1-.49-.35v-.02c-.89-3.22-2.2-6.34-3.72-9.35a87 87 0 0 0-2.36-4.48c-.82-1.48-1.66-2.95-2.55-4.38a.24.24 0 0 1 .07-.33c.11-.07.25-.04.32.06Zm15.69-2.64c2.17 2.14 4.11 4.49 5.83 7.01 1.72 2.5 3.15 5.27 4.33 8.02.15.33.32.64.5.85.18.2.35.27.7.31.66.06 1.41.02 2.14-.07 1.47-.17 2.94-.47 4.38-.82 1.45-.36 2.88-.8 4.25-1.37 1.35-.56 2.75-1.25 3.58-2.38l.02-.03a.23.23 0 0 1 .33-.05c.1.07.13.22.06.32-.9 1.39-2.34 2.13-3.7 2.81-1.4.64-2.85 1.13-4.32 1.55s-2.97.73-4.5.92c-.77.1-1.53.16-2.38.09-.4 0-.99-.22-1.3-.61-.32-.36-.5-.73-.67-1.08-.63-1.41-1.2-2.76-1.91-4.09-.69-1.33-1.46-2.61-2.26-3.87s-1.67-2.49-2.58-3.68c-.9-1.2-1.85-2.38-2.85-3.48-.09-.1-.08-.25.02-.34.09-.09.24-.08.33 0Z" class="cls-4"/></g></g></svg>