<?xml version="1.0" encoding="UTF-8"?><svg id="Layer_1" xmlns="http://www.w3.org/2000/svg" viewBox="0 0 860 180"><defs><style>.cls-1{fill:#e41834;}.cls-1,.cls-2,.cls-3,.cls-4,.cls-5,.cls-6{stroke-width:0px;}.cls-2{fill:#b1ede8;}.cls-3{fill:#335db0;}.cls-4{fill:#ff4566;}.cls-5{fill:#ffc60a;}.cls-6{fill:#00b9c2;}</style></defs><rect class="cls-2" width="860" height="180"/><path class="cls-4" d="M180.44,61.32c-1.81-4.16-4.61-8.42-8.17-11.28-4.64-3.73-10.11-3.84-15.56-1.86-5.51,2.01-10.94,5.22-15.2,9.26-.91.86.24,2.19,1.29,1.67.61-.31,1.21-.63,1.81-.96-.38.37-.75.75-1.1,1.15-3.06,3.55-4.78,8.13-4.33,12.84.46,4.75,2.58,9.86,6.02,13.24,3.39,3.33,8.39,4.49,13.02,4.62,4.34.12,8.78-.83,12.6-2.92,4.26-2.33,7.26-6.07,9.11-10.51,2.1-5.02,2.75-10.15.53-15.23ZM178.13,71.26c-.98,4.23-3,8.41-6.4,11.21-2.78,2.29-6.34,3.62-9.89,4.09-3.73.49-7.94.17-11.39-1.4-3.79-1.72-6.31-5.73-7.65-9.54-3.63-10.28,3.46-19.6,13.29-22.4.47-.13.27-.83-.2-.73-.93.2-1.86.45-2.78.75.58-.3,1.17-.59,1.78-.85,3.87-1.72,8.6-3.3,12.68-1.42,3.4,1.57,5.83,4.78,7.74,7.9,2.38,3.89,3.89,7.8,2.82,12.39Z"/><path class="cls-3" d="M713.97,47.1c-.25-1.41-.94-2.76-1.79-3.9-.92-1.24-2.94-.16-2.12,1.24.46.79.75,1.56.93,2.46.06.32.1.64.14.96-.43-.21-.86-.43-1.3-.64l-2.79-1.39c-1.38-.68-2.71.68-2.05,2.05.58,1.2,1.15,2.4,1.74,3.59-1.2-.91-2.41-1.82-3.6-2.74-1.16-.89-2.65-.08-2.41,1.4.32,1.93,1.25,3.64,2.29,5.27-.11-.12-.21-.25-.32-.36-1.89-2.13-3.74-4.3-5.54-6.5-.97-1.19-2.82.1-2.47,1.44.97,3.68,2.23,7.27,3.75,10.76.28.64.58,1.28.88,1.92-.45-.53-.89-1.05-1.34-1.58-1.22-1.44-2.43-2.87-3.65-4.31-1.11-1.31-2.08-2.73-3.77-3.29-1.12-.37-2.11.78-1.84,1.84.92,3.7,2.27,7.31,3.87,10.78.6,1.29,1.25,2.55,1.93,3.79-.32-.36-.65-.73-.96-1.1-1.76-2.1-3.08-4.52-5.29-6.21-1.07-.82-2.25.53-2.05,1.58.61,3.19,1.44,6.34,2.69,9.34.11.25.27.85.45,1.34-.19-.15-.38-.29-.55-.44-1.16-1.04-2.11-2.22-2.89-3.56-.5-.86-1.73-.11-1.32.77.86,1.83,2.05,3.56,3.58,4.9,1.08.94,3.09,1.7,3.67-.25.23-.77-.06-1.54-.3-2.26-.4-1.2-.74-2.42-1.08-3.63-.16-.57-.32-1.14-.46-1.71.65.88,1.3,1.77,2.02,2.58,1.92,2.17,4.16,3.95,6.51,5.62.84.6,2.19-.41,1.81-1.39-1.34-3.44-3.53-6.52-5.04-9.9-.81-1.82-1.51-3.67-2.12-5.55,1.11,1.31,2.22,2.62,3.33,3.93,2.28,2.68,4.56,5.37,6.83,8.05.88,1.04,2.5.15,2.54-1.05.06-1.88-.71-3.53-1.6-5.15-.96-1.73-1.88-3.48-2.71-5.28-.65-1.42-1.24-2.86-1.79-4.32.38.43.76.88,1.14,1.31,1.77,1.97,3.54,4.32,5.99,5.48.89.42,2.36-.06,2.22-1.27-.26-2.35-1.29-4.33-2.58-6.28-.21-.32-.42-.63-.63-.94.82.63,1.65,1.25,2.47,1.89.66.51,1.84.65,2.27-.29.76-1.66.1-3.01-.63-4.55-.17-.37-.35-.73-.53-1.1.17.09.35.17.52.26,1.15.57,2.56,1.43,3.59.16.79-.96.56-2.58.36-3.72Z"/><path class="cls-6" d="M160.05,136.51c-3.8-3.55-9.66-6.08-14.8-4.65-2.11-4.09-5.94-7.15-10.61-7.94-6.05-1.03-12.4,1.24-16.73,5.53-1.61,1.6-2.9,3.45-3.9,5.46-.59-.41-1.21-.79-1.89-1.11-6.04-2.8-12.46.32-16.17,5.35-4.55,6.16-3.95,14.12-2.32,21.19.46,1.99,1.1,3.92,1.84,5.82.35.89,1.56.55,1.42-.39-.96-6.39-2.96-12.67-1.57-19.17,1.04-4.84,4.53-9.58,9.44-10.99,3-.86,5.93-.03,8.19,1.76-1.22,3.35-1.73,6.99-1.59,10.52.07,1.7.28,3.41.62,5.09.29,1.41.62,3.09,2,3.85,3.35,1.86,5.01-3.16,5.47-5.45,1.02-5.04.06-10.77-3.33-14.58,2.24-4.85,6.21-8.71,11.95-10.08,4.51-1.07,9.46-.13,12.71,3.32.8.85,1.48,1.82,2.04,2.87-.26.15-.53.3-.79.49-2.4,1.69-4.22,4.29-4.68,7.22-.42,2.68.4,6.66,3.43,7.5,3.02.83,4.91-2.94,5.64-5.27.8-2.57.72-5.41,0-7.99-.05-.16-.1-.32-.15-.49,4.11-.97,8.86,1.15,11.92,4.01,1.24,1.15,3.09-.7,1.86-1.86ZM116.49,142.29c1.05,2.9,1.04,6.08.33,9.05-.12.49-.68,3.35-1.56,3.23-.67-.09-.94-3-1.01-3.47-.62-3.85-.36-7.88.78-11.55.6.84,1.1,1.75,1.45,2.74ZM143.99,141.69c-.3,1.11-.79,2.22-1.5,3.13-.47.61-.84.95-1.49.4-.54-.45-.8-1.24-.96-1.9-.58-2.46.59-5.04,2.32-6.76.47-.47.97-.84,1.48-1.16.6,2.05.71,4.24.15,6.3Z"/><path class="cls-1" d="M770.33,118.63c1.42-4.13,2.11-9.4.86-13.87.1-.06.21-.12.31-.18,10.26-6.72,12.39-23.65,4.44-32.85-.51-.59-1.56.11-1.14.8,4.48,7.32,5.37,16.56.92,24.15-1.28,2.19-3.12,4.4-5.34,5.88-.24-.51-.51-1.01-.82-1.49-1.44-2.2-3.81-3.99-6.52-4.11-2.47-.11-4.94,1.59-5.2,4.17-.28,2.83,2.48,4.66,4.92,5.22,2.15.5,4.37.23,6.39-.56.51,2.25.48,4.7.23,6.83-.57,5.02-2.49,9.68-6.39,13.01-3.45,2.94-8.33,4.82-12.9,4.12-.06,0-.11-.03-.17-.03,1.21-2.3,2.09-5.28.87-7.7-1.24-2.45-4.26-3.33-6.44-1.53-2.08,1.72-2.29,4.77-1.24,7.11.71,1.58,1.85,2.67,3.21,3.39-1.4,1.72-3.19,3.11-5.14,4.16-4.98,2.66-10.84,2.91-16.36,2.97-1.1.01-1.15,1.62-.05,1.71,6.29.55,13.01.09,18.53-3.27,2.03-1.23,3.88-2.82,5.31-4.73,3.3.76,7.23.1,10.05-1,5.47-2.13,9.79-6.64,11.7-12.18ZM764.62,104.32c-1.77-.07-5.62-1.28-4.32-3.75,1.18-2.25,4.21-1.37,5.78-.11,1.06.85,1.82,1.93,2.36,3.13-1.2.5-2.47.78-3.81.72ZM744.9,125.66c-.36-1.67.87-5.12,3.1-3.49,2.06,1.52.81,4.82-.32,6.82-1.35-.67-2.43-1.75-2.78-3.33Z"/><path class="cls-5" d="M664.8,129.48c-.14-1.54-.32-3.07-.54-4.6-.46-3.23-1.1-6.43-1.89-9.6-.36-1.45-2.58-.83-2.23.62,1.14,4.72,1.91,9.52,2.32,14.36.05.57.23,1.38.14,1.95-.07.45,0,.41-.52.51-1.28.23-2.6.33-3.89.5-2.37.3-4.75.62-7.12.91-1.19.14-2.39.28-3.59.36-.6.04-1.2.07-1.8.08-.45.01-1.47.2-1.89-.03-.58-.31-.7-1.8-.84-2.35-.28-1.19-.53-2.39-.76-3.6-.44-2.35-.69-4.72-1.05-7.08-.09-.57-.18-1.14-.27-1.71-.07-.48-.36-1.29-.25-1.74.08-.34-.31-.13.34-.3.25-.06.5-.16.74-.23.62-.19,1.24-.37,1.86-.54,5.31-1.47,10.74-2.37,16.25-2.67.39-.02.39-.61,0-.61-5.58.01-11.18.65-16.61,1.95-.75.18-1.5.37-2.25.58-.44.12-.95.19-1.32.47-.85.64-.51,2.02-.47,2.93.1,2.81.35,5.6.73,8.39.19,1.41.41,2.82.7,4.21.24,1.14.4,2.44,1.03,3.44.62.98,1.58,1.27,2.67,1.33,1.46.08,2.94-.04,4.4-.17,2.92-.27,5.82-.7,8.72-1.08,1.45-.19,2.9-.37,4.34-.56,1.05-.14,2.19-.26,2.86-1.2.84-1.19.33-3.18.21-4.51Z"/><path class="cls-4" d="M201.85,29.58c-.32-2.53-1.31-5.8-4.27-6.21-3.04-.42-4.71,2.55-4.97,5.17-1.74-.76-3.93-.57-5.17,1.03-1.6,2.07-.41,5.48.79,7.46,1.36,2.26,3.63,4.46,6.15,5.35,1.3.45,2.74.38,3.88-.44,1.12-.82,1.78-2.09,2.32-3.34,1.21-2.82,1.66-5.96,1.28-9.01ZM195.98,37.17c-.04-.06-.11-.12-.21-.18-1.06-1.57-1.49-3.45-1.71-5.31.22.3.42.61.59.91.64,1.13,1.14,2.38,1.29,3.67.02.2.03.41.04.62,0,.1,0,.19,0,.29ZM200.28,34.47c-.35,1.97-1.01,4.37-2.43,5.87-1.74,1.84-4.17.32-5.7-1.01-1.46-1.27-2.75-2.87-3.43-4.7-.6-1.62-1.1-4.18.97-4.9,1.07-.37,2.05-.1,2.88.47.05,1.75.29,3.67,1.05,5.26-.07.13-.1.29-.03.47.37,1.03,1.18,2.88,2.41,3.07,1.52.23,1.51-1.76,1.41-2.73-.25-2.5-1.54-5.26-3.52-6.9,0-1.53.3-3.04,1.53-4.05,2.12-1.73,4.04.47,4.6,2.48.6,2.14.64,4.49.25,6.67Z"/></svg>