<svg xmlns="http://www.w3.org/2000/svg" viewBox="0 0 43.9 93.51"><path d="M32.26 92.61c1.8-.57.95-3.12-.84-2.76-3.78.77-7.8.56-11.38-.91-3.66-1.5-6.38-4.14-8.14-7.67-1.72-3.44-2.86-7.66-1.97-11.49.03-.11.07-.22.1-.34 1.96.65 4.08.83 6.21.36 3.18-.7 6.21-3.54 4.99-7.04-1.26-3.62-5.78-2.93-8.48-1.53-1.9.99-3.3 2.35-4.29 3.94-.91-.62-1.74-1.35-2.45-2.18-3.67-4.26-4.36-12.93 1.65-15.64 3.51-1.58 7.67-.35 11.23.35 3.44.68 7.24 1.15 10.56-.29 5.15-2.25 6.56-7.75 5.63-12.79 2.85-.13 5.64-1.39 7.38-3.72 2.28-3.07 1.59-6.84-.18-9.99-3.6-6.4-10.72-9.62-14.92-15.5-1.06-1.49-1.98-3.06-2.51-4.82-.28-.93-1.86-.74-1.74.28.92 7.77 7.81 11.89 12.92 16.93 2.35 2.32 5.72 6.12 4.81 9.73-.73 2.92-3.8 4.14-6.59 4.09a18 18 0 0 0-.43-1.01c-.82-1.73-1.87-3.32-3.04-4.84-1.07-1.39-2.17-2.87-3.49-4.05-2.33-2.08-6.09-2.83-8.16.05-2.34 3.24 1.63 6.35 3.96 8.13 2.74 2.1 5.88 3.91 9.31 4.53.1.38.2.77.26 1.16.51 3.06-.3 6.68-2.97 8.54-3.08 2.13-7.25 1.3-10.63.53-3.74-.85-7.75-1.82-11.52-.62C.94 46.12-1.35 54.08.76 60.13c1.13 3.25 3.47 6.13 6.4 7.95-1.25 4.13-.6 9.03 1.05 12.99 1.55 3.73 3.83 6.92 7.22 9.17 3.28 2.17 7.23 3.28 11.15 3.26 1.94 0 3.83-.31 5.68-.9Zm-9.92-67.33c-.42-.42-1.14-1.01-.88-1.67.23-.58 1.1-.9 1.66-.89 1.61 0 2.97 1.7 3.93 2.8 1.44 1.65 2.86 3.48 3.93 5.47-3.27-1.1-6.26-3.32-8.63-5.71Zm-6.26 37.93c.64-.12 1.64-.29 2.09.28.36.45.26 1.2 0 1.67-.72 1.33-2.67 1.72-4.04 1.78-.97.04-1.92-.12-2.83-.39 1.12-1.67 2.76-2.97 4.76-3.34Z" style="fill:#e41834;stroke-width:0"/></svg>