<?xml version="1.0" encoding="UTF-8"?><svg id="Layer_2" xmlns="http://www.w3.org/2000/svg" viewBox="0 0 15.32 19.32"><defs><style>.cls-1{fill:#e24765;stroke-width:0px;}</style></defs><g id="OBJECTS"><path class="cls-1" d="M15.19,6.25C14.87,3.72,13.88.45,10.92.04c-3.04-.42-4.71,2.55-4.97,5.17-1.74-.76-3.93-.57-5.17,1.03-1.6,2.07-.41,5.48.79,7.46,1.36,2.26,3.63,4.46,6.15,5.35,1.3.45,2.74.38,3.88-.44,1.12-.82,1.78-2.09,2.32-3.34,1.21-2.82,1.66-5.96,1.28-9.01ZM9.32,13.84c-.04-.06-.11-.12-.21-.18-1.06-1.57-1.49-3.45-1.71-5.31.22.3.42.61.59.91.64,1.13,1.14,2.38,1.29,3.67.02.2.03.41.04.62,0,.1,0,.19,0,.29ZM13.62,11.14c-.35,1.97-1.01,4.37-2.43,5.87-1.74,1.84-4.17.32-5.7-1.01-1.46-1.27-2.75-2.87-3.43-4.7-.6-1.62-1.1-4.18.97-4.9,1.07-.37,2.05-.1,2.88.47.05,1.75.29,3.67,1.05,5.26-.07.13-.1.29-.03.47.37,1.03,1.18,2.88,2.41,3.07,1.52.23,1.51-1.76,1.41-2.73-.25-2.5-1.54-5.26-3.52-6.9,0-1.53.3-3.04,1.53-4.05,2.12-1.73,4.04.47,4.6,2.48.6,2.14.64,4.49.25,6.67Z"/></g></svg>