<?xml version="1.0" encoding="UTF-8"?><svg id="Layer_2" xmlns="http://www.w3.org/2000/svg" viewBox="0 0 51.34 58.21"><defs><style>.cls-1{fill:#445dad;}.cls-1,.cls-2,.cls-3{stroke-width:0px;}.cls-2{fill:#67b9c1;}.cls-3{fill:#01317c;}</style></defs><g id="OBJECTS"><path class="cls-2" d="M30.69,44.39c-.67-1.18-1.69-1.57-2.89-2.08-1.2-.51-2.4-1-3.61-1.48-2.42-.95-4.86-1.84-7.32-2.67-2.46-.82-4.95-1.59-7.45-2.29-1.16-.33-2.33-.64-3.5-.93-1.06-.27-2.25-.73-3.36-.62-2.36.22-3.06,2.65-2.23,4.58.46,1.06,1.26,2.03,1.91,2.99.73,1.08,1.46,2.17,2.18,3.25,1.46,2.17,2.91,4.33,4.37,6.5,1.41,2.1,2.8,4.35,4.61,6.13,1.15,1.13,2.75-.12,2.21-1.54-.8-2.12-2-4.11-3.27-6.05.89-.95,1.62-2.1,2.3-3.16.51-.79.98-1.62,1.43-2.45.3-.54.66-1.11.82-1.7.03-.11.03-.22.05-.33,2.02.7,4.03,1.43,6.02,2.21,1.04.41,2.07.83,3.09,1.26,1.2.5,2.21,1.06,3.54.75,1-.23,1.62-1.44,1.09-2.37ZM12.5,42.37c-.02.05-.14.31-.18.39-.09.19-.18.37-.27.56-.21.43-.42.85-.64,1.27-.4.78-.8,1.56-1.22,2.33-.17-.26-.33-.51-.5-.77-1-1.57-1.99-3.14-2.99-4.71l-1.53-2.41c.28.07.57.14.85.21,1.08.28,2.15.57,3.22.87,1.28.36,2.55.74,3.81,1.14-.22.34-.38.71-.56,1.12Z"/><path class="cls-3" d="M37.14.09c-3.04-.54-5.69,1.46-7.04,4.08-1.4,2.73-1.19,6.35.15,9.06,1.5,3.04,4.12,5.29,7.12,6.81,2.83,1.43,6.42,2.08,9.35.53,3.03-1.6,4.88-4.75,4.59-8.2-.13-1.6-.77-3.37-1.94-4.49-.67-.64-1.56-1.04-2.48-.8-1.01.26-1.62,1.21-1.53,2.24.13,1.44,1.17,2.32,1.26,3.66.06.95-.33,1.98-1.17,2.77-1.76,1.65-4.61.81-6.67-.25-2.63-1.35-4.94-3.78-5.33-6.8-.38-2.87,1.43-5.38,3.94-6.63.91-.45.8-1.78-.25-1.97Z"/><path class="cls-1" d="M24.68,17.65c-3.37-1.19-7.21-1.07-9.94,1.48-2.33,2.18-3.95,5.82-2.86,8.96.49,1.42,2.29.74,2.55-.4.41-1.73.55-3.48,1.5-5.04.99-1.62,2.52-2.65,4.44-2.73,2.05-.08,4.4.68,5.95,2.04.29.25.56.57.79.91-.48.17-.94.36-1.38.61-1.34.76-2.4,2.04-2.33,3.65.06,1.42,1.04,2.73,2.51,2.9,2.71.31,4.38-2.25,4.66-4.68,1.22.32,2.3,1.08,2.94,2.25.95,1.72,1.25,3.96.9,5.88-.32,1.78-1.56,4.21-3.7,3.33-2.42-1-4.69-2.62-6.74-4.22-1.09-.85-2.15-1.72-3.16-2.66-1-.93-1.9-1.96-3.08-2.66-.65-.39-1.4.17-1.14.91.58,1.64,1.84,2.93,3.05,4.15,1.3,1.32,2.67,2.53,4.16,3.63,1.44,1.06,2.96,2.01,4.53,2.88,1.45.79,2.97,1.48,4.65,1,6.41-1.82,6.11-12.77,1.37-16.16-1.24-.89-2.71-1.31-4.21-1.34-.95-2.28-3.17-3.89-5.49-4.71ZM27.33,26.81c-.42.53-1.68.98-1.26-.17.25-.69,1.05-1.07,1.8-1.27-.04.51-.2,1-.55,1.44Z"/></g></svg>