<?xml version="1.0" encoding="UTF-8"?><svg id="Layer_2" xmlns="http://www.w3.org/2000/svg" viewBox="0 0 52.81 29.82"><defs><style>.cls-1{fill:#494546;}.cls-1,.cls-2{stroke-width:0px;}.cls-2{fill:#c41e36;}</style></defs><g id="OBJECTS"><path class="cls-1" d="M13.47,24.15c-.29-1.44-.59-2.87-.91-4.31-.62-2.81-1.24-5.63-2.04-8.39-.21-.72-1.03-1.26-1.77-1.01-2.79.95-5.67,1.96-8.25,3.41-1,.56-.33,2.14.78,1.84,2.28-.62,4.52-1.39,6.79-2.05.51,2.28,1.06,4.56,1.56,6.85.3,1.38.59,2.76.87,4.15.28,1.37.44,2.82.84,4.15.46,1.53,3.03,1.33,2.9-.39-.11-1.42-.49-2.85-.77-4.24Z"/><path class="cls-1" d="M13.73,17.35c-.7.04-1.36.46-1.98.76-.52.25-1.04.5-1.56.75-1.04.5-2.08,1-3.12,1.5-.97.47-.28,2.14.74,1.76,1.08-.4,2.17-.8,3.25-1.2l1.62-.6c.64-.24,1.41-.41,1.92-.88.76-.69.19-2.14-.86-2.08Z"/><path class="cls-2" d="M27.26,17.58c-.21-.46-.66-.79-1.04-1.12-.35-.31-.73-.6-1.09-.9-.8-.64-1.61-1.26-2.43-1.87-.76-.56-1.53-1.11-2.32-1.62-.82-.53-1.63-1.07-2.52-1.46-.48-.21-1.01-.18-1.35.27-.29.39-.31,1.02.08,1.37.74.66,1.56,1.19,2.35,1.78.79.57,1.57,1.15,2.35,1.73.72.53,1.43,1.08,2.12,1.63.41.33.81.66,1.23.98.43.33.82.7,1.36.85,1,.28,1.65-.79,1.26-1.64Z"/><path class="cls-2" d="M23.49,8.82c-1.33,1.19-1.91,3.05-2.61,4.64-.4.9-.75,1.82-1.12,2.74-.37.92-.96,1.92-1.01,2.91-.03.6.45,1.18,1.02,1.34.64.18,1.19-.14,1.57-.64.3-.4.42-.94.58-1.41.14-.43.28-.86.42-1.29.28-.86.58-1.71.85-2.57.27-.86.51-1.73.76-2.6.21-.73.39-1.51.77-2.18.44-.78-.57-1.51-1.21-.94Z"/><path class="cls-1" d="M41.29,6.47c-1.25-.76-2.78-1.11-4.23-1.05-.74.03-1.5.15-2.21.36-.38.11-.74.29-1.1.46-.1-.32-.17-.66-.25-.95-.12-.45-.21-.91-.3-1.36.67-.38,1.44-.67,2.11-1,.98-.49,1.83-.97,2.65-1.68.44-.38.1-1.23-.49-1.18-1.56.14-2.98.7-4.46,1.23-.63.22-1.4.39-1.92.81-.68.54-.81,1.33-.68,2.15.21,1.32.52,2.98,1.21,4.14.39.66,1.1.99,1.85.91.67-.07,1.25-.53,1.88-.73,2.21-.73,4.75-.24,5.95,1.9,1.1,1.96.05,4.11-1.72,5.24-.93.6-2.01.96-3.11,1.01-1.29.06-2.44-.49-3.71-.52-1.11-.03-1.39,1.24-.82,1.98.83,1.07,2.36,1.32,3.62,1.41,1.24.09,2.55-.11,3.71-.55,2.44-.92,4.74-2.95,5.24-5.62.51-2.72-.87-5.53-3.21-6.96Z"/><path class="cls-2" d="M52.16.63c-.16-.38-.52-.61-.93-.63-.49-.02-.94.24-1.36.44-.07.03-.13.06-.2.09-.05.02-.35.16-.1.04-.15.07-.3.12-.45.18-.36.14-.71.3-1.07.46-.14.07-.29.13-.43.19-.02.01-.12.05-.12.05-.09.04-.19.07-.28.11-.31.12-.52.37-.47.72.04.31.32.58.64.57.75-.02,1.51-.05,2.25-.22.34-.08.68-.17,1.01-.26.46-.13.98-.27,1.31-.64.28-.31.38-.72.21-1.11Z"/><path class="cls-2" d="M52,5.61c-.59-.18-1.14.16-1.67.4-.2.08-.41.15-.61.24-.23.1-.44.24-.66.36-.29.16-.44.51-.4.83.02.15.07.27.16.39.1.13.26.27.43.3.27.04.55.09.82.11.18.01.36-.04.54-.06.1-.02.2-.03.3-.05.63-.11,1.42-.25,1.74-.87.34-.65.04-1.42-.67-1.64Z"/></g></svg>