<?xml version="1.0" encoding="UTF-8"?><svg id="Layer_2" xmlns="http://www.w3.org/2000/svg" viewBox="0 0 27.78 30.67"><defs><style>.cls-1{fill:#f1c631;stroke-width:0px;}</style></defs><g id="OBJECTS"><path class="cls-1" d="M21.73,17.91c-1.11-1.32-2.21-2.65-3.27-4.01.75-.97,1.5-1.94,2.26-2.91.47-.6.07-1.82-.86-1.47-1.2.45-2.41.9-3.61,1.34-.87-1.29-1.68-2.62-2.37-4.02-.52-1.05-1.91-.42-2.01.54-.18,1.79-.4,3.57-.63,5.35-1.42.53-2.84,1.06-4.25,1.6-1.08.42-.97,2.03.28,2.08,1.13.04,2.26.14,3.38.29-.28,1.62-.57,3.25-.66,4.88-.03.52.4.89.87.96.28.21.71.25.93-.04,1.23-1.59,2.46-3.18,3.69-4.77,1.69.49,3.34,1.11,4.94,1.86,1.12.53,2.11-.74,1.31-1.69Z"/><path class="cls-1" d="M8.44,9.54c-.51-.48-1.02-.95-1.53-1.43-.25-.23-.5-.46-.76-.68-.3-.26-.59-.52-.94-.72-.27-.16-.61-.08-.8.16-.2.25-.16.58.05.82.24.27.51.47.79.69.3.24.61.47.92.69.57.4,1.14.81,1.7,1.21.19.13.48.05.6-.12.13-.18.14-.45-.04-.62Z"/><path class="cls-1" d="M5.23,21.32c-.12-.21-.36-.24-.56-.15-.61.28-1.23.56-1.84.84-.3.13-.59.27-.89.4-.13.06-.19.07-.36.12-.26.08-.51.15-.7.35-.22.23-.29.62-.12.89.19.29.5.41.83.34.26-.05.44-.23.64-.4.06-.05.12-.1.18-.15.06-.05.07-.06.04-.02.04-.02.08-.05.12-.07.27-.17.55-.35.82-.52.57-.36,1.14-.72,1.7-1.08.19-.12.26-.37.15-.56Z"/><path class="cls-1" d="M8.98,27.38c-.27.41-.55.81-.82,1.22-.12.18-.25.38-.37.55-.07.09-.14.19-.22.28-.1.12-.16.25-.23.39-.07.14-.09.32,0,.46.1.15.22.21.4.23.17.02.31-.1.4-.23.07-.1.14-.19.2-.3.05-.11.1-.22.15-.33.1-.23.22-.45.34-.66.23-.43.46-.86.69-1.3.19-.35-.31-.63-.53-.31Z"/><path class="cls-1" d="M20.25,28.71c-.15-.58-.37-1.15-.53-1.73-.33-1.17-.61-2.38-.87-3.57-.18-.81-1.44-.62-1.43.19.01,1.26.16,2.48.39,3.71.11.59.22,1.2.4,1.77.21.7.53,1.71,1.46,1.57.39-.06.67-.4.75-.77.09-.4-.08-.79-.18-1.17Z"/><path class="cls-1" d="M27.69,13.48c-.13-.15-.34-.19-.51-.26-.19-.07-.37-.11-.57-.14-.36-.06-.72-.11-1.08-.17-.76-.12-1.51-.25-2.27-.32-.41-.04-.49.61-.1.71.73.19,1.48.32,2.22.46l1.07.2c.21.04.4.06.62.06.2,0,.39.02.56-.08.17-.1.18-.32.06-.46Z"/><path class="cls-1" d="M26.8,21.9c-.05-.09-.13-.19-.2-.26-.05-.05-.1-.1-.15-.15-.09-.09-.17-.16-.27-.24.04.03.08.06.12.1-.36-.28-.69-.6-.98-.95-.08-.1-.28-.17-.41-.17-.13,0-.24.04-.35.12-.09.07-.18.18-.21.3-.03.14-.03.32.06.44.26.34.53.67.85.96.07.06.14.13.22.19.11.09.22.16.35.22.12.06.24.12.37.15.11.03.22.04.33.01.05-.01.12-.05.17-.08.11-.06.18-.19.18-.31,0-.12-.01-.24-.07-.34Z"/><path class="cls-1" d="M23.64,3.62s-.09.06-.13.09c-.07.05-.11.11-.16.19-.06.09-.11.19-.16.28-.12.21-.24.41-.36.62-.24.4-.47.81-.71,1.21-.18.31.3.59.49.28.24-.4.49-.8.73-1.2.12-.2.24-.39.36-.59.06-.1.12-.2.18-.3.05-.08.08-.14.09-.23,0-.05,0-.11.01-.16.02-.17-.2-.28-.34-.19Z"/><path class="cls-1" d="M12.48,1.59c-.04-.29-.09-.55-.2-.82-.06-.14-.11-.28-.18-.41-.08-.14-.2-.22-.32-.32-.19-.14-.44.05-.44.25,0,.15,0,.28.05.42.04.11.07.22.1.33.06.23.12.46.17.69.1.44.12.9.07,1.37-.04.39.61.48.69.09.11-.53.14-1.07.07-1.6Z"/><path class="cls-1" d="M18.44,1.4c-.07-.2-.41-.31-.51-.07-.3.68-.35,1.41-.44,2.14-.09.7-.24,1.4-.43,2.09-.13.46.54.62.7.19.26-.69.47-1.4.64-2.12.16-.73.29-1.51.04-2.24Z"/><path class="cls-1" d="M3.6,12.86c-.52-.09-1.04-.19-1.56-.28-.28-.05-.58-.13-.87-.13-.29,0-.57.03-.86.08-.36.06-.43.64-.1.79.26.12.5.22.78.29.29.08.6.08.9.11.53.04,1.05.09,1.58.13.25.02.46-.21.49-.44.03-.23-.11-.51-.36-.55Z"/><path class="cls-1" d="M7.24,23.93c-.04-.07-.11-.13-.19-.15-.08-.02-.18-.02-.24.03l-.49.36c-.08.06-.16.12-.24.17-.02.01-.04.03-.06.04-.04.03-.08.06-.11.1-.03.04-.03.05-.05.09-.02.05-.04.1-.05.15-.05.14.08.3.23.3.04,0,.08,0,.12,0,.07,0,.14-.02.2-.06.02-.01.04-.03.06-.05.08-.06.16-.12.24-.19l.48-.37c.07-.05.12-.1.15-.19.02-.08.01-.18-.03-.24Z"/></g></svg>