<?xml version="1.0" encoding="UTF-8"?><svg id="Layer_2" xmlns="http://www.w3.org/2000/svg" viewBox="0 0 42.73 43.1"><defs><style>.cls-1{fill:#e24765;stroke-width:0px;}</style></defs><g id="OBJECTS"><path class="cls-1" d="M41.35,14.42c-1.81-4.16-4.61-8.42-8.17-11.28-4.64-3.73-10.11-3.84-15.56-1.86C12.1,3.29,6.67,6.5,2.41,10.54c-.91.86.24,2.19,1.29,1.67.61-.31,1.21-.63,1.81-.96-.38.37-.75.75-1.1,1.15C1.34,15.94-.38,20.52.07,25.23c.46,4.75,2.58,9.86,6.02,13.24,3.39,3.33,8.39,4.49,13.02,4.62,4.34.12,8.78-.83,12.6-2.92,4.26-2.33,7.26-6.07,9.11-10.51,2.1-5.02,2.75-10.15.53-15.23ZM39.04,24.36c-.98,4.23-3,8.41-6.4,11.21-2.78,2.29-6.34,3.62-9.89,4.09-3.73.49-7.94.17-11.39-1.4-3.79-1.72-6.31-5.73-7.65-9.54C.08,18.44,7.16,9.12,16.99,6.32c.47-.13.27-.83-.2-.73-.93.2-1.86.45-2.78.75.58-.3,1.17-.59,1.78-.85,3.87-1.72,8.6-3.3,12.68-1.42,3.4,1.57,5.83,4.78,7.74,7.9,2.38,3.89,3.89,7.8,2.82,12.39Z"/></g></svg>