<?xml version="1.0" encoding="UTF-8"?><svg id="Layer_2" xmlns="http://www.w3.org/2000/svg" viewBox="0 0 63.49 89.16"><defs><style>.cls-1,.cls-2,.cls-3{stroke-width:0px;}.cls-2{fill:#c41e36;}.cls-3{fill:#811221;}</style></defs><g id="OBJECTS"><path class="cls-3" d="M30.17,8.78c9.45,14.37,25.56,42.82,29.25,48.68-14.12,14.28-26.03,18.64-26.03,18.64-5.97-8.6-22.52-37.88-29.83-53.14,0,0,14.02-4.98,26.14-13.87l.47-.31Z"/><path class="cls-2" d="M30.17,8.78l-.47.31C17.58,17.98,3.56,22.96,3.56,22.96,1.29,18.21-.1,14.82,0,13.83,1.09,3.57,19.21-1.71,23.73.49c1.04.5,3.39,3.67,6.44,8.29Z"/><path class="cls-2" d="M60.05,58.41c2.23,2.85,3.86,23.44,3.35,25.94-.31,1.48-2.76,4.76-6.11,4.81-3.36.05-18.64-8.51-21.98-10.68-.35-.23-1.01-1.06-1.92-2.38,0,0,11.91-4.36,26.03-18.64.29.47.5.79.63.95Z"/><path class="cls-1" d="M32.66,13.95c-.29-.03-.58-.03-.86-.02.08-.13.17-.24.24-.38.35-.7.87-1.61.56-2.38-.16-.39-.62-.62-1-.36-4.1,2.74-8.03,5.64-12.29,8.14-4.24,2.49-8.64,5.04-13.24,6.79-.23.09-.26.48.02.52,2.21.29,4.42-1.13,6.34-2.06,2.34-1.14,4.63-2.36,6.89-3.66,2.06-1.19,4.14-2.42,6.19-3.72-2.19,1.43-4.37,2.89-6.6,4.26-2.47,1.53-5.01,2.97-7.67,4.15-1.61.71-5.21,1.26-4.68,3.71.06.28.43.45.69.36,5.42-2,10.3-5.19,15.14-8.29,2.47-1.58,5.05-3.09,7.32-4.95.49-.4.99-.82,1.43-1.29.48-.18.98-.32,1.48-.41.21-.03.29-.39.03-.42ZM27.12,15.78c1.56-1.04,3.08-2.13,4.52-3.29.04.36-.06.7-.4,1.11-.14.17-.31.32-.47.48-1.31.28-2.48.95-3.65,1.71ZM8.61,27.46c.3-.13.61-.22.91-.34.56-.22,1.12-.44,1.68-.69.54-.23,1.06-.5,1.59-.75-1.55.79-3.13,1.52-4.75,2.14.2-.17.42-.3.58-.37Z"/><path class="cls-1" d="M32.97,12.7c-.3-.2-.67-.08-.92.12-.15-.18-.39-.28-.64-.13-.82.51-1.59,1.12-2.17,1.89-.25.33.08.73.45.54.49-.25,1.12-.56,1.65-.71.25-.07.5-.1.76-.12-.27,1.76-10.45,8.37-11.65,9.09-2.05,1.24-4.16,2.37-6.28,3.46-1.14.59-2.29,1.15-3.48,1.64-1.08.44-2.28.71-3.3,1.25-.44.23-.15.83.27.84,1.37.02,2.87-.68,4.1-1.25,1.2-.55,2.37-1.18,3.53-1.81,2.66-1.45,5.31-2.95,7.89-4.55,2.52-1.56,4.99-3.21,7.33-5.03,1.29-1,5.05-3.54,2.47-5.24Z"/><path class="cls-1" d="M54.79,51.1c-3.92,3.66-8.04,7.06-12.52,10.01-2.17,1.44-4.41,2.78-6.69,4.03-1.14.63-2.3,1.22-3.46,1.81-1.1.56-2.36.99-3.28,1.82-.17.15-.01.45.2.43,1.23-.12,2.4-.82,3.51-1.33,1.16-.54,2.3-1.13,3.43-1.73,2.41-1.29,4.77-2.69,7.06-4.18,4.52-2.94,8.85-6.22,12.79-9.9.67-.63-.38-1.6-1.05-.97Z"/><path class="cls-1" d="M56.88,53.89c-3.84,3.67-7.85,7.17-12.18,10.24-2.1,1.49-4.28,2.88-6.51,4.17-2.29,1.32-4.71,2.8-7.36,3.24-.26.04-.36.47-.04.51,2.48.3,4.67-.96,6.79-2.13,2.49-1.37,4.91-2.87,7.24-4.49,4.6-3.19,8.9-6.82,12.61-11.03.32-.37-.2-.84-.55-.51Z"/><path class="cls-1" d="M56.07,51.95c-7.62,7.49-16.68,12.96-26.27,17.55-.25.12-.05.54.21.44,10-3.77,18.97-10.12,26.82-17.29.49-.44-.28-1.17-.76-.7Z"/><path class="cls-1" d="M56.53,53.04c-7.84,6.83-16.6,12.52-25.8,17.34-.24.13-.05.55.21.44,9.66-4.24,18.46-10.11,26.42-17.01.55-.47-.28-1.24-.83-.76Z"/><path class="cls-1" d="M46.85,60.47c-2.49,2.2-4.91,4.48-7.66,6.38-1.37.95-2.76,1.91-4.37,2.41-.75.23-1.47.52-2.2.8-.7.27-1.71.43-2.23,1.01-.4.44-.04,1.03.5,1.06.75.05,1.61-.61,2.25-.95.73-.39,1.43-.81,2.08-1.32,1.33-1.05,2.87-1.79,4.29-2.71,2.79-1.79,5.52-3.82,7.66-6.37.2-.24-.12-.52-.34-.32Z"/><path class="cls-1" d="M42.41,52.02c.59-3.54-.47-7.23-1.82-10.61-1.69-4.23-3.62-8.55-7.02-11.7-1.6-1.48-3.48-2.65-5.57-3.29-.38-.12-.83-.26-1.27-.28-.71-.6-1.76-.18-2.44.33-.64.48-1.07,1.09-1.37,1.8-.75,1.01-.8,2.8-.81,3.89-.02,1.78.28,3.55.73,5.27.5,1.92,1.23,3.76,2.01,5.59.71,1.67,1.4,3.39,2.33,4.95,1,1.68,2.35,3.13,3.62,4.6,1.21,1.4,2.36,2.97,3.98,3.93.92.55,2.06.88,3.16.82.29.02.59.01.88-.04,1.55-.26,2.58-1.54,3.1-2.95.28-.75.43-1.54.49-2.33ZM34.06,37.75c1.62,2.41,2.91,5.03,3.81,7.79.46,1.41.83,2.85,1.08,4.3.06.38.18.93.27,1.54-.43-2.07-1.08-4.12-1.8-6.11-.98-2.73-2.19-5.36-3.61-7.87.08.12.17.23.25.35ZM29.86,33.89c-.1.11-.16.25-.15.41.08,1.54.7,2.92,1.28,4.33.66,1.6,1.36,3.19,2.06,4.78.24.56.49,1.12.73,1.68-1.94-3.14-3.42-6.58-4.31-10.15-.05-.19-.31-.86-.2-1.02.2-.29.4-.21.59-.03ZM28.89,31.95c.08.02.17.09.27.17-.24.03-.48.13-.73.33-1.24.98-.35,3.12,0,4.33,1.08,3.81,2.79,7.52,5.08,10.76.89,1.26,1.89,2.44,2.93,3.58.02.05.05.1.07.16-2.51-1.73-4.19-5.07-5.56-7.54-1.28-2.31-2.58-4.82-3.46-7.42-.28-1.21-.39-2.49.16-3.57.24-.49.57-1,1.25-.79ZM27.32,29.47c.3.15.6.33.89.51-.68.11-1.29.52-1.76,1.1-.01-.48,0-.96.04-1.45,0-.11.01-.26.02-.42.25.04.51.11.82.26ZM25.36,34.85c.04.9.21,1.8.44,2.66,1.02,3.83,2.78,7.56,4.96,10.86,1.08,1.64,2.35,3.16,3.72,4.56.03.03.06.06.09.09-.28-.21-.52-.41-.7-.55-.04-.03-.07-.07-.11-.1-.2-.22-.39-.45-.59-.66-.7-.77-1.39-1.52-2.05-2.29-.39-.64-.79-1.28-1.15-1.94-1.67-3.02-3.12-6.2-4.33-9.44-.53-2.1-.9-4.28-.93-6.37,0-.28.02-.54.06-.79.03,1.35.25,2.66.59,3.96Z"/></g></svg>