<?xml version="1.0" encoding="UTF-8"?><svg id="Layer_2" xmlns="http://www.w3.org/2000/svg" viewBox="0 0 92.57 49.21"><defs><style>.cls-1{fill:#c41e36;stroke-width:0px;}</style></defs><g id="OBJECTS"><path class="cls-1" d="M92.45,24.6c-.21-1.87-2.87-1.54-2.87.28.01,3.85-.98,7.76-3.13,10.98-2.19,3.29-5.32,5.44-9.12,6.47-3.72,1.01-8.07,1.3-11.66-.32-.11-.05-.21-.11-.31-.16,1.03-1.8,1.62-3.83,1.58-6.02-.06-3.26-2.25-6.79-5.92-6.28-3.79.52-4.01,5.09-3.17,8.01.59,2.06,1.66,3.69,3.02,4.98-.78.77-1.67,1.44-2.61,1.97-4.9,2.76-13.54,1.73-15.01-4.69-.86-3.75,1.16-7.59,2.56-10.95,1.34-3.24,2.56-6.88,1.79-10.41-1.19-5.49-6.31-7.95-11.44-8.04.43-2.82-.25-5.81-2.2-7.97C31.39-.38,27.57-.44,24.13.67c-6.98,2.27-11.54,8.62-18.13,11.58-1.67.75-3.39,1.34-5.22,1.52-.97.09-1.09,1.68-.06,1.76,7.8.63,13.19-5.32,19.14-9.33,2.74-1.85,7.12-4.4,10.48-2.81,2.72,1.29,3.31,4.54,2.71,7.27-.36.06-.73.14-1.08.22-1.85.46-3.63,1.18-5.34,2.02-1.58.77-3.25,1.57-4.65,2.62-2.49,1.87-3.97,5.41-1.55,8.02,2.71,2.93,6.54-.35,8.75-2.28,2.6-2.27,4.99-4.99,6.27-8.23.4-.02.79-.04,1.19-.03,3.1.11,6.5,1.61,7.78,4.6,1.48,3.44-.15,7.36-1.58,10.53-1.57,3.49-3.31,7.24-2.88,11.18.76,6.84,8.11,10.66,14.46,9.77,3.41-.47,6.7-2.2,9.05-4.71,3.8,2.04,8.74,2.37,12.95,1.53,3.96-.79,7.54-2.39,10.41-5.28,2.77-2.78,4.63-6.44,5.39-10.29.37-1.9.45-3.82.23-5.74ZM24.49,21.08c-.49.33-1.22.92-1.81.54-.52-.34-.66-1.25-.55-1.81.32-1.57,2.25-2.58,3.51-3.3,1.9-1.09,3.98-2.11,6.14-2.78-1.72,2.99-4.48,5.49-7.29,7.34ZM60.45,34.67c.01-.65.04-1.67.69-2,.51-.26,1.23-.02,1.64.32,1.16.97,1.16,2.96.95,4.31-.15.96-.49,1.86-.94,2.7-1.41-1.43-2.37-3.29-2.33-5.33Z"/></g></svg>