<svg xmlns="http://www.w3.org/2000/svg" id="Layer_1" viewBox="0 0 63.59 65.25"><defs><style>.cls-1{fill:#4f4f4f;stroke-width:0}</style></defs><path d="M60.3 51.83c-.17-1.72-1.08-3.27-2.43-4.34-1.85-1.46-4.93-4.46-5.41-8.6-.7-5.98.97-27.39-16.55-29.89h-.05c-.12-.77.11-1.52.16-1.69v-.03c.17-.48.27-1 .27-1.54a4.58 4.58 0 1 0-9.16 0c0 .57.1 1.11.29 1.62.07.23.27.95.15 1.68-17.3 2.64-15.65 23.91-16.34 29.86-.48 4.14-3.56 7.14-5.41 8.6-1.35 1.07-2.27 2.62-2.43 4.34-.43 4.51 4.78 4.02 4.78 4.02h47.34s5.21.48 4.78-4.02ZM31.85 65.25a7.8 7.8 0 0 0 7.7-6.54H24.16a7.8 7.8 0 0 0 7.7 6.54Z" class="cls-1"/><path d="M43.71 5.57c3.17 1.74 13.39 8.46 13.36 22.77 0 .69-.54 1.26-1.22 1.3a1.29 1.29 0 0 1-1.36-1.29C54.41 15.79 45.8 9.61 42.51 7.71c-.64-.37-.81-1.23-.35-1.82a1.22 1.22 0 0 1 1.55-.32" class="cls-1"/><path d="M47.43.18c3.84 2.11 16.2 10.23 16.17 27.54 0 .83-.65 1.52-1.48 1.57a1.57 1.57 0 0 1-1.65-1.56C60.38 12.54 49.96 5.06 45.98 2.76A1.485 1.485 0 0 1 47.43.17ZM19.88 5.57C16.71 7.31 6.49 14.03 6.52 28.34c0 .69.54 1.26 1.22 1.3.74.04 1.36-.55 1.36-1.29.08-12.56 8.69-18.74 11.98-20.64.64-.37.81-1.23.35-1.82a1.22 1.22 0 0 0-1.55-.32" class="cls-1"/><path d="M16.17.18C12.33 2.29-.03 10.41 0 27.73c0 .83.65 1.52 1.48 1.57.89.05 1.64-.66 1.65-1.56.09-15.19 10.51-22.67 14.49-24.97A1.485 1.485 0 0 0 16.17.18" class="cls-1"/></svg>