<?xml version="1.0" encoding="UTF-8"?><svg id="Layer_1" xmlns="http://www.w3.org/2000/svg" viewBox="0 0 63.59 65.25"><defs><style>.cls-1{fill:#4f4f4f;stroke-width:0px;}</style></defs><path class="cls-1" d="M60.3,51.83c-.17-1.72-1.08-3.27-2.43-4.34-1.85-1.46-4.93-4.46-5.41-8.6-.7-5.98.97-27.39-16.55-29.89h-.05c-.12-.77.11-1.52.16-1.69,0,0,0-.01,0-.02,0,0,0-.01,0-.01h0c.17-.48.27-1,.27-1.54,0-2.53-2.05-4.58-4.58-4.58s-4.58,2.05-4.58,4.58c0,.57.1,1.11.29,1.62.07.23.27.95.15,1.68-17.3,2.64-15.65,23.91-16.34,29.86-.48,4.14-3.56,7.14-5.41,8.6-1.35,1.07-2.27,2.62-2.43,4.34-.43,4.51,4.78,4.02,4.78,4.02h47.34s5.21.48,4.78-4.02Z"/><path class="cls-1" d="M31.85,65.25c3.88,0,7.1-2.83,7.7-6.54h-15.39c.6,3.71,3.82,6.54,7.7,6.54Z"/><path class="cls-1" d="M43.71,5.57c3.17,1.74,13.39,8.46,13.36,22.77,0,.69-.54,1.26-1.22,1.3h0c-.74.04-1.36-.55-1.36-1.29-.08-12.56-8.69-18.74-11.98-20.64-.64-.37-.81-1.23-.35-1.82h0c.37-.47,1.02-.61,1.55-.32Z"/><path class="cls-1" d="M47.43.18c3.84,2.11,16.2,10.23,16.17,27.54,0,.83-.65,1.52-1.48,1.57h0c-.89.05-1.64-.66-1.65-1.56-.09-15.19-10.51-22.67-14.49-24.97-.78-.45-.98-1.49-.42-2.2h0c.45-.57,1.24-.73,1.87-.39Z"/><path class="cls-1" d="M19.88,5.57c-3.17,1.74-13.39,8.46-13.36,22.77,0,.69.54,1.26,1.22,1.3h0c.74.04,1.36-.55,1.36-1.29.08-12.56,8.69-18.74,11.98-20.64.64-.37.81-1.23.35-1.82h0c-.37-.47-1.02-.61-1.55-.32Z"/><path class="cls-1" d="M16.17.18C12.33,2.29-.03,10.41,0,27.73c0,.83.65,1.52,1.48,1.57h0c.89.05,1.64-.66,1.65-1.56.09-15.19,10.51-22.67,14.49-24.97.78-.45.98-1.49.42-2.2h0c-.45-.57-1.24-.73-1.87-.39Z"/></svg>