<svg xmlns="http://www.w3.org/2000/svg" id="Layer_1" viewBox="0 0 48.28 76.69"><defs><filter id="drop-shadow-1" filterUnits="userSpaceOnUse"><feOffset dx="1" dy="1"/><feGaussianBlur result="blur" stdDeviation="1"/><feFlood flood-color="#424242" flood-opacity=".49"/><feComposite in2="blur" operator="in"/><feComposite in="SourceGraphic"/></filter><style>.cls-2{fill:#2d2d2d;stroke-width:0}</style></defs><g style="filter:url(#drop-shadow-1)"><path d="m32.28 66.34 7.22-15.49c.89-1.9.06-4.16-1.84-5.05a3.84 3.84 0 0 0-2.12-.32c.71-1.85-.12-3.95-1.94-4.8-1.06-.5-2.24-.46-3.23 0l.66-1.42c.86-1.84.19-4.07-1.59-5.03a3.79 3.79 0 0 0-3.54-.03l3.17-6.8c1.17-2.52.08-5.51-2.43-6.69a5.046 5.046 0 0 0-6.69 2.43S12.1 40 10.19 44.16c-.1.22-.42.15-.43-.09L9.7 36.1a3.803 3.803 0 0 0-3.82-3.77h-.75c-2.1.02-3.78 1.73-3.77 3.83l.15 19.51-.61 7.6a5.19 5.19 0 0 0 2.97 5.11l14.87 6.93c1.81.84 3.94.57 5.48-.7 2.91-2.4 7.33-6.28 8.05-8.29Z" style="stroke-width:0;fill:#fff"/><path d="M18.37 76.13 3.5 69.2a6.08 6.08 0 0 1-3.48-5.97l.61-7.56L.48 36.2a4.68 4.68 0 0 1 4.64-4.71h.75a4.63 4.63 0 0 1 3.32 1.34c.89.88 1.38 2.05 1.39 3.3l.04 5.05c2.86-6.17 8.47-18.22 8.54-18.37 1.38-2.95 4.9-4.24 7.85-2.86s4.24 4.9 2.86 7.85l-2.39 5.13c.82-.03 1.64.16 2.39.56 2.11 1.14 2.99 3.73 2.06 5.98.7-.01 1.4.13 2.05.44 1.83.85 2.87 2.78 2.67 4.71a4.675 4.675 0 0 1 3.65 6.61l-7.2 15.45c-.64 1.71-3.44 4.62-8.31 8.63a6.08 6.08 0 0 1-6.41.82ZM7.13 33.5c-.38-.18-.8-.27-1.25-.27h-.75a2.94 2.94 0 0 0-2.9 2.95l.15 19.55v.04l-.61 7.6c-.14 1.78.85 3.48 2.47 4.24l14.87 6.93c1.49.7 3.28.47 4.55-.58 4.46-3.68 7.3-6.57 7.79-7.91l.03-.07 7.22-15.49c.68-1.46.05-3.2-1.41-3.88-.51-.24-1.07-.32-1.63-.24l-1.47.2.53-1.39c.55-1.42-.11-3.04-1.49-3.69-.79-.37-1.69-.36-2.48 0l-2.2 1.04 1.69-3.62c.68-1.45.14-3.16-1.21-3.89A2.93 2.93 0 0 0 26.3 35l-2.28 1.18 4.25-9.13c.97-2.08.07-4.55-2.01-5.52s-4.55-.07-5.52 2.01c-.08.17-7.87 16.9-9.76 21.01-.22.47-.72.72-1.23.62-.51-.11-.87-.55-.87-1.07l-.06-7.97c0-1.16-.7-2.16-1.69-2.63" class="cls-2"/><path d="M20.19 46.47a.873.873 0 0 1-.42-1.17l5.34-11.45 1.59.74-5.34 11.45c-.2.44-.73.63-1.17.42Zm5.97 3.32c-.44-.2-.66-.66-.49-1.02l4.34-9.31 1.59.74-4.34 9.31c-.17.36-.66.48-1.1.28m6.25 2.7c-.44-.2-.69-.6-.56-.88l3.42-7.33 1.59.74-3.42 7.33c-.13.28-.59.34-1.03.14" class="cls-2"/><rect width="11.83" height="2.92" x="35.53" y="27.9" class="cls-2" rx=".72" ry=".72" transform="rotate(24.99 41.448 29.375)"/><rect width="11.83" height="2.92" x="36.47" y="14.48" class="cls-2" rx=".72" ry=".72" transform="rotate(-17.61 42.383 15.952)"/><rect width="11.83" height="2.92" x="5.04" y="13.69" class="cls-2" rx=".72" ry=".72" transform="rotate(-155.01 10.953 15.15)"/><rect width="11.83" height="2.92" x="14.71" y="4.34" class="cls-2" rx=".72" ry=".72" transform="rotate(-112.4 20.628 5.806)"/><rect width="11.83" height="2.92" x="27.57" y="4.54" class="cls-2" rx=".72" ry=".72" transform="rotate(-65.01 33.48 5.998)"/></g></svg>