<?xml version="1.0" encoding="UTF-8"?><svg id="Layer_1" xmlns="http://www.w3.org/2000/svg" xmlns:xlink="http://www.w3.org/1999/xlink" viewBox="0 0 48.28 76.69"><defs><style>.cls-1{filter:url(#drop-shadow-1);}.cls-2{fill:#2d2d2d;}.cls-2,.cls-3{stroke-width:0px;}.cls-3{fill:#fff;}</style><filter id="drop-shadow-1" filterUnits="userSpaceOnUse"><feOffset dx="1" dy="1"/><feGaussianBlur result="blur" stdDeviation="1"/><feFlood flood-color="#424242" flood-opacity=".49"/><feComposite in2="blur" operator="in"/><feComposite in="SourceGraphic"/></filter></defs><g class="cls-1"><path class="cls-3" d="M32.28,66.34l7.22-15.49c.89-1.9.06-4.16-1.84-5.05h0c-.69-.32-1.42-.41-2.12-.32.71-1.85-.12-3.95-1.94-4.8h0c-1.06-.5-2.24-.46-3.23,0l.66-1.42c.86-1.84.19-4.07-1.59-5.03-1.16-.62-2.47-.58-3.54-.03l3.17-6.8c1.17-2.52.08-5.51-2.43-6.69h0c-2.52-1.17-5.51-.08-6.69,2.43,0,0-7.85,16.86-9.76,21.02-.1.22-.42.15-.43-.09l-.06-7.97c-.02-2.1-1.73-3.78-3.82-3.77h-.75c-2.1.02-3.78,1.73-3.77,3.83l.15,19.51-.61,7.6c-.17,2.16,1.01,4.19,2.97,5.11l14.87,6.93c1.81.84,3.94.57,5.48-.7,2.91-2.4,7.33-6.28,8.05-8.29Z"/><path class="cls-2" d="M18.37,76.13l-14.87-6.93c-2.28-1.06-3.68-3.46-3.48-5.97l.61-7.56-.15-19.47c-.02-2.58,2.06-4.69,4.64-4.71h.75c1.25-.01,2.43.46,3.32,1.34.89.88,1.38,2.05,1.39,3.3l.04,5.05c2.86-6.17,8.47-18.22,8.54-18.37,1.38-2.95,4.9-4.24,7.85-2.86,2.95,1.38,4.24,4.9,2.86,7.85l-2.39,5.13c.82-.03,1.64.16,2.39.56,2.11,1.14,2.99,3.73,2.06,5.98.7-.01,1.4.13,2.05.44,1.83.85,2.87,2.78,2.67,4.71.48.06.95.19,1.39.4,2.34,1.09,3.35,3.88,2.26,6.21l-7.2,15.45c-.64,1.71-3.44,4.62-8.31,8.63-1.79,1.48-4.31,1.8-6.41.82ZM7.13,33.5c-.38-.18-.8-.27-1.25-.27h-.75c-1.61.02-2.91,1.34-2.9,2.95l.15,19.55v.04s-.61,7.6-.61,7.6c-.14,1.78.85,3.48,2.47,4.24l14.87,6.93c1.49.7,3.28.47,4.55-.58,4.46-3.68,7.3-6.57,7.79-7.91l.03-.07,7.22-15.49c.68-1.46.05-3.2-1.41-3.88-.51-.24-1.07-.32-1.63-.24l-1.47.2.53-1.39c.55-1.42-.11-3.04-1.49-3.69-.79-.37-1.69-.36-2.48,0l-2.2,1.04,1.69-3.62c.68-1.45.14-3.16-1.21-3.89-.85-.45-1.87-.47-2.73-.02l-2.28,1.18,4.25-9.13c.97-2.08.07-4.55-2.01-5.52s-4.55-.07-5.52,2.01c-.08.17-7.87,16.9-9.76,21.01-.22.47-.72.72-1.23.62-.51-.11-.87-.55-.87-1.07l-.06-7.97c0-1.16-.7-2.16-1.69-2.63Z"/><path class="cls-2" d="M20.19,46.47h0c-.44-.2-.63-.73-.42-1.17l5.34-11.45,1.59.74-5.34,11.45c-.2.44-.73.63-1.17.42Z"/><path class="cls-2" d="M26.16,49.79h0c-.44-.2-.66-.66-.49-1.02l4.34-9.31,1.59.74-4.34,9.31c-.17.36-.66.48-1.1.28Z"/><path class="cls-2" d="M32.41,52.49h0c-.44-.2-.69-.6-.56-.88l3.42-7.33,1.59.74-3.42,7.33c-.13.28-.59.34-1.03.14Z"/><rect class="cls-2" x="35.53" y="27.9" width="11.83" height="2.92" rx=".72" ry=".72" transform="translate(16.29 -14.76) rotate(24.99)"/><rect class="cls-2" x="36.47" y="14.48" width="11.83" height="2.92" rx=".72" ry=".72" transform="translate(-2.84 13.57) rotate(-17.61)"/><rect class="cls-2" x="5.04" y="13.69" width="11.83" height="2.92" rx=".72" ry=".72" transform="translate(14.48 33.51) rotate(-155.01)"/><rect class="cls-2" x="14.71" y="4.34" width="11.83" height="2.92" rx=".72" ry=".72" transform="translate(23.12 27.09) rotate(-112.4)"/><rect class="cls-2" x="27.57" y="4.54" width="11.83" height="2.92" rx=".72" ry=".72" transform="translate(13.9 33.81) rotate(-65.01)"/></g></svg>