<?xml version="1.0" encoding="UTF-8"?><svg id="Layer_1" xmlns="http://www.w3.org/2000/svg" xmlns:xlink="http://www.w3.org/1999/xlink" viewBox="0 0 275.27 74.77"><defs><style>.cls-1{fill:url(#linear-gradient);}.cls-1,.cls-2,.cls-3,.cls-4,.cls-5{stroke-width:0px;}.cls-6{fill:#909090;stroke:#f9f9f9;stroke-miterlimit:10;stroke-width:.25px;}.cls-7{filter:url(#drop-shadow-1);}.cls-2{fill:url(#Degradado_sin_nombre_1439);}.cls-3{fill:url(#linear-gradient-2);}.cls-4{fill:#f6f6f7;}.cls-5{fill:#ececec;}</style><filter id="drop-shadow-1" filterUnits="userSpaceOnUse"><feOffset dx="1" dy="1"/><feGaussianBlur result="blur" stdDeviation="3"/><feFlood flood-color="#424242" flood-opacity=".49"/><feComposite in2="blur" operator="in"/><feComposite in="SourceGraphic"/></filter><linearGradient id="Degradado_sin_nombre_1439" x1="-2.25" y1="77.65" x2="74.13" y2=".07" gradientUnits="userSpaceOnUse"><stop offset="0" stop-color="#db0607"/><stop offset=".6" stop-color="#ec0506"/><stop offset="1" stop-color="#fb0506"/></linearGradient><linearGradient id="linear-gradient" x1="34.29" y1="37.39" x2="43.15" y2="37.39" gradientUnits="userSpaceOnUse"><stop offset="0" stop-color="#fb0506"/><stop offset="1" stop-color="#db0607"/></linearGradient><linearGradient id="linear-gradient-2" y1="35.14" y2="35.14" xlink:href="#linear-gradient"/></defs><g class="cls-7"><path class="cls-5" d="M271.82,11.64H55.25v49.14h216.57c1.91,0,3.45-1.06,3.45-2.36V14c0-1.3-1.54-2.36-3.45-2.36Z"/><path class="cls-6" d="M95.64,43.49c1.3.8,3.21,1.47,5.22,1.47,2.98,0,4.72-1.57,4.72-3.85,0-2.11-1.21-3.31-4.25-4.48-3.68-1.31-5.96-3.21-5.96-6.39,0-3.51,2.91-6.12,7.29-6.12,2.31,0,3.98.54,4.99,1.1l-.8,2.38c-.74-.4-2.24-1.07-4.28-1.07-3.08,0-4.25,1.84-4.25,3.38,0,2.11,1.37,3.15,4.48,4.35,3.81,1.47,5.76,3.31,5.76,6.62,0,3.48-2.58,6.49-7.9,6.49-2.17,0-4.55-.64-5.76-1.44l.74-2.44Z"/><path class="cls-6" d="M115.45,24.48v13.35c0,5.05,2.24,7.19,5.25,7.19,3.35,0,5.49-2.21,5.49-7.19v-13.35h2.94v13.15c0,6.93-3.65,9.77-8.53,9.77-4.62,0-8.1-2.64-8.1-9.64v-13.28h2.94Z"/><path class="cls-6" d="M134.19,24.78c1.27-.27,3.28-.47,5.32-.47,2.91,0,4.79.5,6.19,1.64,1.17.87,1.87,2.21,1.87,3.98,0,2.17-1.44,4.08-3.81,4.95v.07c2.14.54,4.65,2.31,4.65,5.65,0,1.94-.77,3.41-1.91,4.52-1.57,1.44-4.12,2.11-7.8,2.11-2.01,0-3.55-.13-4.52-.27v-22.19ZM137.11,34.02h2.64c3.08,0,4.89-1.61,4.89-3.78,0-2.64-2.01-3.68-4.95-3.68-1.34,0-2.11.1-2.58.2v7.26ZM137.11,44.83c.57.1,1.41.13,2.44.13,3.01,0,5.79-1.1,5.79-4.38,0-3.08-2.64-4.35-5.82-4.35h-2.41v8.6Z"/><path class="cls-6" d="M151.93,43.49c1.3.8,3.21,1.47,5.22,1.47,2.98,0,4.72-1.57,4.72-3.85,0-2.11-1.21-3.31-4.25-4.48-3.68-1.31-5.96-3.21-5.96-6.39,0-3.51,2.91-6.12,7.29-6.12,2.31,0,3.98.54,4.99,1.1l-.8,2.38c-.74-.4-2.24-1.07-4.28-1.07-3.08,0-4.25,1.84-4.25,3.38,0,2.11,1.37,3.15,4.48,4.35,3.81,1.47,5.76,3.31,5.76,6.62,0,3.48-2.58,6.49-7.9,6.49-2.17,0-4.55-.64-5.76-1.44l.74-2.44Z"/><path class="cls-6" d="M184.59,46.3c-1.07.54-3.21,1.07-5.96,1.07-6.36,0-11.14-4.02-11.14-11.41s4.79-11.85,11.78-11.85c2.81,0,4.58.6,5.35,1l-.7,2.38c-1.1-.54-2.68-.94-4.55-.94-5.29,0-8.8,3.38-8.8,9.3,0,5.52,3.18,9.07,8.67,9.07,1.77,0,3.58-.37,4.75-.94l.6,2.31Z"/><path class="cls-6" d="M188.24,24.78c1.47-.3,3.58-.47,5.59-.47,3.11,0,5.12.57,6.52,1.84,1.14,1,1.77,2.54,1.77,4.28,0,2.98-1.87,4.95-4.25,5.76v.1c1.74.6,2.78,2.21,3.31,4.55.74,3.15,1.27,5.32,1.74,6.19h-3.01c-.37-.64-.87-2.58-1.51-5.39-.67-3.11-1.87-4.28-4.52-4.38h-2.74v9.77h-2.91v-22.25ZM191.15,35.06h2.98c3.11,0,5.09-1.71,5.09-4.28,0-2.91-2.11-4.18-5.19-4.22-1.41,0-2.41.13-2.88.27v8.23Z"/><path class="cls-6" d="M209.16,24.48v22.55h-2.91v-22.55h2.91Z"/><path class="cls-6" d="M214.24,24.78c1.27-.27,3.28-.47,5.32-.47,2.91,0,4.79.5,6.19,1.64,1.17.87,1.87,2.21,1.87,3.98,0,2.17-1.44,4.08-3.81,4.95v.07c2.14.54,4.65,2.31,4.65,5.65,0,1.94-.77,3.41-1.91,4.52-1.57,1.44-4.12,2.11-7.8,2.11-2.01,0-3.55-.13-4.52-.27v-22.19ZM217.15,34.02h2.64c3.08,0,4.89-1.61,4.89-3.78,0-2.64-2.01-3.68-4.95-3.68-1.34,0-2.11.1-2.58.2v7.26ZM217.15,44.83c.57.1,1.41.13,2.44.13,3.01,0,5.79-1.1,5.79-4.38,0-3.08-2.64-4.35-5.82-4.35h-2.41v8.6Z"/><path class="cls-6" d="M244.06,36.46h-8.77v8.13h9.77v2.44h-12.68v-22.55h12.18v2.44h-9.27v7.13h8.77v2.41Z"/></g><circle class="cls-2" cx="37.39" cy="37.39" r="37.39"/><rect class="cls-4" x="19.81" y="24.24" width="35.16" height="26.3" rx="6.95" ry="6.95"/><polygon class="cls-1" points="34.29 32.27 43.15 37.39 34.29 42.5 34.29 32.27"/><polygon class="cls-3" points="34.29 32.27 42.08 38.01 43.15 37.39 34.29 32.27"/></svg>