<svg xmlns="http://www.w3.org/2000/svg" id="Layer_2" viewBox="0 0 112.2 116.38"><defs><style>.cls-1,.cls-2{stroke-width:0}.cls-2{fill:#0b0608}</style></defs><g id="Layer_1-2"><path d="M112.17 75.44c1.41 33.4-39.81 43.77-59.96 40.31-8.74-1.5-14.37-6.96-17.96-13.58-.66-1.2-1.25-2.45-1.77-3.72-3.25-7.8-4.15-16.41-4.24-21.86-.17-11.17-5.21-13.13-7.29-32.52-.05-.47-.08-.93-.08-1.4 2.02-2.27 6.67 2.71 10.31 7.05 4.9 5.82 9.38 15.32 18.07 16.39s41-16.1 42.15-25.54c.1-.82.04-1.76-.15-2.8.62.8 20.44 26.36 20.91 37.67Z" style="stroke-width:0;fill:#e459d2"/><path d="M91.26 37.77c.19 1.04.25 1.98.15 2.8-1.15 9.44-33.46 26.61-42.15 25.54S36.09 55.54 31.19 49.72c-3.64-4.34-8.29-9.32-10.31-7.05 0-2.55.72-5.14 1.97-7.71a29 29 0 0 1 2.05-3.51c2-2.98 4.63-5.89 7.61-8.64 1.75-1.62 3.62-3.19 5.55-4.67 3.83-2.96 7.9-5.61 11.74-7.81 2.82-1.62 5.52-2.98 7.91-4.04 4.28-1.9 7.6-2.82 8.93-2.4 5.55 1.74 22.58 23.01 24.63 33.88Z" style="stroke-width:0;fill:#ffb871"/><path d="M57.7 6.29a87 87 0 0 0-7.91 4.04s-4.82-4.87-9.03-2.35c-5.45 3.25-2.71 10.16-2.71 10.16-1.93 1.48-3.8 3.05-5.55 4.67 0 0-4.43-14.38 5.99-20.77C48.91-4.34 57.7 6.29 57.7 6.29M32.48 98.45c.52 1.27 1.11 2.52 1.77 3.72-20.6 14.21-27.55-2.7-24.6-25.58C11.29 63.91-3.9 56.65.97 39.52c4.86-17.12 22.35-10.83 23.92-8.07a29 29 0 0 0-2.05 3.51s-11.1-4.53-13.88 5.87 8.56 23.56 9.73 32.03c1.17 8.5-2.93 17.47.52 24.16 2.97 5.77 13.27 1.43 13.27 1.43" style="stroke-width:0;fill:#b825a2"/><path d="M66.77 3.43c1.49.52 2.62 1.42 3.74 2.32 1.1.92 2.14 1.89 3.14 2.9 2 2.02 3.88 4.15 5.67 6.34 3.55 4.42 6.81 9.08 9.53 14.1 1.33 2.53 2.57 5.13 3.22 8.04.31 1.44.53 3.01.03 4.65-.5 1.54-1.37 2.8-2.29 3.93-1.87 2.28-4.06 4.15-6.31 5.92a84 84 0 0 1-7.04 4.83c-4.86 2.96-9.91 5.56-15.2 7.69-2.66 1.04-5.34 2.01-8.22 2.57-.72.15-1.45.25-2.21.3-.73.06-1.6.03-2.31-.14-1.5-.21-2.9-.82-4.24-1.48-2.61-1.46-4.74-3.53-6.55-5.74-1.83-2.21-3.41-4.56-5.05-6.83-1.6-2.27-3.4-4.41-5.29-6.46-.95-1-1.94-1.98-3.03-2.77-.54-.38-1.11-.73-1.69-.92-.58-.17-1.09-.12-1.45.29l-.03.04a.475.475 0 0 1-.71-.63c0-.01.02-.02.03-.03.16-.15.34-.3.51-.44.21-.1.42-.19.64-.26.22-.02.45-.05.66-.05l.62.1c.78.22 1.43.6 2.05 1 1.21.84 2.26 1.82 3.27 2.83 1.99 2.03 3.88 4.16 5.59 6.44 1.7 2.26 3.3 4.57 5.1 6.66 1.78 2.11 3.8 3.98 6.14 5.24 1.19.56 2.42 1.07 3.72 1.23 1.25.25 2.52.08 3.86-.18 2.66-.53 5.28-1.49 7.86-2.52 5.14-2.11 10.12-4.71 14.86-7.63 2.37-1.46 4.69-3 6.9-4.69 2.18-1.69 4.31-3.5 6.02-5.57.85-1.03 1.6-2.15 1.98-3.29.36-1.07.24-2.41-.05-3.7-.58-2.6-1.73-5.15-2.97-7.62-2.56-4.93-5.7-9.59-9.12-14-1.7-2.22-3.49-4.37-5.4-6.4-.95-1.02-1.94-2-2.98-2.91-1.03-.9-2.13-1.8-3.3-2.26l-.04-.02a.48.48 0 0 1 .33-.9Z" style="stroke-width:0;fill:#f19545"/><path d="M53.25 111.66c-2.53-.71-4.93-1.53-7.09-3.08-2.17-1.56-4.03-3.64-5.45-5.9-3.16-5.04-4.5-11.1-5.55-16.89-.03-.18-.33-.14-.32.04.29 6.38 1.29 12.88 4.81 18.34 2.84 4.4 7.92 8.83 13.43 8.7.69-.02.85-1.03.16-1.22Z" class="cls-1"/><path d="M52.93 106.17c-1.24-.81-2.53-1.54-3.73-2.42-1.17-.86-2.26-1.84-3.25-2.9-1.99-2.14-3.65-4.7-4.82-7.38-.09-.21-.42-.06-.36.15.85 3.03 2.29 5.72 4.28 8.13 1.95 2.35 4.44 4.64 7.32 5.74.8.3 1.21-.9.56-1.33Z" class="cls-1"/><path d="M91.88 60.97s2.9 8.66 2.35 10.04c-1.1 2.8-14.72 9.47-18.05 10.01-3.08.51-10.44-4.57-10.44-4.57 1.22-3.32 22.83-15.48 26.14-15.48" style="stroke-width:0;fill:#7ecfc1"/><path d="M65.74 76.45s7.36 5.08 10.44 4.57c3.33-.54 16.95-7.21 18.05-10.01.55-1.38-2.35-10.04-2.35-10.04 1.39 0 10.76 13.49 11.1 18.75.35 5.25-20.19 19.24-25.93 18.73-3.98-.36-12.48-18.82-11.31-22M51.17 60.97c.09 1.44 2.5 9.73 3.82 10.05s6.95-2.01 6.95-3.76-3.26-9.15-4.09-9.15c-1.19 0-6.74 1.98-6.68 2.86m28.85-16.32c-.34 1.07 3.76 9.38 5.5 9.38s5.52-2.44 5.52-4.19c0-2.01-4.55-9-5.91-9-1.09 0-4.69 2.51-5.11 3.82Z" style="stroke-width:0;fill:#67b0a8"/><path d="M53.73 37.08c-.12-.12-.26-.24-.41-.36s-.34-.21-.52-.31c-.19-.08-.41-.15-.62-.19-.22-.02-.44-.05-.65-.01-.22.01-.41.09-.61.14-.18.08-.35.16-.5.25s-.27.2-.39.29c-.22.2-.37.39-.47.53s-.14.24-.14.23c-.1.12-.09.31.04.41.12.1.26.09.41-.04 0 0 .06-.05.18-.12a4.7 4.7 0 0 1 .82-.43c.11-.06.24-.07.36-.12.12-.02.25-.05.38-.04h.15c-.88.49-1.21 1.73-.71 2.86.52 1.18 1.74 1.78 2.72 1.34s1.3-1.73.83-2.93c-.37-.95-.78-1.38-.89-1.51Zm15.91-7.57c-.12-.12-.26-.24-.41-.36-.14-.12-.34-.21-.52-.31-.19-.08-.41-.15-.62-.19-.22-.02-.44-.05-.66-.01-.22.01-.41.09-.61.14-.18.08-.35.16-.5.25s-.28.2-.39.29c-.22.2-.37.39-.47.53s-.14.24-.14.23c-.1.12-.09.31.04.41.12.1.26.09.41-.04 0 0 .06-.05.18-.12a4.7 4.7 0 0 1 .82-.43c.11-.06.24-.07.36-.12.12-.02.25-.05.38-.04h.15c-.88.49-1.21 1.73-.71 2.86.52 1.18 1.74 1.78 2.72 1.34s1.3-1.73.83-2.93c-.37-.96-.78-1.38-.89-1.51Z" class="cls-2"/><path d="M72.45 38.59c-1.45-3.08-.14-6.76 2.93-8.22 3.06-1.46 6.72-.14 8.17 2.95 1.45 3.08.14 6.77-2.93 8.22-3.06 1.46-6.72.14-8.17-2.95M44.16 51.84c-1.45-3.08-.14-6.76 2.93-8.22 3.06-1.46 6.72-.14 8.17 2.95 1.45 3.08.14 6.77-2.93 8.22-3.06 1.46-6.72.14-8.17-2.95" style="stroke-width:0;fill:#f2c4e9"/><path d="M63.43 39.75c2.02-1.01 4.64-.04 4.84.03-.35 1.48-1.24 2.98-2.93 4.11-1.73 1.17-3.67 1.15-5.28.59s.23-3.16 3.37-4.73" style="stroke-width:0;fill:#f2bfec"/><path d="M66.89 34.46c1.12.55 1.98 2.9 1.38 5.32-.21-.07-2.83-1.04-4.84-.03-3.14 1.56-3.37 4.72-3.37 4.72-1.85-.62-3.26-1.97-3.35-3.04-.14-1.5 1.89-3.43 4.21-4.89 2.38-1.51 5.05-2.52 5.98-2.07Z" class="cls-2"/></g></svg>