<?xml version="1.0" encoding="UTF-8"?><svg id="Layer_1" xmlns="http://www.w3.org/2000/svg" viewBox="0 0 141.47 182.2"><defs><style>.cls-1,.cls-2,.cls-3,.cls-4,.cls-5,.cls-6,.cls-7,.cls-8,.cls-9{stroke-width:0px;}.cls-2{fill:#f6f3e7;}.cls-3{fill:#f8f8c3;}.cls-4{fill:#60d384;}.cls-5{fill:#494344;}.cls-6{fill:#2a4a88;}.cls-7{fill:#335db0;}.cls-8{fill:#ff8ea6;}.cls-9{fill:#f27a8c;}</style></defs><path class="cls-2" d="M97.24,5.75c-13.92,5.03-55.74,28.28-75.32,39.13-5.97,3.32-9.88,5.48-10.3,5.61-.29.09-.74.09-1.3.04-1.46-.18-3.66-.81-5.66-1.28,1.55-.87,78.59-44.42,80.09-45.03.29-.13.92-.14,1.77-.09,3.53.22,10.73,1.62,10.73,1.62Z"/><path class="cls-4" d="M83.34.02c.96.43,3.17,4.06,3.17,4.06v.05c-.85-.05-1.48-.04-1.77.09-1.5.61-78.53,44.16-80.09,45.03-1.57-.36-3.03-.65-3.88-.52C9.02,43.6,80.98-1.03,83.34.02Z"/><path class="cls-6" d="M4.66,49.25c2,.47,4.2,1.1,5.66,1.28l39.55,127.19c-2.52-.09-11.52-1.84-13.24-3.48C34.94,172.6-.57,51.36,0,49.21l.76-.49s0,.02.02,0c.85-.13,2.31.16,3.88.52Z"/><path class="cls-7" d="M11.62,50.49c.41-.13,4.33-2.29,10.3-5.61l38.41,127.75v.02c-5.97,3.12-9.92,5.07-10.46,5.07L10.32,50.53c.56.05,1.01.05,1.3-.04Z"/><path class="cls-4" d="M101.7,4.92c4.38,3.08,41.19,116.46,39.73,120.44-1.15,3.21-57.27,34.77-81.09,47.26L21.92,44.88C41.5,34.03,83.32,10.78,97.24,5.75c2.38-.85,3.95-1.19,4.45-.83Z"/><path class="cls-3" d="M44.4,54.73c-.89.84,6.02,21.67,8.57,21.56,2.55-.11,46.63-19.32,46.31-21.85-.32-2.53-6.55-22.37-8.9-22.24-2.35.13-44.78,21.39-45.98,22.53Z"/><path class="cls-1" d="M75.88,105.9c-.25,1.99-2.05,3.4-4.04,3.15-1.99-.25-3.4-2.05-3.15-4.04.25-1.99,2.05-3.4,4.04-3.15,1.99.25,3.4,2.05,3.15,4.04Z"/><path class="cls-1" d="M107.24,91.69c-.25,1.99-2.05,3.4-4.04,3.15-1.99-.25-3.4-2.05-3.15-4.04.25-1.99,2.05-3.4,4.04-3.15,1.99.25,3.4,2.05,3.15,4.04Z"/><path class="cls-9" d="M90.82,105.82c3.84-1.86,6.38-.5,6.38-.5-1.03,1.62-2.54,3.17-4.51,4.24-2.18,1.17-4.8,1.28-7.03.74,0,0,1.33-2.61,5.16-4.47Z"/><path class="cls-1" d="M97.21,105.31s-2.54-1.35-6.38.5c-3.82,1.86-5.16,4.47-5.16,4.47-3.1-.76-5.48-2.8-4.96-5.09.69-3.08,4.85-1.62,8.75-2.42,3.91-.78,5.09-7.18,8.51-4.49,1.35,1.06,1.05,4.17-.76,7.01Z"/><path class="cls-5" d="M126.55,146.01c-5.35,2.16-10.3,5.32-15.34,8.11-5.2,2.87-10.43,5.69-15.65,8.54-10.31,5.64-20.69,11.15-31.07,16.66-.62.33-.22,1.31.43,1.01,10.8-4.93,21.44-10.16,32.01-15.57,5.16-2.64,10.26-5.39,15.34-8.16,5.15-2.8,10.55-5.4,15.25-8.94.89-.67.03-2.07-.98-1.66Z"/><path class="cls-5" d="M91.27,172.85c-2.26,1.24-4.38,2.72-6.5,4.19-2.1,1.47-4.24,2.88-6.41,4.25-.49.31,0,1.12.51.87,2.3-1.13,4.57-2.32,6.82-3.55,2.26-1.24,4.49-2.58,6.47-4.24.74-.61.02-2.02-.9-1.52Z"/><path class="cls-8" d="M80.23,119.25c0-4.39-3.56-7.95-7.95-7.95s-7.95,3.56-7.95,7.95,3.56,7.95,7.95,7.95,7.95-3.56,7.95-7.95Z"/><circle class="cls-8" cx="112.86" cy="101.83" r="7.95"/></svg>