<?xml version="1.0" encoding="UTF-8"?><svg id="Layer_1" xmlns="http://www.w3.org/2000/svg" viewBox="0 0 244.41 195.29"><defs><style>.cls-1,.cls-2,.cls-3{stroke-width:0px;}.cls-2{fill:#960a1c;}.cls-3{fill:#e41834;}</style></defs><path class="cls-3" d="M244.23,157.22c-.32-2.9-4.45-2.39-4.44.44.02,5.96-1.52,12-4.85,16.99-3.39,5.09-8.23,8.42-14.11,10.01-5.75,1.56-12.49,2-18.03-.5-.16-.07-.32-.17-.48-.25,1.59-2.78,2.5-5.93,2.44-9.31-.09-5.04-3.48-10.5-9.15-9.71-5.87.81-6.21,7.87-4.91,12.39.92,3.18,2.56,5.71,4.68,7.7-1.21,1.19-2.58,2.23-4.04,3.05-7.57,4.27-20.94,2.68-23.21-7.25-1.33-5.8,1.8-11.74,3.96-16.93,2.08-5.01,3.95-10.64,2.77-16.1-1.84-8.49-9.76-12.3-17.69-12.43.67-4.37-.39-8.98-3.4-12.32-3.97-4.39-9.89-4.5-15.2-2.77-10.8,3.52-17.85,13.33-28.05,17.92-2.58,1.16-5.25,2.08-8.07,2.34-1.5.14-1.69,2.6-.1,2.73,12.07.97,20.4-8.22,29.6-14.44,4.23-2.86,11.02-6.81,16.21-4.34,4.2,2,5.12,7.03,4.19,11.24-.56.1-1.12.21-1.67.35-2.87.71-5.61,1.83-8.26,3.13-2.44,1.2-5.02,2.42-7.2,4.06-3.86,2.9-6.14,8.37-2.4,12.4,4.2,4.53,10.12-.54,13.53-3.53,4.02-3.52,7.72-7.72,9.7-12.73.61-.04,1.22-.07,1.84-.04,4.79.16,10.05,2.49,12.04,7.11,2.29,5.32-.24,11.38-2.44,16.29-2.43,5.41-5.13,11.2-4.45,17.29,1.17,10.58,12.54,16.49,22.37,15.12,5.27-.73,10.36-3.4,14-7.28,5.88,3.16,13.52,3.66,20.03,2.36,6.12-1.22,11.66-3.69,16.11-8.16,4.28-4.31,7.17-9.97,8.33-15.91.58-2.94.69-5.91.36-8.88ZM139.1,151.77c-.76.5-1.88,1.43-2.8.83-.81-.53-1.02-1.94-.85-2.79.5-2.43,3.49-3.99,5.44-5.1,2.94-1.68,6.15-3.27,9.5-4.29-2.66,4.62-6.93,8.48-11.28,11.36ZM194.72,172.8c.02-1,.07-2.58,1.06-3.09.79-.41,1.9-.03,2.53.5,1.79,1.5,1.8,4.57,1.46,6.66-.24,1.48-.76,2.87-1.45,4.17-2.19-2.21-3.67-5.1-3.61-8.24Z"/><path class="cls-2" d="M46.66,13.59c14.62,22.23,39.54,66.23,45.24,75.3-21.84,22.09-40.26,28.83-40.26,28.83-9.23-13.3-34.83-58.59-46.14-82.2,0,0,21.69-7.7,40.43-21.45l.73-.48Z"/><path class="cls-3" d="M46.66,13.59l-.73.48C27.19,27.82,5.5,35.52,5.5,35.52,1.99,28.17-.16,22.93,0,21.4,1.68,5.53,29.71-2.64,36.7.76c1.61.77,5.24,5.68,9.96,12.82Z"/><path class="cls-3" d="M92.88,90.35c3.45,4.41,5.97,36.26,5.18,40.12-.48,2.29-4.27,7.36-9.45,7.44-5.2.08-28.83-13.16-34-16.52-.54-.36-1.56-1.64-2.97-3.68,0,0,18.42-6.74,40.26-28.83.45.73.77,1.22.97,1.47Z"/><path class="cls-1" d="M50.51,21.58c-.45-.04-.89-.05-1.32-.03.13-.19.27-.38.37-.58.55-1.08,1.35-2.49.86-3.68-.25-.6-.95-.96-1.55-.56-6.34,4.24-12.42,8.72-19.01,12.59-6.56,3.85-13.36,7.8-20.48,10.5-.35.13-.4.75.04.8,3.41.44,6.83-1.75,9.81-3.19,3.62-1.76,7.17-3.64,10.65-5.66,3.18-1.84,6.41-3.74,9.57-5.75-3.39,2.22-6.76,4.47-10.2,6.6-3.82,2.37-7.75,4.6-11.87,6.42-2.49,1.1-8.06,1.95-7.24,5.74.09.44.67.7,1.07.55,8.39-3.09,15.93-8.03,23.42-12.83,3.82-2.44,7.81-4.78,11.32-7.66.75-.62,1.53-1.27,2.22-1.99.75-.28,1.51-.5,2.29-.63.33-.05.45-.61.05-.64ZM41.95,24.4c2.41-1.61,4.76-3.3,7-5.08.07.56-.09,1.08-.62,1.71-.22.26-.48.5-.73.73-2.03.44-3.84,1.48-5.65,2.64ZM13.32,42.48c.46-.19.94-.35,1.41-.53.87-.33,1.74-.69,2.6-1.06.83-.36,1.64-.77,2.46-1.16-2.39,1.23-4.84,2.34-7.35,3.32.31-.26.66-.47.89-.57Z"/><path class="cls-1" d="M50.99,19.64c-.46-.3-1.03-.12-1.43.19-.23-.28-.61-.44-.99-.19-1.27.79-2.46,1.73-3.36,2.93-.38.51.13,1.13.7.84.75-.38,1.73-.86,2.55-1.1.38-.11.78-.15,1.18-.19-.42,2.73-16.16,12.94-18.02,14.06-3.17,1.91-6.43,3.66-9.72,5.35-1.77.91-3.55,1.78-5.39,2.54-1.67.69-3.52,1.1-5.11,1.93-.68.35-.23,1.29.42,1.3,2.12.04,4.44-1.06,6.34-1.93,1.86-.86,3.66-1.82,5.45-2.8,4.12-2.25,8.22-4.57,12.21-7.04,3.89-2.41,7.72-4.97,11.35-7.77,2-1.55,7.81-5.48,3.82-8.11Z"/><path class="cls-1" d="M84.75,79.05c-6.07,5.66-12.44,10.91-19.37,15.49-3.36,2.22-6.82,4.3-10.35,6.24-1.77.97-3.56,1.89-5.35,2.8-1.7.87-3.65,1.53-5.07,2.82-.26.23-.02.7.31.67,1.91-.19,3.71-1.26,5.43-2.06,1.8-.84,3.56-1.75,5.31-2.68,3.73-2,7.38-4.15,10.92-6.47,6.98-4.55,13.69-9.62,19.79-15.31,1.04-.97-.59-2.47-1.62-1.5Z"/><path class="cls-1" d="M87.98,83.36c-5.94,5.67-12.13,11.1-18.84,15.84-3.25,2.3-6.62,4.46-10.07,6.45-3.55,2.05-7.29,4.33-11.38,5.01-.4.07-.55.73-.07.79,3.84.46,7.23-1.49,10.5-3.29,3.85-2.12,7.59-4.44,11.21-6.95,7.12-4.94,13.77-10.55,19.51-17.06.5-.57-.31-1.3-.85-.79Z"/><path class="cls-1" d="M86.72,80.35c-11.79,11.59-25.8,20.04-40.63,27.15-.39.19-.08.83.32.68,15.47-5.82,29.34-15.66,41.48-26.75.75-.69-.43-1.81-1.17-1.08Z"/><path class="cls-1" d="M87.44,82.04c-12.12,10.57-25.68,19.36-39.91,26.82-.38.2-.08.86.32.68,14.94-6.55,28.56-15.64,40.86-26.32.85-.73-.44-1.91-1.28-1.18Z"/><path class="cls-1" d="M72.47,93.53c-3.86,3.41-7.6,6.92-11.84,9.87-2.12,1.48-4.27,2.95-6.75,3.73-1.15.36-2.27.81-3.4,1.24-1.09.42-2.65.67-3.44,1.56-.62.69-.05,1.59.77,1.64,1.15.07,2.49-.94,3.49-1.47,1.13-.6,2.22-1.25,3.22-2.04,2.05-1.62,4.44-2.77,6.64-4.19,4.32-2.77,8.54-5.91,11.85-9.86.31-.36-.19-.8-.53-.49Z"/><path class="cls-1" d="M65.61,80.46c.91-5.48-.73-11.18-2.82-16.41-2.61-6.55-5.6-13.22-10.87-18.1-2.47-2.29-5.38-4.1-8.61-5.09-.59-.18-1.29-.39-1.97-.43-1.1-.93-2.72-.28-3.78.51-.99.75-1.66,1.69-2.11,2.78-1.16,1.56-1.23,4.33-1.25,6.02-.03,2.75.43,5.5,1.12,8.16.78,2.97,1.91,5.82,3.11,8.64,1.1,2.58,2.16,5.25,3.6,7.66,1.55,2.59,3.64,4.85,5.6,7.12,1.87,2.17,3.65,4.59,6.16,6.09,1.43.85,3.19,1.36,4.88,1.27.45.02.91.02,1.37-.06,2.4-.41,3.98-2.39,4.8-4.56.44-1.17.67-2.38.76-3.61ZM52.68,58.4c2.51,3.72,4.49,7.78,5.89,12.05.71,2.17,1.28,4.4,1.67,6.66.1.58.28,1.44.42,2.38-.66-3.2-1.67-6.37-2.78-9.45-1.52-4.23-3.38-8.28-5.58-12.17.13.18.27.35.39.54ZM46.19,52.43c-.15.17-.24.39-.23.63.13,2.39,1.09,4.51,1.99,6.7,1.02,2.48,2.11,4.93,3.18,7.39.38.87.76,1.73,1.13,2.6-3-4.86-5.29-10.17-6.67-15.7-.07-.3-.48-1.33-.31-1.58.3-.45.62-.32.91-.04ZM44.69,49.42c.12.04.27.14.41.26-.37.05-.75.21-1.13.51-1.92,1.52-.54,4.83-.01,6.69,1.67,5.9,4.31,11.63,7.86,16.64,1.38,1.95,2.92,3.77,4.53,5.54.04.08.07.16.11.24-3.88-2.67-6.48-7.85-8.59-11.66-1.97-3.57-3.99-7.46-5.35-11.48-.43-1.87-.6-3.85.24-5.52.38-.75.88-1.55,1.94-1.22ZM42.26,45.59c.47.23.92.5,1.37.79-1.06.17-2,.81-2.72,1.7-.02-.75,0-1.49.06-2.24.01-.16.02-.4.03-.65.38.06.8.16,1.27.4ZM39.22,53.9c.05,1.39.33,2.79.68,4.11,1.57,5.93,4.3,11.69,7.68,16.8,1.67,2.53,3.64,4.88,5.75,7.06.04.04.09.1.14.14-.43-.33-.81-.64-1.08-.85-.06-.05-.11-.1-.17-.15-.31-.35-.61-.69-.91-1.02-1.08-1.19-2.14-2.36-3.16-3.54-.6-.99-1.22-1.98-1.78-2.99-2.59-4.68-4.83-9.59-6.7-14.61-.81-3.25-1.4-6.62-1.44-9.85,0-.43.03-.83.09-1.22.05,2.08.39,4.12.91,6.12Z"/></svg>