<svg xmlns="http://www.w3.org/2000/svg" viewBox="0 0 108.31 169.98"><defs><style>.cls-6{stroke-width:0;fill:#b3a6a6}</style></defs><g style="isolation:isolate"><g id="Layer_1"><path d="M35.22 164.65c-1.91 1.29-3.91.64-5.34-.75.28-.45.55-.91.79-1.38 1.04-1.97 2.33-4.39 2.18-6.7-.18-2.67-2.89-4.08-5.12-2.5-2.19 1.55-2.79 4.59-2.44 7.1.17 1.25.6 2.47 1.25 3.56-1.05 1.27-2.32 2.31-3.88 2.88-1.69.61-3.65.7-5.21-.29s-2.36-2.78-2.77-4.52c-.02-.09-.03-.18-.05-.27 1.51-.76 2.9-1.74 4.09-2.82 1.95-1.77 3.6-3.96 4.75-6.34.94-1.96 1.84-4.27 1.11-6.46-.82-2.47-3.5-2.97-5.6-1.75-2.19 1.27-3.97 3.66-5.14 5.87-1.56 2.92-2.41 6.41-2.2 9.78-1.93.63-3.99.75-5.77-.16-3.72-1.89-3.55-7.01-2.78-10.49.98-4.38 2.9-8.55 6.03-11.8.45-.46-.22-1.1-.7-.7-4.1 3.47-7.15 8.04-8.11 13.38-.83 4.62-.07 10.22 4.77 12.28 2.27.97 4.68.91 6.98.23.19.77.45 1.53.78 2.26 2.27 5.02 8.03 6.21 12.6 3.45 1.09-.66 2.03-1.5 2.86-2.46.35.3.71.59 1.12.82 2.27 1.35 5.27 1.52 7.27-.37.97-.92-.31-2.65-1.45-1.88Zm-18.83-13.3c.9-1.59 2.11-3.23 3.62-4.3.51-.36 1.36-.88 1.82-.22.36.52.22 1.43.11 2-.73 3.59-3.59 7.08-6.46 9.21-.35.26-.73.52-1.13.76.04-2.6.78-5.22 2.04-7.46Zm11.56 9.05c-.29-1.52-.13-3.68 1.12-4.76 1.63-1.41.92 1.81.66 2.49-.41 1.08-.9 2.21-1.49 3.29q-.195-.51-.3-1.02Zm8.57-13.88s7.09 5.2 16 6c-6.08 4.46-11.6 7.87-13.01 7.11-.77-.41-2.04-6.14-3.17-13.08z" style="stroke-width:0;fill:#494344"/><path d="M108.19 34.5c.63 1.47-1.24 8.44-4.42 18.09-28.96-5.39-41.54-13.71-41.54-13.71 3.43-8.29 6.41-14.19 8.39-15.56 8.38-5.83 33.37 1.34 37.57 11.18" style="stroke-width:0;fill:#ff889b"/><path d="M103.77 52.59c-.51 1.56-1.06 3.19-1.64 4.88 0 0-9.03-.6-22.08-4.88-13.72-4.51-19.59-9.31-19.59-9.31.6-1.53 1.19-3 1.77-4.4 0 0 12.58 8.32 41.54 13.71" class="cls-6"/><path d="M102.13 57.47c-.6 1.76-1.23 3.58-1.9 5.46 0 0-10.74-.93-21.74-4.54-12.08-3.97-20.19-9.5-20.19-9.5q1.095-2.91 2.16-5.61s5.87 4.8 19.59 9.31c13.05 4.28 22.08 4.88 22.08 4.88" class="cls-6"/><path d="M78.49 58.39c11 3.61 21.74 4.54 21.74 4.54-10.27 29.16-26.93 70.45-28.87 73.43-.07.1-.15.21-.26.34.18-.21-.43-2.99-.89-3.52-1.73-1.94-5.25 1.57-6.41 1-1.46-.71-.76-4.9-3.17-5.82-2.11-.8-4.93 1.5-6.42.93-.94-.35-1.58-4.67-3.96-5.4-2.09-.64-5.44 1.49-6.49.96-1.05-.52-1.63-4.48-4.25-5.14-1.56-.39-4.93 2.02-5.52 2.45.04-.34.09-.62.16-.83.95-2.94 13.53-44.31 24.15-72.44 0 0 8.11 5.53 20.19 9.5" style="stroke-width:0;fill:#ffc93c"/><path d="M70.21 133.18c.46.53 1.07 3.31.89 3.52-2.01 2.57-10.75 10.08-18.58 15.82-8.91-.8-16-6-16-6l-.18.03c-1.51-9.23-2.78-20.6-2.34-24.39.59-.43 3.96-2.84 5.52-2.45 2.62.66 3.2 4.62 4.25 5.14 1.05.53 4.4-1.6 6.49-.96 2.38.73 3.02 5.05 3.96 5.4 1.49.57 4.31-1.73 6.42-.93 2.41.92 1.71 5.11 3.17 5.82 1.16.57 4.68-2.94 6.41-1Z" style="stroke-width:0;fill:#ffe0a0"/><path d="M88.99 67.01c-1.07 1.38-1.7 3.11-2.36 4.71-.72 1.73-1.36 3.48-1.97 5.25-1.24 3.61-2.24 7.3-3.41 10.94-2.46 7.67-6.34 14.69-9.52 22.07-1.82 4.23-3.52 8.44-4.81 12.87-.08.29.35.48.49.21 3.88-7.13 6.76-14.77 10.48-22 3.48-6.78 5.65-13.96 7.81-21.24.62-2.08 1.24-4.15 1.97-6.19.71-2.01 1.79-3.96 2.35-6.01.15-.55-.64-1.12-1.04-.6Zm-21.81-9.42c-.76.89-1.08 2.04-1.46 3.14-.4 1.19-.82 2.38-1.24 3.56-.85 2.37-1.73 4.72-2.63 7.07-1.92 5.02-3.89 10.03-5.91 15.01-1.96 4.83-3.94 9.65-5.85 14.5-1.95 4.96-4.14 9.88-5.46 15.08-.09.37.4.6.58.26 2.49-4.47 4.22-9.36 6.13-14.13 1.99-4.97 3.92-9.97 5.85-14.97 1.88-4.88 3.88-9.72 5.76-14.6.94-2.43 1.86-4.87 2.74-7.32.43-1.18.84-2.37 1.25-3.56.42-1.22.95-2.47.86-3.79-.02-.31-.4-.55-.63-.28Zm11.31 5.55c-1.25 1.73-1.93 3.87-2.77 5.83-.88 2.06-1.86 4.07-2.74 6.13-1.68 3.97-3.35 7.94-4.99 11.92-1.65 4-3.34 7.98-4.92 12.01-1.39 3.56-2.4 7.21-3.43 10.89-1.14 4.03-2.41 8.12-4.72 11.65-.15.23.21.52.39.3 4.67-5.8 5.56-13.28 8.06-20.09 1.51-4.11 3.41-8.09 5.17-12.09 1.8-4.11 3.59-8.22 5.34-12.34.94-2.21 1.81-4.43 2.71-6.66.94-2.34 2.3-4.7 2.74-7.19.09-.52-.53-.78-.84-.35Z" style="stroke-width:0;fill:#c88f00"/><path d="M82.81 31.36c0-.12-.03-.26-.05-.39-.02-.14-.09-.28-.14-.42-.07-.14-.15-.28-.25-.4-.11-.12-.22-.23-.36-.32-.13-.1-.27-.15-.4-.21-.14-.04-.27-.08-.39-.1-.13-.02-.24-.02-.35-.02-.22 0-.39.04-.51.07s-.19.06-.19.06c-.11.02-.19.13-.17.24s.1.17.24.17c0 0 .06 0 .16.02.1.01.24.04.41.08.08.02.17.05.25.08.09.02.17.08.25.11.08.05.16.09.23.16.03.02.06.05.08.07-.72-.15-1.48.37-1.74 1.23-.27.89.12 1.8.87 2.03s1.54-.33 1.84-1.21c.24-.7.22-1.13.22-1.25m12.35 3.43c0-.12-.03-.26-.05-.39-.02-.14-.09-.28-.14-.42-.07-.14-.15-.28-.25-.4-.11-.12-.22-.24-.36-.32-.13-.1-.27-.15-.4-.21a3 3 0 0 0-.39-.1c-.13-.02-.24-.02-.35-.02-.22 0-.39.04-.51.07s-.19.06-.19.06c-.11.02-.19.13-.17.24s.1.17.24.17c0 0 .06 0 .16.02.1.01.24.04.41.08.08.02.17.05.25.08.09.02.17.08.25.11.08.05.16.09.23.16.03.02.06.05.08.07-.72-.15-1.48.37-1.74 1.23-.27.89.12 1.8.87 2.03s1.54-.33 1.84-1.21c.25-.7.22-1.13.23-1.25Z" style="stroke-width:0;fill:#0b0608"/><path d="M91.88 40.83a4.47 4.47 0 0 1 5.5-3.11c2.38.66 3.77 3.12 3.11 5.5a4.47 4.47 0 0 1-5.5 3.11 4.465 4.465 0 0 1-3.11-5.5M70.55 34.9a4.47 4.47 0 0 1 5.5-3.11c2.38.66 3.77 3.12 3.11 5.5a4.47 4.47 0 0 1-5.5 3.11 4.465 4.465 0 0 1-3.11-5.5" style="fill:#ee609b;mix-blend-mode:multiply;opacity:.64;stroke-width:0"/><path d="M84.6 34.71c0 .75.06 1.54.25 2.17.21.66.52 1 1.03 1.1.55.13 1.04 0 1.54-.42.48-.42.93-1.06 1.28-1.71l.02-.03c.1-.17.31-.24.49-.14.13.07.2.22.18.36-.11.88-.39 1.72-1.02 2.46-.31.37-.74.69-1.25.88-.52.18-1.08.19-1.58.07-.51-.12-1.06-.43-1.4-.88-.34-.44-.51-.94-.58-1.41-.13-.94.03-1.79.35-2.61.07-.19.28-.28.47-.21.14.06.23.19.23.34v.03ZM73.67 14.16c-.07-2.33-.13-4.65-.29-6.97-.08-1.16-.14-2.32-.19-3.49-.05-1.09.1-2.36-.39-3.36-.25-.51-1.13-.44-1.34.07-.41 1.02-.15 2.33-.08 3.4q.12 1.8.3 3.6c.22 2.33.67 4.61 1.2 6.89.11.45.79.29.78-.15Zm-6.84 1.75c-1.09-1.86-2.26-3.66-3.42-5.47-.51-.8-1.03-1.6-1.5-2.43-.48-.85-.92-1.67-1.52-2.44a.44.44 0 0 0-.8.26c-.05 1.98 1.23 3.83 2.34 5.38q1.92 2.7 3.99 5.28c.43.53 1.26.02.9-.59Zm-3.86 4.72c-2.01-1.39-4.13-2.62-6.2-3.93-1.01-.64-2.02-1.3-3.01-1.98-.92-.63-1.99-1.53-3.09-1.76-.38-.08-.64.34-.45.66.58.99 1.83 1.71 2.77 2.32 1 .66 2.02 1.29 3.04 1.91 2.12 1.28 4.33 2.49 6.65 3.34.38.14.63-.33.29-.56" style="stroke-width:0"/><path d="M60.74 42.89c1.54.94 3.16 1.84 4.8 2.65 1.63.84 3.29 1.62 4.97 2.35 3.37 1.44 6.78 2.77 10.28 3.87 3.5 1.14 7.03 2.15 10.58 3.08q2.67.69 5.37 1.23c1.79.38 3.62.7 5.4.91h.03c.26.04.45.27.42.53-.03.24-.24.42-.48.42-3.79-.03-7.47-.65-11.13-1.39-3.66-.75-7.26-1.75-10.81-2.88a78 78 0 0 1-10.41-4.17c-3.35-1.67-6.61-3.5-9.59-5.84a.477.477 0 0 1-.08-.67c.15-.19.42-.24.62-.11h.02Z" style="stroke-width:0;fill:#8d7f7f"/></g></g></svg>