<?xml version="1.0" encoding="UTF-8"?><svg id="Layer_1" xmlns="http://www.w3.org/2000/svg" viewBox="0 0 74.53 31.57"><defs><style>.cls-1{fill:#f7f9f9;}.cls-1,.cls-2{stroke-width:0px;}.cls-2{fill:#f8fafa;}</style></defs><path class="cls-1" d="M0,11.98h1.12l1.35-4.84H.9V0h17.77l3.32,11.98h1.12v7.14h-10.57v-7.76h-2.78l-.23,1.46h1.88v6.3H0v-7.14h0ZM12.06,8.44l-.9-3.85h-.11l-.9,3.85h1.91,0Z"/><path class="cls-1" d="M24.32,11.98h1.04v-1.52h-1.04V3.32h9.14v.51c-.42.65-.59,1.49-.68,2.87h.11c.68-2.42,2.42-3.82,5.01-3.82,2.73,0,4.39,1.57,4.39,4.16s-1.57,4.19-4.19,4.19c-2,0-3.43-.96-4.02-2.73h-.11v3.49h2.36v7.14h-12.01v-7.14h0Z"/><path class="cls-1" d="M43.97,14.73v-4.27h-1.04v-6.3c1.66-.28,2.59-1.52,3.15-4.16h6.41v3.32h2.93v7.14h-2.93v.82c0,.73.39.96,1.32.96.31,0,.76-.03,1.32-.17l.42,6.89c-1.24.39-2.95.62-4.95.62-4.83,0-6.64-1.29-6.64-4.83h0Z"/><path class="cls-2" d="M6.69,31.24c.03.1.17.28.23.19l-.16-.36-.07.17Z"/><path class="cls-2" d="M7.6,31.51c0-.21-.07-.56-.31-.83.1.37,0,.26.12.7-.05.09-.2-.02-.27-.15.03.1-.17,0-.08.24.27.19.39.12.39-.18.07.05.1.16.13.22h0Z"/><path class="cls-2" d="M15.98,29.37l-.06-.04s.04.03.06.04Z"/><path class="cls-2" d="M21.3,28.55s-.05.06-.04.09c.03-.03.06-.06.04-.09Z"/><path class="cls-2" d="M22.28,28.81s-.04-.01-.06-.02c.03.03.05.05.06.02Z"/><path class="cls-2" d="M15.98,29.37l.16.09c-.02-.12-.09-.08-.16-.09Z"/><path class="cls-2" d="M8.25,30.09s-.03.07-.03.13c.02-.03.03-.05.05-.07,0-.02-.02-.04-.02-.06h0Z"/><path class="cls-2" d="M13.74,30.18h-.04v.17l.04-.17h0Z"/><path class="cls-2" d="M12.03,30.69s-.04-.32-.06-.46c.02.14,0,.21-.02.24.02.06.04.13.08.22Z"/><path class="cls-2" d="M9.2,31.11l-.03.06s.02-.04.03-.06Z"/><path class="cls-2" d="M15.01,29.97s.03.09.04.11c0-.04-.02-.08-.04-.11Z"/><path class="cls-2" d="M65.67,23.44v.06s.02-.05,0-.06Z"/><path class="cls-2" d="M67.7,25.18l-.03.02c0,.06-.01.12-.02.18l.05-.2h0Z"/><path class="cls-2" d="M24,28.95s0,0,0,0c-.04.04-.02.04,0,0Z"/><path class="cls-2" d="M39.21,26.79c-.2-.28.25-.4-.04-.7.04.12-.2.53.04.7Z"/><path class="cls-2" d="M8.31,30.11s.04-.03.07-.04c-.04,0-.06.02-.07.04Z"/><path class="cls-2" d="M39.17,26.08h0l-.03-.03.03.03Z"/><path class="cls-2" d="M27.78,28.15c-.02-.05-.04-.1-.06-.14,0,.03.02.07.06.14Z"/><path class="cls-2" d="M24.86,28.12l.08.03s-.06-.03-.08-.03Z"/><path class="cls-2" d="M29.19,27.48s.06.06.11.01c0-.02-.01-.03-.02-.04-.01.05-.04.07-.09.03h0Z"/><path class="cls-2" d="M30.74,27.28s-.02-.04-.04-.06c-.02,0-.03.02-.05.02l.08.04Z"/><path class="cls-2" d="M60.88,23.4c.03.09.05.2.07.3-.02-.23.21-.31-.07-.3Z"/><path class="cls-2" d="M8.33,30.25c-.03-.08-.04-.12-.02-.15-.02.01-.03.03-.04.04.02.05.04.09.06.11h0Z"/><path class="cls-2" d="M28.9,24.9l.25.02c-.07-.02-.17-.03-.25-.02Z"/><path class="cls-2" d="M49.57,23.48l.05-.04s-.04,0-.05.04Z"/><path class="cls-2" d="M29.89,24.77c.06.11.12.17.17.21,0-.03.02-.05.02-.09l-.19-.12Z"/><path class="cls-2" d="M62.62,22.98c-.24-.02-.13.42-.19.66-.29.11-.12-.32-.21-.55-.18.11-.33.5-.46.48,0-.07-.03-.1,0-.19-.2.34-.56,0-.79.42-.02-.04-.02-.07-.03-.11.03.22.03.44.02.59-.11,0-.2.27-.24-.02.07,0,.07-.11.11-.19l-.11.12c-.09-.41.16-.14.16-.44-.22.13-.48.46-.65.34-.03-.4.39-.12.18-.48l.25.16c-.18-.63.16.05,0-.63-.34-.12-.39.2-.72.07-.08.22.02.33-.06.55-.49.39-.36-1.01-.73-.48-.1.26-.14.77-.39.5l.09-.45c-.33-.05-.2.64-.54.33.06-.18.26-.14.21-.2-.22-.36-.16.25-.33.25l-.03-.4c-.35.05-.74.34-1.13.41.02-.12.09-.24,0-.36-.49.2-1.05-.05-1.52-.29l-.18.34s-.08-.16-.03-.22c-.18-.13,0,.22-.1.35-.11.02-.14-.2-.07-.3-.32.29-.92.63-1.27.27l.07-.1c-.27-.14-.29.71-.54.39l.05-.06c-.58-.14-1.21.18-1.67-.33-.07.5-.58-.21-.6.48-.34-.33-.25-.46-.72-.68-.12-.03-.18.44-.32.52l-.02-.36-.2.39-.12-.43-.14.1c.06.02.13.16.12.26-.22.17-.56-.23-.57-.42l-.52.32c0-.14.09-.2.16-.29-.27.38-.07-.38-.32-.03.04.08-.01.21-.02.29-.14-.21-.43-.21-.65-.11l.03-.25c-.4-.05-.83.16-1.27.18.16.11.15.54.02.59l-.07-.38c-.07.24.14.14-.02.43-.17-.04-.13-.43-.04-.56l-.2.14c-.02-.11.03-.18.03-.32-.07.24-.37-.37-.46.05l-.02-.11c-.45.02-.64.16-1,.2.01.33-.13.26-.23.54-.27-.09-.58-.33-.9-.28-.21.18-.05.28-.14.48-.04-.3-.35-.25-.2-.48-.38.07-.49.09-.96.37.06.12.12.17.1.27-.09.05-.21-.11-.21-.26l.02-.03c-.51.48-1.32-.79-1.71-.13l.02-.03-.42.36c-.21-.04.11-.23-.06-.41-.45.54-.77,0-1.14.36-.39-.86-1.09.15-1.56-.37l.04.21c-.09.21-.14-.11-.23-.14.03.16.13.18.08.29-.89.34-1.91-.12-2.87-.21-.35-.02-.08,1.09-.56.65l.08-.4c-.64.54-1.41.15-2.04.62.03-.09.02-.21.08-.21-.18-.26-.53.05-.5.28-.11-.01-.05-.2-.13-.31-.16-.15-.31.4-.43.13-.02-.04.03-.1.05-.12-.07.15-.44.02-.31.33-.27-.12-.46.21-.69.04-.08.38-.46-.11-.43.4-.05-.53-.5-.36-.62-.1.03-.16-.16-.14-.13-.37-.18.03-.34.15-.27.42-.43-.58-.6.59-.91-.18-.5.36-.97.63-1.44.82-.06-.52.53-.13.43-.68-.43.29-.62.77-1.1.72-.13-.05.03-.24.06-.33-.43.29-.9.08-1.26.44,0-.05.03-.11.06-.16-.08.03-.2-.05-.15.19l.07-.08c.18.32-.2.77-.19.96.02-.7-.43-.1-.36-1-.05.05-.09.18-.05.33-.09-.03-.12-.12-.08-.32-.27.18-.12.41-.38.45-.02-.11.03-.17.03-.31-.09.25-.19.49-.43.43,0-.07-.04-.16.03-.17-.37.1-.54.7-.99.56.04-.52-.17-.14-.27-.57l-.2.17.12.2c-.2.02-.31.37-.5.26l.11-.2-.35.15.23.12c-.16.26.12.54-.16.47.04-.05-.2.03-.34-.2h0c-.07.15-.14.32-.3.24-.06-.13-.06-.48-.1-.57-.03.38-.44.18-.48.59.02-.1-.02-.32-.04-.37l-.02.31c-.11-.08-.13-.12-.15-.3-.28,0,.19.53-.18.36.02-.03,0-.07.04-.12-.35-.06-.59.3-.91.21-.17-.41.24-.16.07-.5-.41.16-.78.7-1.21.68l.09.03c.07.62-.37-.24-.52.09.04-.05,0-.35,0-.28-.3-.04-.55.27-.94.55l.02-.17c-.2-.11-.46,0-.65-.02-.02.17-.13.16-.02.37-.75-.77-.95.7-1.61.08.06-.02.11-.17.06-.16l-.39.24c.1.25.09.14.23.33-.02.17-.11.32-.21.34.14-.22-.1-.42-.22-.55.04.08.03.17.05.25-.33-.41.09.54-.28.3l-.02-.14c-.09.1-.15.31-.28.3-.13-.29.08-.17.02-.42-.17.06-.18.66-.41.4.05-.11.15-.13.2-.24-.26-.31-.26-.21-.4-.23h.02l-.33-.07.1.07c.02.85-.39.27-.52.87.12-.57-.04-.29-.12-.64-.1-.07-.25-.14-.25-.25-.05.32-.3-.14-.36.32-.05-.11-.15.04-.21-.24-.15.14.11.17.14.32-.14.46-.8-.22-1,.44-.25.34-.15.72-.36,1.02-.18-.12-.09-.41-.09-.41-.23-.08-.34,0-.43.2-.01-.11-.08-.16-.18-.26-.11.09.11.41-.13.34-.03-.13-.09-.32-.09-.47-.1.16-.14.43-.24.6-.13-.15-.05-.31-.06-.46-.13.17-.35.39-.24.7l.16.04c-.05.05-.16-.22-.15-.29.02-.3.26-.02.32.08l-.07.12c.43.54.35-.32.59-.38l.13.48.04-.46c.1.09.25.32.18.44.25.15.05-.22.29-.04.03.03.04.05.03.08l.08-.2c.02.11.16.3.05.28.36.14.27-.52.51-.21v.04c.29-.3-.11-.34,0-.85l.5.75-.09-.35s.13,0,.16.13c.05-.28-.08-.14-.07-.38.29.23.46-.32.69.2-.02-.28-.24-.14-.11-.39.25.56.2-.18.46.04.04.32-.17.21.09.43-.06-.54.36,0,.47-.13-.11-.41.26-.26.47-.46.02.14.52.1.78.2v.07c-.05-.43.21-.41.36-.54.05.25.05.36-.02.49l.16-.04c0-.14.04-.23.13-.3l.03.32c.21-.07.35-.47.67-.32-.05-.3-.41-.77-.15-1.03.05.16.12.43.05.51.02-.03.06-.15.13-.09l-.06.29c.15.09.02-.24.12-.23.05.23.11.14.14.33-.02.03-.11-.07-.13.02.12.02.29.12.37.28-.04-.12-.07-.3.01-.35.21-.06.13.26.29.34.02-.17.19-.04.12-.37.06-.01.11.14.15.23.08-.17.52-.15.32-.48l-.04-.02s.01,0,.02-.02h0c.3-.41.81.04,1.15-.19l.02.11c.19-.18.47-.18.58-.45.07-.01.2.18.2.32.15-.12.14-.25.42-.11-.13.23.09.16-.14.18.24.05.32.22.5-.13-.02.3.23.34.32.23l-.2-.18c.11-.06.21-.06.32-.05l.02.39c.54.38.66-.94,1.14-.23.07-.29-.28-.14-.23-.48.21.01.53.52.6.51.32.16.16-.61.48-.52-.06-.13-.16-.49.03-.66.21.01.36.53.25.66-.05.02-.08-.02-.09-.07-.06.06-.13.14-.03.27v-.14c.13.12.41.05.38.29.13-.16.03-.24-.1-.29.3.15.41-.07.71.02-.05-.07-.12-.22-.08-.23.43.1.13-.29.39-.39.19.18.03.51.27.29.19.11.1.36.05.48.2-.3.49.09.64.12l-.11.13c.07-.08.13-.09.2-.1l-.12-.26c.09.04.15.02.17.14.05-.19-.14-.45-.02-.72.12.12.29-.2.38.16-.34-.07.1.36-.16.46.05-.05.11-.06.2-.03.02.04,0,.08-.02.1.36.27.07-.44.39-.48,0,.21.14.37.18.32-.13.02-.12-.33-.02-.51.23.12.2-.16.31-.16l-.13-.05c0-.21.11-.2.25-.29.04.16-.11.13-.05.2.1-.39.42.32.6.04.12.12.07.38.18.46.21-.3.31.24.54-.02-.12-.27-.12-.2.02-.49l-.4.26.21-.45c-.13.02-.25.21-.33.18.1-.25.09-.18,0-.39.24.39.32-.29.56-.05l.1.68c.36.26.49-.43.92-.32l-.14-.1c.01-.28.24-.07.36-.21.02.23.11.3.19.44-.03-.17.29-.03.27-.49l.22.27c.34.07.28-.7.6-.67-.06.26.11.41-.08.61.11-.01.2.02.18-.14.08.14.25-.35.37-.14.03-.11.01-.35.13-.34.02.04.02.11.02.11-.02-.11.16-.18.02-.42.42.67.89-.17,1.25.41.21-.11.48-.22.68-.26,0,.07.02.11-.03.1.31.18.09-.68.45-.48.21.35-.15.22-.03.35.14.75.38-.15.65.27l-.05.05c.2.24.37-.33.65-.31,0,0,0,.07.01.11.14-.41.48-.58.73-.71-.05.3-.1.17-.02.46.11-.05-.09-.48.14-.59.09.15.28.27.34.59l-.22.04c.16.4.29-.05.41.01v.18c.34-.1.29-.56.66-.56l-.05-.13c.15-.47.2.24.36-.12l.11.45c.12-.12.41-.49.64-.6-.1.36-.36.55-.51.78.13,0,.44-.08.48-.31-.05.05-.1.17-.16.1.12-.38.32-.58.58-.59.04.9.7.16.95.83.43-.38.92.05,1.45-.04-.25-.68.16-.03.06-.74.12-.05.17-.05.18,0l.41.39c.11.2-.11.17-.08.33.28.03.14.29.34.47-.06-.25.07-.37.23-.29l-.25-.31c.35-.41.38.57.73.16l-.11.23c.19-.15.73-.05.87-.64.04.08.1.27.02.33.48.05,1.01-.68,1.4-.35l-.02.18c.09-.05.13-.34.25-.17,0,.07-.02.18.02.18.04-.06.21-.32.34-.23l-.09.2c.47.2.68-.52,1.05-.67.03.52.4.66.59.73v.07c.54.04.88-.47,1.37-.7.34.54,1.05.18,1.56.47-.08-.09,0-.4.08-.46.12.1.31-.37.31.11h-.04c.11.45.34.32.53.33v-.62c.53.88,1.28-.37,1.57.43.11-.16.26-.16.37-.32v.33c.33.07.49.11.89.02l-.08.24c.23.02.27-.96.48-.98l.07.5c.4-.01.8.41,1.19-.04,0,.07-.02.21-.08.24.19.01.73.32.65-.36,0,.44.41.04.62-.16l-.03.33c.18-.42.18-.54.44-.65.06.04.05.26-.03.18.2.17.16-.31.4-.13l-.09.21c.21.03.19-.09.3-.33.13-.13.39.08.42.38.03-.18.14-.42.26-.34.02.11-.03.18-.05.21.34.22.52-.38.75-.06,0,.11.02.16.04.2-.27,0-.49-.03-.47-.05,0,.3.22.36.04.77.18-.23.48-.72.7-.58.01.03.02.06.03.11l-.02.04c.05.03.09,0,.14-.05.07.05.11.09.18.09.02.25.25.14.36.15,0-.33.14-.28,0-.55.02.02-.02.04-.09.05-.02,0-.04.02-.05.04,0,0,0-.02,0-.03-.07,0-.17.02-.27.02.09-.17.18-.31.3-.12.06-.21.12-.43.16-.53.14.46.43.71.47,1,.34-.18.79-.11,1.02-.72.1-.08.11.18.14.28-.05.06-.12.05-.15.14.2-.16.57-.05.62-.48.24.2-.14.39.19.33l-.05.13c.63.7,1.09-1.09,1.79-.17-.05-.05-.07-.08-.08-.16.81.42,1.71-.3,2.5.35.23.13.26-.14.41-.34l.04.36.26-.39c.36-.28.55.9,1.01.36l-.04-.24c.15.05.5-.11.46.16.02-.04.07-.25.12-.12v.18l.39-.3c.29.15-.09.73.34.79.16-.06.49-.51.44-.64-.06-.01-.16-.12-.15-.31l.15-.09c.06-.54.21-1.09-.13-1.5l-.27.32-.07-.27h.21c-.11-.26-.2-.04-.29.1-.01-.14-.04-.24-.09-.3l-.28.51c-.02-.21.14-.42-.02-.54-.13.23.09.48-.12.63-.11-.25-.06-.45-.21-.25-.01-.14.02-.23.08-.29-.14.16-.34.05-.42.34-.11-.31-.43.05-.39-.46-.05.12-.24.39-.36.41.24-.61-.43-.06-.34-.72-.18.55-.58.21-.87.52.02-.04.05-.13.07-.1-.16-.05-.2-.22-.29-.33-.04.46-.29.55-.43.83-.18-.45.14-.54.09-.96,0,.37-.35.36-.3.67-.14-.28-.12-.14-.18-.52-.05.57-.14.09-.28.44-.2-.29-.04-.54-.28-.37-.11-.18.11-.37.11-.37l.04-.02ZM57.03,23.85h0s.09-.02.11-.03c-.02,0-.06.01-.11.02h0ZM56.56,23.85c.06.01.13.02.2.01.02.11,0,.23-.05.23.03-.07-.08-.14-.15-.24ZM57.52,26.14c-.07.05-.1-.02-.11-.09.04,0,.07-.02.13-.04,0-.01,0-.03,0-.04,0,.06-.02.12-.03.16h0Z"/><path class="cls-2" d="M57.66,25.71s.02-.02.03-.02c-.02-.03-.03-.05-.04-.07,0,.04-.02.07-.03.1.01,0,.03,0,.04,0Z"/><path class="cls-2" d="M15.9,29.33h.01s-.02-.02-.03-.04c0,.02.01.02.02.04Z"/><polygon class="cls-2" points="50.09 23.3 50.09 23.38 50.13 23.31 50.09 23.3"/><path class="cls-2" d="M13.15,28.78s-.03-.05-.05-.07c0,.02.03.05.05.07Z"/><path class="cls-2" d="M12.04,28.99l-.19-.07c.09.05.14.06.19.07Z"/><path class="cls-2" d="M11.15,29.08c0,.06.02.1.02.14h0l-.03-.14h0Z"/><path class="cls-2" d="M24.46,25.96s.02-.01.03-.02c.07-.07.02-.04-.03.02Z"/><path class="cls-2" d="M20.6,27.41c.03-.07.06-.13.1-.18-.07-.01-.13,0-.1.18Z"/><path class="cls-2" d="M28.87,24.9h0s.02,0,.03,0h-.03Z"/><path class="cls-2" d="M20.89,27.2c-.08-.05-.14-.03-.19.03.06.01.14.03.19-.03Z"/><path class="cls-2" d="M7.51,30.44h-.04s.02.05.02.06l.02-.06h0Z"/><path class="cls-2" d="M7.49,30.5l-.02.06s.04-.02.02-.06Z"/><path class="cls-2" d="M7.42,30.68l.05-.12s-.07.03-.05.12Z"/><path class="cls-2" d="M8.65,30.03l-.04-.11s.02.06.04.11Z"/><path class="cls-2" d="M8.97,29.85c-.09.01-.3-.14-.38-.03l.03.09c-.02-.18.36.15.36-.07h0Z"/><path class="cls-2" d="M10.85,30.7h-.3c.09.11.21.25.1.32.45.24-.16-.25.2-.32h0Z"/><path class="cls-2" d="M11.73,30.61c-.12.1.05.18.07.25.05-.14.07-.17-.07-.25Z"/><path class="cls-2" d="M17.91,29.19l.04.3c.11-.07-.02-.11-.04-.3Z"/><polygon class="cls-2" points="18.82 27.43 18.67 27.27 18.67 27.55 18.82 27.43"/><polygon class="cls-2" points="19.93 29.4 19.89 29.45 20.07 29.31 19.93 29.4"/><path class="cls-2" d="M30.5,27.6l-.08-.36c-.07.07-.03.49.08.36Z"/><path class="cls-2" d="M35.05,26.67c.07.18.21.29.27.09-.11-.02-.23-.15-.27-.09Z"/><polygon class="cls-2" points="48.95 26.29 48.86 26.42 49.03 26.31 48.95 26.29"/><polygon class="cls-1" points="58.16 15.57 56.89 17.46 59.5 18.41 60.21 17.54 58.16 15.57"/><polyline class="cls-1" points="60.21 11 58.95 12.09 58.95 15.01 61.02 16.99 63.93 16.99 64.96 15.57 60.88 11"/><polygon class="cls-1" points="61.02 10.19 65.67 15.17 74.53 4.58 71.21 1.25 61.02 10.19"/></svg>