<?xml version="1.0" encoding="UTF-8"?><svg id="Layer_1" xmlns="http://www.w3.org/2000/svg" viewBox="0 0 122.43 158.77"><defs><style>.cls-1{fill:#e41834;}.cls-1,.cls-2,.cls-3,.cls-4,.cls-5{stroke-width:0px;}.cls-2{fill:#c97d52;}.cls-3{fill:#335db0;}.cls-4{fill:#e69664;}.cls-5{fill:#ffc93c;}</style></defs><path class="cls-3" d="M66.24,65.73s4.66,7.29,10.98,8.94c0,0-68.7,82.59-71.04,83.65-4.02,1.8-7.05-2.22-5.94-4.72,1.84-4.13,66.01-87.87,66.01-87.87Z"/><path class="cls-5" d="M95.37,56.77l-18.16,17.9c-6.32-1.66-10.98-8.94-10.98-8.94l12.45-20.94c1.82,5.01,6.37,8.55,11.12,10.72,1.59.72,3.49,1.17,5.56,1.26Z"/><path class="cls-4" d="M115.9,25.68c4.46,1.2,4.24-2.45,6.51-2.14-.07,3.35-.54,6.85-1.55,10.32-5.15,17.54-16.81,23.32-25.49,22.9-2.06-.09-3.96-.54-5.56-1.26-4.76-2.17-9.3-5.71-11.12-10.72-1.36-3.76-1.2-8.34,1.54-13.78,3.89-7.73,12.6-12.72,19.71-16.22-.11.27-1.17,3.26,2.01,4.6,3.34,1.42,5.29-1.67,7.5-.25,2.21,1.43,2,5.36,6.44,6.55Z"/><path class="cls-1" d="M115.91.02c1.65.22,6.8,10.91,6.5,23.53-2.27-.32-2.05,3.34-6.51,2.14-4.44-1.19-4.23-5.12-6.44-6.55-2.21-1.42-4.16,1.67-7.5.25-3.19-1.34-2.12-4.33-2.01-4.6h0c5.11-2.54,9.41-4.31,10.53-5.8,2.66-3.56,2.76-9.32,5.43-8.97Z"/><path class="cls-2" d="M82.11,48.03c1.25-5.36,2.85-10.53,5.87-15.19,2.92-4.51,6.8-8.35,11.01-11.66.15-.12.02-.4-.16-.31-5.09,2.47-9.16,6.44-12.23,11.17-3.04,4.69-5.37,10.17-5.56,15.81-.02.69.91.86,1.08.17Z"/><path class="cls-2" d="M95.07,37.48c3.38-4.21,7.06-8.2,10.66-12.22.19-.21-.14-.46-.33-.27-7.61,7.58-16.01,15.92-19.97,26.13-.13.33.33.52.5.22,2.73-4.87,5.64-9.5,9.15-13.86Z"/><path class="cls-2" d="M112.44,27.09c.16-.37-.38-.6-.57-.25-1.89,3.55-4.04,7-6.55,10.15-2.45,3.06-5.27,5.77-8.1,8.47-.24.23.13.6.4.42,6.54-4.49,11.73-11.55,14.82-18.79Z"/><path class="cls-2" d="M117.44,28.88c.03-.15-.2-.22-.26-.08-2.26,6.07-6.07,11.86-11.05,16.04-4.69,3.94-10.24,6.23-16.12,7.77-.44.12-.25.78.18.75,13.25-.88,24.6-11.73,27.25-24.49Z"/></svg>