<?xml version="1.0" encoding="UTF-8"?><svg id="Layer_1" xmlns="http://www.w3.org/2000/svg" viewBox="0 0 131.84 170.91"><defs><style>.cls-1,.cls-2,.cls-3,.cls-4{stroke-width:0px;}.cls-2{fill:#53dce0;}.cls-3{fill:#36747a;}.cls-4{fill:#f27f88;}</style></defs><path class="cls-2" d="M0,147.01c.98,2,32.67,25.16,35.38,23.84,5.27-2.58,96.35-143.26,96.46-148.63.11-5.37-30.81-23.05-34.4-22.19C93.85.9-.44,146.11,0,147.01Z"/><path class="cls-3" d="M6.31,136.85c2.18,1.53,4.32,3.14,6.47,4.72,2.16,1.57,4.28,3.2,6.35,4.89.13.11.15.3.04.43-.1.12-.27.15-.4.07-2.28-1.41-4.5-2.88-6.69-4.41-2.19-1.52-4.41-3.01-6.57-4.58-.31-.22-.37-.65-.15-.95.22-.3.64-.37.95-.16Z"/><path class="cls-3" d="M9.85,132.05c1.37.98,2.69,2.04,4.03,3.06,1.34,1.02,2.65,2.09,3.91,3.23.12.11.13.31.02.43-.1.11-.26.13-.38.06-1.46-.86-2.88-1.78-4.25-2.76-1.38-.97-2.78-1.91-4.13-2.92-.3-.23-.36-.66-.14-.96.22-.3.64-.36.95-.15Z"/><path class="cls-3" d="M13.49,126.32c1.37.98,2.69,2.04,4.03,3.06,1.34,1.02,2.65,2.09,3.91,3.23.12.11.13.31.02.43-.1.11-.26.13-.38.06-1.46-.86-2.88-1.78-4.25-2.76-1.38-.97-2.78-1.91-4.13-2.92-.3-.23-.36-.66-.14-.96.22-.3.64-.36.94-.15Z"/><path class="cls-3" d="M17.05,120.41c1.37.98,2.69,2.04,4.03,3.06,1.34,1.02,2.65,2.09,3.91,3.23.12.11.13.31.02.43-.1.11-.26.13-.38.06-1.46-.86-2.88-1.78-4.25-2.76-1.38-.97-2.78-1.91-4.13-2.92-.3-.23-.36-.66-.14-.96.22-.3.64-.36.95-.15Z"/><path class="cls-3" d="M20.61,115.49c1.37.98,2.69,2.04,4.03,3.06,1.34,1.02,2.65,2.09,3.91,3.23.12.11.13.31.02.43-.1.11-.26.13-.38.06-1.46-.86-2.88-1.78-4.25-2.76-1.38-.97-2.78-1.91-4.13-2.92-.3-.23-.36-.66-.14-.96.22-.3.64-.36.94-.15Z"/><path class="cls-3" d="M23.43,110.56c2.18,1.53,4.32,3.14,6.47,4.72,2.16,1.57,4.28,3.2,6.35,4.89.13.11.15.3.04.43-.1.12-.27.15-.4.07-2.28-1.41-4.5-2.88-6.69-4.41-2.19-1.52-4.41-3.01-6.57-4.58-.31-.22-.37-.65-.15-.95.22-.3.64-.37.95-.16Z"/><path class="cls-3" d="M26.97,105.75c1.37.98,2.69,2.04,4.03,3.06,1.34,1.02,2.65,2.09,3.91,3.23.12.11.13.31.02.43-.1.11-.26.13-.38.06-1.46-.86-2.88-1.78-4.25-2.76-1.38-.97-2.78-1.91-4.13-2.93-.3-.23-.36-.66-.14-.96.22-.3.64-.36.95-.15Z"/><path class="cls-3" d="M30.61,100.02c1.37.98,2.69,2.04,4.03,3.06,1.34,1.02,2.65,2.09,3.91,3.23.12.11.13.31.02.43-.1.11-.26.13-.38.06-1.46-.86-2.88-1.78-4.25-2.76-1.38-.97-2.78-1.91-4.13-2.92-.3-.23-.36-.66-.14-.96.22-.3.64-.36.94-.15Z"/><path class="cls-3" d="M34.17,94.12c1.37.98,2.69,2.04,4.03,3.06,1.34,1.02,2.65,2.09,3.91,3.23.12.11.13.31.02.43-.1.11-.26.13-.38.06-1.46-.86-2.88-1.78-4.25-2.76-1.38-.97-2.78-1.91-4.13-2.92-.3-.23-.36-.66-.14-.96.22-.3.64-.36.94-.15Z"/><path class="cls-3" d="M37.73,89.19c1.37.98,2.69,2.04,4.03,3.06,1.34,1.02,2.65,2.09,3.91,3.23.12.11.13.31.02.43-.1.11-.26.13-.38.06-1.46-.86-2.88-1.78-4.25-2.76-1.38-.97-2.78-1.91-4.13-2.92-.3-.23-.36-.66-.14-.96.22-.3.64-.36.94-.15Z"/><path class="cls-3" d="M41.54,82.95c2.18,1.53,4.32,3.14,6.47,4.72,2.16,1.57,4.28,3.2,6.35,4.89.13.11.15.3.04.43-.1.12-.27.15-.4.07-2.28-1.41-4.5-2.88-6.69-4.41-2.19-1.52-4.41-3.01-6.57-4.58-.31-.22-.37-.65-.15-.95.22-.3.64-.37.95-.16Z"/><path class="cls-3" d="M45.08,78.15c1.37.98,2.69,2.04,4.03,3.06,1.34,1.02,2.65,2.09,3.91,3.23.12.11.13.31.02.43-.1.11-.26.13-.38.06-1.46-.86-2.88-1.78-4.25-2.76-1.38-.97-2.78-1.91-4.13-2.92-.3-.23-.36-.66-.14-.96.22-.3.64-.36.95-.15Z"/><path class="cls-3" d="M48.72,72.42c1.37.98,2.69,2.04,4.03,3.06,1.34,1.02,2.65,2.09,3.91,3.23.12.11.13.31.02.43-.1.11-.26.13-.38.06-1.46-.86-2.88-1.78-4.25-2.76-1.38-.97-2.78-1.91-4.13-2.92-.3-.23-.36-.66-.14-.96.22-.3.64-.36.94-.15Z"/><path class="cls-3" d="M52.28,66.51c1.37.98,2.69,2.04,4.03,3.06,1.34,1.02,2.65,2.09,3.91,3.23.12.11.13.31.02.43-.1.11-.26.13-.38.06-1.46-.86-2.88-1.78-4.25-2.76-1.38-.97-2.78-1.91-4.13-2.92-.3-.23-.36-.66-.14-.96.22-.3.64-.36.95-.14Z"/><path class="cls-3" d="M55.84,61.59c1.37.98,2.69,2.04,4.03,3.06,1.34,1.02,2.65,2.09,3.91,3.23.12.11.13.31.02.43-.1.11-.26.13-.38.06-1.46-.86-2.88-1.78-4.25-2.76-1.38-.97-2.78-1.91-4.13-2.92-.3-.23-.36-.66-.14-.96.22-.3.64-.36.95-.14Z"/><path class="cls-3" d="M60.06,55.15c2.18,1.53,4.32,3.14,6.47,4.72,2.16,1.57,4.28,3.2,6.35,4.89.13.11.15.3.04.43-.1.12-.27.15-.4.07-2.28-1.41-4.5-2.88-6.69-4.41-2.19-1.52-4.41-3.01-6.57-4.58-.31-.22-.37-.65-.15-.95.22-.3.64-.37.95-.16Z"/><path class="cls-3" d="M63.6,50.34c1.37.98,2.69,2.04,4.03,3.06,1.34,1.02,2.65,2.09,3.91,3.23.12.11.13.31.02.43-.1.11-.26.13-.38.06-1.46-.86-2.88-1.78-4.25-2.76-1.38-.97-2.78-1.91-4.13-2.92-.3-.23-.36-.66-.14-.96.22-.3.64-.36.95-.15Z"/><path class="cls-3" d="M67.24,44.61c1.37.98,2.69,2.04,4.03,3.06,1.34,1.02,2.65,2.09,3.91,3.23.12.11.13.31.02.43-.1.11-.26.13-.38.06-1.46-.86-2.88-1.78-4.25-2.76-1.38-.97-2.78-1.91-4.13-2.92-.3-.23-.36-.66-.14-.96.22-.3.64-.36.95-.15Z"/><path class="cls-3" d="M70.8,38.71c1.37.98,2.69,2.04,4.03,3.06,1.34,1.02,2.65,2.09,3.91,3.23.12.11.13.31.02.43-.1.11-.26.13-.38.06-1.46-.86-2.88-1.78-4.25-2.76-1.38-.97-2.78-1.91-4.13-2.92-.3-.23-.36-.66-.14-.96.22-.3.64-.36.95-.15Z"/><path class="cls-3" d="M74.36,33.79c1.37.98,2.69,2.04,4.03,3.06,1.34,1.02,2.65,2.09,3.91,3.23.12.11.13.31.02.43-.1.11-.26.13-.38.06-1.46-.86-2.88-1.78-4.25-2.76-1.38-.97-2.78-1.91-4.13-2.92-.3-.23-.36-.66-.14-.96.22-.3.64-.36.94-.15Z"/><path class="cls-3" d="M78.31,28.51c2.18,1.53,4.32,3.14,6.47,4.72,2.16,1.57,4.28,3.2,6.35,4.89.13.11.15.3.04.43-.1.12-.27.15-.4.07-2.28-1.41-4.5-2.88-6.69-4.41-2.19-1.52-4.41-3.01-6.57-4.58-.31-.22-.37-.65-.15-.95.22-.3.64-.37.95-.16Z"/><path class="cls-3" d="M81.85,23.71c1.37.98,2.69,2.04,4.03,3.06,1.34,1.02,2.65,2.09,3.91,3.23.12.11.13.31.02.43-.1.11-.26.13-.38.06-1.46-.86-2.88-1.78-4.25-2.76-1.38-.97-2.78-1.91-4.13-2.92-.3-.23-.36-.66-.14-.96.22-.3.64-.36.94-.15Z"/><path class="cls-3" d="M85.49,17.98c1.37.98,2.69,2.04,4.03,3.06,1.34,1.02,2.65,2.09,3.91,3.23.12.11.13.31.02.43-.1.11-.26.13-.38.06-1.46-.86-2.88-1.78-4.25-2.76-1.38-.97-2.78-1.91-4.13-2.92-.3-.23-.36-.66-.14-.96.22-.3.64-.36.95-.15Z"/><path class="cls-3" d="M89.05,12.08c1.37.98,2.69,2.04,4.03,3.06,1.34,1.02,2.65,2.09,3.91,3.23.12.11.13.31.02.43-.1.11-.26.13-.38.06-1.46-.86-2.88-1.78-4.25-2.76-1.38-.97-2.78-1.91-4.13-2.92-.3-.23-.36-.66-.14-.96.22-.3.64-.36.95-.15Z"/><path class="cls-3" d="M92.61,7.15c1.37.98,2.69,2.04,4.03,3.06,1.34,1.02,2.65,2.09,3.91,3.23.12.11.13.31.02.43-.1.11-.26.13-.38.06-1.46-.86-2.88-1.78-4.25-2.76-1.38-.97-2.78-1.91-4.13-2.92-.3-.23-.36-.66-.14-.96.22-.3.64-.36.94-.15Z"/><path class="cls-1" d="M63.87,93.64c1.26.89,1.64,2.51.87,3.6-.78,1.1-2.43,1.26-3.69.37-1.26-.89-1.64-2.51-.86-3.6.78-1.1,2.43-1.26,3.69-.37Z"/><path class="cls-1" d="M79.63,71.47c1.26.89,1.64,2.5.87,3.6-.78,1.1-2.43,1.26-3.69.37-1.26-.89-1.65-2.51-.87-3.6.78-1.09,2.43-1.26,3.69-.37Z"/><path class="cls-1" d="M66.8,90.35c1.47.21,3.05.14,4.39-.33,1.35-.48,2.47-1.36,3.23-2.57.8-1.21,1.24-2.59,1.22-4.01-.01-1.41-.52-2.91-1.27-4.17l-.03-.05c-.14-.23-.06-.53.17-.67.2-.12.44-.08.6.08,1.23,1.27,1.99,2.9,2.18,4.7.2,1.8-.36,3.66-1.33,5.12-.97,1.51-2.56,2.71-4.31,3.12-1.75.43-3.51.3-5.15-.31-.25-.09-.38-.37-.29-.62.08-.22.3-.34.52-.31h.05Z"/><path class="cls-4" d="M91.38,70.78c2.21,1.56,2.4,5.08.43,7.85-1.96,2.77-5.34,3.75-7.55,2.19-2.2-1.56-2.4-5.08-.44-7.85,1.96-2.77,5.34-3.75,7.55-2.19Z"/><path class="cls-4" d="M72.45,99.35c2.21,1.56,2.4,5.08.43,7.85-1.96,2.77-5.34,3.75-7.55,2.19-2.2-1.56-2.4-5.08-.44-7.85,1.97-2.77,5.34-3.75,7.55-2.19Z"/></svg>