<svg xmlns="http://www.w3.org/2000/svg" viewBox="0 0 131.84 170.91"><path d="M0 147.01c.98 2 32.67 25.16 35.38 23.84 5.27-2.58 96.35-143.26 96.46-148.63S101.03-.83 97.44.03C93.85.9-.44 146.11 0 147.01" style="stroke-width:0;fill:#53dce0"/><path d="M6.31 136.85c2.18 1.53 4.32 3.14 6.47 4.72 2.16 1.57 4.28 3.2 6.35 4.89.13.11.15.3.04.43a.31.31 0 0 1-.4.07c-2.28-1.41-4.5-2.88-6.69-4.41-2.19-1.52-4.41-3.01-6.57-4.58a.676.676 0 0 1-.15-.95c.22-.3.64-.37.95-.16Zm3.54-4.8c1.37.98 2.69 2.04 4.03 3.06s2.65 2.09 3.91 3.23c.12.11.13.31.02.43-.1.11-.26.13-.38.06-1.46-.86-2.88-1.78-4.25-2.76-1.38-.97-2.78-1.91-4.13-2.92a.696.696 0 0 1-.14-.96c.22-.3.64-.36.95-.15Zm3.64-5.73c1.37.98 2.69 2.04 4.03 3.06s2.65 2.09 3.91 3.23c.12.11.13.31.02.43-.1.11-.26.13-.38.06-1.46-.86-2.88-1.78-4.25-2.76-1.38-.97-2.78-1.91-4.13-2.92a.696.696 0 0 1-.14-.96c.22-.3.64-.36.94-.15Zm3.56-5.91c1.37.98 2.69 2.04 4.03 3.06s2.65 2.09 3.91 3.23c.12.11.13.31.02.43-.1.11-.26.13-.38.06-1.46-.86-2.88-1.78-4.25-2.76-1.38-.97-2.78-1.91-4.13-2.92a.696.696 0 0 1-.14-.96c.22-.3.64-.36.95-.15Zm3.56-4.92c1.37.98 2.69 2.04 4.03 3.06s2.65 2.09 3.91 3.23c.12.11.13.31.02.43-.1.11-.26.13-.38.06-1.46-.86-2.88-1.78-4.25-2.76-1.38-.97-2.78-1.91-4.13-2.92a.696.696 0 0 1-.14-.96c.22-.3.64-.36.94-.15Zm2.82-4.93c2.18 1.53 4.32 3.14 6.47 4.72 2.16 1.57 4.28 3.2 6.35 4.89.13.11.15.3.04.43a.31.31 0 0 1-.4.07c-2.28-1.41-4.5-2.88-6.69-4.41-2.19-1.52-4.41-3.01-6.57-4.58a.676.676 0 0 1-.15-.95c.22-.3.64-.37.95-.16Zm3.54-4.81c1.37.98 2.69 2.04 4.03 3.06s2.65 2.09 3.91 3.23c.12.11.13.31.02.43-.1.11-.26.13-.38.06-1.46-.86-2.88-1.78-4.25-2.76-1.38-.97-2.78-1.91-4.13-2.93a.696.696 0 0 1-.14-.96c.22-.3.64-.36.95-.15Zm3.64-5.73c1.37.98 2.69 2.04 4.03 3.06s2.65 2.09 3.91 3.23c.12.11.13.31.02.43-.1.11-.26.13-.38.06-1.46-.86-2.88-1.78-4.25-2.76-1.38-.97-2.78-1.91-4.13-2.92a.696.696 0 0 1-.14-.96c.22-.3.64-.36.94-.15Zm3.56-5.9c1.37.98 2.69 2.04 4.03 3.06s2.65 2.09 3.91 3.23c.12.11.13.31.02.43-.1.11-.26.13-.38.06-1.46-.86-2.88-1.78-4.25-2.76-1.38-.97-2.78-1.91-4.13-2.92a.696.696 0 0 1-.14-.96c.22-.3.64-.36.94-.15Zm3.56-4.93c1.37.98 2.69 2.04 4.03 3.06s2.65 2.09 3.91 3.23c.12.11.13.31.02.43-.1.11-.26.13-.38.06-1.46-.86-2.88-1.78-4.25-2.76-1.38-.97-2.78-1.91-4.13-2.92a.696.696 0 0 1-.14-.96c.22-.3.64-.36.94-.15Zm3.81-6.24c2.18 1.53 4.32 3.14 6.47 4.72 2.16 1.57 4.28 3.2 6.35 4.89.13.11.15.3.04.43a.31.31 0 0 1-.4.07c-2.28-1.41-4.5-2.88-6.69-4.41-2.19-1.52-4.41-3.01-6.57-4.58a.676.676 0 0 1-.15-.95c.22-.3.64-.37.95-.16Zm3.54-4.8c1.37.98 2.69 2.04 4.03 3.06s2.65 2.09 3.91 3.23c.12.11.13.31.02.43-.1.11-.26.13-.38.06-1.46-.86-2.88-1.78-4.25-2.76-1.38-.97-2.78-1.91-4.13-2.92a.696.696 0 0 1-.14-.96c.22-.3.64-.36.95-.15Zm3.64-5.73c1.37.98 2.69 2.04 4.03 3.06s2.65 2.09 3.91 3.23c.12.11.13.31.02.43-.1.11-.26.13-.38.06-1.46-.86-2.88-1.78-4.25-2.76-1.38-.97-2.78-1.91-4.13-2.92a.696.696 0 0 1-.14-.96c.22-.3.64-.36.94-.15Zm3.56-5.91c1.37.98 2.69 2.04 4.03 3.06s2.65 2.09 3.91 3.23c.12.11.13.31.02.43-.1.11-.26.13-.38.06-1.46-.86-2.88-1.78-4.25-2.76-1.38-.97-2.78-1.91-4.13-2.92a.696.696 0 0 1-.14-.96c.22-.3.64-.36.95-.14Zm3.56-4.92c1.37.98 2.69 2.04 4.03 3.06s2.65 2.09 3.91 3.23c.12.11.13.31.02.43-.1.11-.26.13-.38.06-1.46-.86-2.88-1.78-4.25-2.76-1.38-.97-2.78-1.91-4.13-2.92a.696.696 0 0 1-.14-.96c.22-.3.64-.36.95-.14Zm4.22-6.44c2.18 1.53 4.32 3.14 6.47 4.72 2.16 1.57 4.28 3.2 6.35 4.89.13.11.15.3.04.43a.31.31 0 0 1-.4.07c-2.28-1.41-4.5-2.88-6.69-4.41-2.19-1.52-4.41-3.01-6.57-4.58a.676.676 0 0 1-.15-.95c.22-.3.64-.37.95-.16Zm3.54-4.81c1.37.98 2.69 2.04 4.03 3.06s2.65 2.09 3.91 3.23c.12.11.13.31.02.43-.1.11-.26.13-.38.06-1.46-.86-2.88-1.78-4.25-2.76-1.38-.97-2.78-1.91-4.13-2.92a.696.696 0 0 1-.14-.96c.22-.3.64-.36.95-.15Zm3.64-5.73c1.37.98 2.69 2.04 4.03 3.06s2.65 2.09 3.91 3.23c.12.11.13.31.02.43-.1.11-.26.13-.38.06-1.46-.86-2.88-1.78-4.25-2.76-1.38-.97-2.78-1.91-4.13-2.92a.696.696 0 0 1-.14-.96c.22-.3.64-.36.95-.15Zm3.56-5.9c1.37.98 2.69 2.04 4.03 3.06s2.65 2.09 3.91 3.23c.12.11.13.31.02.43-.1.11-.26.13-.38.06-1.46-.86-2.88-1.78-4.25-2.76-1.38-.97-2.78-1.91-4.13-2.92a.696.696 0 0 1-.14-.96c.22-.3.64-.36.95-.15Zm3.56-4.92c1.37.98 2.69 2.04 4.03 3.06s2.65 2.09 3.91 3.23c.12.11.13.31.02.43-.1.11-.26.13-.38.06-1.46-.86-2.88-1.78-4.25-2.76-1.38-.97-2.78-1.91-4.13-2.92a.696.696 0 0 1-.14-.96c.22-.3.64-.36.94-.15Zm3.95-5.28c2.18 1.53 4.32 3.14 6.47 4.72 2.16 1.57 4.28 3.2 6.35 4.89.13.11.15.3.04.43a.31.31 0 0 1-.4.07c-2.28-1.41-4.5-2.88-6.69-4.41-2.19-1.52-4.41-3.01-6.57-4.58a.676.676 0 0 1-.15-.95c.22-.3.64-.37.95-.16Zm3.54-4.8c1.37.98 2.69 2.04 4.03 3.06s2.65 2.09 3.91 3.23c.12.11.13.31.02.43-.1.11-.26.13-.38.06-1.46-.86-2.88-1.78-4.25-2.76-1.38-.97-2.78-1.91-4.13-2.92a.696.696 0 0 1-.14-.96c.22-.3.64-.36.94-.15Zm3.64-5.73c1.37.98 2.69 2.04 4.03 3.06s2.65 2.09 3.91 3.23c.12.11.13.31.02.43-.1.11-.26.13-.38.06-1.46-.86-2.88-1.78-4.25-2.76-1.38-.97-2.78-1.91-4.13-2.92a.696.696 0 0 1-.14-.96c.22-.3.64-.36.95-.15Zm3.56-5.9c1.37.98 2.69 2.04 4.03 3.06s2.65 2.09 3.91 3.23c.12.11.13.31.02.43-.1.11-.26.13-.38.06-1.46-.86-2.88-1.78-4.25-2.76-1.38-.97-2.78-1.91-4.13-2.92a.696.696 0 0 1-.14-.96c.22-.3.64-.36.95-.15Zm3.56-4.93c1.37.98 2.69 2.04 4.03 3.06s2.65 2.09 3.91 3.23c.12.11.13.31.02.43-.1.11-.26.13-.38.06-1.46-.86-2.88-1.78-4.25-2.76-1.38-.97-2.78-1.91-4.13-2.92a.696.696 0 0 1-.14-.96c.22-.3.64-.36.94-.15Z" style="stroke-width:0;fill:#36747a"/><path d="M63.87 93.64c1.26.89 1.64 2.51.87 3.6-.78 1.1-2.43 1.26-3.69.37s-1.64-2.51-.86-3.6c.78-1.1 2.43-1.26 3.69-.37Zm15.76-22.17c1.26.89 1.64 2.5.87 3.6-.78 1.1-2.43 1.26-3.69.37s-1.65-2.51-.87-3.6 2.43-1.26 3.69-.37M66.8 90.35c1.47.21 3.05.14 4.39-.33a6.23 6.23 0 0 0 3.23-2.57c.8-1.21 1.24-2.59 1.22-4.01-.01-1.41-.52-2.91-1.27-4.17l-.03-.05a.49.49 0 0 1 .77-.59 7.9 7.9 0 0 1 2.18 4.7c.2 1.8-.36 3.66-1.33 5.12-.97 1.51-2.56 2.71-4.31 3.12-1.75.43-3.51.3-5.15-.31a.48.48 0 0 1 .23-.93h.05Z" style="stroke-width:0"/><path d="M91.38 70.78c2.21 1.56 2.4 5.08.43 7.85-1.96 2.77-5.34 3.75-7.55 2.19-2.2-1.56-2.4-5.08-.44-7.85s5.34-3.75 7.55-2.19ZM72.45 99.35c2.21 1.56 2.4 5.08.43 7.85-1.96 2.77-5.34 3.75-7.55 2.19-2.2-1.56-2.4-5.08-.44-7.85 1.97-2.77 5.34-3.75 7.55-2.19Z" style="stroke-width:0;fill:#f27f88"/></svg>