<svg xmlns="http://www.w3.org/2000/svg" viewBox="0 0 134.19 196.17"><path d="M105.74 0c6.67-.12 32.27 188.86 27.97 193.76-7.38 8.34-125.08-6.99-133.64-15.55C-2.94 175.21 97.52.12 105.74 0M95.26 151.62c2.07-3.44-6.54-61.08-8.66-62.28-1.5-.86-35.18 59.38-33.65 60.24 2.71 1.55 40.41 5.24 42.31 2.04" style="stroke-width:0;fill:#53dce0"/><path d="M96.26 38.35c2.98-.78 5.99-1.41 9.01-1.93 3.02-.53 6.03-1.12 9.06-1.55.67-.1 1.3.37 1.39 1.04.09.66-.36 1.28-1.02 1.39-3.02.5-6.07.85-9.11 1.25-3.04.42-6.09.72-9.17.88-.3.02-.56-.22-.58-.52-.01-.26.16-.49.41-.56Zm7.68 50.77c2.98-.78 5.99-1.41 9.01-1.93 3.02-.53 6.03-1.12 9.06-1.55.67-.1 1.3.37 1.39 1.04.09.66-.36 1.28-1.02 1.39-3.02.5-6.07.85-9.11 1.25-3.04.42-6.09.72-9.17.88-.3.02-.56-.22-.58-.52-.01-.26.16-.49.41-.56Zm-1.11-38.27c2.24-.71 4.51-1.27 6.8-1.72 2.29-.46 4.56-.98 6.87-1.35.67-.11 1.3.35 1.41 1.02.11.66-.34 1.28-.99 1.4-2.29.43-4.61.71-6.92 1.05-2.31.35-4.63.59-6.98.68-.3.01-.56-.23-.57-.53 0-.25.15-.47.38-.55m2.03 11.78c2.24-.71 4.51-1.27 6.8-1.72 2.29-.46 4.56-.98 6.87-1.35.67-.11 1.3.35 1.41 1.02.1.66-.34 1.28-.99 1.4-2.29.43-4.61.71-6.92 1.04-2.31.35-4.63.59-6.98.67-.3.01-.56-.23-.57-.53 0-.25.15-.47.38-.55Zm1.09 12.66c2.24-.71 4.51-1.27 6.8-1.72 2.29-.46 4.56-.98 6.87-1.35.67-.11 1.3.35 1.41 1.02.1.66-.34 1.28-.99 1.4-2.29.43-4.61.71-6.92 1.04-2.31.35-4.63.59-6.98.67-.3.01-.56-.23-.57-.53 0-.25.15-.47.38-.55Zm3.33 24.8c2.24-.71 4.51-1.27 6.8-1.72 2.29-.46 4.56-.98 6.87-1.35.67-.11 1.3.35 1.41 1.02.11.66-.34 1.28-.99 1.4-2.29.43-4.61.71-6.92 1.05-2.31.35-4.63.59-6.98.68-.3.01-.56-.23-.57-.53 0-.25.15-.47.38-.55m2.04 11.77c2.24-.71 4.51-1.27 6.8-1.72 2.29-.46 4.56-.98 6.87-1.35.67-.11 1.3.35 1.41 1.02.1.66-.34 1.28-.99 1.4-2.29.43-4.61.71-6.92 1.04-2.31.35-4.63.59-6.98.67-.3.01-.56-.23-.57-.53 0-.25.15-.47.38-.55Zm1.08 12.66c2.24-.71 4.51-1.27 6.8-1.72 2.29-.46 4.56-.98 6.87-1.35.67-.11 1.3.35 1.41 1.02.1.66-.34 1.28-.99 1.4-2.29.43-4.61.71-6.92 1.04-2.31.35-4.63.59-6.98.67-.3.01-.56-.23-.57-.53 0-.25.15-.47.38-.55Zm-2.04 13.81c2.98-.78 5.99-1.41 9.01-1.93 3.02-.53 6.03-1.12 9.06-1.55.67-.1 1.3.37 1.39 1.04.1.66-.36 1.28-1.02 1.39-3.02.5-6.07.85-9.11 1.25-3.04.42-6.09.72-9.17.88-.3.02-.56-.22-.58-.52-.01-.26.16-.49.41-.56Zm5.35 10.97c2.24-.71 4.51-1.27 6.8-1.72 2.29-.46 4.56-.98 6.87-1.35.67-.11 1.3.35 1.41 1.02.11.66-.34 1.28-.99 1.4-2.29.43-4.61.71-6.92 1.05-2.31.35-4.63.59-6.98.68-.3.01-.56-.23-.57-.53 0-.25.15-.47.38-.55m2.03 11.78c2.24-.71 4.51-1.27 6.8-1.72 2.29-.46 4.56-.98 6.87-1.35.67-.11 1.3.35 1.41 1.02.1.66-.34 1.28-.99 1.4-2.29.43-4.61.71-6.92 1.04-2.31.35-4.63.59-6.98.67-.3.01-.56-.23-.57-.53 0-.25.15-.47.38-.55Zm1.09 12.66c2.24-.71 4.51-1.27 6.8-1.72 2.29-.46 4.56-.98 6.87-1.35.67-.11 1.3.35 1.41 1.02.1.66-.34 1.28-.99 1.4-2.29.43-4.61.71-6.92 1.04-2.31.35-4.63.59-6.98.67-.3.01-.56-.23-.57-.53 0-.25.15-.47.38-.55Z" style="stroke-width:0;fill:#36747a"/><path d="M58.42 158.79c-.06-.3-.16-.61-.27-.93-.1-.32-.31-.64-.49-.96-.22-.3-.47-.62-.76-.88-.31-.24-.62-.49-.98-.65-.34-.19-.71-.27-1.05-.37-.34-.06-.69-.11-1-.1-.31-.01-.6.03-.86.07-.52.09-.93.23-1.21.35s-.45.22-.44.21c-.27.09-.42.38-.33.65s.3.39.65.34h.39c.25 0 .61.01 1.02.05.2.02.42.05.64.1.22.02.43.13.66.17.2.1.43.16.61.3.09.04.16.09.23.14-1.81-.11-3.48 1.44-3.8 3.61-.34 2.27.93 4.35 2.83 4.63s3.62-1.35 4.06-3.6c.35-1.8.14-2.83.1-3.13m31.29 3.94c-.06-.3-.17-.61-.27-.93s-.31-.64-.49-.96c-.22-.3-.47-.62-.76-.88-.31-.24-.62-.49-.98-.65-.34-.19-.71-.27-1.05-.37-.34-.06-.69-.11-1-.1-.31-.01-.6.03-.87.07-.52.09-.93.23-1.21.35s-.45.22-.44.21a.53.53 0 0 0-.34.65c.09.27.3.39.65.34h.39c.25 0 .61.01 1.02.05.2.02.42.05.64.1.23.02.43.13.66.17.2.1.43.16.61.3.09.04.16.09.23.14-1.81-.11-3.48 1.44-3.8 3.61-.34 2.27.93 4.35 2.84 4.63 1.9.28 3.62-1.35 4.06-3.6.35-1.8.14-2.83.1-3.13Z" style="stroke-width:0;fill:#0b0608"/><path d="M85.28 179.07c.76-6.03 6.26-10.3 12.29-9.54s10.3 6.26 9.54 12.29-6.26 10.3-12.29 9.54-10.3-6.26-9.54-12.29m-55.44-7.29c.76-6.03 6.26-10.3 12.29-9.54s10.3 6.26 9.54 12.29-6.26 10.3-12.29 9.54-10.3-6.26-9.54-12.29" style="stroke-width:0;fill:#f27f88"/><path d="M63.12 164.51c.96 1.24 2.08 2.42 3.2 3.3 1.15.87 2.34 1.42 3.59 1.53 1.27.16 2.5-.12 3.7-.79 1.18-.67 2.38-1.75 3.37-2.92l.08-.09c.32-.37.87-.42 1.25-.11.27.23.37.59.28.91-.52 1.88-1.5 3.55-3.1 4.86-1.55 1.33-3.84 2.05-5.95 1.8-2.17-.2-4.14-1.34-5.46-2.8-1.35-1.47-2.18-3.16-2.59-5.04a.89.89 0 0 1 .68-1.06c.35-.08.69.06.89.32l.07.09Z" style="stroke-width:0"/></svg>