<svg xmlns="http://www.w3.org/2000/svg" id="Layer_1" viewBox="0 0 179.64 144.2"><defs><style>.cls-1{opacity:.51}.cls-10,.cls-11,.cls-2,.cls-4,.cls-5,.cls-7{stroke-width:0}.cls-4{fill:#53dce0}.cls-5{fill:#36747a}.cls-7{fill:#21b55e}.cls-10{fill:#ffc60a}.cls-11{fill:#f27f88}</style></defs><g class="cls-1"><path d="M42.99 0c2.71-.05 13.12 76.78 11.37 78.77-3 3.39-50.85-2.84-54.33-6.32C-1.19 71.23 39.65.05 42.99 0m-4.26 61.64c.84-1.4-2.66-24.83-3.52-25.32-.61-.35-14.3 24.14-13.68 24.49 1.1.63 16.43 2.13 17.2.83" class="cls-4"/><path d="M39.13 15.59c1.21-.32 2.43-.57 3.66-.78 1.23-.22 2.45-.45 3.69-.63.27-.04.53.15.57.42s-.15.52-.41.56c-1.23.2-2.47.34-3.7.51s-2.48.29-3.73.36c-.12 0-.23-.09-.23-.21 0-.11.07-.2.17-.23Zm3.12 20.64c1.21-.32 2.43-.57 3.66-.78 1.23-.22 2.45-.45 3.69-.63.27-.04.53.15.57.42s-.15.52-.41.56c-1.23.2-2.47.34-3.7.51s-2.48.29-3.73.36c-.12 0-.23-.09-.23-.21 0-.11.07-.2.17-.23Zm-.45-15.56c.91-.29 1.83-.52 2.77-.7.93-.19 1.85-.4 2.79-.55.27-.04.53.14.57.41s-.14.52-.4.57c-.93.18-1.87.29-2.81.43s-1.88.24-2.84.28c-.12 0-.23-.09-.23-.22 0-.1.06-.19.16-.22Zm.83 4.79c.91-.29 1.83-.52 2.77-.7.93-.19 1.86-.4 2.79-.55.27-.04.53.14.57.42.04.27-.14.52-.4.57-.93.18-1.87.29-2.81.42-.94.14-1.88.24-2.84.27-.12 0-.23-.09-.23-.22 0-.1.06-.19.16-.22Zm.44 5.15c.91-.29 1.83-.52 2.77-.7.93-.19 1.86-.4 2.79-.55.27-.04.53.14.57.42.04.27-.14.52-.4.57-.93.18-1.87.29-2.81.42-.94.14-1.88.24-2.84.27-.12 0-.23-.09-.23-.22 0-.1.06-.19.16-.22Zm1.36 10.08c.91-.29 1.83-.52 2.76-.7.93-.19 1.86-.4 2.79-.55.27-.04.53.14.57.41s-.14.52-.4.57c-.93.18-1.87.29-2.81.43s-1.88.24-2.84.28c-.12 0-.23-.09-.23-.22 0-.1.06-.19.16-.22m.82 4.79c.91-.29 1.83-.52 2.77-.7.93-.19 1.86-.4 2.79-.55.27-.04.53.14.57.42.04.27-.14.52-.4.57-.93.18-1.87.29-2.81.42-.94.14-1.88.24-2.84.27-.12 0-.23-.09-.23-.22 0-.1.06-.19.16-.22Zm.45 5.14c.91-.29 1.83-.52 2.77-.7.93-.19 1.86-.4 2.79-.55.27-.04.53.14.57.42.04.27-.14.52-.4.57-.93.18-1.87.29-2.81.42-.94.14-1.88.24-2.84.27-.12 0-.23-.09-.23-.22 0-.1.06-.19.16-.22Zm-.83 5.62c1.21-.32 2.43-.57 3.66-.78 1.23-.22 2.45-.45 3.69-.63.27-.04.53.15.57.42s-.15.52-.41.56c-1.23.2-2.47.34-3.7.51s-2.48.29-3.73.36c-.12 0-.23-.09-.23-.21 0-.11.07-.2.17-.23Zm2.17 4.46c.91-.29 1.83-.52 2.77-.7.93-.19 1.85-.4 2.79-.55.27-.04.53.14.57.42.04.27-.14.52-.4.57-.93.18-1.87.29-2.81.43s-1.88.24-2.84.28c-.12 0-.23-.09-.23-.22 0-.1.06-.19.16-.22Zm.83 4.78c.91-.29 1.83-.52 2.77-.7.93-.19 1.86-.4 2.79-.55.27-.04.53.14.57.42.04.27-.14.52-.4.57-.93.18-1.87.29-2.81.42-.94.14-1.88.24-2.84.27-.12 0-.23-.09-.23-.22 0-.1.06-.19.16-.22Zm.44 5.15c.91-.29 1.83-.52 2.77-.7.93-.19 1.86-.4 2.79-.55.27-.04.53.14.57.42.04.27-.14.52-.4.57-.93.18-1.87.29-2.81.42-.94.14-1.88.24-2.84.27-.12 0-.23-.09-.23-.22 0-.1.06-.19.16-.22Z" class="cls-5"/><path d="M23.75 64.55c-.02-.12-.07-.25-.11-.38s-.13-.26-.2-.39c-.09-.12-.19-.25-.31-.36-.13-.1-.25-.2-.4-.26-.14-.08-.29-.11-.43-.15-.14-.02-.28-.04-.4-.04-.13 0-.24.01-.35.03-.21.03-.38.09-.49.14s-.18.09-.18.09c-.11.03-.17.15-.14.26s.12.16.26.14h.16c.1 0 .25 0 .41.02.08 0 .17.02.26.04.09 0 .18.05.27.07.08.04.17.07.25.12.04.02.06.04.09.06-.73-.04-1.41.59-1.55 1.47-.14.92.38 1.77 1.15 1.88s1.47-.55 1.65-1.46c.14-.73.06-1.15.04-1.27Zm12.72 1.6c-.02-.12-.07-.25-.11-.38s-.13-.26-.2-.39c-.09-.12-.19-.25-.31-.36-.13-.1-.25-.2-.4-.26-.14-.08-.29-.11-.43-.15-.14-.02-.28-.04-.4-.04-.13 0-.25.01-.35.03-.21.03-.38.09-.49.14-.12.05-.18.09-.18.09-.11.03-.17.15-.14.26s.12.16.26.14h.16c.1 0 .25 0 .41.02.08 0 .17.02.26.04.09 0 .18.05.27.07.08.04.17.07.25.12l.09.06c-.73-.04-1.41.59-1.55 1.47-.14.92.38 1.77 1.15 1.88s1.47-.55 1.65-1.46c.14-.73.06-1.15.04-1.27Z" style="stroke-width:0;fill:#0b0608"/><path d="M34.67 72.8c.31-2.45 2.55-4.19 5-3.88s4.19 2.54 3.88 5a4.48 4.48 0 0 1-5 3.88 4.47 4.47 0 0 1-3.88-5m-22.54-2.97c.31-2.45 2.55-4.19 5-3.88s4.19 2.54 3.88 5a4.48 4.48 0 0 1-5 3.88 4.47 4.47 0 0 1-3.88-5" class="cls-11"/><path d="M25.66 66.88c.39.5.85.98 1.3 1.34.47.35.95.58 1.46.62.52.07 1.02-.05 1.5-.32s.97-.71 1.37-1.19l.03-.04c.13-.15.36-.17.51-.04.11.09.15.24.11.37-.21.76-.61 1.44-1.26 1.98-.63.54-1.56.83-2.42.73-.88-.08-1.68-.54-2.22-1.14-.55-.6-.89-1.29-1.05-2.05-.04-.19.08-.39.27-.43.14-.03.28.02.36.13l.03.03Z" class="cls-2"/></g><g class="cls-1"><path d="M49.75 115.76c-.14 1.63 11.04 28.07 13.23 28.26 4.28.37 114.34-53.66 116.43-56.99s-10.66-26.05-13.24-26.86-116.35 54.85-116.42 55.58Z" class="cls-4"/><path d="M57.53 111.75c.79 1.78 1.53 3.59 2.29 5.39s1.48 3.61 2.15 5.46c.04.12-.02.24-.13.28s-.22 0-.27-.11c-.9-1.74-1.74-3.5-2.54-5.28s-1.63-3.55-2.4-5.34c-.11-.25 0-.55.26-.66.25-.11.54 0 .65.26Zm4.02-1.68c.49 1.13.92 2.29 1.38 3.44s.88 2.31 1.24 3.5c.04.12-.03.24-.15.28-.1.03-.21-.02-.26-.11-.6-1.09-1.14-2.2-1.63-3.33-.5-1.13-1.03-2.25-1.49-3.39-.1-.26.02-.55.27-.65s.54.02.65.26Zm4.45-2.22c.49 1.13.92 2.29 1.38 3.44s.88 2.31 1.24 3.5c.04.12-.03.24-.15.28-.1.03-.21-.02-.26-.11-.6-1.09-1.14-2.2-1.63-3.33-.5-1.13-1.03-2.25-1.49-3.39-.1-.26.02-.55.27-.65s.54.02.65.26Zm4.45-2.37c.49 1.13.92 2.29 1.38 3.44s.88 2.31 1.24 3.5c.04.12-.03.24-.15.28-.1.03-.21-.02-.26-.11-.6-1.09-1.14-2.2-1.63-3.33-.5-1.13-1.03-2.25-1.49-3.39-.1-.26.02-.55.27-.65s.54.02.65.26Zm4.08-1.75c.49 1.13.92 2.29 1.38 3.44s.88 2.31 1.24 3.5c.04.12-.03.24-.15.28-.1.03-.21-.02-.26-.11-.6-1.09-1.14-2.2-1.63-3.33-.5-1.13-1.03-2.25-1.49-3.39-.1-.26.02-.55.27-.65s.54.02.65.26Zm3.63-2.04c.79 1.78 1.53 3.59 2.29 5.39s1.48 3.61 2.15 5.46c.04.12-.02.24-.13.28s-.22 0-.27-.11c-.9-1.74-1.74-3.5-2.54-5.28s-1.63-3.55-2.4-5.34c-.11-.25 0-.55.26-.66.25-.11.54 0 .65.26Zm4.02-1.68c.49 1.13.92 2.29 1.38 3.44s.88 2.31 1.24 3.5c.04.12-.03.24-.15.28-.1.03-.21-.02-.26-.11-.6-1.09-1.14-2.2-1.63-3.33-.5-1.13-1.03-2.25-1.49-3.39-.1-.26.02-.55.27-.65s.54.02.65.26Zm4.45-2.23c.49 1.13.92 2.29 1.38 3.44s.88 2.31 1.24 3.5c.04.12-.03.24-.15.28-.1.03-.21-.02-.26-.11-.6-1.09-1.14-2.2-1.63-3.33-.5-1.13-1.03-2.25-1.49-3.39-.1-.26.02-.55.27-.65s.54.02.65.26Zm4.45-2.36c.49 1.13.92 2.29 1.38 3.44s.88 2.31 1.24 3.5c.04.12-.03.24-.15.28-.1.03-.21-.02-.26-.11-.6-1.09-1.14-2.2-1.63-3.33-.5-1.13-1.03-2.25-1.49-3.39-.1-.26.02-.55.27-.65s.54.02.65.26Zm4.08-1.75c.49 1.13.92 2.29 1.38 3.44s.88 2.31 1.24 3.5c.04.12-.03.24-.15.28-.1.03-.21-.02-.26-.11-.6-1.09-1.14-2.2-1.63-3.33-.5-1.13-1.03-2.25-1.49-3.39-.1-.26.02-.55.27-.65s.54.02.65.26Zm4.74-2.49c.79 1.78 1.53 3.59 2.29 5.39s1.48 3.61 2.15 5.46c.04.12-.02.24-.13.28s-.22 0-.27-.11c-.9-1.74-1.74-3.5-2.54-5.28s-1.63-3.55-2.4-5.34c-.11-.25 0-.55.26-.66.25-.11.54 0 .65.26Zm4.03-1.68c.49 1.13.92 2.29 1.38 3.44s.88 2.31 1.24 3.5c.04.12-.03.24-.15.28-.1.03-.21-.02-.26-.11-.6-1.09-1.14-2.2-1.63-3.33-.5-1.13-1.03-2.25-1.49-3.39-.1-.26.02-.55.27-.65s.54.02.65.26Zm4.44-2.23c.49 1.13.92 2.29 1.38 3.44s.88 2.31 1.24 3.5c.04.12-.03.24-.15.28-.1.03-.21-.02-.26-.11-.6-1.09-1.14-2.2-1.63-3.33-.5-1.13-1.03-2.25-1.49-3.39-.1-.26.02-.55.27-.65s.54.02.65.26Zm4.46-2.36c.49 1.13.92 2.29 1.38 3.44s.88 2.31 1.24 3.5c.04.12-.03.24-.15.28-.1.03-.21-.02-.26-.11-.6-1.09-1.14-2.2-1.63-3.33-.5-1.13-1.03-2.25-1.49-3.39-.1-.26.02-.55.27-.65s.54.02.65.26Zm4.08-1.75c.49 1.13.92 2.29 1.38 3.44s.88 2.31 1.24 3.5c.04.12-.03.24-.15.28-.1.03-.21-.02-.26-.11-.6-1.09-1.14-2.2-1.63-3.33-.5-1.13-1.03-2.25-1.49-3.39-.1-.26.02-.55.27-.65s.54.02.65.26Zm5.07-2.46c.79 1.78 1.53 3.59 2.29 5.39s1.48 3.61 2.15 5.46c.04.12-.02.24-.13.28s-.22 0-.27-.11c-.9-1.74-1.74-3.5-2.54-5.28s-1.63-3.55-2.4-5.34c-.11-.25 0-.55.26-.66.25-.11.54 0 .65.26Zm4.03-1.68c.49 1.13.92 2.29 1.38 3.44s.88 2.31 1.24 3.5c.04.12-.03.24-.15.28-.1.03-.21-.02-.26-.11-.6-1.09-1.14-2.2-1.63-3.33-.5-1.13-1.03-2.25-1.49-3.39-.1-.26.02-.55.27-.65s.54.02.65.26Zm4.44-2.23c.49 1.13.92 2.29 1.38 3.44s.88 2.31 1.24 3.5c.04.12-.03.24-.15.28-.1.03-.21-.02-.26-.11-.6-1.09-1.14-2.2-1.63-3.33-.5-1.13-1.03-2.25-1.49-3.39-.1-.26.02-.55.27-.65s.54.02.65.26Zm4.46-2.36c.49 1.13.92 2.29 1.38 3.44s.88 2.31 1.24 3.5c.04.12-.03.24-.15.28-.1.03-.21-.02-.26-.11-.6-1.09-1.14-2.2-1.63-3.33-.5-1.13-1.03-2.25-1.49-3.39-.1-.26.02-.55.27-.65s.54.02.65.26Zm4.08-1.75c.49 1.13.92 2.29 1.38 3.44s.88 2.31 1.24 3.5c.04.12-.03.24-.15.28-.1.03-.21-.02-.26-.11-.6-1.09-1.14-2.2-1.63-3.33-.5-1.13-1.03-2.25-1.49-3.39-.1-.26.02-.55.27-.65s.54.02.65.26Zm4.46-1.83c.79 1.78 1.53 3.59 2.29 5.39s1.48 3.61 2.15 5.46c.04.12-.02.24-.13.28s-.22 0-.27-.11c-.9-1.74-1.74-3.5-2.54-5.28s-1.63-3.55-2.4-5.34c-.11-.25 0-.55.26-.66.25-.11.54 0 .65.26Zm4.03-1.68c.49 1.13.92 2.29 1.38 3.44s.88 2.31 1.24 3.5c.04.12-.03.24-.15.28-.1.03-.21-.02-.26-.11-.6-1.09-1.14-2.2-1.63-3.33-.5-1.13-1.03-2.25-1.49-3.39-.1-.26.02-.55.27-.65s.54.02.65.26Zm4.44-2.23c.49 1.13.92 2.29 1.38 3.44s.88 2.31 1.24 3.5c.04.12-.03.24-.15.28-.1.03-.21-.02-.26-.11-.6-1.09-1.14-2.2-1.63-3.33-.5-1.13-1.03-2.25-1.49-3.39-.1-.26.02-.55.27-.65s.54.02.65.26Zm4.45-2.36c.49 1.13.92 2.29 1.38 3.44s.88 2.31 1.24 3.5c.04.12-.03.24-.15.28-.1.03-.21-.02-.26-.11-.6-1.09-1.14-2.2-1.63-3.33-.5-1.13-1.03-2.25-1.49-3.39-.1-.26.02-.55.27-.65s.54.02.65.26Zm4.09-1.75c.49 1.13.92 2.29 1.38 3.44s.88 2.31 1.24 3.5c.04.12-.03.24-.15.28-.1.03-.21-.02-.26-.11-.6-1.09-1.14-2.2-1.63-3.33-.5-1.13-1.03-2.25-1.49-3.39-.1-.26.02-.55.27-.65s.54.02.65.26Z" class="cls-5"/><path d="M109.9 106.29c.45 1.03.09 2.19-.81 2.59s-2-.12-2.45-1.16c-.45-1.03-.09-2.19.81-2.59s2 .12 2.45 1.16m18.23-7.99c.45 1.03.09 2.19-.81 2.59-.9.39-2-.12-2.45-1.16-.45-1.03-.09-2.19.81-2.59.9-.39 2 .12 2.45 1.16m-15.16 7.03c.84.68 1.86 1.24 2.88 1.45 1.03.21 2.06.07 2.99-.39.96-.46 1.75-1.16 2.28-2.06.52-.89.77-2.02.77-3.09v-.04c0-.2.16-.36.36-.35.17 0 .31.12.35.27.3 1.26.16 2.57-.4 3.77-.55 1.21-1.6 2.16-2.76 2.71-1.17.58-2.62.74-3.88.34a6.3 6.3 0 0 1-3.11-2.13c-.12-.15-.1-.38.06-.5.13-.11.32-.1.45 0l.03.02Z" class="cls-2"/><path d="M135.75 102.29c.8 1.81-.4 4.09-2.68 5.09-2.27 1-4.76.34-5.56-1.47s.4-4.09 2.68-5.09 4.76-.34 5.56 1.47m-22.62 10.81c.8 1.81-.4 4.09-2.68 5.09-2.27 1-4.76.34-5.56-1.47s.4-4.09 2.68-5.09 4.76-.34 5.56 1.47" class="cls-11"/></g><g class="cls-1"><path d="M118.63 48.66c1.65 1.68 3.94 8.29 2.16 11.33s-8.74 4.49-9.84 4.17c-3.94-16.22-6.86-34.1-12.3-35.9-4.11-1.36-3.64 4.21-1.88 11.56S102 66.93 102 66.93s-9.2 2.35-11.61 1.68c-2.41-.68-4.16-5.69-3.8-8.64 0 0 7.32-3.53 4.16-12.24-2.19-6.02-9.35-4.74-9.35-4.74-1.67-2.54-1.16-11.35.09-13.71 1.97-3.73 21.89-8.08 26.33-7.68 3.95.35 6.9 9.25 7.22 11.65 0 0-6.9 3.68-5.19 10.3 1.8 7 8.78 5.11 8.78 5.11" style="stroke-width:0;fill:#60d384"/><path d="M118.63 48.66s-6.98 1.89-8.78-5.11c-1.71-6.62 5.19-10.3 5.19-10.3.14 1.07-2.63 5.04-2.14 8.88.75 5.88 4.09 4.86 5.73 6.53" class="cls-7"/><path d="M110.95 64.16c-2.94-.85-5.35-.14-6.35.21-1.79.62-2.6 2.56-2.6 2.56s-3.47-19.76-5.23-27.11-2.23-12.92 1.88-11.56c5.44 1.8 8.36 19.68 12.3 35.9" style="stroke-width:0;fill:#d0c5b2"/><path d="M90.75 47.73c3.16 8.71-4.16 12.24-4.16 12.24.36-2.96 1.94-6.46.62-9.99-1.75-4.67-2.83-5.21-5.2-6.41-.23-.11-.43-.31-.61-.58 0 0 7.16-1.28 9.35 4.74" class="cls-7"/><path d="M105.73 45.14c-.06-.28-.19-.53-.38-.75-.11-.09-.21-.18-.32-.28-.25-.16-.52-.26-.81-.27-.22-.02-.44.01-.64.1-.21.05-.39.16-.55.31-.17.14-.29.31-.37.51-.11.19-.17.4-.18.62l.03.44c.06.28.19.53.38.75.11.09.21.18.32.28.25.16.52.26.81.27.22.02.44-.01.64-.1.21-.05.39-.16.55-.31.17-.14.29-.31.37-.51.11-.19.17-.4.18-.62z" style="stroke-width:0;fill:#918687"/><path d="M83.94 32.88a.928.928 0 0 1-.11 1.85.928.928 0 0 1 .11-1.85m7.7.48a.928.928 0 0 1-.11 1.85.928.928 0 0 1 .11-1.85M86.13 36c.16.27.4.52.67.64.27.13.61.21.94.24s.62 0 .92-.12c.29-.11.58-.34.81-.59l.03-.03c.09-.1.24-.1.34 0 .06.06.09.15.07.23-.12.48-.4.87-.82 1.16-.41.3-.95.4-1.43.36-.47-.05-.95-.17-1.35-.5-.4-.32-.68-.79-.65-1.33 0-.13.12-.23.25-.22.08 0 .15.05.19.12l.04.06Z" class="cls-2"/></g><g class="cls-1"><path d="M30.1 106.05c-1.11-1.32-2.21-2.65-3.27-4.01.75-.97 1.5-1.94 2.26-2.91.47-.6.07-1.82-.86-1.47-1.2.45-2.41.9-3.61 1.34-.87-1.29-1.68-2.62-2.37-4.02-.52-1.05-1.91-.42-2.01.54-.18 1.79-.4 3.57-.63 5.35-1.42.53-2.84 1.06-4.25 1.6-1.08.42-.97 2.03.28 2.08 1.13.04 2.26.14 3.38.29-.28 1.62-.57 3.25-.66 4.88-.03.52.4.89.87.96.28.21.71.25.93-.04l3.69-4.77c1.69.49 3.34 1.11 4.94 1.86 1.12.53 2.11-.74 1.31-1.69Zm-13.28-8.37c-.51-.48-1.02-.95-1.53-1.43-.25-.23-.5-.46-.76-.68-.3-.26-.59-.52-.94-.72a.62.62 0 0 0-.8.16c-.2.25-.16.58.05.82.24.27.51.47.79.69.3.24.61.47.92.69.57.4 1.14.81 1.7 1.21.19.13.48.05.6-.12.13-.18.14-.45-.04-.62Zm-3.21 11.78c-.12-.21-.36-.24-.56-.15-.61.28-1.23.56-1.84.84-.3.13-.59.27-.89.4-.13.06-.19.07-.36.12-.26.08-.51.15-.7.35-.22.23-.29.62-.12.89.19.29.5.41.83.34.26-.05.44-.23.64-.4l.18-.15c.06-.05.07-.06.04-.02.04-.02.08-.05.12-.07.27-.17.55-.35.82-.52.57-.36 1.14-.72 1.7-1.08.19-.12.26-.37.15-.56Zm3.74 6.06c-.27.41-.55.81-.82 1.22-.12.18-.25.38-.37.55-.07.09-.14.19-.22.28-.1.12-.16.25-.23.39s-.09.32 0 .46c.1.15.22.21.4.23.17.02.31-.1.4-.23.07-.1.14-.19.2-.3l.15-.33c.1-.23.22-.45.34-.66.23-.43.46-.86.69-1.3.19-.35-.31-.63-.53-.31Zm11.28 1.33c-.15-.58-.37-1.15-.53-1.73-.33-1.17-.61-2.38-.87-3.57-.18-.81-1.44-.62-1.43.19.01 1.26.16 2.48.39 3.71.11.59.22 1.2.4 1.77.21.7.53 1.71 1.46 1.57.39-.06.67-.4.75-.77.09-.4-.08-.79-.18-1.17Zm7.44-15.23c-.13-.15-.34-.19-.51-.26-.19-.07-.37-.11-.57-.14-.36-.06-.72-.11-1.08-.17-.76-.12-1.51-.25-2.27-.32-.41-.04-.49.61-.1.71.73.19 1.48.32 2.22.46l1.07.2c.21.04.4.06.62.06.2 0 .39.02.56-.08s.18-.32.06-.46m-.89 8.41c-.05-.09-.13-.19-.2-.26l-.15-.15c-.09-.09-.17-.16-.27-.24.04.03.08.06.12.1-.36-.28-.69-.6-.98-.95-.08-.1-.28-.17-.41-.17a.57.57 0 0 0-.35.12c-.09.07-.18.18-.21.3-.03.14-.03.32.06.44.26.34.53.67.85.96.07.06.14.13.22.19.11.09.22.16.35.22.12.06.24.12.37.15.11.03.22.04.33.01.05-.01.12-.05.17-.08.11-.06.18-.19.18-.31s-.01-.24-.07-.34Zm-3.16-18.28s-.09.06-.13.09a.6.6 0 0 0-.16.19c-.06.09-.11.19-.16.28-.12.21-.24.41-.36.62-.24.4-.47.81-.71 1.21-.18.31.3.59.49.28.24-.4.49-.8.73-1.2.12-.2.24-.39.36-.59l.18-.3c.05-.08.08-.14.09-.23 0-.05 0-.11.01-.16.02-.17-.2-.28-.34-.19m-11.16-2.02c-.04-.29-.09-.55-.2-.82-.06-.14-.11-.28-.18-.41-.08-.14-.2-.22-.32-.32-.19-.14-.44.05-.44.25 0 .15 0 .28.05.42.04.11.07.22.1.33.06.23.12.46.17.69.1.44.12.9.07 1.37-.04.39.61.48.69.09.11-.53.14-1.07.07-1.6Zm5.96-.2c-.07-.2-.41-.31-.51-.07-.3.68-.35 1.41-.44 2.14-.09.7-.24 1.4-.43 2.09-.13.46.54.62.7.19.26-.69.47-1.4.64-2.12.16-.73.29-1.51.04-2.24Zm-14.84 11.46c-.52-.09-1.04-.19-1.56-.28-.28-.05-.58-.13-.87-.13s-.57.03-.86.08c-.36.06-.43.64-.1.79.26.12.5.22.78.29.29.08.6.08.9.11.53.04 1.05.09 1.58.13.25.02.46-.21.49-.44s-.11-.51-.36-.55m3.64 11.07a.32.32 0 0 0-.19-.15c-.08-.02-.18-.02-.24.03l-.49.36c-.08.06-.16.12-.24.17-.02.01-.04.03-.06.04-.04.03-.08.06-.11.1s-.03.05-.05.09c-.02.05-.04.1-.05.15-.05.14.08.3.23.3h.12a.36.36 0 0 0 .26-.11c.08-.06.16-.12.24-.19l.48-.37c.07-.05.12-.1.15-.19.02-.08.01-.18-.03-.24Z" class="cls-10"/></g><g class="cls-1"><path d="M156.15 28.48c-1.11-1.32-2.21-2.65-3.27-4.01.75-.97 1.5-1.94 2.26-2.91.47-.6.07-1.82-.86-1.47-1.2.45-2.41.9-3.61 1.34-.87-1.29-1.68-2.62-2.37-4.02-.52-1.05-1.91-.42-2.01.54-.18 1.79-.4 3.57-.63 5.35-1.42.53-2.84 1.06-4.25 1.6-1.08.42-.97 2.03.28 2.08 1.13.04 2.26.14 3.38.29-.28 1.62-.57 3.25-.66 4.88-.03.52.4.89.87.96.28.21.71.25.93-.04l3.69-4.77c1.69.49 3.34 1.11 4.94 1.86 1.12.53 2.11-.74 1.31-1.69Zm-13.29-8.37c-.51-.48-1.02-.95-1.53-1.43-.25-.23-.5-.46-.76-.68-.3-.26-.59-.52-.94-.72a.62.62 0 0 0-.8.16c-.2.25-.16.58.05.82.24.27.51.47.79.69.3.24.61.47.92.69.57.4 1.14.81 1.7 1.21.19.13.48.05.6-.12.13-.18.14-.45-.04-.62Zm-3.21 11.78c-.12-.21-.36-.24-.56-.15-.61.28-1.23.56-1.84.84-.3.13-.59.27-.89.4-.13.06-.19.07-.36.12-.26.08-.51.15-.7.35-.22.23-.29.62-.12.89.19.29.5.41.83.34.26-.05.44-.23.64-.4l.18-.15c.06-.05.07-.06.04-.02.04-.02.08-.05.12-.07.27-.17.55-.35.82-.52.57-.36 1.14-.72 1.7-1.08.19-.12.26-.37.15-.56Zm3.75 6.06c-.27.41-.55.81-.82 1.22-.12.18-.25.38-.37.55-.07.09-.14.19-.22.28-.1.12-.16.25-.23.39s-.09.32 0 .46c.1.15.22.21.4.23.17.02.31-.1.4-.23.07-.1.14-.19.2-.3l.15-.33c.1-.23.22-.45.34-.66.23-.43.46-.86.69-1.3.19-.35-.31-.63-.53-.31Zm11.27 1.33c-.15-.58-.37-1.15-.53-1.73-.33-1.17-.61-2.38-.87-3.57-.18-.81-1.44-.62-1.43.19.01 1.26.16 2.48.39 3.71.11.59.22 1.2.4 1.77.21.7.53 1.71 1.46 1.57.39-.06.67-.4.75-.77.09-.4-.08-.79-.18-1.17Zm7.44-15.23c-.13-.15-.34-.19-.51-.26-.19-.07-.37-.11-.57-.14-.36-.06-.72-.11-1.08-.17-.76-.12-1.51-.25-2.27-.32-.41-.04-.49.61-.1.71.73.19 1.48.32 2.22.46l1.07.2c.21.04.4.06.62.06.2 0 .39.02.56-.08s.18-.32.06-.46m-.89 8.41c-.05-.09-.13-.19-.2-.26l-.15-.15c-.09-.09-.17-.16-.27-.24.04.03.08.06.12.1-.36-.28-.69-.6-.98-.95-.08-.1-.28-.17-.41-.17a.57.57 0 0 0-.35.12c-.09.07-.18.18-.21.3-.03.14-.03.32.06.44.26.34.53.67.85.96.07.06.14.13.22.19.11.09.22.16.35.22.12.06.24.12.37.15.11.03.22.04.33.01.05-.01.12-.05.17-.08.11-.06.18-.19.18-.31s-.01-.24-.07-.34Zm-3.16-18.28s-.09.06-.13.09a.6.6 0 0 0-.16.19c-.06.09-.11.19-.16.28-.12.21-.24.41-.36.62-.24.4-.47.81-.71 1.21-.18.31.3.59.49.28.24-.4.49-.8.73-1.2.12-.2.24-.39.36-.59l.18-.3c.05-.08.08-.14.09-.23 0-.05 0-.11.01-.16.02-.17-.2-.28-.34-.19m-11.16-2.02c-.04-.29-.09-.55-.2-.82-.06-.14-.11-.28-.18-.41-.08-.14-.2-.22-.32-.32-.19-.14-.44.05-.44.25 0 .15 0 .28.05.42.04.11.07.22.1.33.06.23.12.46.17.69.1.44.12.9.07 1.37-.04.39.61.48.69.09.11-.53.14-1.07.07-1.6Zm5.96-.2c-.07-.2-.41-.31-.51-.07-.3.68-.35 1.41-.44 2.14-.09.7-.24 1.4-.43 2.09-.13.46.54.62.7.19.26-.69.47-1.4.64-2.12.16-.73.29-1.51.04-2.24Zm-14.84 11.46c-.52-.09-1.04-.19-1.56-.28-.28-.05-.58-.13-.87-.13s-.57.03-.86.08c-.36.06-.43.64-.1.79.26.12.5.22.78.29.29.08.6.08.9.11.53.04 1.05.09 1.58.13.25.02.46-.21.49-.44s-.11-.51-.36-.55m3.64 11.07a.32.32 0 0 0-.19-.15c-.08-.02-.18-.02-.24.03l-.49.36c-.08.06-.16.12-.24.17-.02.01-.04.03-.06.04-.04.03-.08.06-.11.1s-.03.05-.05.09c-.02.05-.04.1-.05.15-.05.14.08.3.23.3h.12a.36.36 0 0 0 .26-.11c.08-.06.16-.12.24-.19l.48-.37c.07-.05.12-.1.15-.19.02-.08.01-.18-.03-.24Z" class="cls-10"/></g><g class="cls-1"><path d="M170.04 131.44c-1.11-1.32-2.21-2.65-3.27-4.01.75-.97 1.5-1.94 2.26-2.91.47-.6.07-1.82-.86-1.47-1.2.45-2.41.9-3.61 1.34-.87-1.29-1.68-2.62-2.37-4.02-.52-1.05-1.91-.42-2.01.54-.18 1.79-.4 3.57-.63 5.35-1.42.53-2.84 1.06-4.25 1.6-1.08.42-.97 2.03.28 2.08 1.13.04 2.26.14 3.38.29-.28 1.62-.57 3.25-.66 4.88-.03.52.4.89.87.96.28.21.71.25.93-.04l3.69-4.77c1.69.49 3.34 1.11 4.94 1.86 1.12.53 2.11-.74 1.31-1.69Zm-13.29-8.36c-.51-.48-1.02-.95-1.53-1.43-.25-.23-.5-.46-.76-.68-.3-.26-.59-.52-.94-.72a.62.62 0 0 0-.8.16c-.2.25-.16.58.05.82.24.27.51.47.79.69.3.24.61.47.92.69.57.4 1.14.81 1.7 1.21.19.13.48.05.6-.12.13-.18.14-.45-.04-.62Zm-3.21 11.78c-.12-.21-.36-.24-.56-.15-.61.28-1.23.56-1.84.84-.3.13-.59.27-.89.4-.13.06-.19.07-.36.12-.26.08-.51.15-.7.35-.22.23-.29.62-.12.89.19.29.5.41.83.34.26-.05.44-.23.64-.4l.18-.15c.06-.05.07-.06.04-.02.04-.02.08-.05.12-.07.27-.17.55-.35.82-.52.57-.36 1.14-.72 1.7-1.08.19-.12.26-.37.15-.56Zm3.74 6.05c-.27.41-.55.81-.82 1.22-.12.18-.25.38-.37.55-.07.09-.14.19-.22.28-.1.12-.16.25-.23.39s-.09.32 0 .46c.1.15.22.21.4.23.17.02.31-.1.4-.23.07-.1.14-.19.2-.3l.15-.33c.1-.23.22-.45.34-.66.23-.43.46-.86.69-1.3.19-.35-.31-.63-.53-.31Zm11.28 1.33c-.15-.58-.37-1.15-.53-1.73-.33-1.17-.61-2.38-.87-3.57-.18-.81-1.44-.62-1.43.19.01 1.26.16 2.48.39 3.71.11.59.22 1.2.4 1.77.21.7.53 1.71 1.46 1.57.39-.06.67-.4.75-.77.09-.4-.08-.79-.18-1.17Zm7.44-15.23c-.13-.15-.34-.19-.51-.26-.19-.07-.37-.11-.57-.14-.36-.06-.72-.11-1.08-.17-.76-.12-1.51-.25-2.27-.32-.41-.04-.49.61-.1.71.73.19 1.48.32 2.22.46l1.07.2c.21.04.4.06.62.06.2 0 .39.02.56-.08s.18-.32.06-.46m-.89 8.42c-.05-.09-.13-.19-.2-.26l-.15-.15c-.09-.09-.17-.16-.27-.24.04.03.08.06.12.1-.36-.28-.69-.6-.98-.95-.08-.1-.28-.17-.41-.17a.57.57 0 0 0-.35.12c-.09.07-.18.18-.21.3-.03.14-.03.32.06.44.26.34.53.67.85.96.07.06.14.13.22.19.11.09.22.16.35.22.12.06.24.12.37.15.11.03.22.04.33.01.05-.01.12-.05.17-.08.11-.06.18-.19.18-.31s-.01-.24-.07-.34Zm-3.16-18.28s-.09.06-.13.09a.6.6 0 0 0-.16.19c-.06.09-.11.19-.16.28-.12.21-.24.41-.36.62-.24.4-.47.81-.71 1.21-.18.31.3.59.49.28.24-.4.49-.8.73-1.2.12-.2.24-.39.36-.59l.18-.3c.05-.08.08-.14.09-.23 0-.05 0-.11.01-.16.02-.17-.2-.28-.34-.19m-11.16-2.03c-.04-.29-.09-.55-.2-.82-.06-.14-.11-.28-.18-.41-.08-.14-.2-.22-.32-.32-.19-.14-.44.05-.44.25 0 .15 0 .28.05.42.04.11.07.22.1.33.06.23.12.46.17.69.1.44.12.9.07 1.37-.04.39.61.48.69.09.11-.53.14-1.07.07-1.6Zm5.96-.19c-.07-.2-.41-.31-.51-.07-.3.68-.35 1.41-.44 2.14-.09.7-.24 1.4-.43 2.09-.13.46.54.62.7.19.26-.69.47-1.4.64-2.12.16-.73.29-1.51.04-2.24Zm-14.84 11.46c-.52-.09-1.04-.19-1.56-.28-.28-.05-.58-.13-.87-.13s-.57.03-.86.08c-.36.06-.43.64-.1.79.26.12.5.22.78.29.29.08.6.08.9.11.53.04 1.05.09 1.58.13.25.02.46-.21.49-.44s-.11-.51-.36-.55m3.64 11.07a.32.32 0 0 0-.19-.15c-.08-.02-.18-.02-.24.03l-.49.36c-.08.06-.16.12-.24.17-.02.01-.04.03-.06.04-.04.03-.08.06-.11.1s-.03.05-.05.09c-.02.05-.04.1-.05.15-.05.14.08.3.23.3h.12a.36.36 0 0 0 .26-.11c.08-.06.16-.12.24-.19l.48-.37c.07-.05.12-.1.15-.19.02-.08.01-.18-.03-.24Z" class="cls-10"/></g></svg>