<?xml version="1.0" encoding="UTF-8"?><svg id="Layer_1" xmlns="http://www.w3.org/2000/svg" viewBox="0 0 179.64 144.2"><defs><style>.cls-1{opacity:.51;}.cls-2,.cls-3,.cls-4,.cls-5,.cls-6,.cls-7,.cls-8,.cls-9,.cls-10,.cls-11{stroke-width:0px;}.cls-3{fill:#60d384;}.cls-4{fill:#53dce0;}.cls-5{fill:#36747a;}.cls-6{fill:#0b0608;}.cls-7{fill:#21b55e;}.cls-8{fill:#d0c5b2;}.cls-9{fill:#918687;}.cls-10{fill:#ffc60a;}.cls-11{fill:#f27f88;}</style></defs><g class="cls-1"><path class="cls-4" d="M42.99,0c2.71-.05,13.12,76.78,11.37,78.77-3,3.39-50.85-2.84-54.33-6.32C-1.19,71.23,39.65.05,42.99,0ZM38.73,61.64c.84-1.4-2.66-24.83-3.52-25.32-.61-.35-14.3,24.14-13.68,24.49,1.1.63,16.43,2.13,17.2.83Z"/><path class="cls-5" d="M39.13,15.59c1.21-.32,2.43-.57,3.66-.78,1.23-.22,2.45-.45,3.69-.63.27-.04.53.15.57.42.04.27-.15.52-.41.56-1.23.2-2.47.34-3.7.51-1.23.17-2.48.29-3.73.36-.12,0-.23-.09-.23-.21,0-.11.07-.2.17-.23Z"/><path class="cls-5" d="M42.25,36.23c1.21-.32,2.43-.57,3.66-.78,1.23-.22,2.45-.45,3.69-.63.27-.04.53.15.57.42.04.27-.15.52-.41.56-1.23.2-2.47.34-3.7.51-1.23.17-2.48.29-3.73.36-.12,0-.23-.09-.23-.21,0-.11.07-.2.17-.23Z"/><path class="cls-5" d="M41.8,20.67c.91-.29,1.83-.52,2.77-.7.93-.19,1.85-.4,2.79-.55.27-.04.53.14.57.41.04.27-.14.52-.4.57-.93.18-1.87.29-2.81.43-.94.14-1.88.24-2.84.28-.12,0-.23-.09-.23-.22,0-.1.06-.19.16-.22Z"/><path class="cls-5" d="M42.63,25.46c.91-.29,1.83-.52,2.77-.7.93-.19,1.86-.4,2.79-.55.27-.04.53.14.57.42.04.27-.14.52-.4.57-.93.18-1.87.29-2.81.42-.94.14-1.88.24-2.84.27-.12,0-.23-.09-.23-.22,0-.1.06-.19.16-.22Z"/><path class="cls-5" d="M43.07,30.61c.91-.29,1.83-.52,2.77-.7.93-.19,1.86-.4,2.79-.55.27-.04.53.14.57.42.04.27-.14.52-.4.57-.93.18-1.87.29-2.81.42-.94.14-1.88.24-2.84.27-.12,0-.23-.09-.23-.22,0-.1.06-.19.16-.22Z"/><path class="cls-5" d="M44.43,40.69c.91-.29,1.83-.52,2.76-.7.93-.19,1.86-.4,2.79-.55.27-.04.53.14.57.41.04.27-.14.52-.4.57-.93.18-1.87.29-2.81.43-.94.14-1.88.24-2.84.28-.12,0-.23-.09-.23-.22,0-.1.06-.19.16-.22Z"/><path class="cls-5" d="M45.25,45.48c.91-.29,1.83-.52,2.77-.7.93-.19,1.86-.4,2.79-.55.27-.04.53.14.57.42.04.27-.14.52-.4.57-.93.18-1.87.29-2.81.42-.94.14-1.88.24-2.84.27-.12,0-.23-.09-.23-.22,0-.1.06-.19.16-.22Z"/><path class="cls-5" d="M45.7,50.62c.91-.29,1.83-.52,2.77-.7.93-.19,1.86-.4,2.79-.55.27-.04.53.14.57.42.04.27-.14.52-.4.57-.93.18-1.87.29-2.81.42-.94.14-1.88.24-2.84.27-.12,0-.23-.09-.23-.22,0-.1.06-.19.16-.22Z"/><path class="cls-5" d="M44.87,56.24c1.21-.32,2.43-.57,3.66-.78,1.23-.22,2.45-.45,3.69-.63.27-.04.53.15.57.42.04.27-.15.52-.41.56-1.23.2-2.47.34-3.7.51-1.23.17-2.48.29-3.73.36-.12,0-.23-.09-.23-.21,0-.11.07-.2.17-.23Z"/><path class="cls-5" d="M47.04,60.7c.91-.29,1.83-.52,2.77-.7.93-.19,1.85-.4,2.79-.55.27-.04.53.14.57.42.04.27-.14.52-.4.57-.93.18-1.87.29-2.81.43-.94.14-1.88.24-2.84.28-.12,0-.23-.09-.23-.22,0-.1.06-.19.16-.22Z"/><path class="cls-5" d="M47.87,65.48c.91-.29,1.83-.52,2.77-.7.93-.19,1.86-.4,2.79-.55.27-.04.53.14.57.42.04.27-.14.52-.4.57-.93.18-1.87.29-2.81.42-.94.14-1.88.24-2.84.27-.12,0-.23-.09-.23-.22,0-.1.06-.19.16-.22Z"/><path class="cls-5" d="M48.31,70.63c.91-.29,1.83-.52,2.77-.7.93-.19,1.86-.4,2.79-.55.27-.04.53.14.57.42.04.27-.14.52-.4.57-.93.18-1.87.29-2.81.42-.94.14-1.88.24-2.84.27-.12,0-.23-.09-.23-.22,0-.1.06-.19.16-.22Z"/><path class="cls-6" d="M23.75,64.55c-.02-.12-.07-.25-.11-.38-.04-.13-.13-.26-.2-.39-.09-.12-.19-.25-.31-.36-.13-.1-.25-.2-.4-.26-.14-.08-.29-.11-.43-.15-.14-.02-.28-.04-.4-.04-.13,0-.24.01-.35.03-.21.03-.38.09-.49.14-.11.05-.18.09-.18.09-.11.03-.17.15-.14.26.03.11.12.16.26.14,0,0,.06,0,.16,0,.1,0,.25,0,.41.02.08,0,.17.02.26.04.09,0,.18.05.27.07.08.04.17.07.25.12.04.02.06.04.09.06-.73-.04-1.41.59-1.55,1.47-.14.92.38,1.77,1.15,1.88.77.11,1.47-.55,1.65-1.46.14-.73.06-1.15.04-1.27Z"/><path class="cls-6" d="M36.47,66.15c-.02-.12-.07-.25-.11-.38-.04-.13-.13-.26-.2-.39-.09-.12-.19-.25-.31-.36-.13-.1-.25-.2-.4-.26-.14-.08-.29-.11-.43-.15-.14-.02-.28-.04-.4-.04-.13,0-.25.01-.35.03-.21.03-.38.09-.49.14-.12.05-.18.09-.18.09-.11.03-.17.15-.14.26.03.11.12.16.26.14,0,0,.06,0,.16,0,.1,0,.25,0,.41.02.08,0,.17.02.26.04.09,0,.18.05.27.07.08.04.17.07.25.12.03.02.06.04.09.06-.73-.04-1.41.59-1.55,1.47-.14.92.38,1.77,1.15,1.88.77.11,1.47-.55,1.65-1.46.14-.73.06-1.15.04-1.27Z"/><path class="cls-11" d="M34.67,72.8c.31-2.45,2.55-4.19,5-3.88s4.19,2.54,3.88,5c-.31,2.45-2.55,4.19-5,3.88-2.45-.31-4.19-2.54-3.88-5Z"/><path class="cls-11" d="M12.13,69.83c.31-2.45,2.55-4.19,5-3.88s4.19,2.54,3.88,5c-.31,2.45-2.55,4.19-5,3.88-2.45-.31-4.19-2.54-3.88-5Z"/><path class="cls-2" d="M25.66,66.88c.39.5.85.98,1.3,1.34.47.35.95.58,1.46.62.52.07,1.02-.05,1.5-.32.48-.27.97-.71,1.37-1.19l.03-.04c.13-.15.36-.17.51-.04.11.09.15.24.11.37-.21.76-.61,1.44-1.26,1.98-.63.54-1.56.83-2.42.73-.88-.08-1.68-.54-2.22-1.14-.55-.6-.89-1.29-1.05-2.05-.04-.19.08-.39.27-.43.14-.03.28.02.36.13l.03.03Z"/></g><g class="cls-1"><path class="cls-4" d="M49.75,115.76c-.14,1.63,11.04,28.07,13.23,28.26,4.28.37,114.34-53.66,116.43-56.99,2.09-3.33-10.66-26.05-13.24-26.86-2.58-.81-116.35,54.85-116.42,55.58Z"/><path class="cls-5" d="M57.53,111.75c.79,1.78,1.53,3.59,2.29,5.39.76,1.8,1.48,3.61,2.15,5.46.04.12-.02.24-.13.28-.11.04-.22,0-.27-.11-.9-1.74-1.74-3.5-2.54-5.28-.8-1.78-1.63-3.55-2.4-5.34-.11-.25,0-.55.26-.66.25-.11.54,0,.65.26Z"/><path class="cls-5" d="M61.55,110.07c.49,1.13.92,2.29,1.38,3.44.46,1.15.88,2.31,1.24,3.5.04.12-.03.24-.15.28-.1.03-.21-.02-.26-.11-.6-1.09-1.14-2.2-1.63-3.33-.5-1.13-1.03-2.25-1.49-3.39-.1-.26.02-.55.27-.65.25-.1.54.02.65.26Z"/><path class="cls-5" d="M66,107.85c.49,1.13.92,2.29,1.38,3.44.46,1.15.88,2.31,1.24,3.5.04.12-.03.24-.15.28-.1.03-.21-.02-.26-.11-.6-1.09-1.14-2.2-1.63-3.33-.5-1.13-1.03-2.25-1.49-3.39-.1-.26.02-.55.27-.65.25-.1.54.02.65.26Z"/><path class="cls-5" d="M70.45,105.48c.49,1.13.92,2.29,1.38,3.44.46,1.15.88,2.31,1.24,3.5.04.12-.03.24-.15.28-.1.03-.21-.02-.26-.11-.6-1.09-1.14-2.2-1.63-3.33-.5-1.13-1.03-2.25-1.49-3.39-.1-.26.02-.55.27-.65.25-.1.54.02.65.26Z"/><path class="cls-5" d="M74.53,103.73c.49,1.13.92,2.29,1.38,3.44.46,1.15.88,2.31,1.24,3.5.04.12-.03.24-.15.28-.1.03-.21-.02-.26-.11-.6-1.09-1.14-2.2-1.63-3.33-.5-1.13-1.03-2.25-1.49-3.39-.1-.26.02-.55.27-.65.25-.1.54.02.65.26Z"/><path class="cls-5" d="M78.16,101.69c.79,1.78,1.53,3.59,2.29,5.39.76,1.8,1.48,3.61,2.15,5.46.04.12-.02.24-.13.28-.11.04-.22,0-.27-.11-.9-1.74-1.74-3.5-2.54-5.28-.8-1.78-1.63-3.55-2.4-5.34-.11-.25,0-.55.26-.66.25-.11.54,0,.65.26Z"/><path class="cls-5" d="M82.18,100.01c.49,1.13.92,2.29,1.38,3.44.46,1.15.88,2.31,1.24,3.5.04.12-.03.24-.15.28-.1.03-.21-.02-.26-.11-.6-1.09-1.14-2.2-1.63-3.33-.5-1.13-1.03-2.25-1.49-3.39-.1-.26.02-.55.27-.65.25-.1.54.02.65.26Z"/><path class="cls-5" d="M86.63,97.78c.49,1.13.92,2.29,1.38,3.44.46,1.15.88,2.31,1.24,3.5.04.12-.03.24-.15.28-.1.03-.21-.02-.26-.11-.6-1.09-1.14-2.2-1.63-3.33-.5-1.13-1.03-2.25-1.49-3.39-.1-.26.02-.55.27-.65.25-.1.54.02.65.26Z"/><path class="cls-5" d="M91.08,95.42c.49,1.13.92,2.29,1.38,3.44.46,1.15.88,2.31,1.24,3.5.04.12-.03.24-.15.28-.1.03-.21-.02-.26-.11-.6-1.09-1.14-2.2-1.63-3.33-.5-1.13-1.03-2.25-1.49-3.39-.1-.26.02-.55.27-.65.25-.1.54.02.65.26Z"/><path class="cls-5" d="M95.16,93.67c.49,1.13.92,2.29,1.38,3.44.46,1.15.88,2.31,1.24,3.5.04.12-.03.24-.15.28-.1.03-.21-.02-.26-.11-.6-1.09-1.14-2.2-1.63-3.33-.5-1.13-1.03-2.25-1.49-3.39-.1-.26.02-.55.27-.65.25-.1.54.02.65.26Z"/><path class="cls-5" d="M99.9,91.18c.79,1.78,1.53,3.59,2.29,5.39.76,1.8,1.48,3.61,2.15,5.46.04.12-.02.24-.13.28-.11.04-.22,0-.27-.11-.9-1.74-1.74-3.5-2.54-5.28-.8-1.78-1.63-3.55-2.4-5.34-.11-.25,0-.55.26-.66.25-.11.54,0,.65.26Z"/><path class="cls-5" d="M103.93,89.5c.49,1.13.92,2.29,1.38,3.44.46,1.15.88,2.31,1.24,3.5.04.12-.03.24-.15.28-.1.03-.21-.02-.26-.11-.6-1.09-1.14-2.2-1.63-3.33-.5-1.13-1.03-2.25-1.49-3.39-.1-.26.02-.55.27-.65.25-.1.54.02.65.26Z"/><path class="cls-5" d="M108.37,87.27c.49,1.13.92,2.29,1.38,3.44.46,1.15.88,2.31,1.24,3.5.04.12-.03.24-.15.28-.1.03-.21-.02-.26-.11-.6-1.09-1.14-2.2-1.63-3.33-.5-1.13-1.03-2.25-1.49-3.39-.1-.26.02-.55.27-.65.25-.1.54.02.65.26Z"/><path class="cls-5" d="M112.83,84.91c.49,1.13.92,2.29,1.38,3.44.46,1.15.88,2.31,1.24,3.5.04.12-.03.24-.15.28-.1.03-.21-.02-.26-.11-.6-1.09-1.14-2.2-1.63-3.33-.5-1.13-1.03-2.25-1.49-3.39-.1-.26.02-.55.27-.65.25-.1.54.02.65.26Z"/><path class="cls-5" d="M116.91,83.16c.49,1.13.92,2.29,1.38,3.44.46,1.15.88,2.31,1.24,3.5.04.12-.03.24-.15.28-.1.03-.21-.02-.26-.11-.6-1.09-1.14-2.2-1.63-3.33-.5-1.13-1.03-2.25-1.49-3.39-.1-.26.02-.55.27-.65.25-.1.54.02.65.26Z"/><path class="cls-5" d="M121.98,80.7c.79,1.78,1.53,3.59,2.29,5.39.76,1.8,1.48,3.61,2.15,5.46.04.12-.02.24-.13.28-.11.04-.22,0-.27-.11-.9-1.74-1.74-3.5-2.54-5.28-.8-1.78-1.63-3.55-2.4-5.34-.11-.25,0-.55.26-.66.25-.11.54,0,.65.26Z"/><path class="cls-5" d="M126.01,79.02c.49,1.13.92,2.29,1.38,3.44.46,1.15.88,2.31,1.24,3.5.04.12-.03.24-.15.28-.1.03-.21-.02-.26-.11-.6-1.09-1.14-2.2-1.63-3.33-.5-1.13-1.03-2.25-1.49-3.39-.1-.26.02-.55.27-.65.25-.1.54.02.65.26Z"/><path class="cls-5" d="M130.45,76.79c.49,1.13.92,2.29,1.38,3.44.46,1.15.88,2.31,1.24,3.5.04.12-.03.24-.15.28-.1.03-.21-.02-.26-.11-.6-1.09-1.14-2.2-1.63-3.33-.5-1.13-1.03-2.25-1.49-3.39-.1-.26.02-.55.27-.65.25-.1.54.02.65.26Z"/><path class="cls-5" d="M134.91,74.43c.49,1.13.92,2.29,1.38,3.44.46,1.15.88,2.31,1.24,3.5.04.12-.03.24-.15.28-.1.03-.21-.02-.26-.11-.6-1.09-1.14-2.2-1.63-3.33-.5-1.13-1.03-2.25-1.49-3.39-.1-.26.02-.55.27-.65.25-.1.54.02.65.26Z"/><path class="cls-5" d="M138.99,72.68c.49,1.13.92,2.29,1.38,3.44.46,1.15.88,2.31,1.24,3.5.04.12-.03.24-.15.28-.1.03-.21-.02-.26-.11-.6-1.09-1.14-2.2-1.63-3.33-.5-1.13-1.03-2.25-1.49-3.39-.1-.26.02-.55.27-.65.25-.1.54.02.65.26Z"/><path class="cls-5" d="M143.45,70.85c.79,1.78,1.53,3.59,2.29,5.39.76,1.8,1.48,3.61,2.15,5.46.04.12-.02.24-.13.28-.11.04-.22,0-.27-.11-.9-1.74-1.74-3.5-2.54-5.28-.8-1.78-1.63-3.55-2.4-5.34-.11-.25,0-.55.26-.66.25-.11.54,0,.65.26Z"/><path class="cls-5" d="M147.48,69.17c.49,1.13.92,2.29,1.38,3.44.46,1.15.88,2.31,1.24,3.5.04.12-.03.24-.15.28-.1.03-.21-.02-.26-.11-.6-1.09-1.14-2.2-1.63-3.33-.5-1.13-1.03-2.25-1.49-3.39-.1-.26.02-.55.27-.65.25-.1.54.02.65.26Z"/><path class="cls-5" d="M151.92,66.94c.49,1.13.92,2.29,1.38,3.44.46,1.15.88,2.31,1.24,3.5.04.12-.03.24-.15.28-.1.03-.21-.02-.26-.11-.6-1.09-1.14-2.2-1.63-3.33-.5-1.13-1.03-2.25-1.49-3.39-.1-.26.02-.55.27-.65.25-.1.54.02.65.26Z"/><path class="cls-5" d="M156.37,64.58c.49,1.13.92,2.29,1.38,3.44.46,1.15.88,2.31,1.24,3.5.04.12-.03.24-.15.28-.1.03-.21-.02-.26-.11-.6-1.09-1.14-2.2-1.63-3.33-.5-1.13-1.03-2.25-1.49-3.39-.1-.26.02-.55.27-.65.25-.1.54.02.65.26Z"/><path class="cls-5" d="M160.46,62.83c.49,1.13.92,2.29,1.38,3.44.46,1.15.88,2.31,1.24,3.5.04.12-.03.24-.15.28-.1.03-.21-.02-.26-.11-.6-1.09-1.14-2.2-1.63-3.33-.5-1.13-1.03-2.25-1.49-3.39-.1-.26.02-.55.27-.65.25-.1.54.02.65.26Z"/><path class="cls-2" d="M109.9,106.29c.45,1.03.09,2.19-.81,2.59-.9.4-2-.12-2.45-1.16-.45-1.03-.09-2.19.81-2.59.9-.4,2,.12,2.45,1.16Z"/><path class="cls-2" d="M128.13,98.3c.45,1.03.09,2.19-.81,2.59-.9.39-2-.12-2.45-1.16-.45-1.03-.09-2.19.81-2.59.9-.39,2,.12,2.45,1.16Z"/><path class="cls-2" d="M112.97,105.33c.84.68,1.86,1.24,2.88,1.45,1.03.21,2.06.07,2.99-.39.96-.46,1.75-1.16,2.28-2.06.52-.89.77-2.02.77-3.09v-.04c0-.2.16-.36.36-.35.17,0,.31.12.35.27.3,1.26.16,2.57-.4,3.77-.55,1.21-1.6,2.16-2.76,2.71-1.17.58-2.62.74-3.88.34-1.26-.39-2.32-1.13-3.11-2.13-.12-.15-.1-.38.06-.5.13-.11.32-.1.45,0l.03.02Z"/><path class="cls-11" d="M135.75,102.29c.8,1.81-.4,4.09-2.68,5.09-2.27,1-4.76.34-5.56-1.47-.8-1.81.4-4.09,2.68-5.09,2.28-1,4.76-.34,5.56,1.47Z"/><path class="cls-11" d="M113.13,113.1c.8,1.81-.4,4.09-2.68,5.09-2.27,1-4.76.34-5.56-1.47-.8-1.81.4-4.09,2.68-5.09,2.28-1,4.76-.34,5.56,1.47Z"/></g><g class="cls-1"><path class="cls-3" d="M118.63,48.66c1.65,1.68,3.94,8.29,2.16,11.33s-8.74,4.49-9.84,4.17c-3.94-16.22-6.86-34.1-12.3-35.9-4.11-1.36-3.64,4.21-1.88,11.56s5.23,27.11,5.23,27.11c0,0-9.2,2.35-11.61,1.68-2.41-.68-4.16-5.69-3.8-8.64,0,0,7.32-3.53,4.16-12.24-2.19-6.02-9.35-4.74-9.35-4.74-1.67-2.54-1.16-11.35.09-13.71,1.97-3.73,21.89-8.08,26.33-7.68,3.95.35,6.9,9.25,7.22,11.65,0,0-6.9,3.68-5.19,10.3,1.8,7,8.78,5.11,8.78,5.11Z"/><path class="cls-7" d="M118.63,48.66s-6.98,1.89-8.78-5.11c-1.71-6.62,5.19-10.3,5.19-10.3.14,1.07-2.63,5.04-2.14,8.88.75,5.88,4.09,4.86,5.73,6.53Z"/><path class="cls-8" d="M110.95,64.16c-2.94-.85-5.35-.14-6.35.21-1.79.62-2.6,2.56-2.6,2.56,0,0-3.47-19.76-5.23-27.11s-2.23-12.92,1.88-11.56c5.44,1.8,8.36,19.68,12.3,35.9Z"/><path class="cls-7" d="M90.75,47.73c3.16,8.71-4.16,12.24-4.16,12.24.36-2.96,1.94-6.46.62-9.99-1.75-4.67-2.83-5.21-5.2-6.41-.23-.11-.43-.31-.61-.58,0,0,7.16-1.28,9.35,4.74Z"/><path class="cls-9" d="M105.73,45.14c-.06-.28-.19-.53-.38-.75-.11-.09-.21-.18-.32-.28-.25-.16-.52-.26-.81-.27-.22-.02-.44.01-.64.1-.21.05-.39.16-.55.31-.17.14-.29.31-.37.51-.11.19-.17.4-.18.62l.03.44c.06.28.19.53.38.75.11.09.21.18.32.28.25.16.52.26.81.27.22.02.44-.01.64-.1.21-.05.39-.16.55-.31.17-.14.29-.31.37-.51.11-.19.17-.4.18-.62l-.03-.44Z"/><path class="cls-2" d="M83.94,32.88c.51.03.9.47.87.98-.03.51-.47.9-.98.87-.51-.03-.9-.47-.87-.98.03-.51.47-.9.98-.87Z"/><path class="cls-2" d="M91.64,33.36c.51.03.9.47.87.98-.03.51-.47.9-.98.87-.51-.03-.9-.47-.87-.98.03-.51.47-.9.98-.87Z"/><path class="cls-2" d="M86.13,36c.16.27.4.52.67.64.27.13.61.21.94.24.33.03.62,0,.92-.12.29-.11.58-.34.81-.59l.03-.03c.09-.1.24-.1.34,0,.06.06.09.15.07.23-.12.48-.4.87-.82,1.16-.41.3-.95.4-1.43.36-.47-.05-.95-.17-1.35-.5-.4-.32-.68-.79-.65-1.33,0-.13.12-.23.25-.22.08,0,.15.05.19.12l.04.06Z"/></g><g class="cls-1"><path class="cls-10" d="M30.1,106.05c-1.11-1.32-2.21-2.65-3.27-4.01.75-.97,1.5-1.94,2.26-2.91.47-.6.07-1.82-.86-1.47-1.2.45-2.41.9-3.61,1.34-.87-1.29-1.68-2.62-2.37-4.02-.52-1.05-1.91-.42-2.01.54-.18,1.79-.4,3.57-.63,5.35-1.42.53-2.84,1.06-4.25,1.6-1.08.42-.97,2.03.28,2.08,1.13.04,2.26.14,3.38.29-.28,1.62-.57,3.25-.66,4.88-.03.52.4.89.87.96.28.21.71.25.93-.04,1.23-1.59,2.46-3.18,3.69-4.77,1.69.49,3.34,1.11,4.94,1.86,1.12.53,2.11-.74,1.31-1.69Z"/><path class="cls-10" d="M16.82,97.68c-.51-.48-1.02-.95-1.53-1.43-.25-.23-.5-.46-.76-.68-.3-.26-.59-.52-.94-.72-.27-.16-.61-.08-.8.16-.2.25-.16.58.05.82.24.27.51.47.79.69.3.24.61.47.92.69.57.4,1.14.81,1.7,1.21.19.13.48.05.6-.12.13-.18.14-.45-.04-.62Z"/><path class="cls-10" d="M13.61,109.46c-.12-.21-.36-.24-.56-.15-.61.28-1.23.56-1.84.84-.3.13-.59.27-.89.4-.13.06-.19.07-.36.12-.26.08-.51.15-.7.35-.22.23-.29.62-.12.89.19.29.5.41.83.34.26-.05.44-.23.64-.4.06-.05.12-.1.18-.15.06-.05.07-.06.04-.02.04-.02.08-.05.12-.07.27-.17.55-.35.82-.52.57-.36,1.14-.72,1.7-1.08.19-.12.26-.37.15-.56Z"/><path class="cls-10" d="M17.35,115.52c-.27.41-.55.81-.82,1.22-.12.18-.25.38-.37.55-.07.09-.14.19-.22.28-.1.12-.16.25-.23.39-.07.14-.09.32,0,.46.1.15.22.21.4.23.17.02.31-.1.4-.23.07-.1.14-.19.2-.3.05-.11.1-.22.15-.33.1-.23.22-.45.34-.66.23-.43.46-.86.69-1.3.19-.35-.31-.63-.53-.31Z"/><path class="cls-10" d="M28.63,116.85c-.15-.58-.37-1.15-.53-1.73-.33-1.17-.61-2.38-.87-3.57-.18-.81-1.44-.62-1.43.19.01,1.26.16,2.48.39,3.71.11.59.22,1.2.4,1.77.21.7.53,1.71,1.46,1.57.39-.06.67-.4.75-.77.09-.4-.08-.79-.18-1.17Z"/><path class="cls-10" d="M36.07,101.62c-.13-.15-.34-.19-.51-.26-.19-.07-.37-.11-.57-.14-.36-.06-.72-.11-1.08-.17-.76-.12-1.51-.25-2.27-.32-.41-.04-.49.61-.1.71.73.19,1.48.32,2.22.46l1.07.2c.21.04.4.06.62.06.2,0,.39.02.56-.08.17-.1.18-.32.06-.46Z"/><path class="cls-10" d="M35.18,110.03c-.05-.09-.13-.19-.2-.26-.05-.05-.1-.1-.15-.15-.09-.09-.17-.16-.27-.24.04.03.08.06.12.1-.36-.28-.69-.6-.98-.95-.08-.1-.28-.17-.41-.17-.13,0-.24.04-.35.12-.09.07-.18.18-.21.3-.03.14-.03.32.06.44.26.34.53.67.85.96.07.06.14.13.22.19.11.09.22.16.35.22.12.06.24.12.37.15.11.03.22.04.33.01.05-.01.12-.05.17-.08.11-.06.18-.19.18-.31,0-.12-.01-.24-.07-.34Z"/><path class="cls-10" d="M32.02,91.75s-.09.06-.13.09c-.07.05-.11.11-.16.19-.06.09-.11.19-.16.28-.12.21-.24.41-.36.62-.24.4-.47.81-.71,1.21-.18.31.3.59.49.28.24-.4.49-.8.73-1.2.12-.2.24-.39.36-.59.06-.1.12-.2.18-.3.05-.08.08-.14.09-.23,0-.05,0-.11.01-.16.02-.17-.2-.28-.34-.19Z"/><path class="cls-10" d="M20.86,89.73c-.04-.29-.09-.55-.2-.82-.06-.14-.11-.28-.18-.41-.08-.14-.2-.22-.32-.32-.19-.14-.44.05-.44.25,0,.15,0,.28.05.42.04.11.07.22.1.33.06.23.12.46.17.69.1.44.12.9.07,1.37-.04.39.61.48.69.09.11-.53.14-1.07.07-1.6Z"/><path class="cls-10" d="M26.82,89.53c-.07-.2-.41-.31-.51-.07-.3.68-.35,1.41-.44,2.14-.09.7-.24,1.4-.43,2.09-.13.46.54.62.7.19.26-.69.47-1.4.64-2.12.16-.73.29-1.51.04-2.24Z"/><path class="cls-10" d="M11.98,100.99c-.52-.09-1.04-.19-1.56-.28-.28-.05-.58-.13-.87-.13-.29,0-.57.03-.86.08-.36.06-.43.64-.1.79.26.12.5.22.78.29.29.08.6.08.9.11.53.04,1.05.09,1.58.13.25.02.46-.21.49-.44.03-.23-.11-.51-.36-.55Z"/><path class="cls-10" d="M15.62,112.06c-.04-.07-.11-.13-.19-.15-.08-.02-.18-.02-.24.03l-.49.36c-.08.06-.16.12-.24.17-.02.01-.04.03-.06.04-.04.03-.08.06-.11.1-.03.04-.03.05-.05.09-.02.05-.04.1-.05.15-.05.14.08.3.23.3.04,0,.08,0,.12,0,.07,0,.14-.02.2-.06.02-.01.04-.03.06-.05.08-.06.16-.12.24-.19l.48-.37c.07-.05.12-.1.15-.19.02-.08.01-.18-.03-.24Z"/></g><g class="cls-1"><path class="cls-10" d="M156.15,28.48c-1.11-1.32-2.21-2.65-3.27-4.01.75-.97,1.5-1.94,2.26-2.91.47-.6.07-1.82-.86-1.47-1.2.45-2.41.9-3.61,1.34-.87-1.29-1.68-2.62-2.37-4.02-.52-1.05-1.91-.42-2.01.54-.18,1.79-.4,3.57-.63,5.35-1.42.53-2.84,1.06-4.25,1.6-1.08.42-.97,2.03.28,2.08,1.13.04,2.26.14,3.38.29-.28,1.62-.57,3.25-.66,4.88-.03.52.4.89.87.96.28.21.71.25.93-.04,1.23-1.59,2.46-3.18,3.69-4.77,1.69.49,3.34,1.11,4.94,1.86,1.12.53,2.11-.74,1.31-1.69Z"/><path class="cls-10" d="M142.86,20.11c-.51-.48-1.02-.95-1.53-1.43-.25-.23-.5-.46-.76-.68-.3-.26-.59-.52-.94-.72-.27-.16-.61-.08-.8.16-.2.25-.16.58.05.82.24.27.51.47.79.69.3.24.61.47.92.69.57.4,1.14.81,1.7,1.21.19.13.48.05.6-.12.13-.18.14-.45-.04-.62Z"/><path class="cls-10" d="M139.65,31.89c-.12-.21-.36-.24-.56-.15-.61.28-1.23.56-1.84.84-.3.13-.59.27-.89.4-.13.06-.19.07-.36.12-.26.08-.51.15-.7.35-.22.23-.29.62-.12.89.19.29.5.41.83.34.26-.05.44-.23.64-.4.06-.05.12-.1.18-.15.06-.05.07-.06.04-.02.04-.02.08-.05.12-.07.27-.17.55-.35.82-.52.57-.36,1.14-.72,1.7-1.08.19-.12.26-.37.15-.56Z"/><path class="cls-10" d="M143.4,37.95c-.27.41-.55.81-.82,1.22-.12.18-.25.38-.37.55-.07.09-.14.19-.22.28-.1.12-.16.25-.23.39-.07.14-.09.32,0,.46.1.15.22.21.4.23.17.02.31-.1.4-.23.07-.1.14-.19.2-.3.05-.11.1-.22.15-.33.1-.23.22-.45.34-.66.23-.43.46-.86.69-1.3.19-.35-.31-.63-.53-.31Z"/><path class="cls-10" d="M154.67,39.28c-.15-.58-.37-1.15-.53-1.73-.33-1.17-.61-2.38-.87-3.57-.18-.81-1.44-.62-1.43.19.01,1.26.16,2.48.39,3.71.11.59.22,1.2.4,1.77.21.7.53,1.71,1.46,1.57.39-.06.67-.4.75-.77.09-.4-.08-.79-.18-1.17Z"/><path class="cls-10" d="M162.11,24.05c-.13-.15-.34-.19-.51-.26-.19-.07-.37-.11-.57-.14-.36-.06-.72-.11-1.08-.17-.76-.12-1.51-.25-2.27-.32-.41-.04-.49.61-.1.71.73.19,1.48.32,2.22.46l1.07.2c.21.04.4.06.62.06.2,0,.39.02.56-.08.17-.1.18-.32.06-.46Z"/><path class="cls-10" d="M161.22,32.46c-.05-.09-.13-.19-.2-.26-.05-.05-.1-.1-.15-.15-.09-.09-.17-.16-.27-.24.04.03.08.06.12.1-.36-.28-.69-.6-.98-.95-.08-.1-.28-.17-.41-.17-.13,0-.24.04-.35.12-.09.07-.18.18-.21.3-.03.14-.03.32.06.44.26.34.53.67.85.96.07.06.14.13.22.19.11.09.22.16.35.22.12.06.24.12.37.15.11.03.22.04.33.01.05-.01.12-.05.17-.08.11-.06.18-.19.18-.31,0-.12-.01-.24-.07-.34Z"/><path class="cls-10" d="M158.06,14.18s-.09.06-.13.09c-.07.05-.11.11-.16.19-.06.09-.11.19-.16.28-.12.21-.24.41-.36.62-.24.4-.47.81-.71,1.21-.18.31.3.59.49.28.24-.4.49-.8.73-1.2.12-.2.24-.39.36-.59.06-.1.12-.2.18-.3.05-.08.08-.14.09-.23,0-.05,0-.11.01-.16.02-.17-.2-.28-.34-.19Z"/><path class="cls-10" d="M146.9,12.16c-.04-.29-.09-.55-.2-.82-.06-.14-.11-.28-.18-.41-.08-.14-.2-.22-.32-.32-.19-.14-.44.05-.44.25,0,.15,0,.28.05.42.04.11.07.22.1.33.06.23.12.46.17.69.1.44.12.9.07,1.37-.04.39.61.48.69.09.11-.53.14-1.07.07-1.6Z"/><path class="cls-10" d="M152.86,11.96c-.07-.2-.41-.31-.51-.07-.3.68-.35,1.41-.44,2.14-.09.7-.24,1.4-.43,2.09-.13.46.54.62.7.19.26-.69.47-1.4.64-2.12.16-.73.29-1.51.04-2.24Z"/><path class="cls-10" d="M138.02,23.42c-.52-.09-1.04-.19-1.56-.28-.28-.05-.58-.13-.87-.13-.29,0-.57.03-.86.08-.36.06-.43.64-.1.79.26.12.5.22.78.29.29.08.6.08.9.11.53.04,1.05.09,1.58.13.25.02.46-.21.49-.44.03-.23-.11-.51-.36-.55Z"/><path class="cls-10" d="M141.66,34.49c-.04-.07-.11-.13-.19-.15-.08-.02-.18-.02-.24.03l-.49.36c-.08.06-.16.12-.24.17-.02.01-.04.03-.06.04-.04.03-.08.06-.11.1-.03.04-.03.05-.05.09-.02.05-.04.1-.05.15-.05.14.08.3.23.3.04,0,.08,0,.12,0,.07,0,.14-.02.2-.06.02-.01.04-.03.06-.05.08-.06.16-.12.24-.19l.48-.37c.07-.05.12-.1.15-.19.02-.08.01-.18-.03-.24Z"/></g><g class="cls-1"><path class="cls-10" d="M170.04,131.44c-1.11-1.32-2.21-2.65-3.27-4.01.75-.97,1.5-1.94,2.26-2.91.47-.6.07-1.82-.86-1.47-1.2.45-2.41.9-3.61,1.34-.87-1.29-1.68-2.62-2.37-4.02-.52-1.05-1.91-.42-2.01.54-.18,1.79-.4,3.57-.63,5.35-1.42.53-2.84,1.06-4.25,1.6-1.08.42-.97,2.03.28,2.08,1.13.04,2.26.14,3.38.29-.28,1.62-.57,3.25-.66,4.88-.03.52.4.89.87.96.28.21.71.25.93-.04,1.23-1.59,2.46-3.18,3.69-4.77,1.69.49,3.34,1.11,4.94,1.86,1.12.53,2.11-.74,1.31-1.69Z"/><path class="cls-10" d="M156.75,123.08c-.51-.48-1.02-.95-1.53-1.43-.25-.23-.5-.46-.76-.68-.3-.26-.59-.52-.94-.72-.27-.16-.61-.08-.8.16-.2.25-.16.58.05.82.24.27.51.47.79.69.3.24.61.47.92.69.57.4,1.14.81,1.7,1.21.19.13.48.05.6-.12.13-.18.14-.45-.04-.62Z"/><path class="cls-10" d="M153.54,134.86c-.12-.21-.36-.24-.56-.15-.61.28-1.23.56-1.84.84-.3.13-.59.27-.89.4-.13.06-.19.07-.36.12-.26.08-.51.15-.7.35-.22.23-.29.62-.12.89.19.29.5.41.83.34.26-.05.44-.23.64-.4.06-.05.12-.1.18-.15.06-.05.07-.06.04-.02.04-.02.08-.05.12-.07.27-.17.55-.35.82-.52.57-.36,1.14-.72,1.7-1.08.19-.12.26-.37.15-.56Z"/><path class="cls-10" d="M157.28,140.91c-.27.41-.55.81-.82,1.22-.12.18-.25.38-.37.55-.07.09-.14.19-.22.28-.1.12-.16.25-.23.39-.07.14-.09.32,0,.46.1.15.22.21.4.23.17.02.31-.1.4-.23.07-.1.14-.19.2-.3.05-.11.1-.22.15-.33.1-.23.22-.45.34-.66.23-.43.46-.86.69-1.3.19-.35-.31-.63-.53-.31Z"/><path class="cls-10" d="M168.56,142.24c-.15-.58-.37-1.15-.53-1.73-.33-1.17-.61-2.38-.87-3.57-.18-.81-1.44-.62-1.43.19.01,1.26.16,2.48.39,3.71.11.59.22,1.2.4,1.77.21.7.53,1.71,1.46,1.57.39-.06.67-.4.75-.77.09-.4-.08-.79-.18-1.17Z"/><path class="cls-10" d="M176,127.01c-.13-.15-.34-.19-.51-.26-.19-.07-.37-.11-.57-.14-.36-.06-.72-.11-1.08-.17-.76-.12-1.51-.25-2.27-.32-.41-.04-.49.61-.1.71.73.19,1.48.32,2.22.46l1.07.2c.21.04.4.06.62.06.2,0,.39.02.56-.08.17-.1.18-.32.06-.46Z"/><path class="cls-10" d="M175.11,135.43c-.05-.09-.13-.19-.2-.26-.05-.05-.1-.1-.15-.15-.09-.09-.17-.16-.27-.24.04.03.08.06.12.1-.36-.28-.69-.6-.98-.95-.08-.1-.28-.17-.41-.17-.13,0-.24.04-.35.12-.09.07-.18.18-.21.3-.03.14-.03.32.06.44.26.34.53.67.85.96.07.06.14.13.22.19.11.09.22.16.35.22.12.06.24.12.37.15.11.03.22.04.33.01.05-.01.12-.05.17-.08.11-.06.18-.19.18-.31,0-.12-.01-.24-.07-.34Z"/><path class="cls-10" d="M171.95,117.15s-.09.06-.13.09c-.07.05-.11.11-.16.19-.06.09-.11.19-.16.28-.12.21-.24.41-.36.62-.24.4-.47.81-.71,1.21-.18.31.3.59.49.28.24-.4.49-.8.73-1.2.12-.2.24-.39.36-.59.06-.1.12-.2.18-.3.05-.08.08-.14.09-.23,0-.05,0-.11.01-.16.02-.17-.2-.28-.34-.19Z"/><path class="cls-10" d="M160.79,115.12c-.04-.29-.09-.55-.2-.82-.06-.14-.11-.28-.18-.41-.08-.14-.2-.22-.32-.32-.19-.14-.44.05-.44.25,0,.15,0,.28.05.42.04.11.07.22.1.33.06.23.12.46.17.69.1.44.12.9.07,1.37-.04.39.61.48.69.09.11-.53.14-1.07.07-1.6Z"/><path class="cls-10" d="M166.75,114.93c-.07-.2-.41-.31-.51-.07-.3.68-.35,1.41-.44,2.14-.09.7-.24,1.4-.43,2.09-.13.46.54.62.7.19.26-.69.47-1.4.64-2.12.16-.73.29-1.51.04-2.24Z"/><path class="cls-10" d="M151.91,126.39c-.52-.09-1.04-.19-1.56-.28-.28-.05-.58-.13-.87-.13-.29,0-.57.03-.86.08-.36.06-.43.64-.1.79.26.12.5.22.78.29.29.08.6.08.9.11.53.04,1.05.09,1.58.13.25.02.46-.21.49-.44.03-.23-.11-.51-.36-.55Z"/><path class="cls-10" d="M155.55,137.46c-.04-.07-.11-.13-.19-.15-.08-.02-.18-.02-.24.03l-.49.36c-.08.06-.16.12-.24.17-.02.01-.04.03-.06.04-.04.03-.08.06-.11.1-.03.04-.03.05-.05.09-.02.05-.04.1-.05.15-.05.14.08.3.23.3.04,0,.08,0,.12,0,.07,0,.14-.02.2-.06.02-.01.04-.03.06-.05.08-.06.16-.12.24-.19l.48-.37c.07-.05.12-.1.15-.19.02-.08.01-.18-.03-.24Z"/></g></svg>