<?xml version="1.0" encoding="UTF-8"?><svg id="Layer_1" xmlns="http://www.w3.org/2000/svg" viewBox="0 0 120.72 138.52"><defs><style>.cls-1,.cls-2,.cls-3,.cls-4,.cls-5{stroke-width:0px;}.cls-2{fill:#60d384;}.cls-3{fill:#21b55e;}.cls-4{fill:#d0c5b2;}.cls-5{fill:#918687;}</style></defs><path class="cls-2" d="M112.48,79.56c4.85,4.93,11.57,24.35,6.34,33.28-5.23,8.93-25.67,13.19-28.9,12.25-11.57-47.65-20.15-100.17-36.13-105.46-12.07-3.99-10.69,12.37-5.52,33.96,5.17,21.59,15.36,79.64,15.36,79.64,0,0-27.02,6.9-34.1,4.93-7.08-2-12.22-16.71-11.16-25.38,0,0,21.5-10.37,12.22-35.95-6.43-17.68-27.47-13.92-27.47-13.92C-1.79,55.45-.29,29.57,3.38,22.64,9.17,11.68,67.68-1.1,80.73.08c11.6,1.03,20.27,27.17,21.21,34.22,0,0-20.27,10.81-15.25,30.26,5.29,20.56,25.79,15.01,25.79,15.01Z"/><path class="cls-3" d="M112.48,79.56s-20.5,5.55-25.79-15.01c-5.02-19.45,15.25-30.26,15.25-30.26.41,3.14-7.73,14.8-6.29,26.08,2.2,17.27,12.01,14.28,16.83,19.18Z"/><path class="cls-4" d="M89.92,125.09c-8.64-2.5-15.72-.41-18.65.62-5.26,1.82-7.64,7.52-7.64,7.52,0,0-10.19-58.04-15.36-79.64-5.17-21.59-6.55-37.95,5.52-33.96,15.98,5.29,24.56,57.81,36.13,105.46Z"/><path class="cls-3" d="M30.58,76.83c9.28,25.59-12.22,35.95-12.22,35.95,1.06-8.69,5.7-18.98,1.82-29.35-5.14-13.72-8.31-15.3-15.27-18.83-.68-.32-1.26-.91-1.79-1.7,0,0,21.03-3.76,27.47,13.92Z"/><path class="cls-5" d="M74.59,69.21c-.18-.83-.55-1.56-1.11-2.2-.31-.27-.62-.54-.93-.81-.72-.48-1.52-.75-2.39-.81-.66-.07-1.29.03-1.88.3-.61.16-1.15.46-1.61.9-.5.41-.86.9-1.09,1.49-.34.55-.51,1.16-.53,1.83l.09,1.29c.18.83.55,1.56,1.11,2.2.31.27.62.54.93.81.72.48,1.52.75,2.39.81.66.07,1.29-.03,1.88-.3.61-.16,1.14-.46,1.61-.9.5-.41.86-.9,1.09-1.49.34-.55.51-1.16.53-1.83l-.09-1.29Z"/><path class="cls-1" d="M10.57,33.22c1.5.09,2.65,1.39,2.55,2.89-.09,1.5-1.39,2.65-2.89,2.55-1.5-.09-2.65-1.39-2.55-2.89.09-1.5,1.39-2.65,2.89-2.55Z"/><path class="cls-1" d="M33.2,34.62c1.5.09,2.65,1.39,2.55,2.89-.09,1.5-1.39,2.65-2.89,2.55-1.5-.09-2.65-1.39-2.55-2.89.09-1.5,1.39-2.65,2.89-2.55Z"/><path class="cls-1" d="M17,42.38c.46.8,1.16,1.52,1.96,1.88.79.39,1.78.62,2.76.7.96.1,1.83-.03,2.69-.36.84-.33,1.69-1.01,2.39-1.74l.1-.1c.27-.28.71-.29.99-.02.19.18.25.44.2.67-.34,1.41-1.18,2.57-2.41,3.42-1.21.88-2.79,1.17-4.2,1.06-1.39-.14-2.79-.51-3.97-1.48-1.18-.94-1.99-2.33-1.9-3.9.02-.38.35-.67.73-.65.24.01.45.15.56.34l.11.18Z"/></svg>