<svg xmlns="http://www.w3.org/2000/svg" id="Layer_1" viewBox="0 0 120.72 138.52"><defs><style>.cls-3{stroke-width:0;fill:#21b55e}</style></defs><path d="M112.48 79.56c4.85 4.93 11.57 24.35 6.34 33.28s-25.67 13.19-28.9 12.25C78.35 77.44 69.77 24.92 53.79 19.63 41.72 15.64 43.1 32 48.27 53.59s15.36 79.64 15.36 79.64-27.02 6.9-34.1 4.93c-7.08-2-12.22-16.71-11.16-25.38 0 0 21.5-10.37 12.22-35.95C24.16 59.15 3.12 62.91 3.12 62.91c-4.91-7.46-3.41-33.34.26-40.27C9.17 11.68 67.68-1.1 80.73.08 92.33 1.11 101 27.25 101.94 34.3c0 0-20.27 10.81-15.25 30.26 5.29 20.56 25.79 15.01 25.79 15.01Z" style="stroke-width:0;fill:#60d384"/><path d="M112.48 79.56s-20.5 5.55-25.79-15.01c-5.02-19.45 15.25-30.26 15.25-30.26.41 3.14-7.73 14.8-6.29 26.08 2.2 17.27 12.01 14.28 16.83 19.18Z" class="cls-3"/><path d="M89.92 125.09c-8.64-2.5-15.72-.41-18.65.62-5.26 1.82-7.64 7.52-7.64 7.52S53.44 75.19 48.27 53.59C43.1 32 41.72 15.64 53.79 19.63c15.98 5.29 24.56 57.81 36.13 105.46" style="stroke-width:0;fill:#d0c5b2"/><path d="M30.58 76.83c9.28 25.59-12.22 35.95-12.22 35.95 1.06-8.69 5.7-18.98 1.82-29.35-5.14-13.72-8.31-15.3-15.27-18.83-.68-.32-1.26-.91-1.79-1.7 0 0 21.03-3.76 27.47 13.92Z" class="cls-3"/><path d="M74.59 69.21c-.18-.83-.55-1.56-1.11-2.2l-.93-.81c-.72-.48-1.52-.75-2.39-.81-.66-.07-1.29.03-1.88.3-.61.16-1.15.46-1.61.9-.5.41-.86.9-1.09 1.49-.34.55-.51 1.16-.53 1.83l.09 1.29c.18.83.55 1.56 1.11 2.2l.93.81c.72.48 1.52.75 2.39.81.66.07 1.29-.03 1.88-.3.61-.16 1.14-.46 1.61-.9.5-.41.86-.9 1.09-1.49.34-.55.51-1.16.53-1.83z" style="stroke-width:0;fill:#918687"/><path d="M10.57 33.22c1.5.09 2.65 1.39 2.55 2.89a2.72 2.72 0 0 1-2.89 2.55 2.72 2.72 0 0 1-2.55-2.89c.09-1.5 1.39-2.65 2.89-2.55m22.63 1.4c1.5.09 2.65 1.39 2.55 2.89a2.72 2.72 0 0 1-2.89 2.55 2.72 2.72 0 0 1-2.55-2.89c.09-1.5 1.39-2.65 2.89-2.55M17 42.38c.46.8 1.16 1.52 1.96 1.88.79.39 1.78.62 2.76.7.96.1 1.83-.03 2.69-.36.84-.33 1.69-1.01 2.39-1.74l.1-.1c.27-.28.71-.29.99-.02.19.18.25.44.2.67-.34 1.41-1.18 2.57-2.41 3.42-1.21.88-2.79 1.17-4.2 1.06-1.39-.14-2.79-.51-3.97-1.48-1.18-.94-1.99-2.33-1.9-3.9a.693.693 0 0 1 1.29-.31l.11.18Z" style="stroke-width:0"/></svg>