<svg xmlns="http://www.w3.org/2000/svg" id="Layer_1" viewBox="0 0 141.6 150.83"><defs><style>.cls-3{stroke-width:0;fill:#bfb5a6}</style></defs><path d="m77.75 85.44-6.97 4.54c1.91-3.76 3.08-6.05 3.08-6.05.27-.03.52-.07.77-.15v.06c1.13 1.33 2.1 1.75 3.13 1.6Z" class="cls-3"/><path d="M77.75 85.44c-1.03.15-2-.26-3.12-1.6v-.06c1.34-.31 2.37-.97 2.91-2.11 1.83-3.78 4.09-13.34 11.63-30.8 4.22-3.89 7.17-9.25 14.36-13.95 12.92-8.4 31.87-4.24 36.85 11.7 5.03 16.13-6.12 28.98-21.51 33.44-15.38 4.44-24.92-2.94-28.66-2.32-6.75 1.12-9.77 5.3-12.45 5.68h-.01Zm52.18-26.95c1.68-10.38-7.99-15-14.11-14.69-13.64.71-21.72 17.7-12.72 23.9 9 6.19 25.16 1.16 26.83-9.21" style="stroke-width:0;fill:#fcb51a"/><path d="M70.78 89.98c-8.41 16.44-31.29 60.94-32.79 60.85-1.83-.11-3.28-9.2-2.67-15.24.44-4.41 3.74-16 7.35-27.75 4.33-14.12 9.1-28.43 9.85-30.7.06-.21.1-.32.1-.32h.01c3.58 2.59 15.01 7.9 21.22 7.08s-1.17 2.3-3.08 6.06Z" style="fill:#d0c5b2;stroke-width:0"/><path d="m51.99 77.06.53.09c-.76 2.27-5.52 16.57-9.85 30.7-9.17 4.66-21.22 9.15-24.99 10.32C11.18 120.18.67 121 0 119.3c-.39-1.1 35.54-27.15 51.98-42.24Z" class="cls-3"/><path d="M74.79.01c17.9-.63 29.16 20.15 23.67 31.05-3.78 7.51-6.83 14.08-9.29 19.8-7.54 17.46-9.8 27.03-11.63 30.8-.54 1.14-1.57 1.8-2.92 2.11-.25.07-.5.12-.77.14-6.21.82-17.63-4.49-21.22-7.09-.54-.39-.89-.72-1.04-.96-1.34-2.25 2.45-14.1 4.13-17.66 1.68-3.54-8-10.43-8.33-26.53C47.07 15.56 56.7.65 74.79.01m12.74 21.7c-1.63-5.92-9.42-13.55-19.51-8.47s-10.11 22.12-.91 28.6c9.2 6.46 24.04-6.95 20.43-20.13Z" style="stroke-width:0;fill:#ffc728"/><path d="M70.41 67.05a4.183 4.183 0 0 0-5.81 1.13 4.183 4.183 0 0 0 1.13 5.81c1.92 1.29 4.52.79 5.81-1.13s.79-4.52-1.13-5.81" style="stroke-width:0;fill:#a69c81"/></svg>