<svg xmlns="http://www.w3.org/2000/svg" id="Layer_1" viewBox="0 0 210.46 140.62"><defs><style>.cls-3{opacity:.17}.cls-3,.cls-6{stroke-width:0}.cls-3{fill:#335db0}.cls-6{fill:#494344}</style></defs><path d="M111.64 54.14c-3.8-3.55-9.66-6.08-14.8-4.65-2.11-4.09-5.94-7.15-10.61-7.94-6.05-1.03-12.4 1.24-16.73 5.53-1.61 1.6-2.9 3.45-3.9 5.46-.59-.41-1.21-.79-1.89-1.11-6.04-2.8-12.46.32-16.17 5.35-4.55 6.16-3.95 14.12-2.32 21.19.46 1.99 1.1 3.92 1.84 5.82.35.89 1.56.55 1.42-.39-.96-6.39-2.96-12.67-1.57-19.17 1.04-4.84 4.53-9.58 9.44-10.99 3-.86 5.93-.03 8.19 1.76-1.22 3.35-1.73 6.99-1.59 10.52.07 1.7.28 3.41.62 5.09.29 1.41.62 3.09 2 3.85 3.35 1.86 5.01-3.16 5.47-5.45 1.02-5.04.06-10.77-3.33-14.58 2.24-4.85 6.21-8.71 11.95-10.08 4.51-1.07 9.46-.13 12.71 3.32.8.85 1.48 1.82 2.04 2.87-.26.15-.53.3-.79.49-2.4 1.69-4.22 4.29-4.68 7.22-.42 2.68.4 6.66 3.43 7.5 3.02.83 4.91-2.94 5.64-5.27.8-2.57.72-5.41 0-7.99-.05-.16-.1-.32-.15-.49 4.11-.97 8.86 1.15 11.92 4.01 1.24 1.15 3.09-.7 1.86-1.86Zm-43.56 5.78c1.05 2.9 1.04 6.08.33 9.05-.12.49-.68 3.35-1.56 3.23-.67-.09-.94-3-1.01-3.47-.62-3.85-.36-7.88.78-11.55.6.84 1.1 1.75 1.45 2.74Zm27.5-.61c-.3 1.11-.79 2.22-1.5 3.13-.47.61-.84.95-1.49.4-.54-.45-.8-1.24-.96-1.9-.58-2.46.59-5.04 2.32-6.76.47-.47.97-.84 1.48-1.16.6 2.05.71 4.24.15 6.3Z" style="fill:#00b9c2;opacity:.17;stroke-width:0"/><path d="M37.12 5.73c-.25-1.41-.94-2.76-1.79-3.9-.92-1.24-2.94-.16-2.12 1.24.46.79.75 1.56.93 2.46.06.32.1.64.14.96-.43-.21-.86-.43-1.3-.64l-2.79-1.39c-1.38-.68-2.71.68-2.05 2.05.58 1.2 1.15 2.4 1.74 3.59-1.2-.91-2.41-1.82-3.6-2.74-1.16-.89-2.65-.08-2.41 1.4.32 1.93 1.25 3.64 2.29 5.27-.11-.12-.21-.25-.32-.36-1.89-2.13-3.74-4.3-5.54-6.5-.97-1.19-2.82.1-2.47 1.44.97 3.68 2.23 7.27 3.75 10.76.28.64.58 1.28.88 1.92l-1.34-1.58-3.65-4.31c-1.11-1.31-2.08-2.73-3.77-3.29-1.12-.37-2.11.78-1.84 1.84.92 3.7 2.27 7.31 3.87 10.78.6 1.29 1.25 2.55 1.93 3.79-.32-.36-.65-.73-.96-1.1-1.76-2.1-3.08-4.52-5.29-6.21-1.07-.82-2.25.53-2.05 1.58.61 3.19 1.44 6.34 2.69 9.34.11.25.27.85.45 1.34-.19-.15-.38-.29-.55-.44a14.6 14.6 0 0 1-2.89-3.56c-.5-.86-1.73-.11-1.32.77.86 1.83 2.05 3.56 3.58 4.9 1.08.94 3.09 1.7 3.67-.25.23-.77-.06-1.54-.3-2.26-.4-1.2-.74-2.42-1.08-3.63-.16-.57-.32-1.14-.46-1.71.65.88 1.3 1.77 2.02 2.58 1.92 2.17 4.16 3.95 6.51 5.62.84.6 2.19-.41 1.81-1.39-1.34-3.44-3.53-6.52-5.04-9.9-.81-1.82-1.51-3.67-2.12-5.55l3.33 3.93c2.28 2.68 4.56 5.37 6.83 8.05.88 1.04 2.5.15 2.54-1.05.06-1.88-.71-3.53-1.6-5.15-.96-1.73-1.88-3.48-2.71-5.28a68 68 0 0 1-1.79-4.32c.38.43.76.88 1.14 1.31 1.77 1.97 3.54 4.32 5.99 5.48.89.42 2.36-.06 2.22-1.27-.26-2.35-1.29-4.33-2.58-6.28-.21-.32-.42-.63-.63-.94.82.63 1.65 1.25 2.47 1.89.66.51 1.84.65 2.27-.29.76-1.66.1-3.01-.63-4.55-.17-.37-.35-.73-.53-1.1.17.09.35.17.52.26 1.15.57 2.56 1.43 3.59.16.79-.96.56-2.58.36-3.72Z" class="cls-3"/><path d="M210.45 16.81c-.96-5.32-2.74-10.93-7.16-14.4C201.11.7 198.12-.5 195.32.22c-2.66.68-4.31 2.97-4.98 5.53-.27 1.04-.43 2.11-.5 3.19-1.15-.26-2.34-.32-3.51-.05-2.57.6-4.49 2.48-5.49 4.88-.35.85-.57 1.73-.69 2.62-2.79-1.49-5.87-2.13-9.09-.89-1.01.39-1.91.99-2.67 1.73-1.61-1.29-3.55-2.08-5.68-1.96-2.36.13-4.4 1.39-6 3.06-1.95 2.04-3.35 4.56-4.4 7.17-.51 1.27 1.33 1.89 1.93.75 1.97-3.72 5.11-9.99 10.35-8.53.89.25 1.69.71 2.4 1.29a9.4 9.4 0 0 0-1.08 2.54c-.69 2.78-.02 5.63 1.63 7.94.81 1.13 1.86 2.09 3.03 2.83.41.26 1.01.31 1.4-.04 3.83-3.49.91-10.11-1.98-13.49 2.83-2.75 6.88-1.83 10.08.03.07 1.04.27 2.07.58 3.08.46 1.53 1.12 2.99 1.87 4.41.71 1.33 1.41 2.84 2.41 3.97.77.87 1.88 1.73 3.11 1.63 1.31-.11 2.1-1.17 2.33-2.39.55-2.91-1.4-5.54-3.29-7.52-1.43-1.51-3.09-3.06-4.9-4.33.02-.67.1-1.34.28-2 .5-1.84 1.61-3.59 3.42-4.37 1.28-.55 2.65-.51 3.94-.14.2 4.15 1.62 8.38 3.6 11.81 1.36 2.33 3.26 5.46 6.01 6.29 2.58.78 4.62-1.19 4.6-3.71-.01-2.84-1.75-5.33-3.31-7.58-1.8-2.59-3.86-5.13-6.46-6.95-.73-.51-1.53-.97-2.37-1.35 0-.49.03-.97.07-1.45.21-2.21.97-4.76 3.15-5.78 2.46-1.14 5.34.13 7.31 1.67 3.89 3.06 5.7 8.28 6.84 12.92.18.73 1.3.56 1.16-.2Zm-40.32 6.38c.86 1.76 2.07 4.74.93 6.65-2.72-2.23-4.01-6.01-2.46-9.16.6.79 1.11 1.66 1.53 2.51m17.28 2.47c.6.93 1.11 2.04.97 3.18-.17 1.45-1.08.86-1.79.07-.78-.87-1.3-2-1.85-3.01-.63-1.15-1.21-2.32-1.68-3.54-.23-.6-.42-1.22-.57-1.84 1.77 1.48 3.65 3.2 4.91 5.15Zm4.9-13.41c2.1 1.3 3.78 3.08 5.3 5 1.47 1.86 3.08 3.92 3.93 6.16.52 1.36.89 4.73-1.65 3.79-1.05-.39-1.85-1.32-2.53-2.17-.83-1.02-1.57-2.11-2.22-3.25-1.65-2.93-2.78-6.3-3.12-9.7.1.06.2.11.3.17Z" style="opacity:.17;stroke-width:0;fill:#e41834"/><path d="M160.41 42.95c-2.19-.83-4.56-.96-6.8-.48-.22-1.66-.66-3.3-1.33-4.85-1.46-3.36-4.08-6.34-7.47-7.82-2.97-1.29-6.4-1.32-9.47-.35a25.4 25.4 0 0 0-.96-4.03c-2.51-7.52-8.52-13.46-16.33-15.21-6.53-1.46-13.7-.13-19.18 3.73-1.8-2.47-4.86-3.74-8.05-3.52-4.45.3-8.31 3.03-10.91 6.53-1.27 1.71-2.15 3.64-2.8 5.67-.23.71.83.96 1.09.3 1.38-3.36 3.61-6.6 6.65-8.65 2.99-2.01 7.26-3.1 10.59-1.26.8.44 1.54 1.11 2.14 1.9-.46.38-.91.77-1.34 1.19-1.26 1.22-2.27 2.69-2.46 4.48-.15 1.37.38 2.8 1.8 3.24 1.89.59 3.55-1 4.28-2.58.73-1.59.71-3.45.15-5.09-.1-.29-.22-.57-.35-.85 4.43-3.14 10.07-4.46 15.45-3.9 6.46.67 12.14 4.33 15.47 9.9 1.6 2.68 2.65 5.7 3.06 8.8-2.7 1.23-5.08 3.26-6.35 5.98-1.23 2.63-1.71 7.64 1.84 8.82 4.11 1.37 5.68-4.96 6.16-7.77.32-1.89.41-3.82.27-5.73 4.01-1.36 8.6-.65 11.77 2.44 2.37 2.31 3.85 5.76 4.19 9.26-.91.38-1.78.86-2.58 1.46-1.57 1.18-2.84 2.69-3.59 4.51-.74 1.79-1.19 4.44.77 5.65 1.52.94 3.34.16 4.57-.88 1.54-1.3 2.25-3.13 2.67-5.06.28-1.27.41-2.57.41-3.87a9.4 9.4 0 0 1 2.84-.31c3.3.17 6.3 2.1 8.34 4.61 2.37 2.93 3.32 6.74 3.26 10.46-.03 1.97-.35 3.93-.75 5.85-.3 1.45 1.77 2.04 2.23.61 2.84-8.7-.14-19.72-9.29-23.2Zm-62-21.86c-.45.78-1.53 1.77-2.51 1.3-.66-.32-.7-1.08-.61-1.72.22-1.52 1.21-2.69 2.29-3.7.26-.25.54-.48.81-.72.72 1.55.87 3.32.01 4.83Zm34.44 18.34c-.38 1.19-1.19 4-2.88 3.77-1.3-.18-1.75-2.11-1.77-3.18-.03-2.67 1.8-5.23 3.85-6.78.56-.42 1.15-.79 1.76-1.11.1 2.46-.2 4.94-.96 7.3m17.46 11.04c-.32.65-1.89 2.77-2.86 2.19-1.15-.68.56-3.59 1.07-4.29.79-1.08 1.84-1.95 3.03-2.59-.13 1.65-.52 3.25-1.24 4.69" class="cls-3"/><g style="opacity:.17"><path d="m2.68 64.92-.16.98c-.05.3-.33.5-.62.46s-.5-.33-.46-.62v-.02l.19-.99a.52.52 0 0 1 .62-.42c.28.05.47.33.43.61m-.59 3.94-.22 1.97v.02c-.04.33-.34.57-.68.54a.62.62 0 0 1-.54-.67v-.02l.28-2c.04-.32.34-.54.66-.5.31.04.54.33.5.64zm-.44 4.93-.04 1.97v.03c0 .37-.32.66-.69.66s-.66-.31-.66-.69v-.02l.09-2.03c.02-.36.32-.63.68-.62.35.02.62.31.62.66v.03Zm.07 4.92.22 1.94v.05c.05.38-.23.73-.61.78a.71.71 0 0 1-.78-.62l-.21-2.04a.68.68 0 0 1 .62-.75c.38-.04.71.23.75.61v.05Zm.81 4.8c.17.62.36 1.24.59 1.85.14.38-.06.8-.43.94-.38.14-.8-.06-.94-.43-.23-.65-.43-1.31-.6-1.97-.1-.38.13-.78.52-.88.38-.1.77.13.87.51ZM4.3 88c.3.57.64 1.12.99 1.66a.756.756 0 1 1-1.26.84c-.37-.58-.72-1.18-1.04-1.79a.746.746 0 0 1 .32-1.01c.36-.19.81-.05 1.01.31Zm2.75 3.96c.42.49.87.96 1.33 1.42.31.31.31.81 0 1.12a.79.79 0 0 1-1.12 0c-.48-.49-.95-1-1.39-1.52a.78.78 0 0 1 .09-1.1c.33-.28.81-.24 1.09.09Zm3.51 3.36 1.56 1.17.04.03c.36.27.44.79.17 1.15s-.79.44-1.15.17l-1.63-1.25a.81.81 0 0 1-.15-1.13c.27-.35.77-.42 1.12-.16l.04.03Zm4.03 2.73 1.72.93.04.02c.41.22.57.74.34 1.15-.22.41-.74.57-1.15.34l-1.79-.99a.85.85 0 0 1-.33-1.14c.22-.4.73-.55 1.13-.33zm4.39 2.17 1.82.72h.04c.44.19.65.68.48 1.12s-.67.65-1.11.48l-1.9-.75a.856.856 0 0 1 .63-1.59s.04.01.04.01Zm4.62 1.65 1.9.51h.04c.45.13.72.6.6 1.05s-.59.72-1.04.6l-1.97-.53a.86.86 0 0 1-.6-1.05c.12-.45.59-.72 1.05-.6s.04.01.04.01Zm4.78 1.12 1.94.3h.04c.46.08.78.51.71.97a.85.85 0 0 1-.97.71l-2.02-.31a.85.85 0 1 1 .26-1.68s.04 0 .04 0Zm4.87.58 1.96.08h.04c.47.02.83.41.81.88s-.41.83-.88.81l-2.04-.08a.84.84 0 0 1-.81-.88c.02-.47.41-.83.88-.81zm4.89.02 1.95-.17h.05c.46-.05.87.3.92.76.04.46-.3.87-.76.92l-2.04.19a.85.85 0 0 1-.16-1.69s.05 0 .05 0Zm4.84-.65 1.89-.46h.05c.45-.12.91.15 1.02.6a.84.84 0 0 1-.62 1.02l-2 .49a.84.84 0 0 1-1.02-.62.84.84 0 0 1 .62-1.02s.05-.01.05-.01Zm4.64-1.4c.6-.24 1.19-.51 1.76-.79.41-.21.92-.04 1.12.37.21.41.04.92-.37 1.12-.62.31-1.25.6-1.88.86a.836.836 0 1 1-.63-1.55Zm4.25-2.26c.53-.36 1.04-.75 1.52-1.16.35-.3.87-.25 1.17.09.3.35.26.87-.09 1.17-.53.45-1.08.88-1.65 1.27a.834.834 0 1 1-.95-1.37m3.55-3.19c.42-.49.78-.98 1.09-1.5a.83.83 0 0 1 1.13-.3c.39.23.53.73.3 1.13-.36.63-.81 1.21-1.25 1.74-.29.35-.82.39-1.16.1a.836.836 0 0 1-.1-1.17Zm1.81-3.89c-.02-.52-.19-.99-.51-1.42a.816.816 0 0 1 .19-1.14c.36-.26.87-.18 1.14.18.48.65.79 1.49.82 2.31.02.46-.34.84-.79.86a.816.816 0 0 1-.85-.78Zm-2.53-2.96c-.54-.24-1.12-.4-1.71-.48a.814.814 0 0 1 .23-1.61c.73.1 1.45.3 2.13.6.41.18.6.66.42 1.07s-.66.6-1.07.42m-4.4-.38c-.59.13-1.17.33-1.71.59-.4.19-.88.02-1.07-.38a.8.8 0 0 1 .37-1.07c.66-.32 1.35-.56 2.06-.72.43-.1.87.18.96.61.1.43-.18.87-.61.96Zm-3.91 2.19c-.42.44-.8.92-1.13 1.44-.23.37-.73.49-1.1.25a.795.795 0 0 1-.25-1.1c.38-.61.83-1.19 1.33-1.71.31-.32.81-.33 1.13-.02s.33.81.02 1.13Zm-2.24 3.98c-.17.6-.29 1.21-.35 1.82a.82.82 0 1 1-1.63-.17c.08-.72.22-1.42.42-2.11.13-.43.58-.67 1-.55.43.13.67.57.55 1Zm-.28 4.6c.1.61.25 1.22.44 1.81.15.44-.09.91-.53 1.06s-.91-.09-1.06-.53c-.22-.68-.38-1.38-.49-2.09a.82.82 0 0 1 .7-.94c.45-.07.87.24.94.69" class="cls-6"/><path d="M45.5 103.99c.32.54.69 1.05 1.08 1.54.3.37.24.91-.13 1.21a.86.86 0 0 1-1.21-.13c-.44-.56-.84-1.14-1.2-1.75a.84.84 0 0 1 .3-1.16c.4-.24.92-.11 1.16.29m3.06 3.57c.48.41.99.79 1.52 1.14.4.27.52.81.25 1.22-.27.4-.81.52-1.22.25-.58-.4-1.14-.82-1.67-1.28a.88.88 0 0 1-.09-1.23c.31-.36.86-.4 1.22-.09Zm4.02 2.48c.58.25 1.18.45 1.78.62.48.13.76.63.62 1.1-.13.48-.63.76-1.1.62-.68-.2-1.35-.44-1.99-.72a.884.884 0 0 1-.46-1.17c.19-.45.71-.66 1.16-.47Zm4.57 1.14c.63.06 1.27.09 1.9.09a.915.915 0 0 1 .01 1.83c-.7 0-1.4-.04-2.09-.11a.91.91 0 0 1 .18-1.81m4.77-.14c.63-.09 1.26-.22 1.89-.37a.93.93 0 1 1 .43 1.81c-.68.16-1.36.29-2.05.39a.933.933 0 0 1-1.05-.79c-.07-.5.28-.97.78-1.05Zm4.65-1.2 1.79-.74.06-.03c.48-.2 1.04.03 1.23.51.2.48-.03 1.04-.51 1.23s-1.92.78-1.92.78a.93.93 0 0 1-1.22-.52.94.94 0 0 1 .51-1.22l.07-.03Zm4.35-2.08c.54-.35 1.09-.68 1.63-1.04h.02a.94.94 0 0 1 1.33.25c.29.44.18 1.04-.27 1.33-.57.38-1.17.74-1.75 1.1a.957.957 0 0 1-1.32-.3.95.95 0 0 1 .29-1.31l.06-.04Zm3.98-2.8 1.5-1.27.03-.03a.97.97 0 0 1 1.37.11c.35.41.3 1.03-.11 1.37s-1.57 1.31-1.57 1.31a.966.966 0 0 1-1.24-1.48l.03-.03Zm3.67-3.28 1.41-1.39h.01c.39-.4 1.02-.39 1.4 0s.38 1.02-.01 1.4l-1.45 1.41a.98.98 0 0 1-1.39-.02.99.99 0 0 1 .01-1.39h.01Zm3.51-3.52 1.41-1.43a.984.984 0 0 1 1.4 0c.39.38.39 1.01 0 1.4l-1.4 1.43c-.38.4-1.02.4-1.41.02a.996.996 0 0 1-.02-1.41Zm3.56-3.55 1.48-1.39a.966.966 0 0 1 1.33 1.4l-.02.02L87 96.01l-.02.02c-.39.37-1.01.36-1.38-.03s-.36-1.01.03-1.38Zm3.79-3.39 1.62-1.26a.944.944 0 0 1 1.33.17c.32.41.25 1-.16 1.32l-.04.03-1.53 1.21-.04.03a.945.945 0 0 1-1.34-.16.945.945 0 0 1 .16-1.34m4.18-2.97 1.81-1a.923.923 0 0 1 1.26.36c.25.44.09 1-.35 1.25l-.06.03-1.68.95-.06.03a.931.931 0 1 1-.92-1.62M98.27 86c.65-.24 1.31-.45 1.97-.64a.898.898 0 1 1 .49 1.73c-.62.18-1.23.38-1.83.61-.47.18-1-.06-1.17-.53s.06-1 .53-1.17Zm5.01-1.31c.68-.11 1.37-.19 2.06-.24.48-.04.91.32.94.81.04.48-.32.9-.8.94q-.96.09-1.92.24a.89.89 0 0 1-1.02-.73c-.08-.48.25-.94.73-1.02Zm5.21-.2c.7.07 1.39.18 2.08.34.46.1.75.56.64 1.02a.86.86 0 0 1-1.01.65c-.62-.13-1.24-.23-1.87-.28a.85.85 0 0 1-.78-.94c.04-.48.46-.83.94-.78Zm5.09 1.35c.65.3 1.27.66 1.86 1.07.37.26.46.78.2 1.15s-.77.46-1.15.2c-.5-.35-1.05-.65-1.61-.91a.84.84 0 0 1-.42-1.11c.19-.42.69-.61 1.11-.42Zm4.17 3.4c.42.61.75 1.29.98 2 .14.42-.09.87-.52 1.01a.8.8 0 0 1-1.01-.51 6.4 6.4 0 0 0-.8-1.58.815.815 0 0 1 .2-1.13c.37-.26.87-.16 1.13.2Zm1.32 5.29c-.08.73-.25 1.45-.49 2.13a.78.78 0 0 1-.99.47.77.77 0 0 1-.47-.98q.3-.87.39-1.77a.784.784 0 0 1 1.56.14Zm-2.02 4.96c-.42.57-.9 1.11-1.41 1.6-.3.28-.77.27-1.06-.03-.28-.3-.27-.77.02-1.05.45-.43.86-.91 1.22-1.41.25-.34.72-.42 1.06-.17s.42.72.17 1.06m-3.95 3.48c-.6.36-1.22.68-1.84.96-.37.17-.81 0-.98-.36s0-.81.36-.98c.59-.27 1.16-.56 1.7-.89a.736.736 0 0 1 .76 1.26Zm-4.72 2.07-1.95.58a.737.737 0 0 1-.92-.5c-.12-.39.11-.81.5-.92s.03 0 .03 0l1.89-.56h.03c.39-.13.8.1.92.49s-.11.8-.5.92Zm-4.94 1.31c-.69.12-1.41.21-2.15.18a.756.756 0 0 1-.73-.77c.01-.41.36-.74.77-.73.59.02 1.21-.05 1.84-.16.41-.07.79.2.87.6.07.41-.2.79-.6.87Zm-5.43-1c-.61-.63-.91-1.34-1.15-2.04-.13-.4.08-.82.48-.95s.82.08.95.48c.17.57.44 1.11.77 1.44h.01c.29.31.29.78 0 1.08-.3.29-.77.29-1.06 0Zm-1.39-5.39c.08-.39.21-.8.48-1.2.26-.4.73-.77 1.26-.88.41-.08.81.18.9.59.08.4-.17.79-.57.89-.13.03-.22.09-.33.25s-.2.39-.25.65c-.09.42-.49.68-.9.59a.77.77 0 0 1-.59-.9Zm5.04-2.35c.76.26 1.51.74 1.97 1.51a.766.766 0 0 1-1.31.79c-.22-.38-.65-.69-1.15-.85-.4-.13-.61-.57-.48-.96s.56-.61.96-.48Zm1.75 5.14c-.4.66-.91 1.21-1.45 1.68-.31.28-.8.26-1.08-.06s-.26-.8.06-1.08c.46-.41.87-.86 1.16-1.33a.766.766 0 0 1 1.31.79" class="cls-6"/><path d="m99.42 106.27-.83.53c-.13.09-.26.17-.35.25l-.38.31c-.33.27-.81.23-1.08-.1a.763.763 0 0 1 .1-1.08l.39-.32c.17-.13.31-.23.46-.33l.86-.55c.36-.23.83-.12 1.06.24s.12.83-.24 1.06Zm-3.97 2.95-1.65 1.17c-.35.25-.83.16-1.08-.19a.773.773 0 0 1 .19-1.08s.01-.01.01-.01l1.62-1.14h.02c.35-.26.83-.17 1.08.18s.16.83-.19 1.08Zm-4.14 2.86-1.64 1.13c-.36.25-.84.16-1.09-.2a.795.795 0 0 1 .2-1.09s1.66-1.13 1.66-1.13a.78.78 0 0 1 1.08.2c.24.36.15.84-.2 1.08Zm-4.04 2.87-1.54 1.23-.03.02c-.34.27-.83.22-1.11-.12a.793.793 0 0 1 .12-1.11s1.6-1.27 1.6-1.27c.34-.27.83-.21 1.1.13s.21.83-.13 1.1l-.03.02Zm-3.69 3.21c-.22.24-.45.47-.66.71l-.62.72-.03.04a.793.793 0 1 1-1.2-1.04s.68-.79.68-.79c.23-.26.47-.5.71-.75a.8.8 0 0 1 1.12-.04c.32.3.33.8.04 1.12l-.03.03Zm-2.9 3.81c-.31.56-.6 1.13-.85 1.71-.17.41-.64.59-1.05.42a.797.797 0 0 1-.42-1.05c.28-.64.59-1.26.93-1.87a.8.8 0 0 1 1.09-.3c.38.22.52.7.3 1.08Zm-1.76 4.42c-.15.62-.26 1.24-.32 1.87-.04.43-.42.74-.85.7a.776.776 0 0 1-.7-.85c.06-.7.18-1.4.33-2.08.1-.43.52-.69.95-.59s.69.52.59.95m-.26 4.67c.09.61.24 1.21.45 1.79a.76.76 0 0 1-.45.97.77.77 0 0 1-.97-.44c-.25-.67-.43-1.37-.55-2.08-.07-.42.22-.81.63-.88.42-.07.81.22.88.63Zm1.8 4.19c.38.48.82.92 1.3 1.31.31.26.36.72.1 1.03-.25.31-.71.36-1.02.1-.56-.45-1.07-.96-1.53-1.52-.26-.32-.21-.78.11-1.04s.78-.21 1.04.11Zm3.69 2.77c.58.25 1.17.46 1.79.63.38.1.6.49.49.87-.1.37-.49.59-.86.5a14.6 14.6 0 0 1-1.99-.68.73.73 0 0 1-.38-.94c.16-.36.58-.53.94-.38Zm4.62 1.14c.64.06 1.29.09 1.93.09a.68.68 0 0 1 0 1.36c-.69 0-1.38-.02-2.06-.08a.694.694 0 0 1-.63-.75c.03-.38.37-.66.75-.63Zm4.78-.11c.6-.13 1.2-.33 1.78-.58.34-.14.72.02.86.35.14.34-.02.72-.35.86-.64.27-1.31.51-2.02.67a.673.673 0 0 1-.8-.51c-.08-.36.15-.72.51-.8Zm4.39-1.9 1.7-1.01h.01c.3-.19.7-.09.88.22.18.3.08.69-.22.87l-1.73 1.05a.64.64 0 0 1-.89-.22.64.64 0 0 1 .22-.89s.02-.02.02-.02Zm4.26-2.58 1.73-1.03c.29-.17.65-.08.82.21a.6.6 0 0 1-.2.82h-.01l-1.69 1.05h-.01a.6.6 0 0 1-.85-.2.617.617 0 0 1 .2-.85Zm4.42-2.47 1.87-.83c.28-.13.62 0 .74.29.12.28 0 .61-.28.74l-.04.02-1.78.82-.04.02c-.29.13-.63 0-.77-.28-.13-.29 0-.63.28-.77Zm4.83-1.73 1.02-.18c.29-.05.57.14.62.43s-.14.56-.43.61h-.04l-.94.19h-.04a.53.53 0 0 1-.63-.42c-.06-.29.14-.58.43-.63Z" class="cls-6"/></g><path d="M183.3 104.87c-1.81-4.16-4.61-8.42-8.17-11.28-4.64-3.73-10.11-3.84-15.56-1.86-5.51 2.01-10.94 5.22-15.2 9.26-.91.86.24 2.19 1.29 1.67.61-.31 1.21-.63 1.81-.96-.38.37-.75.75-1.1 1.15-3.06 3.55-4.78 8.13-4.33 12.84.46 4.75 2.58 9.86 6.02 13.24 3.39 3.33 8.39 4.49 13.02 4.62 4.34.12 8.78-.83 12.6-2.92 4.26-2.33 7.26-6.07 9.11-10.51 2.1-5.02 2.75-10.15.53-15.23Zm-2.31 9.95c-.98 4.23-3 8.41-6.4 11.21-2.78 2.29-6.34 3.62-9.89 4.09-3.73.49-7.94.17-11.39-1.4-3.79-1.72-6.31-5.73-7.65-9.54-3.63-10.28 3.46-19.6 13.29-22.4.47-.13.27-.83-.2-.73-.93.2-1.86.45-2.78.75.58-.3 1.17-.59 1.78-.85 3.87-1.72 8.6-3.3 12.68-1.42 3.4 1.57 5.83 4.78 7.74 7.9 2.38 3.89 3.89 7.8 2.82 12.39M131.43 68.8c-.32-2.53-1.31-5.8-4.27-6.21-3.04-.42-4.71 2.55-4.97 5.17-1.74-.76-3.93-.57-5.17 1.03-1.6 2.07-.41 5.48.79 7.46 1.36 2.26 3.63 4.46 6.15 5.35 1.3.45 2.74.38 3.88-.44 1.12-.82 1.78-2.09 2.32-3.34 1.21-2.82 1.66-5.96 1.28-9.01Zm-5.87 7.59a.65.65 0 0 0-.21-.18c-1.06-1.57-1.49-3.45-1.71-5.31.22.3.42.61.59.91.64 1.13 1.14 2.38 1.29 3.67.02.2.03.41.04.62zm4.3-2.7c-.35 1.97-1.01 4.37-2.43 5.87-1.74 1.84-4.17.32-5.7-1.01-1.46-1.27-2.75-2.87-3.43-4.7-.6-1.62-1.1-4.18.97-4.9 1.07-.37 2.05-.1 2.88.47.05 1.75.29 3.67 1.05 5.26-.07.13-.1.29-.03.47.37 1.03 1.18 2.88 2.41 3.07 1.52.23 1.51-1.76 1.41-2.73-.25-2.5-1.54-5.26-3.52-6.9 0-1.53.3-3.04 1.53-4.05 2.12-1.73 4.04.47 4.6 2.48.6 2.14.64 4.49.25 6.67Zm77.34 15.76c-.32-2.53-1.31-5.8-4.27-6.21-3.04-.42-4.71 2.55-4.97 5.17-1.74-.76-3.93-.57-5.17 1.03-1.6 2.07-.41 5.48.79 7.46 1.36 2.26 3.63 4.46 6.15 5.35 1.3.45 2.74.38 3.88-.44 1.12-.82 1.78-2.09 2.32-3.34 1.21-2.82 1.66-5.96 1.28-9.01Zm-5.87 7.59a.65.65 0 0 0-.21-.18c-1.06-1.57-1.49-3.45-1.71-5.31.22.3.42.61.59.91.64 1.13 1.14 2.38 1.29 3.67.02.2.03.41.04.62zm4.3-2.7c-.35 1.97-1.01 4.37-2.43 5.87-1.74 1.84-4.17.32-5.7-1.01-1.46-1.27-2.75-2.87-3.43-4.7-.6-1.62-1.1-4.18.97-4.9 1.07-.37 2.05-.1 2.88.47.05 1.75.29 3.67 1.05 5.26-.07.13-.1.29-.03.47.37 1.03 1.18 2.88 2.41 3.07 1.52.23 1.51-1.76 1.41-2.73-.25-2.5-1.54-5.26-3.52-6.9 0-1.53.3-3.04 1.53-4.05 2.12-1.73 4.04.47 4.6 2.48.6 2.14.64 4.49.25 6.67ZM64.16 23.96c-.32-2.53-1.31-5.8-4.27-6.21-3.04-.42-4.71 2.55-4.97 5.17-1.74-.76-3.93-.57-5.17 1.03-1.6 2.07-.41 5.48.79 7.46 1.36 2.26 3.63 4.46 6.15 5.35 1.3.45 2.74.38 3.88-.44 1.12-.82 1.78-2.09 2.32-3.34 1.21-2.82 1.66-5.96 1.28-9.01Zm-5.87 7.59a.65.65 0 0 0-.21-.18c-1.06-1.57-1.49-3.45-1.71-5.31.22.3.42.61.59.91.64 1.13 1.14 2.38 1.29 3.67.02.2.03.41.04.62zm4.3-2.7c-.35 1.97-1.01 4.37-2.43 5.87-1.74 1.84-4.17.32-5.7-1.01-1.46-1.27-2.75-2.87-3.43-4.7-.6-1.62-1.1-4.18.97-4.9 1.07-.37 2.05-.1 2.88.47.05 1.75.29 3.67 1.05 5.26-.07.13-.1.29-.03.47.37 1.03 1.18 2.88 2.41 3.07 1.52.23 1.51-1.76 1.41-2.73-.25-2.5-1.54-5.26-3.52-6.9 0-1.53.3-3.04 1.53-4.05 2.12-1.73 4.04.47 4.6 2.48.6 2.14.64 4.49.25 6.67Zm-47.4 97.93c-.32-2.53-1.31-5.8-4.27-6.21-3.04-.42-4.71 2.55-4.97 5.17-1.74-.76-3.93-.57-5.17 1.03-1.6 2.07-.41 5.48.79 7.46 1.36 2.26 3.63 4.46 6.15 5.35 1.3.45 2.74.38 3.88-.44 1.12-.82 1.78-2.09 2.32-3.34 1.21-2.82 1.66-5.96 1.28-9.01Zm-5.87 7.59a.65.65 0 0 0-.21-.18c-1.06-1.57-1.49-3.45-1.71-5.31.22.3.42.61.59.91.64 1.13 1.14 2.38 1.29 3.67.02.2.03.41.04.62zm4.3-2.7c-.35 1.97-1.01 4.37-2.43 5.87-1.74 1.84-4.17.32-5.7-1.01-1.46-1.27-2.75-2.87-3.43-4.7-.6-1.62-1.1-4.18.97-4.9 1.07-.37 2.05-.1 2.88.47.05 1.75.29 3.67 1.05 5.26-.07.13-.1.29-.03.47.37 1.03 1.18 2.88 2.41 3.07 1.52.23 1.51-1.76 1.41-2.73-.25-2.5-1.54-5.26-3.52-6.9 0-1.53.3-3.04 1.53-4.05 2.12-1.73 4.04.47 4.6 2.48.6 2.14.64 4.49.25 6.67Z" style="opacity:.17;stroke-width:0;fill:#ff4566"/></svg>