<svg width="327" height="315" viewBox="0 0 327 315" fill="none" xmlns="http://www.w3.org/2000/svg">
<g clip-path="url(#clip0_2_408)">
<path d="M47.0367 28.0285C54.3917 25.5779 57.0707 44.2906 52.4921 44.8748C48.6766 45.3617 37.8144 31.0959 47.0367 28.0285Z" fill="#D3163A"/>
<path d="M33.8203 47.3741C36.824 40.298 48.9201 47.2767 48.0596 51.0419C47.2315 54.8397 30.7841 54.4502 33.8203 47.3741Z" fill="#D3163A"/>
<path d="M77.009 182.518C77.009 182.518 127.942 146.229 113.979 72.6761C120.815 84.2802 126.887 109.955 130.605 114.516C134.307 119.093 164.701 112.211 165.318 108.819C166.682 101.597 150.966 58.7348 150.966 58.7348C172.446 92.4599 171.115 106.515 173.729 107.18C181.571 109.095 215.197 100.575 215.911 96.9555C216.642 93.3363 196.265 51.4802 196.265 51.4802C215.781 71.329 217.876 92.2003 221.512 94.8619C222.324 95.4624 224.776 95.4949 228.104 95.1053V95.1378C228.104 95.1378 241.434 130.908 246.468 140.256C249.78 146.456 268.338 158.352 271.115 184.693C273.68 208.891 255.804 236.108 221.399 251.38C206.25 258.099 187.936 262.546 166.764 263.357C161.714 263.552 156.973 263.357 152.459 262.887C106.527 258.099 87.0593 222.118 87.0593 222.118C87.0593 222.118 74.3138 232.667 58.597 227.847C36.5318 221.047 32.1967 186.575 49.5533 176.416C61.4708 169.469 72.6252 178.217 77.0415 182.518H77.009Z" fill="#FFDDDC"/>
<path d="M292.287 171.887C315.066 207.154 327.032 207.3 327 213.224C326.951 219.115 311.478 248.702 289.169 254.285C282.837 255.875 269.897 237.147 269.897 237.147C269.897 237.147 273.063 252.272 280.613 259.673C280.613 259.673 265.058 280.885 241.824 277.12C231.985 275.546 221.383 251.364 221.383 251.364C255.787 236.092 273.664 208.875 271.098 184.676C268.322 158.319 249.764 146.423 246.451 140.24C241.418 130.891 228.104 95.1214 228.104 95.1214V95.089C233.787 94.456 242.068 92.6221 249.455 90.2363C253.449 98.7893 275.953 146.553 292.287 171.871V171.887Z" fill="#D3163A"/>
<path d="M56.7948 280.593C56.0641 290.234 50.7224 308.849 44.6175 311.056C37.8632 313.458 4.62741 298.495 0.470901 293.512C-3.6856 288.562 20.8313 256.103 22.4711 222.784C24.1435 189.432 11.4467 132.385 25.5398 94.9594C39.6654 57.5502 68.972 58.5402 68.972 58.5402C68.972 58.5402 60.8863 40.2008 77.2688 24.1173C93.6513 8.06619 171.505 -10.5978 210.439 7.28718C249.358 25.1722 268.744 73.2442 265.838 81.0506C264.636 84.2641 257.606 87.5912 249.455 90.2528C242.068 92.6386 233.787 94.4725 228.104 95.1055C224.776 95.495 222.324 95.4625 221.512 94.862C217.892 92.2004 215.797 71.3291 196.265 51.4803C196.265 51.4803 216.658 93.3527 215.911 96.9556C215.197 100.575 181.587 109.095 173.729 107.18C171.115 106.515 172.446 92.46 150.966 58.735C150.966 58.735 166.666 101.597 165.319 108.819C164.702 112.211 134.307 119.093 130.605 114.516C126.887 109.956 120.815 84.2803 113.979 72.6762C127.942 146.229 77.009 182.518 77.009 182.518C72.5928 178.217 61.4384 169.453 49.5209 176.416C32.1642 186.559 36.4831 221.047 58.5645 227.847C74.2976 232.667 87.0269 222.118 87.0269 222.118C87.0269 222.118 106.494 258.099 152.427 262.887C154.083 270.012 155.268 292.555 151.94 298.852C148.628 305.149 119.905 308.687 119.629 306.463C117.162 287.004 112.924 276.763 112.924 276.763C113.687 279.782 113.59 302.341 109.125 310.326C104.66 318.311 59.4738 314.237 57.769 311.348C56.3889 308.963 56.6324 288.108 56.7623 280.61L56.7948 280.593Z" fill="#D3163A"/>
<g style="mix-blend-mode:multiply" opacity="0.41">
<path d="M114.596 200.646C113.119 187.614 122.503 175.847 135.541 174.371C148.579 172.894 160.35 182.274 161.828 195.307C163.305 208.339 153.921 220.106 140.883 221.582C127.845 223.059 116.074 213.695 114.596 200.646Z" fill="#F17282"/>
</g>
<g style="mix-blend-mode:multiply" opacity="0.41">
<path d="M217.924 185.131C216.447 172.098 225.831 160.332 238.869 158.855C251.907 157.378 263.678 166.743 265.156 179.791C266.633 192.824 257.249 204.59 244.211 206.067C231.173 207.544 219.402 198.179 217.924 185.131Z" fill="#F17282"/>
</g>
<path d="M138.334 127.662C144.439 128.051 145.088 132.774 143.188 134.965C140.493 138.065 138.025 137.968 133.17 141.262C124.094 147.397 122.227 151.243 119.808 147.77C115.911 142.139 126.043 126.883 138.334 127.662Z" fill="#5F2D35"/>
<path d="M196.07 113.607C190.956 116.95 192.693 121.381 195.437 122.355C199.301 123.718 201.412 122.436 207.257 122.907C218.184 123.783 221.707 126.217 222.081 121.998C222.698 115.181 206.38 106.888 196.054 113.607H196.07Z" fill="#5F2D35"/>
<path d="M71.5698 196.573C69.9787 195.323 68.2901 194.073 66.6502 193.116C64.9779 192.174 63.3218 191.476 61.6169 191.201C59.9284 190.892 58.1911 190.844 56.3564 191.282C55.4309 191.363 54.5217 191.801 53.5475 192.028C52.5895 192.353 51.6478 192.791 50.5925 193.083L50.3651 193.148C49.6507 193.343 48.9039 192.921 48.709 192.207C48.5792 191.752 48.709 191.282 49.0013 190.941C49.7969 190.048 50.6574 189.204 51.5991 188.425C52.6545 187.792 53.6287 186.965 54.8626 186.575C57.1844 185.472 60.0095 185.244 62.6398 185.699C65.2864 186.186 67.7056 187.435 69.589 189.107C71.4886 190.795 72.9337 192.742 73.8267 195.128C74.0865 195.826 73.7292 196.605 73.0311 196.865C72.5765 197.027 72.0894 196.946 71.7322 196.654L71.5861 196.54L71.5698 196.573Z" fill="#7E242D"/>
<path opacity="0.41" d="M176.863 169.599C178.405 174.143 183.877 176.383 189.072 174.614C194.268 172.845 197.223 167.733 195.664 163.189C194.122 158.644 188.65 156.405 183.454 158.174C178.259 159.943 175.304 165.055 176.846 169.599H176.863Z" fill="#F3868A"/>
<path d="M189.494 157.184C191.345 157.378 193.001 158.141 194.479 159.342C195.924 160.559 196.963 162.345 197.32 164.227C197.775 166.126 197.32 168.317 196.33 169.859C195.356 171.466 194.073 172.699 192.498 173.592C192.173 173.77 191.767 173.657 191.589 173.332C191.443 173.089 191.475 172.78 191.654 172.569L191.703 172.521C192.677 171.336 193.602 170.037 194.154 168.707C194.706 167.36 194.917 166.11 194.593 164.779C194.349 163.4 193.7 162.199 192.79 161.111C191.849 160.056 190.55 159.164 189.218 158.498L189.137 158.466C188.812 158.303 188.666 157.898 188.845 157.573C188.975 157.313 189.251 157.184 189.511 157.216L189.494 157.184Z" fill="#CF5D55"/>
<path d="M211.186 184.757C208.897 190.892 204.594 195.923 199.155 199.543C193.716 203.129 187.254 205.061 180.873 205.483C174.476 205.84 167.9 204.915 162.006 202.367C156.064 199.883 150.852 196.086 146.89 190.973C146.436 190.389 146.549 189.561 147.134 189.107C147.653 188.717 148.351 188.75 148.822 189.156L148.936 189.269C151.03 191.103 153.433 192.872 155.95 194.252C158.451 195.696 161.065 196.881 163.76 197.774C169.134 199.624 174.849 200.273 180.499 199.916C186.166 199.559 191.654 198.033 196.557 195.323C199.009 193.976 201.266 192.256 203.328 190.308C205.422 188.425 207.273 186.072 208.718 183.751L208.816 183.605C209.205 182.988 210.017 182.794 210.65 183.183C211.202 183.524 211.413 184.189 211.186 184.774V184.757Z" fill="#320000"/>
<path d="M152.979 151.373C152.979 151.373 152.573 151.195 151.859 150.984C151.144 150.773 150.121 150.546 148.822 150.497C148.173 150.497 147.475 150.464 146.712 150.578C145.965 150.643 145.153 150.854 144.325 151.097C143.529 151.438 142.653 151.73 141.889 152.298C141.175 152.72 140.574 153.305 139.957 153.905C139.421 153.856 138.918 153.824 138.431 153.678C137.944 153.516 137.408 153.386 136.921 153.045C136.402 152.769 135.898 152.396 135.395 151.958C134.892 151.536 134.356 151.016 133.885 150.546L133.787 150.448C133.593 150.253 133.317 150.156 133.024 150.205C132.537 150.286 132.213 150.74 132.294 151.211C132.57 152.996 133.495 154.522 134.924 155.788C135.655 156.372 136.548 156.891 137.522 157.135C137.619 157.167 137.733 157.151 137.83 157.184C137.749 157.362 137.684 157.524 137.619 157.703C137.148 157.833 136.71 157.946 136.272 157.979C135.752 157.995 135.216 158.06 134.632 157.914C134.047 157.833 133.447 157.654 132.83 157.411C132.213 157.184 131.531 156.891 130.93 156.615L130.8 156.551C130.556 156.437 130.264 156.437 130.004 156.583C129.582 156.826 129.42 157.362 129.663 157.784C130.556 159.375 131.937 160.462 133.706 161.176C134.599 161.484 135.606 161.647 136.596 161.549C136.678 161.549 136.743 161.517 136.824 161.501C136.791 162.393 136.694 164.844 137.976 168.836C139.681 174.176 144.309 177.633 148.839 176.399C153.369 175.166 155.836 169.778 154.375 164.373C152.963 159.212 148.481 155.934 144.13 156.713C144.292 156.551 144.455 156.404 144.65 156.291C145.056 155.918 145.575 155.69 146.046 155.398C146.582 155.22 147.053 154.911 147.588 154.782C148.108 154.603 148.628 154.473 149.115 154.36C150.089 154.149 150.966 154.019 151.566 153.938C152.167 153.856 152.476 153.824 152.524 153.824C153.369 153.856 153.872 153.499 154.002 152.818C154.148 152.136 153.693 151.471 153.011 151.341L152.979 151.373Z" fill="#320000"/>
<path d="M225.442 127.824C225.344 127.581 225.133 127.37 224.841 127.288C224.37 127.159 223.883 127.435 223.753 127.905L223.721 128.035C223.542 128.684 223.347 129.398 223.12 130.015C222.909 130.648 222.665 131.216 222.357 131.719C222.113 132.255 221.707 132.628 221.366 133.018C221.009 133.407 220.571 133.683 220.1 134.024L220.002 134.105C219.889 134.072 219.726 134.04 219.597 134.008C219.71 133.829 219.856 133.667 219.938 133.456C220.36 132.547 220.538 131.541 220.538 130.599C220.457 128.684 219.873 127.013 218.671 125.666C218.492 125.471 218.216 125.341 217.924 125.373C217.437 125.422 217.08 125.844 217.129 126.331V126.461C217.194 127.126 217.259 127.873 217.259 128.522C217.275 129.187 217.259 129.82 217.129 130.388C217.08 130.973 216.836 131.476 216.658 131.946C216.463 132.433 215.635 133.667 215.619 133.699C215.424 133.699 215.245 133.699 215.05 133.715C214.304 133.78 213.492 133.991 212.664 134.235C211.868 134.576 210.991 134.868 210.228 135.436C209.416 135.906 208.734 136.604 208.036 137.286C207.419 138 206.9 138.844 206.461 139.639C206.12 140.467 205.714 141.295 205.552 142.106C205.39 142.918 205.227 143.697 205.162 144.443C205.162 145.173 204.951 147.738 206.299 151.99C208.004 157.329 212.631 160.786 217.161 159.553C221.691 158.319 224.159 152.931 222.698 147.543C221.285 142.382 216.788 139.104 212.453 139.883C212.615 139.72 212.777 139.574 212.972 139.461C213.378 139.087 213.898 138.86 214.368 138.568C214.904 138.39 215.375 138.081 215.911 137.951C216.43 137.773 216.95 137.643 217.437 137.529C218.411 137.318 221.025 137.221 221.399 137.091C222.292 136.767 223.217 136.296 223.899 135.549C224.614 134.851 225.117 133.959 225.458 133.082C226.042 131.265 226.075 129.496 225.425 127.808L225.442 127.824Z" fill="#320000"/>
<path d="M101.721 56.7547C102.825 74.6884 100.373 92.8006 94.1383 109.663C87.9523 126.396 78.0643 140.824 66.7963 154.489C65.4162 156.161 67.8679 158.758 69.524 157.232C96.3789 132.855 108.296 91.8106 103.978 56.4464C103.799 54.9857 101.64 55.2941 101.721 56.7385V56.7547Z" fill="#CC0224"/>
<path d="M36.1908 230.947C34.4048 241.87 31.8395 252.646 29.0144 263.341C27.5693 268.794 25.9619 274.28 23.8999 279.538C21.8379 284.781 19.2401 289.779 17.2755 295.054C16.9995 295.8 18.0548 296.531 18.5419 295.8C21.5943 291.224 23.7375 286.03 25.8807 280.983C28.1538 275.643 30.4269 270.32 32.3753 264.851C36.2233 254.042 38.4314 242.827 39.5842 231.434C39.8115 229.243 36.5318 228.756 36.1746 230.947H36.1908Z" fill="#CC0224"/>
<path d="M49.0987 236.449C48.0109 251.786 43.6758 266.636 40.7857 281.68C40.5097 283.141 42.8477 283.839 43.3186 282.395C48.2219 267.642 51.6316 252.483 52.1836 236.903C52.2485 234.923 49.2286 234.42 49.0825 236.449H49.0987Z" fill="#CC0224"/>
<path d="M72.3004 249.725C71.7971 258.618 70.9691 267.48 70.5469 276.39C70.3358 280.772 70.0761 285.154 69.7676 289.519C69.4591 293.837 68.8421 298.154 69.1831 302.471C69.2642 303.461 70.9041 303.769 71.1964 302.747C72.4303 298.429 72.6089 293.934 73.0148 289.471C73.4045 285.105 73.7292 280.739 74.0215 276.373C74.606 267.512 74.3624 258.618 74.0864 249.741C74.054 248.735 72.3654 248.718 72.3004 249.741V249.725Z" fill="#CC0224"/>
<path d="M88.0335 244.482C87.7899 243.087 85.8091 243.363 85.8578 244.758C86.4585 262.806 86.9294 280.885 87.4002 298.949C87.4327 299.971 89.0401 299.939 89.1862 298.949C90.4202 289.942 90.8748 281.015 90.8748 271.943C90.8748 262.643 89.6733 253.604 88.0335 244.482Z" fill="#CC0224"/>
<path d="M101.299 255.324C101.071 254.334 100.276 253.555 99.2041 253.701C98.2299 253.831 97.4018 254.788 97.5804 255.794C98.1162 258.878 98.4247 261.994 98.4734 265.126C98.5221 268.242 98.4572 271.326 98.5871 274.426C98.652 276 101.282 276.422 101.721 274.864C102.192 273.225 102.581 271.651 102.727 269.947C102.873 268.275 102.841 266.62 102.727 264.948C102.516 261.702 102.029 258.488 101.299 255.324Z" fill="#CC0224"/>
<path d="M83.0814 59.0756C79.2983 75.6785 73.9728 92.1677 66.7151 107.586C63.1107 115.246 58.9542 122.647 54.1644 129.642C49.3909 136.621 43.3997 142.739 38.7074 149.734C37.3761 151.714 39.6816 154.262 41.7112 152.753C48.5304 147.705 53.791 139.948 58.4021 132.936C63.1756 125.682 67.3646 118.038 70.9528 110.118C78.2916 93.9368 82.7242 76.9282 84.7537 59.3028C84.8836 58.183 83.2924 57.9882 83.0489 59.0594L83.0814 59.0756Z" fill="#CC0224"/>
<path d="M82.643 126.964C84.9486 122.063 47.7186 104.064 44.8935 111.757C41.5975 120.683 79.6393 133.375 82.643 126.964Z" fill="#875785"/>
<path d="M89.7383 104.843C92.0438 99.9418 54.8139 81.9432 51.9888 89.636C48.6928 98.5622 86.7345 111.254 89.7383 104.843Z" fill="#875785"/>
<path d="M149.374 55.8296C154.895 63.6198 159.847 71.767 164.312 80.2064C168.631 88.7107 172.657 97.4585 175.044 106.855L173.68 105.833C180.905 105.508 188.179 104.713 195.323 103.512C198.911 102.928 202.419 102.068 205.877 101.029C209.303 99.9741 212.729 98.6757 215.473 96.4685C215.765 96.225 216.171 96.2737 216.414 96.5496C216.642 96.8255 216.609 97.2313 216.349 97.4585C213.492 100.055 209.985 101.565 206.51 102.863C203.003 104.145 199.399 105.054 195.778 105.8C188.52 107.326 181.198 108.121 173.794 108.543C173.161 108.576 172.592 108.17 172.43 107.57V107.521C169.93 98.5296 166.26 89.7981 162.023 81.375C159.944 77.139 157.736 72.9518 155.414 68.8295C153.109 64.7072 150.771 60.5686 148.27 56.5762C148.075 56.2678 148.157 55.8458 148.465 55.6511C148.757 55.4563 149.163 55.5375 149.374 55.8296Z" fill="#D9334A"/>
<path d="M193.294 48.4289C199.366 54.4177 204.789 60.9906 209.611 68.0343C214.433 75.0292 218.428 82.7707 221.724 90.4636C222.146 91.3887 222.617 92.265 223.12 92.8331C223.623 93.4011 224.094 93.5959 225.084 93.6932C226.919 93.8718 229.03 93.7582 231.076 93.4985C235.183 93.0278 239.291 92.1677 243.35 91.1939C247.393 90.1877 251.404 88.9542 255.235 87.3637C259.002 85.7894 262.931 83.8744 265.253 80.7096L265.318 80.6284C265.529 80.3363 265.951 80.2714 266.244 80.4824C266.536 80.6934 266.601 81.0829 266.406 81.375C263.873 85.2539 259.863 87.3475 256.063 89.2301C252.15 91.0316 248.091 92.3949 243.984 93.5634C239.876 94.7319 235.671 95.5921 231.4 96.1439C229.257 96.4198 227.114 96.5983 224.743 96.3874C223.639 96.3711 221.967 95.7706 221.107 94.6833C220.197 93.6608 219.71 92.6383 219.223 91.6483C217.453 87.6883 215.878 83.923 213.898 80.2227C211.965 76.5061 209.806 72.9356 207.565 69.3976C205.309 65.8595 202.889 62.4351 200.34 59.108C197.824 55.7485 195.177 52.4539 192.368 49.3703C192.125 49.0781 192.141 48.6562 192.417 48.4127C192.677 48.1693 193.083 48.1855 193.326 48.4289H193.294Z" fill="#D9334A"/>
</g>
<defs>
<clipPath id="clip0_2_408">
<rect width="327" height="315" fill="white"/>
</clipPath>
</defs>
</svg>
