<svg width="305" height="305" viewBox="0 0 305 305" fill="none" xmlns="http://www.w3.org/2000/svg">
<g clip-path="url(#clip0_2_292)">
<path d="M43.8842 27.1451C50.7476 24.7813 53.246 42.8983 48.9693 43.4473C45.4127 43.9201 35.272 30.1036 43.8842 27.1451Z" fill="#FF7986"/>
<path d="M31.539 45.872C34.3461 39.0248 45.6331 45.7653 44.8248 49.4253C44.0459 53.1158 28.7026 52.7193 31.539 45.872Z" fill="#FF7986"/>
<path d="M71.8373 176.732C71.8373 176.732 119.352 141.596 106.33 70.3788C112.694 81.618 118.367 106.476 121.835 110.898C125.289 115.321 153.624 108.672 154.212 105.378C155.476 98.393 140.823 56.8825 140.823 56.8825C160.855 89.5328 159.606 103.151 162.06 103.776C169.379 105.637 200.742 97.3713 201.403 93.879C202.094 90.3715 183.076 49.837 183.076 49.837C201.286 69.052 203.24 89.2583 206.62 91.8355C207.37 92.415 209.663 92.4455 212.764 92.0795V92.11C212.764 92.11 225.197 126.743 229.885 135.801C232.986 141.795 250.284 153.308 252.871 178.837C255.266 202.261 238.586 228.628 206.503 243.405C192.379 249.917 175.287 254.218 155.55 254.995C150.847 255.194 146.423 254.995 142.205 254.553C99.3495 249.917 81.1991 215.071 81.1991 215.071C81.1991 215.071 69.3242 225.288 54.6422 220.607C34.0522 214.034 30.0106 180.636 46.2063 170.815C57.317 164.09 67.7222 172.554 71.852 176.732H71.8373Z" fill="#FFDDDC"/>
<path d="M272.623 166.439C293.875 200.583 305.044 200.736 305 206.47C304.956 212.173 290.524 240.828 269.713 246.242C263.82 247.782 251.739 229.65 251.739 229.65C251.739 229.65 254.693 244.29 261.733 251.457C261.733 251.457 247.227 271.999 225.55 268.354C216.364 266.829 206.474 243.421 206.474 243.421C238.556 228.643 255.237 202.276 252.842 178.852C250.255 153.339 232.942 141.81 229.856 135.817C225.168 126.758 212.734 92.1253 212.734 92.1253V92.0948C218.04 91.4848 225.756 89.7158 232.648 87.3978C236.381 95.6786 257.368 141.932 272.609 166.439H272.623Z" fill="#FF667D"/>
<path d="M52.9668 271.694C52.2908 281.027 47.3086 299.052 41.6063 301.187C35.3161 303.505 4.30612 289.018 0.426201 284.199C-3.43902 279.41 19.4143 247.98 20.9428 215.726C22.5006 183.427 10.6551 128.191 23.7939 91.9574C36.9621 55.7387 64.3126 56.6994 64.3126 56.6994C64.3126 56.6994 56.7732 38.9332 72.0431 23.3629C87.3276 7.82316 159.929 -10.2481 196.259 7.06066C232.56 24.3847 250.652 70.9277 247.918 78.4764C246.801 81.5874 240.232 84.8204 232.648 87.3824C225.756 89.7004 218.04 91.4694 212.734 92.0794C209.633 92.4607 207.341 92.4149 206.591 91.8354C203.211 89.2582 201.256 69.0519 183.047 49.8369C183.047 49.8369 202.065 90.3714 201.374 93.8789C200.712 97.3712 169.35 105.637 162.031 103.776C159.591 103.136 160.84 89.5174 140.794 56.8824C140.794 56.8824 155.447 98.3929 154.183 105.377C153.61 108.671 125.26 115.32 121.806 110.898C118.338 106.475 112.665 81.6179 106.301 70.3787C119.322 141.596 71.8079 176.732 71.8079 176.732C67.6929 172.569 57.2729 164.09 46.1622 170.815C29.9665 180.636 34.0081 214.034 54.5981 220.606C69.2654 225.273 81.155 215.071 81.155 215.071C81.155 215.071 99.3201 249.917 142.161 254.553C143.704 261.461 144.821 283.284 141.705 289.384C138.619 295.484 111.827 298.915 111.562 296.75C109.27 277.901 105.316 267.988 105.316 267.988C106.022 270.916 105.948 292.754 101.774 300.486C97.6153 308.218 55.4652 304.283 53.878 301.462C52.5847 299.144 52.8198 278.953 52.9374 271.694H52.9668Z" fill="#FF7986"/>
<g style="mix-blend-mode:multiply" opacity="0.41">
<path d="M106.889 194.27C105.507 181.643 114.252 170.266 126.421 168.833C138.59 167.414 149.553 176.473 150.935 189.1C152.302 201.727 143.557 213.103 131.403 214.537C119.234 215.97 108.27 206.897 106.889 194.27Z" fill="#F17282"/>
</g>
<g style="mix-blend-mode:multiply" opacity="0.41">
<path d="M203.27 179.249C201.903 166.622 210.647 155.245 222.802 153.812C234.97 152.378 245.949 161.452 247.316 174.079C248.697 186.706 239.953 198.082 227.784 199.516C215.615 200.949 204.651 191.876 203.27 179.249Z" fill="#F17282"/>
</g>
<path d="M129.037 123.601C134.724 123.983 135.342 128.558 133.563 130.677C131.05 133.666 128.758 133.59 124.216 136.777C115.751 142.71 114.002 146.446 111.753 143.076C108.123 137.616 117.573 122.854 129.037 123.617V123.601Z" fill="#5F2D35"/>
<path d="M182.885 109.998C178.109 113.231 179.74 117.532 182.298 118.462C185.898 119.789 187.868 118.538 193.335 118.996C203.52 119.85 206.812 122.198 207.164 118.127C207.737 111.523 192.512 103.487 182.9 109.998H182.885Z" fill="#5F2D35"/>
<path d="M66.7523 190.335C65.2679 189.13 63.6954 187.911 62.1669 186.996C60.6091 186.081 59.0512 185.41 57.4787 185.135C55.9061 184.83 54.2748 184.799 52.57 185.211C51.7029 185.303 50.8652 185.714 49.954 185.928C49.0575 186.233 48.1904 186.66 47.191 186.95L46.9706 187.011C46.2945 187.209 45.6038 186.797 45.4127 186.096C45.2951 185.653 45.4127 185.196 45.6919 184.876C46.4268 184.022 47.2351 183.183 48.1169 182.451C49.1016 181.841 49.9981 181.048 51.1591 180.667C53.3195 179.599 55.9649 179.386 58.4193 179.813C60.8883 180.286 63.1516 181.49 64.9005 183.122C66.6641 184.754 68.0162 186.645 68.8392 188.963C69.0744 189.649 68.751 190.396 68.0897 190.655C67.6635 190.823 67.2079 190.732 66.8699 190.457L66.7376 190.35L66.7523 190.335Z" fill="#7E242D"/>
<path opacity="0.41" d="M164.97 164.227C166.41 168.619 171.51 170.8 176.36 169.077C181.21 167.369 183.958 162.413 182.518 158.021C181.078 153.629 175.978 151.448 171.128 153.171C166.278 154.879 163.53 159.835 164.97 164.227Z" fill="#F3868A"/>
<path d="M176.742 152.195C178.462 152.378 180.02 153.11 181.386 154.284C182.738 155.459 183.708 157.197 184.046 159.012C184.458 160.842 184.046 162.962 183.121 164.456C182.209 166.012 181.004 167.201 179.535 168.07C179.241 168.253 178.858 168.131 178.682 167.826C178.55 167.582 178.579 167.293 178.741 167.094L178.785 167.033C179.696 165.89 180.563 164.624 181.078 163.343C181.592 162.031 181.783 160.827 181.489 159.53C181.269 158.188 180.651 157.029 179.799 155.977C178.917 154.955 177.712 154.086 176.463 153.446L176.389 153.415C176.081 153.247 175.963 152.866 176.11 152.546C176.228 152.302 176.478 152.165 176.727 152.195H176.742Z" fill="#CF5D55"/>
<path d="M196.979 178.898C194.848 184.83 190.822 189.71 185.766 193.218C180.696 196.695 174.67 198.555 168.703 198.967C162.736 199.302 156.608 198.418 151.111 195.947C145.571 193.553 140.706 189.863 137.002 184.922C136.576 184.357 136.679 183.549 137.223 183.122C137.693 182.741 138.369 182.771 138.795 183.168L138.913 183.275C140.868 185.044 143.116 186.767 145.453 188.094C147.775 189.481 150.229 190.64 152.743 191.51C157.769 193.294 163.074 193.934 168.35 193.584C173.626 193.233 178.756 191.769 183.326 189.146C185.619 187.834 187.721 186.172 189.646 184.281C191.6 182.451 193.32 180.179 194.672 177.937L194.76 177.8C195.128 177.19 195.892 177.007 196.465 177.388C196.979 177.724 197.171 178.364 196.965 178.928L196.979 178.898Z" fill="#320000"/>
<path d="M142.69 146.568C142.69 146.568 142.308 146.385 141.647 146.187C140.985 145.973 140.03 145.76 138.825 145.714C138.222 145.714 137.561 145.683 136.855 145.79C136.15 145.851 135.4 146.065 134.636 146.293C133.887 146.629 133.078 146.903 132.358 147.452C131.682 147.864 131.124 148.428 130.565 149.008C130.066 148.962 129.595 148.932 129.14 148.794C128.684 148.642 128.184 148.52 127.729 148.184C127.244 147.91 126.773 147.544 126.303 147.132C125.833 146.72 125.333 146.232 124.892 145.775L124.804 145.683C124.628 145.5 124.363 145.409 124.099 145.455C123.643 145.531 123.334 145.973 123.408 146.431C123.672 148.169 124.525 149.633 125.862 150.868C126.538 151.448 127.376 151.936 128.273 152.18C128.361 152.21 128.464 152.195 128.566 152.226C128.493 152.393 128.434 152.561 128.361 152.729C127.935 152.851 127.523 152.973 127.097 152.988C126.612 153.019 126.112 153.064 125.568 152.927C125.025 152.851 124.466 152.668 123.878 152.439C123.305 152.226 122.673 151.936 122.1 151.661L121.982 151.6C121.747 151.494 121.483 151.494 121.248 151.631C120.851 151.86 120.704 152.378 120.924 152.79C121.747 154.33 123.041 155.382 124.701 156.069C125.539 156.358 126.48 156.526 127.405 156.419C127.479 156.419 127.538 156.374 127.611 156.374C127.582 157.228 127.494 159.607 128.684 163.48C130.271 168.65 134.592 171.99 138.81 170.8C143.028 169.611 145.35 164.395 143.969 159.164C142.661 154.162 138.457 150.99 134.416 151.753C134.563 151.6 134.71 151.463 134.901 151.356C135.283 150.99 135.768 150.777 136.209 150.487C136.708 150.319 137.149 150.014 137.649 149.892C138.134 149.725 138.619 149.587 139.075 149.481C139.986 149.282 140.794 149.145 141.353 149.084C141.926 149.008 142.205 148.977 142.234 148.977C143.028 149.008 143.484 148.672 143.601 148.001C143.733 147.33 143.307 146.705 142.675 146.568H142.69Z" fill="#320000"/>
<path d="M210.28 123.769C210.192 123.525 209.986 123.327 209.721 123.251C209.281 123.129 208.825 123.403 208.707 123.861L208.678 123.983C208.516 124.608 208.325 125.309 208.12 125.904C207.914 126.514 207.693 127.078 207.399 127.566C207.164 128.085 206.797 128.451 206.474 128.832C206.15 129.198 205.724 129.473 205.298 129.808L205.195 129.884C205.077 129.854 204.945 129.823 204.813 129.793C204.916 129.61 205.048 129.457 205.121 129.259C205.518 128.375 205.68 127.398 205.695 126.499C205.621 124.653 205.077 123.037 203.96 121.71C203.799 121.512 203.534 121.405 203.27 121.421C202.814 121.466 202.476 121.878 202.52 122.351V122.473C202.594 123.113 202.638 123.845 202.652 124.471C202.667 125.111 202.652 125.721 202.535 126.285C202.491 126.849 202.27 127.338 202.094 127.795C201.903 128.268 201.139 129.457 201.124 129.503C200.933 129.503 200.786 129.503 200.595 129.518C199.889 129.579 199.14 129.793 198.376 130.022C197.626 130.357 196.818 130.631 196.098 131.18C195.333 131.638 194.701 132.309 194.055 132.965C193.467 133.666 192.997 134.475 192.585 135.237C192.262 136.03 191.88 136.838 191.733 137.631C191.586 138.424 191.424 139.172 191.365 139.888C191.351 140.59 191.16 143.075 192.423 147.193C194.011 152.363 198.332 155.703 202.55 154.513C206.767 153.324 209.09 148.108 207.708 142.877C206.4 137.875 202.197 134.703 198.155 135.466C198.302 135.313 198.449 135.176 198.64 135.069C199.022 134.703 199.507 134.49 199.948 134.2C200.448 134.032 200.889 133.727 201.388 133.605C201.873 133.438 202.358 133.3 202.814 133.193C203.725 132.995 206.165 132.904 206.518 132.766C207.355 132.446 208.208 132.004 208.854 131.272C209.516 130.586 210.001 129.732 210.309 128.878C210.853 127.124 210.883 125.401 210.28 123.769Z" fill="#320000"/>
<path d="M94.8817 54.9458C95.9105 72.3156 93.6325 89.8378 87.8126 106.186C82.0368 122.381 72.822 136.35 62.2992 149.603C61.0059 151.219 63.2986 153.735 64.8564 152.256C89.9142 128.649 101.01 88.9228 96.9833 54.6713C96.8217 53.2531 94.8082 53.5428 94.8817 54.9458Z" fill="#D9334A"/>
<path d="M33.7436 223.626C32.0681 234.194 29.6873 244.641 27.0419 254.995C25.6898 260.287 24.2054 265.594 22.2655 270.688C20.3402 275.751 17.9152 280.615 16.0929 285.709C15.8283 286.441 16.8277 287.142 17.2833 286.426C20.1197 281.988 22.1332 276.971 24.1319 272.075C26.2483 266.906 28.3793 261.751 30.187 256.459C33.7729 245.998 35.8452 235.14 36.918 224.114C37.1238 221.979 34.0816 221.522 33.7436 223.641V223.626Z" fill="#D9334A"/>
<path d="M45.7948 228.948C44.7807 243.802 40.7392 258.167 38.035 272.746C37.7704 274.165 39.9602 274.836 40.4011 273.433C44.9865 259.143 48.1463 244.473 48.6754 229.375C48.7341 227.469 45.9271 226.981 45.7948 228.948Z" fill="#D9334A"/>
<path d="M67.443 241.804C66.9727 250.42 66.1938 259.006 65.797 267.622C65.6059 271.862 65.3561 276.101 65.0769 280.341C64.7976 284.519 64.2097 288.698 64.5331 292.876C64.6066 293.837 66.1497 294.142 66.4142 293.151C67.5606 288.972 67.737 284.611 68.1044 280.295C68.4571 276.071 68.7804 271.847 69.045 267.607C69.5887 259.021 69.3536 250.405 69.1037 241.819C69.0743 240.843 67.5018 240.828 67.443 241.819V241.804Z" fill="#D9334A"/>
<path d="M82.125 236.726C81.8898 235.369 80.0528 235.643 80.0969 236.985C80.6553 254.462 81.0962 271.969 81.5371 289.46C81.5665 290.452 83.0803 290.421 83.1978 289.46C84.3442 280.753 84.7704 272.106 84.7704 263.307C84.7704 254.309 83.6387 245.556 82.125 236.711V236.726Z" fill="#D9334A"/>
<path d="M94.4849 247.233C94.2644 246.272 93.5443 245.525 92.5302 245.662C91.619 245.784 90.8548 246.715 91.0165 247.691C91.5162 250.68 91.8101 253.699 91.8395 256.734C91.8836 259.753 91.8248 262.742 91.9424 265.747C92.0011 267.272 94.4555 267.683 94.867 266.174C95.3079 264.588 95.6606 263.063 95.8076 261.4C95.9399 259.784 95.9105 258.183 95.8076 256.551C95.6165 253.409 95.1609 250.298 94.4702 247.233H94.4849Z" fill="#D9334A"/>
<path d="M77.4955 57.2029C73.9683 73.2764 69.0009 89.2431 62.2404 104.173C58.8748 111.6 54.9949 118.767 50.5271 125.538C46.074 132.294 40.4893 138.226 36.1097 144.997C34.8752 146.919 37.0209 149.389 38.9168 147.925C45.2804 143.03 50.1891 135.527 54.4952 128.741C58.9483 121.71 62.8576 114.314 66.2085 106.659C73.0571 90.9969 77.2016 74.5269 79.0828 57.4621C79.2003 56.3794 77.716 56.1964 77.4955 57.2181V57.2029Z" fill="#D9334A"/>
<path d="M77.0841 122.93C79.2298 118.172 44.5162 100.757 41.8708 108.214C38.7992 116.861 74.277 129.152 77.0841 122.93Z" fill="#875785"/>
<path d="M83.6975 101.519C85.8433 96.7613 51.1297 79.3458 48.4843 86.8031C45.4127 95.4498 80.8905 107.741 83.6975 101.519Z" fill="#875785"/>
<path d="M139.339 54.0613C144.483 61.6101 149.098 69.4943 153.272 77.6683C157.298 85.9033 161.061 94.3823 163.28 103.471L162.001 102.48C168.747 102.175 175.537 101.397 182.195 100.238C185.531 99.6741 188.823 98.8353 192.041 97.8441C195.231 96.8223 198.434 95.5718 200.992 93.4216C201.256 93.1928 201.653 93.2233 201.873 93.4978C202.079 93.7723 202.05 94.1536 201.815 94.3823C199.14 96.8986 195.877 98.3626 192.629 99.6283C189.367 100.864 186.001 101.748 182.621 102.465C175.86 103.944 169.026 104.707 162.119 105.118C161.531 105.149 161.002 104.752 160.855 104.173V104.127C158.518 95.4193 155.109 86.9708 151.155 78.8121C149.215 74.7098 147.158 70.6686 144.997 66.6731C142.852 62.6776 140.662 58.6821 138.325 54.8086C138.134 54.5036 138.222 54.1071 138.516 53.9088C138.795 53.7258 139.163 53.8021 139.369 54.0766L139.339 54.0613Z" fill="#D9334A"/>
<path d="M180.299 46.8939C185.957 52.6889 191.027 59.0481 195.51 65.8801C200.007 72.6511 203.725 80.1541 206.812 87.5961C207.208 88.4959 207.635 89.3346 208.105 89.8989C208.575 90.4479 209.001 90.6461 209.942 90.7224C211.647 90.9054 213.631 90.7834 215.527 90.5394C219.362 90.0971 223.184 89.2584 226.975 88.3129C230.752 87.3369 234.485 86.1474 238.071 84.6071C241.584 83.0821 245.258 81.2369 247.418 78.1564L247.477 78.0801C247.683 77.7904 248.065 77.7294 248.344 77.9429C248.609 78.1411 248.682 78.5224 248.491 78.8121C246.14 82.5636 242.392 84.5919 238.836 86.4219C235.191 88.1604 231.399 89.4871 227.563 90.6156C223.727 91.7441 219.818 92.5829 215.821 93.1166C213.822 93.3759 211.823 93.5589 209.619 93.3606C208.59 93.3454 207.032 92.7659 206.224 91.7136C205.386 90.7376 204.916 89.7311 204.475 88.7704C202.829 84.9426 201.344 81.2979 199.507 77.6989C197.714 74.0999 195.686 70.6381 193.614 67.2069C191.512 63.7909 189.249 60.4664 186.868 57.2486C184.531 54.0004 182.048 50.8131 179.432 47.8241C179.196 47.5496 179.226 47.1379 179.476 46.8939C179.726 46.6651 180.093 46.6804 180.328 46.9091L180.299 46.8939Z" fill="#D9334A"/>
</g>
<defs>
<clipPath id="clip0_2_292">
<rect width="305" height="305" fill="white"/>
</clipPath>
</defs>
</svg>
