<svg width="345" height="332" viewBox="0 0 345 332" fill="none" xmlns="http://www.w3.org/2000/svg">
<g clip-path="url(#clip0_2_350)">
<path d="M49.6259 29.5412C57.3858 26.9583 60.2123 46.6809 55.3816 47.2967C51.356 47.8098 39.896 32.7741 49.6259 29.5412Z" fill="#DDBA0E"/>
<path d="M35.682 49.9309C38.851 42.4729 51.613 49.8282 50.7051 53.7967C49.8314 57.7994 32.4787 57.3889 35.682 49.9309Z" fill="#DDBA0E"/>
<path d="M81.248 192.368C81.248 192.368 134.985 154.12 120.253 76.5983C127.465 88.8287 133.872 115.89 137.794 120.696C141.7 125.52 173.768 118.267 174.419 114.692C175.858 107.08 159.276 61.9047 159.276 61.9047C181.939 97.4498 180.534 112.263 183.292 112.965C191.566 114.983 227.042 106.003 227.796 102.188C228.567 98.3735 207.069 54.2585 207.069 54.2585C227.659 75.1785 229.869 97.1762 233.706 99.9815C234.562 100.614 237.149 100.649 240.661 100.238V100.272C240.661 100.272 254.724 137.973 260.035 147.825C263.529 154.36 283.109 166.898 286.038 194.66C288.745 220.164 269.885 248.85 233.586 264.947C217.604 272.028 198.281 276.715 175.943 277.57C170.616 277.776 165.614 277.57 160.852 277.074C112.391 272.028 91.8515 234.105 91.8515 234.105C91.8515 234.105 78.4044 245.224 61.8225 240.144C38.5427 232.976 33.969 196.644 52.281 185.936C64.8545 178.615 76.6229 187.835 81.2823 192.368H81.248Z" fill="#FFDDDC"/>
<path d="M308.376 181.164C332.409 218.334 345.034 218.488 345 224.732C344.949 230.941 328.624 262.124 305.087 268.008C298.406 269.685 284.753 249.945 284.753 249.945C284.753 249.945 288.094 265.887 296.059 273.688C296.059 273.688 279.649 296.044 255.136 292.076C244.755 290.417 233.569 264.93 233.569 264.93C269.867 248.833 288.728 220.147 286.021 194.643C283.092 166.864 263.512 154.326 260.018 147.808C254.707 137.956 240.661 100.255 240.661 100.255V100.221C246.656 99.5539 255.393 97.6209 263.187 95.1064C267.401 104.121 291.143 154.462 308.376 181.147V181.164Z" fill="#EF8318"/>
<path d="M59.9211 295.736C59.1502 305.897 53.5144 325.517 47.0735 327.843C39.9474 330.375 4.88208 314.604 0.496772 309.352C-3.88853 304.135 21.9779 269.924 23.708 234.807C25.4724 199.655 12.0767 139.529 26.9456 100.084C41.8488 60.656 72.7686 61.6994 72.7686 61.6994C72.7686 61.6994 64.2378 42.3702 81.5221 25.4187C98.8064 8.50138 180.945 -11.1699 222.023 7.68032C263.084 26.5305 283.537 77.1969 280.471 85.4247C279.203 88.8116 271.786 92.3182 263.187 95.1235C255.392 97.638 246.656 99.5709 240.661 100.238C237.149 100.649 234.562 100.614 233.706 99.9814C229.886 97.1761 227.676 75.1785 207.069 54.2585C207.069 54.2585 228.584 98.3906 227.796 102.188C227.042 106.003 191.583 114.983 183.292 112.964C180.534 112.263 181.939 97.4498 159.276 61.9047C159.276 61.9047 175.84 107.08 174.419 114.692C173.768 118.267 141.7 125.52 137.794 120.696C133.872 115.89 127.465 88.8287 120.253 76.5982C134.985 154.12 81.248 192.368 81.248 192.368C76.5886 187.835 64.8203 178.598 52.2468 185.936C33.9347 196.627 38.4913 232.976 61.7882 240.144C78.3873 245.224 91.8173 234.105 91.8173 234.105C91.8173 234.105 112.356 272.028 160.817 277.074C162.565 284.584 163.815 308.343 160.303 314.98C156.809 321.617 126.506 325.346 126.215 323.003C123.611 302.493 119.14 291.699 119.14 291.699C119.945 294.881 119.842 318.658 115.131 327.074C110.421 335.49 62.7475 331.196 60.9489 328.151C59.4928 325.637 59.7498 303.656 59.8868 295.753L59.9211 295.736Z" fill="#EF8318"/>
<g style="mix-blend-mode:multiply" opacity="0.41">
<path d="M120.904 211.475C119.345 197.739 129.247 185.338 143.002 183.781C156.757 182.225 169.177 192.112 170.736 205.847C172.294 219.583 162.393 231.984 148.638 233.541C134.882 235.098 122.463 225.228 120.904 211.475Z" fill="#F17282"/>
</g>
<g style="mix-blend-mode:multiply" opacity="0.41">
<path d="M229.92 195.122C228.361 181.386 238.262 168.985 252.018 167.428C265.773 165.872 278.193 175.742 279.751 189.494C281.31 203.23 271.409 215.632 257.654 217.188C243.898 218.745 231.479 208.875 229.92 195.122Z" fill="#F17282"/>
</g>
<path d="M145.948 134.552C152.389 134.962 153.074 139.94 151.07 142.249C148.227 145.516 145.623 145.414 140.501 148.886C130.925 155.352 128.955 159.406 126.403 155.745C122.292 149.81 132.981 133.73 145.948 134.552Z" fill="#5F2D35"/>
<path d="M206.863 119.738C201.467 123.262 203.3 127.932 206.195 128.958C210.272 130.395 212.499 129.044 218.666 129.54C230.194 130.463 233.911 133.029 234.305 128.582C234.956 121.398 217.741 112.657 206.846 119.738H206.863Z" fill="#5F2D35"/>
<path d="M75.5094 207.181C73.8307 205.864 72.0492 204.547 70.319 203.538C68.5546 202.546 66.8074 201.81 65.0087 201.519C63.2272 201.194 61.3942 201.143 59.4585 201.605C58.4821 201.69 57.5229 202.152 56.495 202.392C55.4844 202.734 54.4908 203.196 53.3774 203.504L53.1375 203.572C52.3838 203.777 51.5958 203.333 51.3903 202.58C51.2532 202.101 51.3903 201.605 51.6986 201.246C52.538 200.305 53.4459 199.415 54.4394 198.594C55.5529 197.927 56.5807 197.055 57.8826 196.644C60.3322 195.481 63.3128 195.242 66.0879 195.721C68.8801 196.234 71.4325 197.551 73.4196 199.313C75.4238 201.092 76.9484 203.144 77.8905 205.659C78.1646 206.394 77.7877 207.216 77.0512 207.489C76.5715 207.66 76.0576 207.575 75.6807 207.267L75.5266 207.147L75.5094 207.181Z" fill="#7E242D"/>
<path opacity="0.41" d="M186.598 178.752C188.225 183.542 193.998 185.902 199.48 184.038C204.962 182.173 208.079 176.785 206.435 171.996C204.807 167.206 199.035 164.845 193.553 166.71C188.071 168.574 184.954 173.963 186.581 178.752H186.598Z" fill="#F3868A"/>
<path d="M199.925 165.667C201.878 165.872 203.625 166.676 205.184 167.942C206.709 169.224 207.805 171.106 208.182 173.09C208.662 175.092 208.182 177.401 207.137 179.026C206.109 180.719 204.756 182.019 203.094 182.96C202.752 183.148 202.323 183.029 202.135 182.686C201.981 182.43 202.015 182.105 202.204 181.882L202.255 181.831C203.283 180.582 204.259 179.214 204.842 177.811C205.424 176.392 205.647 175.075 205.304 173.672C205.047 172.218 204.362 170.952 203.403 169.806C202.409 168.694 201.039 167.753 199.634 167.052L199.548 167.018C199.206 166.847 199.052 166.419 199.24 166.077C199.377 165.803 199.668 165.667 199.942 165.701L199.925 165.667Z" fill="#CF5D55"/>
<path d="M222.811 194.728C220.396 201.194 215.856 206.497 210.118 210.312C204.379 214.092 197.561 216.127 190.829 216.572C184.08 216.948 177.142 215.973 170.924 213.288C164.654 210.671 159.156 206.668 154.976 201.28C154.496 200.664 154.616 199.792 155.233 199.313C155.781 198.902 156.518 198.936 157.014 199.364L157.134 199.484C159.344 201.417 161.879 203.281 164.535 204.735C167.173 206.258 169.931 207.506 172.774 208.447C178.444 210.397 184.474 211.081 190.435 210.705C196.414 210.329 202.204 208.721 207.377 205.864C209.964 204.444 212.345 202.631 214.52 200.579C216.73 198.594 218.683 196.114 220.207 193.668L220.31 193.514C220.721 192.864 221.578 192.659 222.246 193.069C222.828 193.428 223.051 194.13 222.811 194.746V194.728Z" fill="#320000"/>
<path d="M161.4 159.543C161.4 159.543 160.971 159.355 160.218 159.132C159.464 158.91 158.385 158.67 157.014 158.619C156.329 158.619 155.593 158.585 154.787 158.705C154 158.773 153.143 158.995 152.269 159.252C151.43 159.611 150.505 159.919 149.7 160.518C148.946 160.963 148.312 161.578 147.661 162.211C147.096 162.16 146.565 162.126 146.051 161.972C145.537 161.801 144.972 161.664 144.458 161.305C143.91 161.014 143.379 160.62 142.848 160.159C142.317 159.714 141.751 159.166 141.255 158.67L141.152 158.568C140.946 158.362 140.655 158.26 140.347 158.311C139.833 158.397 139.49 158.876 139.576 159.372C139.867 161.253 140.844 162.861 142.351 164.195C143.122 164.811 144.064 165.359 145.092 165.615C145.195 165.649 145.315 165.632 145.417 165.667C145.332 165.855 145.263 166.026 145.195 166.214C144.698 166.351 144.235 166.47 143.773 166.505C143.225 166.522 142.659 166.59 142.043 166.436C141.426 166.351 140.792 166.163 140.141 165.906C139.49 165.667 138.771 165.359 138.137 165.068L138 164.999C137.743 164.88 137.435 164.88 137.161 165.034C136.715 165.29 136.544 165.855 136.801 166.299C137.743 167.976 139.199 169.122 141.066 169.874C142.008 170.199 143.071 170.371 144.115 170.268C144.201 170.268 144.27 170.234 144.355 170.217C144.321 171.157 144.218 173.74 145.572 177.948C147.37 183.576 152.252 187.219 157.032 185.919C161.811 184.619 164.415 178.94 162.873 173.244C161.383 167.805 156.655 164.349 152.064 165.17C152.235 164.999 152.406 164.845 152.612 164.726C153.04 164.332 153.588 164.093 154.085 163.785C154.65 163.597 155.147 163.272 155.713 163.135C156.261 162.947 156.809 162.81 157.323 162.69C158.351 162.468 159.276 162.331 159.909 162.245C160.543 162.16 160.869 162.126 160.92 162.126C161.811 162.16 162.342 161.784 162.479 161.065C162.633 160.347 162.153 159.645 161.434 159.509L161.4 159.543Z" fill="#320000"/>
<path d="M237.851 134.723C237.749 134.466 237.526 134.244 237.217 134.158C236.721 134.021 236.207 134.312 236.07 134.808L236.035 134.945C235.847 135.629 235.642 136.382 235.402 137.032C235.179 137.699 234.922 138.298 234.597 138.828C234.34 139.392 233.911 139.786 233.552 140.196C233.175 140.607 232.712 140.898 232.215 141.257L232.113 141.342C231.993 141.308 231.822 141.274 231.684 141.24C231.804 141.052 231.959 140.881 232.044 140.658C232.49 139.7 232.678 138.64 232.678 137.648C232.592 135.629 231.976 133.867 230.708 132.448C230.52 132.242 230.228 132.106 229.92 132.14C229.406 132.191 229.029 132.636 229.081 133.149V133.286C229.149 133.987 229.218 134.774 229.218 135.458C229.235 136.16 229.218 136.827 229.081 137.425C229.029 138.041 228.772 138.571 228.584 139.067C228.378 139.581 227.505 140.881 227.488 140.915C227.282 140.915 227.094 140.915 226.888 140.932C226.1 141 225.244 141.223 224.37 141.479C223.531 141.839 222.606 142.146 221.8 142.745C220.944 143.241 220.224 143.977 219.488 144.695C218.837 145.448 218.289 146.337 217.826 147.175C217.466 148.048 217.038 148.92 216.867 149.775C216.696 150.631 216.524 151.452 216.456 152.239C216.456 153.008 216.233 155.711 217.655 160.193C219.454 165.82 224.336 169.464 229.115 168.164C233.894 166.864 236.498 161.185 234.956 155.506C233.466 150.066 228.721 146.611 224.147 147.432C224.319 147.261 224.49 147.107 224.695 146.987C225.124 146.594 225.672 146.354 226.169 146.047C226.734 145.858 227.231 145.533 227.796 145.396C228.344 145.208 228.892 145.071 229.406 144.952C230.434 144.729 233.192 144.627 233.586 144.49C234.528 144.148 235.504 143.652 236.224 142.865C236.978 142.129 237.509 141.189 237.868 140.265C238.485 138.349 238.519 136.485 237.834 134.706L237.851 134.723Z" fill="#320000"/>
<path d="M107.32 59.8178C108.485 78.7193 105.898 97.809 99.3203 115.582C92.7937 133.217 82.3615 148.424 70.4732 162.827C69.0171 164.589 71.6038 167.326 73.351 165.718C101.684 140.025 114.258 96.7656 109.701 59.4928C109.513 57.9533 107.234 58.2783 107.32 59.8007V59.8178Z" fill="#DDBA0E"/>
<path d="M38.183 243.411C36.2987 254.923 33.5921 266.281 30.6115 277.553C29.0869 283.301 27.391 289.082 25.2155 294.625C23.04 300.15 20.2992 305.418 18.2264 310.977C17.9352 311.764 19.0487 312.534 19.5626 311.764C22.783 306.941 25.0442 301.467 27.3054 296.147C29.7036 290.519 32.1018 284.909 34.1574 279.144C38.2172 267.752 40.5469 255.932 41.7632 243.924C42.003 241.615 38.5427 241.102 38.1658 243.411H38.183Z" fill="#DDBA0E"/>
<path d="M51.8014 249.21C50.6537 265.374 46.08 281.026 43.0308 296.882C42.7396 298.422 45.2063 299.158 45.7031 297.635C50.8764 282.086 54.4737 266.11 55.0561 249.689C55.1246 247.602 51.9384 247.071 51.7843 249.21H51.8014Z" fill="#DDBA0E"/>
<path d="M76.2803 263.202C75.7493 272.575 74.8756 281.915 74.4302 291.306C74.2076 295.924 73.9335 300.543 73.608 305.144C73.2825 309.694 72.6316 314.244 72.9913 318.794C73.077 319.838 74.8071 320.163 75.1154 319.085C76.4173 314.535 76.6058 309.797 77.034 305.093C77.4451 300.492 77.7877 295.89 78.0961 291.289C78.7128 281.949 78.4558 272.576 78.1646 263.219C78.1303 262.158 76.3488 262.141 76.2803 263.219V263.202Z" fill="#DDBA0E"/>
<path d="M92.8793 257.677C92.6224 256.206 90.5325 256.496 90.5839 257.967C91.2177 276.989 91.7145 296.044 92.2113 315.083C92.2455 316.16 93.9414 316.126 94.0956 315.083C95.3975 305.589 95.8771 296.181 95.8771 286.619C95.8771 276.818 94.6095 267.29 92.8793 257.677Z" fill="#DDBA0E"/>
<path d="M106.875 269.103C106.635 268.06 105.795 267.239 104.665 267.393C103.637 267.529 102.763 268.539 102.952 269.599C103.517 272.849 103.843 276.134 103.894 279.435C103.945 282.719 103.877 285.969 104.014 289.236C104.082 290.896 106.857 291.34 107.32 289.698C107.817 287.971 108.228 286.311 108.382 284.515C108.536 282.753 108.502 281.009 108.382 279.247C108.159 275.826 107.645 272.439 106.875 269.103Z" fill="#DDBA0E"/>
<path d="M87.6547 62.2639C83.6634 79.7628 78.0447 97.1419 70.3875 113.392C66.5847 121.466 62.1994 129.266 57.146 136.638C52.1097 143.994 45.7887 150.443 40.8381 157.815C39.4335 159.902 41.8659 162.587 44.0072 160.997C51.2018 155.677 56.752 147.5 61.6169 140.111C66.6532 132.465 71.0727 124.408 74.8585 116.061C82.6013 99.0064 87.2778 81.0799 89.4191 62.5034C89.5561 61.3231 87.8774 61.1178 87.6204 62.2468L87.6547 62.2639Z" fill="#DDBA0E"/>
<path d="M87.1922 133.816C89.6246 128.65 50.3453 109.68 47.3647 117.788C43.8873 127.196 84.0231 140.573 87.1922 133.816Z" fill="#D34FD3"/>
<path d="M94.678 110.501C97.1105 105.335 57.8312 86.3654 54.8506 94.4734C51.3731 103.881 91.5089 117.258 94.678 110.501Z" fill="#D34FD3"/>
<path d="M157.597 58.8428C163.421 67.0534 168.646 75.6403 173.357 84.5352C177.913 93.4984 182.161 102.718 184.68 112.622L183.241 111.545C190.863 111.203 198.538 110.364 206.075 109.099C209.861 108.483 213.561 107.576 217.21 106.481C220.824 105.37 224.438 104.001 227.333 101.675C227.642 101.418 228.07 101.47 228.327 101.76C228.567 102.051 228.533 102.479 228.258 102.718C225.244 105.455 221.543 107.046 217.878 108.414C214.178 109.766 210.375 110.724 206.555 111.511C198.897 113.118 191.172 113.957 183.361 114.401C182.692 114.436 182.093 114.008 181.922 113.375V113.324C179.284 103.847 175.412 94.6445 170.941 85.7668C168.749 81.3022 166.419 76.889 163.969 72.5442C161.537 68.1995 159.07 63.8376 156.432 59.6296C156.226 59.3046 156.312 58.8599 156.638 58.6546C156.946 58.4493 157.374 58.5349 157.597 58.8428Z" fill="#DDBA0E"/>
<path d="M203.934 51.0428C210.34 57.3547 216.062 64.2824 221.149 71.7062C226.237 79.0786 230.451 87.2379 233.929 95.3459C234.374 96.3209 234.871 97.2446 235.402 97.8433C235.933 98.442 236.43 98.6473 237.474 98.7499C239.41 98.9381 241.637 98.8183 243.795 98.5446C248.129 98.0486 252.463 97.142 256.746 96.1157C261.011 95.0551 265.242 93.7551 269.285 92.0788C273.259 90.4195 277.405 88.4011 279.854 85.0655L279.923 84.98C280.145 84.6721 280.591 84.6037 280.899 84.8261C281.208 85.0484 281.276 85.459 281.071 85.7668C278.398 89.8551 274.167 92.0617 270.159 94.0459C266.03 95.9446 261.748 97.3815 257.414 98.6131C253.08 99.8447 248.643 100.751 244.138 101.333C241.877 101.624 239.616 101.812 237.115 101.589C235.95 101.572 234.185 100.939 233.278 99.7933C232.318 98.7157 231.804 97.638 231.29 96.5946C229.423 92.4209 227.762 88.4524 225.672 84.5524C223.633 80.6352 221.355 76.872 218.991 73.143C216.61 69.414 214.058 65.8048 211.368 62.2981C208.713 58.7573 205.921 55.2849 202.957 52.0349C202.7 51.727 202.717 51.2822 203.009 51.0256C203.283 50.7691 203.711 50.7862 203.968 51.0428H203.934Z" fill="#DDBA0E"/>
</g>
<defs>
<clipPath id="clip0_2_350">
<rect width="345" height="332" fill="white"/>
</clipPath>
</defs>
</svg>
