<svg width="305" height="305" viewBox="0 0 305 305" fill="none" xmlns="http://www.w3.org/2000/svg">
<g clip-path="url(#clip0_2_321)">
<path d="M43.8721 27.1387C50.7324 24.7658 53.2311 42.8845 48.9605 43.4502C45.4017 43.9216 35.2704 30.1087 43.8721 27.1387Z" fill="#3ECE56"/>
<path d="M31.5449 45.87C34.3466 39.0185 45.6289 45.7757 44.8262 49.4214C44.0539 53.0986 28.713 52.7214 31.5449 45.87Z" fill="#3ECE56"/>
<path d="M71.828 176.723C71.828 176.723 119.335 141.586 106.311 70.3687C112.686 81.6044 118.35 106.465 121.818 110.88C125.271 115.312 153.621 108.649 154.196 105.365C155.468 98.3717 140.809 56.87 140.809 56.87C160.844 89.5245 159.603 103.133 162.041 103.777C169.355 105.632 200.718 97.3816 201.385 93.8773C202.066 90.373 183.061 49.8457 183.061 49.8457C201.264 69.0644 203.217 89.273 206.609 91.8502C207.367 92.4316 209.653 92.463 212.758 92.0859V92.1173C212.758 92.1173 225.191 126.752 229.886 135.803C232.975 141.806 250.285 153.325 252.874 178.829C255.267 202.259 238.594 228.612 206.503 243.399C192.374 249.905 175.292 254.211 155.544 254.997C150.834 255.185 146.412 254.997 142.202 254.541C99.3597 249.905 81.2021 215.066 81.2021 215.066C81.2021 215.066 69.3141 225.281 54.6547 220.614C34.074 214.029 30.0305 180.652 46.2195 170.815C57.3352 164.089 67.7391 172.559 71.8583 176.723H71.828Z" fill="#FFDDDC"/>
<path d="M272.622 166.431C293.869 200.578 305.03 200.72 305 206.455C304.955 212.16 290.522 240.807 269.715 246.213C263.808 247.753 251.739 229.618 251.739 229.618C251.739 229.618 254.692 244.264 261.734 251.43C261.734 251.43 247.226 271.968 225.555 268.323C216.377 266.798 206.488 243.384 206.488 243.384C238.578 228.597 255.252 202.244 252.859 178.814C250.27 153.294 232.96 141.775 229.871 135.788C225.176 126.736 212.758 92.1019 212.758 92.1019V92.0704C218.058 91.4576 225.782 89.6818 232.672 87.3718C236.398 95.6533 257.387 141.901 272.622 166.415V166.431Z" fill="#13B778"/>
<path d="M52.9737 271.685C52.2922 281.02 47.3098 299.044 41.6157 301.181C35.3158 303.507 4.31604 289.018 0.439181 284.194C-3.43768 279.401 19.4297 247.972 20.9593 215.711C22.5191 183.418 10.6765 128.182 23.8215 91.9446C36.9968 55.723 64.3317 56.6816 64.3317 56.6816C64.3317 56.6816 56.79 38.9243 72.0703 23.3514C87.3506 7.80992 159.966 -10.2616 196.281 7.05563C232.581 24.3729 250.663 70.9188 247.953 78.4774C246.832 81.5888 240.275 84.8103 232.672 87.3874C225.782 89.6975 218.058 91.4732 212.758 92.086C209.653 92.4632 207.367 92.4318 206.609 91.8503C203.232 89.2732 201.279 69.0645 183.061 49.8458C183.061 49.8458 202.081 90.3889 201.385 93.8775C200.718 97.3818 169.37 105.632 162.041 103.778C159.603 103.133 160.844 89.5246 140.809 56.8702C140.809 56.8702 155.453 98.3718 154.196 105.365C153.621 108.649 125.271 115.312 121.818 110.88C118.35 106.465 112.686 81.6046 106.311 70.3688C119.335 141.586 71.828 176.724 71.828 176.724C67.7088 172.559 57.3049 164.074 46.1892 170.815C30.0003 180.636 34.0286 214.029 54.6244 220.614C69.2989 225.281 81.1718 215.067 81.1718 215.067C81.1718 215.067 99.3295 249.905 142.172 254.541C143.716 261.44 144.822 283.267 141.717 289.364C138.628 295.461 111.838 298.887 111.581 296.734C109.279 277.893 105.326 267.977 105.326 267.977C106.038 270.9 105.947 292.743 101.783 300.474C97.6182 308.206 55.4725 304.261 53.8823 301.464C52.5951 299.154 52.8223 278.961 52.9434 271.701L52.9737 271.685Z" fill="#13B778"/>
<g style="mix-blend-mode:multiply" opacity="0.41">
<path d="M106.886 194.276C105.508 181.658 114.261 170.265 126.422 168.835C138.583 167.405 149.562 176.488 150.94 189.106C152.318 201.725 143.565 213.118 131.404 214.548C119.244 215.978 108.264 206.911 106.886 194.276Z" fill="#F17282"/>
</g>
<g style="mix-blend-mode:multiply" opacity="0.41">
<path d="M203.263 179.253C201.885 166.635 210.638 155.242 222.798 153.812C234.959 152.382 245.938 161.449 247.317 174.083C248.695 186.702 239.941 198.095 227.781 199.525C215.62 200.955 204.641 191.888 203.263 179.253Z" fill="#F17282"/>
</g>
<path d="M129.027 123.609C134.721 123.986 135.327 128.559 133.555 130.681C131.041 133.682 128.739 133.588 124.211 136.778C115.746 142.718 114.004 146.442 111.748 143.079C108.113 137.626 117.563 122.855 129.027 123.609Z" fill="#5F2D35"/>
<path d="M182.879 110C178.109 113.237 179.729 117.527 182.288 118.47C185.893 119.79 187.861 118.549 193.313 119.005C203.505 119.853 206.791 122.21 207.14 118.125C207.715 111.525 192.495 103.495 182.864 110H182.879Z" fill="#5F2D35"/>
<path d="M66.7547 190.332C65.2706 189.122 63.6956 187.912 62.1661 186.985C60.6063 186.074 59.0616 185.398 57.4715 185.131C55.8965 184.832 54.2761 184.785 52.5648 185.209C51.7016 185.288 50.8535 185.712 49.9449 185.932C49.0514 186.246 48.173 186.671 47.1887 186.954L46.9767 187.016C46.3103 187.205 45.6137 186.796 45.432 186.105C45.3108 185.665 45.432 185.209 45.7046 184.879C46.4466 184.015 47.2493 183.198 48.1276 182.444C49.112 181.831 50.0206 181.029 51.1716 180.652C53.3372 179.584 55.9722 179.364 58.4255 179.804C60.894 180.275 63.1505 181.485 64.9072 183.104C66.679 184.738 68.0268 186.624 68.8597 188.934C69.1021 189.609 68.7689 190.364 68.1177 190.615C67.6937 190.772 67.2393 190.694 66.9062 190.411L66.7699 190.301L66.7547 190.332Z" fill="#7E242D"/>
<path opacity="0.41" d="M164.964 164.215C166.402 168.615 171.506 170.783 176.352 169.071C181.198 167.358 183.954 162.408 182.5 158.008C181.062 153.608 175.958 151.439 171.112 153.152C166.266 154.865 163.51 159.815 164.948 164.215H164.964Z" fill="#F3868A"/>
<path d="M176.746 152.193C178.472 152.382 180.017 153.121 181.395 154.283C182.743 155.462 183.712 157.191 184.045 159.013C184.469 160.852 184.045 162.973 183.121 164.466C182.213 166.022 181.016 167.216 179.547 168.081C179.244 168.253 178.866 168.143 178.699 167.829C178.563 167.593 178.593 167.295 178.76 167.091L178.805 167.043C179.714 165.896 180.577 164.639 181.092 163.351C181.607 162.046 181.804 160.836 181.501 159.548C181.274 158.212 180.668 157.049 179.82 155.996C178.941 154.975 177.73 154.111 176.488 153.466L176.412 153.435C176.109 153.278 175.973 152.885 176.14 152.571C176.261 152.319 176.518 152.193 176.761 152.225L176.746 152.193Z" fill="#CF5D55"/>
<path d="M196.978 178.892C194.843 184.832 190.829 189.704 185.756 193.208C180.683 196.681 174.656 198.551 168.704 198.959C162.737 199.305 156.604 198.409 151.107 195.942C145.564 193.538 140.703 189.861 137.008 184.911C136.584 184.345 136.69 183.544 137.235 183.104C137.719 182.727 138.371 182.758 138.81 183.151L138.916 183.261C140.869 185.037 143.111 186.749 145.458 188.085C147.79 189.484 150.228 190.631 152.742 191.495C157.755 193.287 163.086 193.915 168.356 193.569C173.641 193.224 178.76 191.747 183.333 189.122C185.62 187.818 187.725 186.152 189.648 184.267C191.602 182.444 193.328 180.165 194.676 177.918L194.767 177.777C195.13 177.179 195.888 176.991 196.478 177.368C196.993 177.698 197.19 178.342 196.978 178.908V178.892Z" fill="#320000"/>
<path d="M142.687 146.568C142.687 146.568 142.308 146.395 141.642 146.191C140.975 145.986 140.021 145.766 138.81 145.719C138.204 145.719 137.553 145.688 136.841 145.798C136.144 145.861 135.387 146.065 134.615 146.301C133.873 146.631 133.055 146.913 132.343 147.463C131.677 147.872 131.117 148.438 130.541 149.019C130.041 148.972 129.572 148.941 129.118 148.799C128.663 148.642 128.164 148.516 127.709 148.186C127.225 147.919 126.755 147.558 126.286 147.133C125.816 146.725 125.317 146.222 124.877 145.766L124.786 145.672C124.605 145.483 124.347 145.389 124.075 145.436C123.62 145.515 123.318 145.955 123.393 146.411C123.651 148.139 124.514 149.616 125.847 150.842C126.528 151.408 127.361 151.911 128.27 152.146C128.36 152.178 128.466 152.162 128.557 152.193C128.482 152.366 128.421 152.523 128.36 152.696C127.921 152.822 127.512 152.932 127.104 152.963C126.619 152.979 126.119 153.042 125.574 152.901C125.029 152.822 124.468 152.649 123.893 152.413C123.318 152.193 122.681 151.911 122.121 151.643L122 151.581C121.773 151.471 121.5 151.471 121.258 151.612C120.864 151.848 120.713 152.366 120.94 152.775C121.773 154.315 123.06 155.368 124.711 156.059C125.544 156.358 126.483 156.515 127.406 156.421C127.482 156.421 127.543 156.389 127.618 156.374C127.588 157.238 127.497 159.611 128.694 163.476C130.284 168.646 134.6 171.994 138.825 170.799C143.05 169.605 145.352 164.388 143.989 159.155C142.672 154.158 138.492 150.983 134.433 151.738C134.585 151.581 134.736 151.439 134.918 151.329C135.296 150.968 135.781 150.748 136.22 150.465C136.72 150.292 137.159 149.993 137.659 149.868C138.143 149.695 138.628 149.569 139.082 149.459C139.991 149.255 140.809 149.129 141.369 149.051C141.929 148.972 142.217 148.941 142.263 148.941C143.05 148.972 143.52 148.626 143.641 147.966C143.777 147.306 143.353 146.662 142.717 146.536L142.687 146.568Z" fill="#320000"/>
<path d="M210.274 123.766C210.183 123.53 209.987 123.326 209.714 123.248C209.275 123.122 208.82 123.389 208.699 123.845L208.669 123.97C208.502 124.599 208.321 125.29 208.109 125.888C207.912 126.5 207.685 127.05 207.397 127.538C207.17 128.056 206.791 128.418 206.473 128.795C206.14 129.172 205.731 129.439 205.292 129.769L205.201 129.848C205.095 129.816 204.944 129.785 204.822 129.753C204.928 129.58 205.065 129.423 205.141 129.219C205.534 128.339 205.701 127.365 205.701 126.453C205.625 124.599 205.08 122.98 203.959 121.676C203.793 121.488 203.535 121.362 203.263 121.393C202.808 121.44 202.475 121.849 202.521 122.32V122.446C202.581 123.09 202.642 123.813 202.642 124.442C202.657 125.086 202.642 125.699 202.521 126.249C202.475 126.815 202.248 127.302 202.081 127.758C201.9 128.229 201.127 129.423 201.112 129.455C200.93 129.455 200.764 129.455 200.582 129.47C199.886 129.533 199.128 129.738 198.356 129.973C197.614 130.303 196.796 130.586 196.084 131.136C195.327 131.592 194.691 132.268 194.04 132.928C193.464 133.619 192.98 134.436 192.571 135.206C192.253 136.008 191.874 136.809 191.723 137.595C191.571 138.38 191.42 139.135 191.359 139.858C191.359 140.565 191.163 143.048 192.42 147.165C194.01 152.335 198.326 155.682 202.551 154.488C206.776 153.293 209.078 148.076 207.715 142.859C206.397 137.862 202.203 134.688 198.159 135.442C198.311 135.285 198.462 135.143 198.644 135.033C199.022 134.672 199.507 134.452 199.946 134.169C200.446 133.996 200.885 133.698 201.385 133.572C201.869 133.399 202.354 133.273 202.808 133.163C203.717 132.959 206.155 132.865 206.503 132.739C207.336 132.425 208.2 131.969 208.836 131.246C209.502 130.57 209.971 129.706 210.289 128.858C210.835 127.098 210.865 125.385 210.259 123.75L210.274 123.766Z" fill="#320000"/>
<path d="M94.8771 54.9529C95.9069 72.3173 93.6202 89.8545 87.8049 106.182C82.035 122.383 72.8123 136.353 62.3024 149.585C61.0151 151.203 63.3019 153.718 64.8466 152.24C89.8947 128.638 101.01 88.8959 96.9821 54.6543C96.8155 53.24 94.8014 53.5386 94.8771 54.9372V54.9529Z" fill="#3ECE56"/>
<path d="M33.756 223.615C32.0901 234.191 29.6974 244.625 27.0623 254.981C25.7145 260.261 24.2153 265.573 22.292 270.664C20.3687 275.74 17.9456 280.58 16.1132 285.687C15.8558 286.41 16.8401 287.117 17.2944 286.41C20.1415 281.978 22.1405 276.95 24.1395 272.063C26.2597 266.893 28.3798 261.738 30.1971 256.443C33.7863 245.977 35.8458 235.118 36.9211 224.087C37.1331 221.965 34.074 221.494 33.7408 223.615H33.756Z" fill="#3ECE56"/>
<path d="M45.7954 228.942C44.7808 243.792 40.7373 258.171 38.0417 272.738C37.7843 274.153 39.965 274.828 40.4042 273.43C44.9777 259.145 48.1579 244.468 48.6728 229.382C48.7334 227.465 45.9166 226.978 45.7803 228.942H45.7954Z" fill="#3ECE56"/>
<path d="M67.4362 241.797C66.9668 250.408 66.1944 258.988 65.8007 267.616C65.6038 271.858 65.3615 276.101 65.0738 280.328C64.786 284.508 64.2105 288.688 64.5286 292.868C64.6043 293.827 66.1338 294.126 66.4064 293.136C67.5574 288.956 67.724 284.603 68.1026 280.281C68.466 276.054 68.7689 271.827 69.0415 267.6C69.5867 259.02 69.3595 250.408 69.1021 241.813C69.0718 240.838 67.4968 240.823 67.4362 241.813V241.797Z" fill="#3ECE56"/>
<path d="M82.1107 236.721C81.8836 235.369 80.036 235.637 80.0815 236.988C80.6418 254.462 81.081 271.968 81.5201 289.458C81.5504 290.448 83.0497 290.417 83.186 289.458C84.3369 280.737 84.7609 272.094 84.7609 263.31C84.7609 254.305 83.6403 245.552 82.1107 236.721Z" fill="#3ECE56"/>
<path d="M94.4834 247.218C94.2714 246.26 93.5293 245.505 92.5298 245.647C91.6212 245.772 90.8488 246.7 91.0154 247.674C91.5152 250.66 91.8029 253.677 91.8483 256.71C91.8938 259.727 91.8332 262.713 91.9543 265.714C92.0149 267.238 94.4682 267.647 94.8771 266.138C95.3163 264.551 95.6798 263.027 95.8161 261.377C95.9524 259.758 95.9221 258.155 95.8161 256.537C95.6192 253.394 95.1649 250.282 94.4834 247.218Z" fill="#3ECE56"/>
<path d="M77.4918 57.2001C73.9633 73.2759 68.996 89.2417 62.2267 104.17C58.8647 111.587 54.9878 118.753 50.5204 125.526C46.068 132.283 40.4799 138.208 36.1033 144.981C34.8615 146.898 37.0119 149.365 38.9049 147.903C45.2654 143.016 50.1721 135.505 54.473 128.716C58.9253 121.692 62.8324 114.29 66.1793 106.622C73.0243 90.9545 77.1587 74.4859 79.0517 57.4201C79.1728 56.3358 77.6887 56.1472 77.4615 57.1844L77.4918 57.2001Z" fill="#3ECE56"/>
<path d="M77.0829 122.933C79.2334 118.188 44.5082 100.76 41.8731 108.209C38.7989 116.852 74.2813 129.14 77.0829 122.933Z" fill="#D34FD3"/>
<path d="M83.7009 101.515C85.8513 96.7688 51.1261 79.3416 48.4911 86.7902C45.4168 95.4331 80.8992 107.722 83.7009 101.515Z" fill="#D34FD3"/>
<path d="M139.325 54.0574C144.474 61.6003 149.093 69.4889 153.257 77.6603C157.286 85.8947 161.041 94.3647 163.267 103.463L161.995 102.473C168.734 102.159 175.519 101.389 182.182 100.226C185.529 99.6604 188.8 98.8276 192.026 97.8219C195.221 96.8004 198.417 95.5433 200.976 93.4061C201.249 93.1704 201.627 93.2176 201.854 93.4847C202.066 93.7519 202.036 94.1447 201.794 94.3647C199.128 96.879 195.857 98.3404 192.616 99.5976C189.345 100.839 185.983 101.719 182.606 102.442C175.837 103.919 169.007 104.689 162.101 105.098C161.511 105.129 160.981 104.736 160.829 104.155V104.108C158.497 95.4019 155.075 86.9475 151.122 78.7918C149.183 74.6903 147.124 70.636 144.958 66.6446C142.808 62.6531 140.627 58.646 138.295 54.7802C138.113 54.4817 138.189 54.0731 138.477 53.8845C138.749 53.6959 139.128 53.7745 139.325 54.0574Z" fill="#3ECE56"/>
<path d="M180.289 46.8916C185.953 52.6902 191.011 59.0545 195.509 65.8746C200.007 72.6475 203.732 80.1432 206.806 87.5918C207.2 88.4875 207.639 89.3361 208.109 89.8861C208.578 90.4361 209.017 90.6247 209.941 90.719C211.652 90.8918 213.621 90.7818 215.529 90.5304C219.361 90.0747 223.192 89.2418 226.978 88.299C230.749 87.3247 234.49 86.1304 238.064 84.5904C241.577 83.0661 245.242 81.2118 247.407 78.1475L247.468 78.0689C247.665 77.7861 248.059 77.7232 248.331 77.9275C248.604 78.1318 248.664 78.5089 248.483 78.7918C246.12 82.5475 242.38 84.5747 238.836 86.3975C235.186 88.1418 231.4 89.4618 227.569 90.5933C223.737 91.7247 219.815 92.5576 215.832 93.0918C213.833 93.359 211.834 93.5318 209.623 93.3276C208.593 93.3118 207.034 92.7304 206.231 91.6776C205.383 90.6875 204.929 89.6975 204.474 88.739C202.823 84.9047 201.355 81.2589 199.507 77.6761C197.705 74.0775 195.691 70.6203 193.601 67.1946C191.496 63.7688 189.239 60.4531 186.862 57.2317C184.514 53.9788 182.046 50.7888 179.426 47.8031C179.199 47.5202 179.214 47.1116 179.471 46.8759C179.714 46.6402 180.092 46.6559 180.32 46.8916H180.289Z" fill="#3ECE56"/>
</g>
<defs>
<clipPath id="clip0_2_321">
<rect width="305" height="305" fill="white"/>
</clipPath>
</defs>
</svg>
