<svg width="304" height="293" viewBox="0 0 304 293" fill="none" xmlns="http://www.w3.org/2000/svg">
<g clip-path="url(#clip0_2_379)">
<path d="M43.7283 26.0709C50.566 23.7914 53.0566 41.1972 48.8 41.7407C45.2528 42.1936 35.1547 28.9241 43.7283 26.0709Z" fill="#2685AA"/>
<path d="M31.4415 44.0654C34.234 37.4835 45.4793 43.9749 44.6793 47.4772C43.9094 51.0096 28.6189 50.6473 31.4415 44.0654Z" fill="#2685AA"/>
<path d="M71.5925 169.771C71.5925 169.771 118.943 136.016 105.962 67.6003C112.317 78.394 117.962 102.276 121.419 106.518C124.86 110.775 153.117 104.374 153.691 101.219C154.958 94.5015 140.347 54.6327 140.347 54.6327C160.317 86.0024 159.079 99.0756 161.509 99.6945C168.8 101.476 200.06 93.5504 200.725 90.184C201.404 86.8176 182.46 47.8848 182.46 47.8848C200.604 66.3473 202.551 85.7609 205.932 88.2366C206.687 88.7952 208.966 88.8254 212.06 88.4631V88.4932C212.06 88.4932 224.453 121.765 229.132 130.46C232.211 136.227 249.464 147.293 252.045 171.793C254.43 194.302 237.811 219.618 205.826 233.823C191.743 240.073 174.717 244.209 155.034 244.964C150.34 245.145 145.932 244.964 141.736 244.526C99.034 240.073 80.9359 206.605 80.9359 206.605C80.9359 206.605 69.0868 216.418 54.4755 211.934C33.9623 205.609 29.9321 173.545 46.0679 164.094C57.1472 157.633 67.517 165.77 71.6227 169.771H71.5925Z" fill="#FFDDDC"/>
<path d="M271.728 159.883C292.906 192.686 304.03 192.822 304 198.332C303.955 203.812 289.57 231.332 268.83 236.525C262.943 238.005 250.913 220.584 250.913 220.584C250.913 220.584 253.857 234.654 260.875 241.537C260.875 241.537 246.415 261.268 224.815 257.766C215.668 256.301 205.811 233.808 205.811 233.808C237.796 219.603 254.415 194.287 252.03 171.778C249.449 147.262 232.196 136.197 229.117 130.445C224.438 121.75 212.06 88.4781 212.06 88.4781V88.4479C217.343 87.8592 225.042 86.1533 231.909 83.9342C235.623 91.8898 256.543 136.318 271.728 159.868V159.883Z" fill="#2685AA"/>
<path d="M52.7999 260.996C52.1207 269.963 47.1546 287.278 41.4792 289.331C35.1999 291.566 4.30179 277.647 0.437641 273.013C-3.42651 268.408 19.3659 238.216 20.8905 207.224C22.4452 176.201 10.6414 123.139 23.7433 88.327C36.8754 53.5305 64.1207 54.4513 64.1207 54.4513C64.1207 54.4513 56.6037 37.3928 71.8339 22.4325C87.0641 7.5025 159.441 -9.858 195.638 6.77789C231.819 23.4138 249.841 68.1284 247.14 75.3896C246.023 78.3786 239.487 81.4733 231.909 83.9491C225.041 86.1682 217.343 87.8741 212.06 88.4628C208.966 88.8251 206.687 88.795 205.932 88.2364C202.566 85.7606 200.619 66.3471 182.46 47.8845C182.46 47.8845 201.419 86.8325 200.724 90.1838C200.06 93.5502 168.815 101.476 161.509 99.6943C159.079 99.0754 160.317 86.0022 140.347 54.6325C140.347 54.6325 154.943 94.5013 153.69 101.219C153.117 104.374 124.86 110.775 121.419 106.518C117.962 102.276 112.317 78.3937 105.962 67.6C118.943 136.016 71.5924 169.77 71.5924 169.77C67.4867 165.77 57.1169 157.618 46.0376 164.094C29.9018 173.529 33.9169 205.608 54.4452 211.934C69.0716 216.417 80.9056 206.605 80.9056 206.605C80.9056 206.605 99.0037 240.073 141.706 244.526C143.245 251.153 144.347 272.122 141.253 277.979C138.173 283.836 111.472 287.127 111.215 285.059C108.921 266.959 104.981 257.433 104.981 257.433C105.69 260.241 105.6 281.225 101.449 288.652C97.298 296.079 55.2905 292.29 53.7056 289.603C52.4226 287.384 52.649 267.986 52.7697 261.011L52.7999 260.996Z" fill="#2685AA"/>
<g style="mix-blend-mode:multiply" opacity="0.41">
<path d="M106.536 186.633C105.162 174.511 113.887 163.566 126.008 162.192C138.128 160.819 149.072 169.544 150.445 181.666C151.819 193.788 143.094 204.733 130.974 206.107C118.853 207.481 107.909 198.77 106.536 186.633Z" fill="#F17282"/>
</g>
<g style="mix-blend-mode:multiply" opacity="0.41">
<path d="M202.596 172.201C201.223 160.079 209.947 149.134 222.068 147.76C234.189 146.387 245.132 155.097 246.506 167.234C247.879 179.357 239.155 190.301 227.034 191.675C214.913 193.049 203.97 184.338 202.596 172.201Z" fill="#F17282"/>
</g>
<path d="M128.604 118.746C134.279 119.108 134.883 123.501 133.117 125.539C130.611 128.422 128.317 128.332 123.804 131.396C115.366 137.103 113.63 140.68 111.381 137.45C107.759 132.212 117.177 118.021 128.604 118.746Z" fill="#5F2D35"/>
<path d="M182.279 105.673C177.525 108.782 179.14 112.904 181.691 113.809C185.283 115.077 187.245 113.885 192.679 114.323C202.838 115.138 206.113 117.402 206.46 113.477C207.034 107.137 191.864 99.4228 182.264 105.673H182.279Z" fill="#5F2D35"/>
<path d="M66.5359 182.844C65.0566 181.681 63.4868 180.519 61.9623 179.628C60.4076 178.753 58.8679 178.104 57.283 177.847C55.7132 177.56 54.0981 177.515 52.3925 177.923C51.5321 177.998 50.6868 178.406 49.7811 178.617C48.8906 178.919 48.0151 179.326 47.034 179.598L46.8227 179.659C46.1585 179.84 45.4642 179.447 45.283 178.783C45.1623 178.36 45.283 177.923 45.5547 177.606C46.2944 176.775 47.0944 175.99 47.9698 175.266C48.951 174.677 49.8566 173.907 51.0038 173.545C53.1623 172.518 55.7887 172.307 58.234 172.729C60.6944 173.182 62.9434 174.345 64.6944 175.9C66.4604 177.47 67.8038 179.281 68.634 181.5C68.8755 182.149 68.5434 182.874 67.8944 183.116C67.4717 183.267 67.0189 183.191 66.6868 182.919L66.551 182.814L66.5359 182.844Z" fill="#7E242D"/>
<path opacity="0.41" d="M164.423 157.754C165.857 161.981 170.943 164.064 175.774 162.419C180.604 160.773 183.351 156.018 181.902 151.791C180.468 147.564 175.381 145.481 170.551 147.126C165.721 148.772 162.974 153.527 164.408 157.754H164.423Z" fill="#F3868A"/>
<path d="M176.166 146.206C177.887 146.387 179.426 147.096 180.8 148.213C182.143 149.346 183.109 151.006 183.442 152.757C183.864 154.524 183.442 156.561 182.521 157.996C181.615 159.49 180.423 160.637 178.958 161.468C178.657 161.634 178.279 161.528 178.113 161.226C177.977 161 178.008 160.713 178.174 160.517L178.219 160.471C179.125 159.369 179.985 158.162 180.498 156.924C181.011 155.671 181.208 154.508 180.906 153.271C180.679 151.987 180.075 150.87 179.23 149.859C178.355 148.878 177.147 148.047 175.909 147.428L175.834 147.398C175.532 147.247 175.396 146.87 175.562 146.568C175.683 146.326 175.94 146.206 176.181 146.236L176.166 146.206Z" fill="#CF5D55"/>
<path d="M196.332 171.854C194.204 177.56 190.204 182.24 185.147 185.606C180.091 188.943 174.083 190.739 168.151 191.132C162.204 191.464 156.091 190.603 150.611 188.233C145.087 185.923 140.242 182.391 136.558 177.636C136.136 177.092 136.242 176.322 136.785 175.9C137.268 175.537 137.917 175.568 138.355 175.945L138.46 176.051C140.408 177.756 142.642 179.402 144.981 180.685C147.306 182.029 149.736 183.131 152.242 183.961C157.238 185.682 162.551 186.286 167.804 185.954C173.072 185.622 178.174 184.202 182.732 181.681C185.011 180.428 187.109 178.828 189.026 177.017C190.974 175.266 192.694 173.077 194.038 170.918L194.128 170.782C194.491 170.208 195.245 170.027 195.834 170.39C196.347 170.707 196.543 171.326 196.332 171.869V171.854Z" fill="#320000"/>
<path d="M142.219 140.801C142.219 140.801 141.842 140.635 141.177 140.439C140.513 140.243 139.562 140.031 138.355 139.986C137.751 139.986 137.102 139.956 136.392 140.062C135.698 140.122 134.943 140.318 134.174 140.545C133.434 140.862 132.619 141.133 131.909 141.662C131.245 142.054 130.687 142.598 130.113 143.156C129.615 143.111 129.147 143.081 128.694 142.945C128.242 142.794 127.743 142.673 127.291 142.356C126.808 142.099 126.34 141.752 125.872 141.345C125.404 140.952 124.906 140.469 124.468 140.031L124.377 139.941C124.196 139.76 123.94 139.669 123.668 139.714C123.215 139.79 122.913 140.212 122.989 140.65C123.245 142.311 124.106 143.73 125.434 144.907C126.113 145.451 126.943 145.934 127.849 146.16C127.94 146.191 128.045 146.175 128.136 146.206C128.06 146.372 128 146.523 127.94 146.689C127.502 146.809 127.094 146.915 126.687 146.945C126.204 146.96 125.706 147.021 125.162 146.885C124.619 146.809 124.06 146.643 123.487 146.417C122.913 146.206 122.279 145.934 121.721 145.677L121.6 145.617C121.374 145.511 121.102 145.511 120.86 145.647C120.468 145.874 120.317 146.372 120.543 146.764C121.374 148.244 122.657 149.255 124.302 149.919C125.132 150.206 126.068 150.357 126.989 150.266C127.064 150.266 127.125 150.236 127.2 150.221C127.17 151.051 127.079 153.331 128.272 157.045C129.857 162.011 134.158 165.227 138.37 164.079C142.581 162.932 144.875 157.92 143.517 152.893C142.204 148.093 138.038 145.043 133.992 145.768C134.143 145.617 134.294 145.481 134.475 145.375C134.853 145.028 135.336 144.817 135.774 144.545C136.272 144.379 136.709 144.092 137.208 143.971C137.691 143.805 138.174 143.685 138.626 143.579C139.532 143.383 140.347 143.262 140.906 143.186C141.464 143.111 141.751 143.081 141.796 143.081C142.581 143.111 143.049 142.779 143.17 142.145C143.306 141.511 142.883 140.892 142.249 140.771L142.219 140.801Z" fill="#320000"/>
<path d="M209.585 118.897C209.494 118.67 209.298 118.474 209.026 118.399C208.589 118.278 208.136 118.534 208.015 118.972L207.985 119.093C207.819 119.697 207.638 120.361 207.426 120.935C207.23 121.524 207.004 122.052 206.717 122.52C206.491 123.018 206.113 123.365 205.796 123.728C205.464 124.09 205.057 124.346 204.619 124.664L204.528 124.739C204.423 124.709 204.272 124.679 204.151 124.648C204.257 124.482 204.392 124.331 204.468 124.135C204.86 123.29 205.026 122.354 205.026 121.478C204.951 119.697 204.408 118.142 203.291 116.889C203.125 116.708 202.868 116.587 202.596 116.617C202.143 116.663 201.811 117.055 201.857 117.508V117.629C201.917 118.248 201.977 118.942 201.977 119.546C201.992 120.165 201.977 120.754 201.857 121.282C201.811 121.825 201.585 122.293 201.419 122.731C201.238 123.184 200.468 124.331 200.453 124.362C200.272 124.362 200.106 124.362 199.925 124.377C199.23 124.437 198.475 124.633 197.706 124.86C196.966 125.177 196.151 125.449 195.442 125.977C194.687 126.415 194.053 127.064 193.404 127.698C192.83 128.362 192.347 129.147 191.94 129.887C191.623 130.657 191.245 131.427 191.094 132.181C190.943 132.936 190.792 133.661 190.732 134.355C190.732 135.035 190.536 137.42 191.789 141.375C193.374 146.341 197.675 149.557 201.887 148.41C206.098 147.262 208.392 142.25 207.034 137.239C205.721 132.438 201.54 129.389 197.509 130.113C197.66 129.962 197.811 129.826 197.992 129.721C198.37 129.373 198.853 129.162 199.291 128.89C199.789 128.724 200.226 128.438 200.725 128.317C201.208 128.151 201.691 128.03 202.143 127.924C203.049 127.728 205.479 127.637 205.826 127.517C206.657 127.215 207.517 126.777 208.151 126.083C208.815 125.433 209.283 124.603 209.6 123.788C210.143 122.097 210.174 120.452 209.57 118.882L209.585 118.897Z" fill="#320000"/>
<path d="M94.5661 52.791C95.5925 69.4722 93.3132 86.3194 87.517 102.004C81.766 117.568 72.5736 130.989 62.0981 143.7C60.8151 145.255 63.0944 147.67 64.634 146.251C89.6 123.577 100.679 85.3986 96.6642 52.5042C96.4981 51.1455 94.4906 51.4323 94.5661 52.7759V52.791Z" fill="#056ECC"/>
<path d="M33.6453 214.817C31.9849 224.977 29.6 235.001 26.9736 244.949C25.6302 250.021 24.1359 255.124 22.2189 260.015C20.3019 264.891 17.8868 269.541 16.0604 274.447C15.8038 275.141 16.7849 275.821 17.2377 275.141C20.0755 270.884 22.0679 266.053 24.0604 261.359C26.1736 256.392 28.2868 251.44 30.0981 246.353C33.6755 236.299 35.7283 225.868 36.8 215.27C37.0113 213.232 33.9623 212.779 33.6302 214.817H33.6453Z" fill="#056ECC"/>
<path d="M45.6453 219.935C44.634 234.201 40.6038 248.014 37.917 262.008C37.6604 263.366 39.834 264.016 40.2717 262.672C44.8302 248.95 48 234.85 48.5132 220.358C48.5736 218.516 45.766 218.048 45.6302 219.935H45.6453Z" fill="#056ECC"/>
<path d="M67.2151 232.283C66.7472 240.556 65.9774 248.799 65.5849 257.086C65.3887 261.162 65.1472 265.238 64.8604 269.299C64.5736 273.315 64 277.33 64.317 281.346C64.3925 282.267 65.917 282.553 66.1887 281.602C67.3359 277.587 67.5019 273.405 67.8793 269.254C68.2415 265.193 68.5434 261.132 68.8151 257.071C69.3585 248.829 69.1321 240.556 68.8755 232.299C68.8453 231.363 67.2755 231.348 67.2151 232.299V232.283Z" fill="#056ECC"/>
<path d="M81.8415 227.407C81.6151 226.109 79.7736 226.366 79.8189 227.664C80.3774 244.451 80.8151 261.268 81.2528 278.07C81.283 279.021 82.7774 278.991 82.9132 278.07C84.0604 269.692 84.483 261.389 84.483 252.95C84.483 244.3 83.366 235.891 81.8415 227.407Z" fill="#056ECC"/>
<path d="M94.1736 237.492C93.9623 236.571 93.2227 235.846 92.2264 235.982C91.3208 236.103 90.551 236.994 90.717 237.93C91.2151 240.798 91.5019 243.696 91.5472 246.61C91.5925 249.508 91.5321 252.376 91.6528 255.26C91.7132 256.724 94.1585 257.117 94.5661 255.667C95.0038 254.143 95.3661 252.678 95.5019 251.093C95.6378 249.538 95.6076 247.999 95.5019 246.444C95.3057 243.424 94.8528 240.435 94.1736 237.492Z" fill="#056ECC"/>
<path d="M77.2377 54.9497C73.7208 70.393 68.7698 85.7306 62.0227 100.072C58.6717 107.197 54.8076 114.081 50.3547 120.588C45.917 127.079 40.3472 132.77 35.9849 139.276C34.7472 141.118 36.8906 143.488 38.7774 142.084C45.117 137.389 50.0076 130.174 54.2944 123.652C58.7321 116.904 62.6264 109.794 65.9623 102.427C72.7849 87.3761 76.9057 71.5554 78.7925 55.1611C78.9132 54.1194 77.434 53.9383 77.2076 54.9346L77.2377 54.9497Z" fill="#056ECC"/>
<path d="M76.8302 118.097C78.9736 113.538 44.3623 96.7962 41.7359 103.952C38.6717 112.255 74.0377 124.06 76.8302 118.097Z" fill="#D34FD3"/>
<path d="M83.4264 97.5207C85.5698 92.9617 50.9585 76.2201 48.3321 83.3757C45.2679 91.6785 80.634 103.484 83.4264 97.5207Z" fill="#D34FD3"/>
<path d="M138.868 51.9306C144 59.1767 148.604 66.7549 152.755 74.6049C156.77 82.5152 160.513 90.652 162.732 99.3927L161.464 98.4416C168.181 98.1397 174.943 97.4 181.585 96.2829C184.921 95.7394 188.181 94.9393 191.396 93.9732C194.581 92.9919 197.766 91.7842 200.317 89.7312C200.589 89.5047 200.966 89.55 201.192 89.8067C201.404 90.0633 201.374 90.4407 201.132 90.652C198.475 93.0674 195.215 94.4713 191.985 95.679C188.725 96.8716 185.374 97.717 182.008 98.4114C175.26 99.8305 168.453 100.57 161.57 100.963C160.981 100.993 160.453 100.615 160.302 100.057V100.012C157.977 91.6484 154.566 83.5267 150.626 75.6918C148.694 71.7517 146.642 67.8569 144.483 64.0225C142.34 60.1881 140.166 56.3386 137.842 52.625C137.66 52.3382 137.736 51.9457 138.023 51.7645C138.294 51.5834 138.672 51.6588 138.868 51.9306Z" fill="#056ECC"/>
<path d="M179.698 45.0467C185.343 50.6172 190.385 56.7311 194.868 63.2828C199.351 69.7892 203.064 76.99 206.128 84.1456C206.521 85.0061 206.959 85.8212 207.426 86.3496C207.894 86.878 208.332 87.0591 209.253 87.1497C210.959 87.3158 212.921 87.2101 214.823 86.9685C218.642 86.5308 222.46 85.7307 226.234 84.8249C229.992 83.8889 233.721 82.7416 237.283 81.2622C240.785 79.7979 244.438 78.0166 246.596 75.0728L246.657 74.9973C246.853 74.7256 247.245 74.6652 247.517 74.8615C247.789 75.0577 247.849 75.42 247.668 75.6918C245.313 79.2997 241.585 81.2471 238.053 82.9983C234.415 84.6739 230.642 85.942 226.823 87.0289C223.004 88.1159 219.094 88.9159 215.125 89.4292C213.132 89.6858 211.14 89.8519 208.936 89.6557C207.909 89.6406 206.355 89.082 205.555 88.0706C204.709 87.1195 204.257 86.1685 203.804 85.2476C202.159 81.5642 200.694 78.0619 198.853 74.6199C197.057 71.1629 195.049 67.8418 192.966 64.5509C190.868 61.2599 188.619 58.0746 186.249 54.9799C183.909 51.855 181.449 48.7905 178.838 45.9223C178.611 45.6506 178.626 45.2581 178.883 45.0316C179.125 44.8052 179.502 44.8203 179.728 45.0467H179.698Z" fill="#056ECC"/>
</g>
<defs>
<clipPath id="clip0_2_379">
<rect width="304" height="293" fill="white"/>
</clipPath>
</defs>
</svg>
