<svg width="308" height="109" viewBox="0 0 308 109" fill="none" xmlns="http://www.w3.org/2000/svg">
<rect width="308" height="109" rx="50" fill="#67B9C1"/>
<path d="M79.792 41.144C79.536 41.592 79.2587 41.9227 78.96 42.136C78.6827 42.328 78.3307 42.424 77.904 42.424C77.456 42.424 76.9653 42.264 76.432 41.944C75.92 41.6027 75.3013 41.2293 74.576 40.824C73.8507 40.4187 72.9973 40.056 72.016 39.736C71.056 39.3947 69.9147 39.224 68.592 39.224C67.3973 39.224 66.352 39.3733 65.456 39.672C64.56 39.9493 63.8027 40.344 63.184 40.856C62.5867 41.368 62.1387 41.9867 61.84 42.712C61.5413 43.416 61.392 44.1947 61.392 45.048C61.392 46.136 61.6907 47.0427 62.288 47.768C62.9067 48.4933 63.7173 49.112 64.72 49.624C65.7227 50.136 66.864 50.5947 68.144 51C69.424 51.4053 70.736 51.8427 72.08 52.312C73.424 52.76 74.736 53.2933 76.016 53.912C77.296 54.5093 78.4373 55.2773 79.44 56.216C80.4427 57.1333 81.2427 58.264 81.84 59.608C82.4587 60.952 82.768 62.584 82.768 64.504C82.768 66.5947 82.4053 68.5573 81.68 70.392C80.976 72.2053 79.9307 73.7947 78.544 75.16C77.1787 76.504 75.504 77.5707 73.52 78.36C71.536 79.128 69.264 79.512 66.704 79.512C65.232 79.512 63.7813 79.3627 62.352 79.064C60.9227 78.7867 59.5467 78.3813 58.224 77.848C56.9227 77.3147 55.696 76.6747 54.544 75.928C53.392 75.1813 52.368 74.3493 51.472 73.432L54 69.304C54.2133 69.0053 54.4907 68.76 54.832 68.568C55.1733 68.3547 55.536 68.248 55.92 68.248C56.4533 68.248 57.0293 68.472 57.648 68.92C58.2667 69.3467 59.0027 69.8267 59.856 70.36C60.7093 70.8933 61.7013 71.384 62.832 71.832C63.984 72.2587 65.36 72.472 66.96 72.472C69.4133 72.472 71.312 71.896 72.656 70.744C74 69.5707 74.672 67.896 74.672 65.72C74.672 64.504 74.3627 63.512 73.744 62.744C73.1467 61.976 72.3467 61.336 71.344 60.824C70.3413 60.2907 69.2 59.8427 67.92 59.48C66.64 59.1173 65.3387 58.7227 64.016 58.296C62.6933 57.8693 61.392 57.3573 60.112 56.76C58.832 56.1627 57.6907 55.384 56.688 54.424C55.6853 53.464 54.8747 52.2693 54.256 50.84C53.6587 49.3893 53.36 47.608 53.36 45.496C53.36 43.8107 53.6907 42.168 54.352 40.568C55.0347 38.968 56.016 37.5493 57.296 36.312C58.576 35.0747 60.1547 34.0827 62.032 33.336C63.9093 32.5893 66.064 32.216 68.496 32.216C71.2267 32.216 73.744 32.6427 76.048 33.496C78.352 34.3493 80.3147 35.544 81.936 37.08L79.792 41.144ZM126.437 39.8H112.485V79H103.877V39.8H89.925V32.728H126.437V39.8ZM156.28 61.528L150.648 46.136C150.371 45.4533 150.083 44.6427 149.784 43.704C149.485 42.7653 149.187 41.752 148.888 40.664C148.611 41.752 148.323 42.776 148.024 43.736C147.725 44.6747 147.437 45.496 147.16 46.2L141.56 61.528H156.28ZM171.48 79H164.824C164.077 79 163.469 78.8187 163 78.456C162.531 78.072 162.179 77.6027 161.944 77.048L158.488 67.608H139.32L135.864 77.048C135.693 77.5387 135.363 77.9867 134.872 78.392C134.381 78.7973 133.773 79 133.048 79H126.328L144.536 32.728H153.304L171.48 79ZM194.093 54.744C195.715 54.744 197.123 54.5413 198.317 54.136C199.533 53.7307 200.525 53.176 201.293 52.472C202.083 51.7467 202.669 50.8933 203.053 49.912C203.437 48.9307 203.629 47.8533 203.629 46.68C203.629 44.3333 202.851 42.5307 201.293 41.272C199.757 40.0133 197.4 39.384 194.221 39.384H188.717V54.744H194.093ZM216.237 79H208.461C206.989 79 205.923 78.424 205.261 77.272L195.533 62.456C195.171 61.9013 194.765 61.5067 194.317 61.272C193.891 61.0373 193.251 60.92 192.397 60.92H188.717V79H180.109V32.728H194.221C197.357 32.728 200.045 33.0587 202.285 33.72C204.547 34.36 206.392 35.2667 207.821 36.44C209.272 37.6133 210.339 39.0213 211.021 40.664C211.704 42.2853 212.045 44.0773 212.045 46.04C212.045 47.5973 211.811 49.0693 211.341 50.456C210.893 51.8427 210.232 53.1013 209.357 54.232C208.504 55.3627 207.437 56.3547 206.157 57.208C204.899 58.0613 203.459 58.7333 201.837 59.224C202.392 59.544 202.904 59.928 203.373 60.376C203.843 60.8027 204.269 61.3147 204.653 61.912L216.237 79ZM256.207 39.8H242.255V79H233.647V39.8H219.695V32.728H256.207V39.8Z" fill="white"/>
</svg>
